<svg width="1417" height="978" viewBox="0 0 1417 978" fill="none" xmlns="http://www.w3.org/2000/svg">
<rect width="93.2153" height="15.2799" rx="2" transform="matrix(0.521562 0.853213 0.853213 -0.521562 318.832 119.466)" fill="#FED75A"/>
<rect width="93.2153" height="15.2799" rx="2" transform="matrix(-0.710673 0.703522 0.703522 0.710673 490.887 901.431)" fill="#FED75A"/>
<rect width="93.2153" height="15.2799" rx="2" transform="matrix(-0.455719 -0.890124 -0.890124 0.455719 951.219 155.248)" fill="#FA78C3"/>
<rect width="58.2683" height="9.55135" rx="2" transform="matrix(0.484561 -0.874757 -0.874757 -0.484561 735.5 710.596)" fill="#FA78C3"/>
<circle cx="18.5" cy="72.251" r="18.5" fill="#FED75A"/>
<circle cx="1213.72" cy="155.749" r="30.5" fill="#FA78C3"/>
<ellipse cx="502.145" cy="598.498" rx="19" ry="18.5" fill="#FA78C3"/>
<path d="M864.824 673.717C886.595 669.964 901.223 649.409 897.499 627.806C893.774 606.203 873.107 591.734 851.336 595.487C829.566 599.24 814.937 619.796 818.662 641.398C822.387 663.001 843.054 677.471 864.824 673.717Z" fill="#2D2D2D"/>
<path d="M856.583 628.558C847.089 630.195 840.617 638.627 842.128 647.391L864.409 673.946L856.584 628.558L856.583 628.558Z" fill="#C7EAFB"/>
<path d="M876.509 641.462L876.509 641.462C874.998 632.699 866.076 626.921 856.582 628.558L864.407 673.945L876.51 641.462L876.509 641.462Z" fill="#6E00FF"/>
<path d="M870.177 606.029C870.221 605.728 870.624 605.659 870.765 605.929L874.42 612.935C874.482 613.056 874.616 613.122 874.75 613.099L882.571 611.75C882.87 611.699 883.061 612.06 882.849 612.277L877.333 617.94C877.238 618.037 877.217 618.184 877.28 618.304L880.975 625.312C881.117 625.581 880.832 625.873 880.56 625.739L873.464 622.25C873.343 622.19 873.197 622.215 873.103 622.312L867.543 627.988C867.331 628.205 866.966 628.024 867.009 627.725L868.145 619.879C868.164 619.745 868.095 619.613 867.973 619.553L860.88 616.065C860.608 615.931 860.666 615.527 860.965 615.476L868.787 614.127C868.921 614.104 869.024 613.998 869.044 613.863L870.177 606.029Z" fill="#FFE500"/>
<path d="M835.842 611.948C835.886 611.647 836.289 611.579 836.43 611.848L840.085 618.855C840.148 618.975 840.281 619.041 840.415 619.018L848.237 617.67C848.535 617.618 848.726 617.979 848.514 618.197L842.998 623.859C842.903 623.956 842.882 624.103 842.945 624.223L846.64 631.232C846.782 631.5 846.497 631.793 846.225 631.659L839.13 628.169C839.008 628.11 838.862 628.135 838.768 628.231L833.208 633.908C832.996 634.124 832.631 633.944 832.674 633.644L833.81 625.799C833.829 625.664 833.76 625.533 833.638 625.473L826.545 621.984C826.273 621.851 826.331 621.447 826.63 621.395L834.452 620.046C834.586 620.023 834.689 619.917 834.709 619.783L835.842 611.948Z" fill="#FFE500"/>
<path d="M893.854 610.38C893.5 609.808 893.62 609.064 894.134 608.631L902.474 601.616C903.381 600.853 904.763 601.143 905.287 602.206L906.259 604.178C906.72 605.114 906.305 606.245 905.348 606.66L895.546 610.912C894.929 611.18 894.208 610.953 893.854 610.38Z" fill="#FFE500"/>
<path d="M806.564 624.668C806.659 625.334 806.252 625.968 805.607 626.159L795.158 629.254C794.022 629.591 792.871 628.772 792.816 627.588L792.714 625.392C792.665 624.35 793.498 623.479 794.542 623.481L805.225 623.504C805.898 623.506 806.469 624.001 806.564 624.668Z" fill="#FFE500"/>
<path d="M815.461 614.344C815.13 614.855 814.489 615.068 813.918 614.856L796.835 608.523C795.64 608.08 795.255 606.58 796.089 605.616L797.727 603.725C798.311 603.049 799.298 602.896 800.06 603.362L815.048 612.528C815.672 612.91 815.859 613.731 815.461 614.344Z" fill="#FFE500"/>
<path d="M906.648 614.957C906.728 614.243 907.333 613.704 908.051 613.706L915.362 613.725C916.503 613.728 917.361 614.765 917.152 615.887L916.795 617.797C916.583 618.929 915.387 619.585 914.318 619.155L907.522 616.421C906.935 616.184 906.577 615.585 906.648 614.957Z" fill="#FFE500"/>
<path d="M815.87 627.578C816.448 628.004 816.613 628.797 816.253 629.418L812.589 635.744C812.017 636.731 810.689 636.958 809.822 636.216L808.345 634.954C807.469 634.205 807.497 632.842 808.404 632.13L814.165 627.605C814.663 627.214 815.36 627.203 815.87 627.578Z" fill="#FFE500"/>
<path d="M1122.24 631.322C1143.41 639.72 1167.38 629.365 1175.78 608.195C1184.18 587.024 1173.83 563.054 1152.65 554.657C1131.48 546.259 1107.51 556.613 1099.12 577.784C1090.72 598.954 1101.07 622.924 1122.24 631.322Z" fill="#2D2D2D"/>
<path d="M1148.4 605.843C1151.77 597.027 1147.43 586.969 1138.71 583.379L1106.76 586.864C1105.84 586.964 1105.68 588.254 1106.55 588.61L1148.4 605.844L1148.4 605.843Z" fill="#C7EAFB"/>
<path d="M1125.92 616.222L1125.92 616.222C1134.64 619.812 1144.44 615.577 1147.81 606.761L1105.96 589.528C1105.09 589.171 1104.35 590.221 1104.96 590.949L1125.92 616.223L1125.92 616.222Z" fill="#6E00FF"/>
<path d="M1129.71 564.353C1135.54 566.668 1138.41 573.253 1136.11 579.053C1135.82 579.781 1135.02 580.125 1134.29 579.834C1133.56 579.544 1133.21 578.743 1133.5 578.015C1135.23 573.646 1133.05 568.687 1128.68 566.954C1124.31 565.221 1119.31 567.362 1117.59 571.705C1117.3 572.434 1116.5 572.777 1115.77 572.487C1115.03 572.196 1114.68 571.396 1114.97 570.668C1117.27 564.868 1123.88 562.039 1129.71 564.353Z" fill="white"/>
<path d="M1162.28 577.269C1168.11 579.583 1170.98 586.169 1168.68 591.968C1168.39 592.696 1167.59 593.04 1166.86 592.75C1166.12 592.459 1165.77 591.659 1166.06 590.93C1167.8 586.561 1165.62 581.603 1161.25 579.87C1156.88 578.137 1151.88 580.278 1150.16 584.621C1149.87 585.349 1149.07 585.693 1148.33 585.402C1147.6 585.112 1147.25 584.311 1147.54 583.583C1149.84 577.784 1156.44 574.955 1162.28 577.269Z" fill="white"/>
<path d="M1092.71 577.931C1093.86 575.025 1092.45 571.705 1089.52 570.543C1086.59 569.381 1083.3 570.805 1082.14 573.736C1080.97 576.666 1082.4 579.961 1085.33 581.123L1087.09 581.822L1104.69 588.804" stroke="#00C800" stroke-width="1.75802" stroke-linecap="round" stroke-linejoin="round"/>
<path d="M1174.89 582.242L1146.79 554.318L1192.14 538.759L1174.89 582.242Z" fill="#00C800" stroke="#00C800" stroke-width="0.0775596" stroke-linecap="round" stroke-linejoin="round"/>
<path d="M1189.17 546.273C1193.32 547.918 1198.01 545.889 1199.66 541.741C1201.3 537.592 1199.27 532.895 1195.13 531.249C1190.98 529.604 1186.28 531.633 1184.63 535.781C1182.99 539.93 1185.02 544.627 1189.17 546.273Z" fill="#6E00FF"/>
<path d="M1190.52 592.656C1192.27 594.087 1194.85 593.827 1196.29 592.074C1197.72 590.321 1197.46 587.74 1195.7 586.309C1193.95 584.877 1191.37 585.138 1189.94 586.891C1188.51 588.643 1188.77 591.225 1190.52 592.656Z" fill="#FF5A00"/>
<path d="M1170.44 612.123C1172.19 613.554 1174.77 613.294 1176.2 611.541C1177.63 609.788 1177.37 607.207 1175.62 605.776C1173.87 604.344 1171.29 604.605 1169.85 606.358C1168.42 608.111 1168.68 610.692 1170.44 612.123Z" fill="#FF00FF"/>
<path d="M1115.83 546.699C1117.91 547.522 1120.26 546.507 1121.08 544.433C1121.9 542.359 1120.89 540.01 1118.81 539.187C1116.74 538.364 1114.39 539.379 1113.57 541.453C1112.75 543.527 1113.76 545.876 1115.83 546.699Z" fill="#0082FF"/>
<path d="M1133.14 544.732C1135.22 545.555 1137.56 544.564 1138.37 542.519C1139.18 540.474 1138.16 538.149 1136.08 537.326C1134.01 536.503 1131.67 537.494 1130.86 539.539C1130.05 541.584 1131.07 543.909 1133.14 544.732Z" fill="#00C800"/>
<path d="M1381.23 424.908C1400.71 419.71 1412.28 399.709 1407.08 380.234C1401.88 360.76 1381.88 349.188 1362.41 354.386C1342.93 359.585 1331.36 379.586 1336.56 399.06C1341.76 418.534 1361.76 430.107 1381.23 424.908Z" fill="#2D2D2D"/>
<path d="M1371.08 383.916C1362.06 386.483 1356.33 394.903 1358.29 402.721L1381.21 424.408L1371.08 383.916L1371.08 383.916Z" fill="#C7EAFB"/>
<path d="M1390.15 393.927L1390.15 393.927C1388.19 386.109 1379.29 381.852 1370.27 384.419L1380.41 424.911L1390.15 393.927L1390.15 393.927Z" fill="#6E00FF"/>
<path d="M1387.63 359.827C1386.87 358.924 1386.3 357.794 1386.01 356.556C1385.31 353.481 1387.91 347.378 1389.92 343.077C1390.04 342.809 1390.15 342.614 1390.18 342.487C1390.27 342.143 1390.53 341.885 1390.88 341.799C1391.22 341.713 1391.62 341.871 1391.79 342.104C1391.79 342.104 1391.82 342.144 1391.84 342.163C1391.95 342.301 1392.26 342.508 1392.62 342.81C1396.66 346.125 1400.87 349.895 1401.52 352.745C1401.99 354.808 1401.61 356.939 1400.46 358.756C1399.31 360.573 1397.57 361.85 1395.49 362.364C1392.46 363.107 1389.47 362.043 1387.61 359.844L1387.63 359.827ZM1387.8 356.113C1388.54 359.394 1391.8 361.38 1395.11 360.566C1396.69 360.164 1398.06 359.174 1398.93 357.798C1399.82 356.405 1400.09 354.764 1399.74 353.171C1399.15 350.509 1393.37 345.778 1391.46 344.202L1391.42 344.163C1388.63 350.233 1387.41 354.259 1387.82 356.096L1387.8 356.113Z" fill="#0082FF"/>
<path d="M1351.19 373.381C1356.55 371.948 1362.07 375.115 1363.49 380.45C1363.67 381.12 1363.28 381.788 1362.61 381.968C1361.93 382.148 1361.26 381.763 1361.08 381.093C1360.01 377.074 1355.84 374.7 1351.83 375.773C1347.81 376.846 1345.38 381.003 1346.45 384.999C1346.63 385.668 1346.24 386.336 1345.57 386.516C1344.89 386.696 1344.22 386.311 1344.04 385.641C1342.62 380.306 1345.82 374.813 1351.19 373.381Z" fill="white"/>
<path d="M1381.14 365.389C1386.51 363.956 1392.02 367.123 1393.44 372.458C1393.62 373.128 1393.23 373.796 1392.56 373.975C1391.88 374.155 1391.21 373.77 1391.04 373.101C1389.96 369.081 1385.8 366.708 1381.78 367.781C1377.76 368.854 1375.34 373.011 1376.4 377.006C1376.58 377.676 1376.19 378.344 1375.52 378.524C1374.85 378.704 1374.18 378.319 1374 377.649C1372.57 372.314 1375.77 366.821 1381.14 365.389Z" fill="white"/>
<path d="M174.177 199.58C193.483 192.462 203.363 171.042 196.246 151.736C189.128 132.431 167.708 122.55 148.402 129.668C129.096 136.786 119.216 158.206 126.333 177.512C133.451 196.817 154.872 206.698 174.177 199.58Z" fill="#2D2D2D"/>
<path d="M160.031 158.947C151.063 162.401 146.007 171.472 148.737 179.208L174.171 199.01L160.031 158.947L160.031 158.947Z" fill="#C7EAFB"/>
<path d="M180.373 167.279L180.372 167.279C177.642 159.543 168.159 156.071 159.192 159.525L173.332 199.588L180.373 167.278L180.373 167.279Z" fill="#6E00FF"/>
<path d="M138.811 150.051C144.131 148.09 150.031 150.79 151.981 156.079C152.226 156.743 151.894 157.458 151.226 157.704C150.558 157.951 149.84 157.622 149.596 156.958C148.127 152.974 143.669 150.954 139.685 152.423C135.701 153.892 133.63 158.346 135.09 162.306C135.335 162.97 135.003 163.686 134.335 163.932C133.667 164.178 132.95 163.85 132.705 163.186C130.755 157.897 133.49 152.012 138.811 150.051Z" fill="white"/>
<path d="M168.506 139.098C173.826 137.136 179.727 139.837 181.677 145.126C181.921 145.79 181.589 146.505 180.921 146.751C180.253 146.998 179.536 146.669 179.291 146.005C177.822 142.021 173.364 140.001 169.38 141.47C165.396 142.938 163.325 147.393 164.786 151.353C165.031 152.017 164.698 152.732 164.03 152.979C163.362 153.225 162.645 152.897 162.4 152.233C160.45 146.944 163.186 141.059 168.506 139.098Z" fill="white"/>
<path d="M200.818 139.739C198.306 140.666 196.993 143.459 197.933 146.007C197.005 143.491 194.214 142.174 191.669 143.113C189.124 144.051 187.844 146.832 188.783 149.381C191.816 157.607 202.956 159.73 202.956 159.73C202.956 159.73 210.051 150.884 207.018 142.658C206.09 140.141 203.299 138.825 200.754 139.763L200.818 139.739Z" fill="#FF5A00"/>
<path d="M208.084 118.847C206.09 119.583 205.049 121.8 205.795 123.825C205.058 121.826 202.843 120.78 200.823 121.525C198.803 122.269 197.787 124.478 198.533 126.502C200.943 133.037 209.785 134.725 209.785 134.725C209.785 134.725 215.415 127.701 213.005 121.167C212.268 119.168 210.053 118.122 208.033 118.866L208.084 118.847Z" fill="#FF5A00"/>
<path d="M187.845 109.406C186.17 110.024 185.296 111.888 185.923 113.589C185.304 111.909 183.442 111.029 181.746 111.655C180.049 112.28 179.196 114.136 179.824 115.838C181.849 121.331 189.277 122.753 189.277 122.753C189.277 122.753 194.005 116.85 191.98 111.356C191.361 109.676 189.499 108.796 187.802 109.422L187.845 109.406Z" fill="#FF5A00"/>
<path d="M486.221 71.6502L490.728 58.6024L485.074 57.6372L482.367 65.4701L471.287 63.9278L467.68 74.3685L456.599 72.8269L452.091 85.8744L457.745 86.8407L460.452 79.0059L471.534 80.5475L475.141 70.1079L486.221 71.6502Z" fill="#FF5A00"/>
<path d="M115.654 232.899L125.803 233.055L125.181 228.884L119.088 228.789L117.625 220.694L109.503 220.568L108.039 212.473L97.89 212.315L98.5115 216.487L104.606 216.582L106.07 224.677L114.191 224.804L115.654 232.899Z" fill="#FF5A00"/>
<path d="M1332.08 674.561L1342.23 674.717L1341.61 670.546L1335.51 670.451L1334.05 662.356L1325.93 662.23L1324.47 654.134L1314.32 653.977L1314.94 658.149L1321.03 658.244L1322.5 666.339L1330.62 666.466L1332.08 674.561Z" fill="#FF5A00"/>
<path d="M421.506 625.774L430.063 620.314L427.246 617.176L422.108 620.453L416.428 614.502L409.581 618.871L403.899 612.921L395.342 618.379L398.158 621.519L403.297 618.241L408.978 624.191L415.826 619.824L421.506 625.774Z" fill="#0082FF"/>
<path d="M288.869 532.435C276.433 528.035 263.997 523.635 251.564 519.239C249.756 518.598 247.947 517.958 246.135 517.32C243.339 516.33 242.331 520.839 245.103 521.817C257.539 526.217 269.974 530.617 282.408 535.013C284.216 535.653 286.024 536.294 287.836 536.932C290.632 537.922 291.641 533.413 288.869 532.435Z" fill="#6E00FF"/>
<path d="M294.826 545.843C275.762 539.149 256.7 532.449 237.636 525.756C234.909 524.798 232.18 523.837 229.454 522.88C226.727 521.922 225.645 526.401 228.421 527.377C247.485 534.07 266.548 540.77 285.612 547.464C288.338 548.421 291.067 549.383 293.794 550.34C296.52 551.298 297.602 546.818 294.826 545.843Z" fill="#6E00FF"/>
<path d="M706.742 137.017L716.219 140.651L717.069 136.52L711.379 134.337L712.787 126.233L705.204 123.323L706.611 115.218L697.134 111.581L696.284 115.713L701.975 117.897L700.567 126.002L708.15 128.912L706.742 137.017Z" fill="#F8B552"/>
<path d="M1338.4 176.646C1340.14 177.199 1342 176.234 1342.56 174.492C1343.11 172.75 1342.14 170.889 1340.4 170.337C1338.66 169.784 1336.8 170.748 1336.25 172.491C1335.69 174.233 1336.66 176.093 1338.4 176.646Z" fill="#FF00FF"/>
<path d="M1036.12 486.324C1041.05 486.324 1045.04 482.33 1045.04 477.403C1045.04 472.476 1041.05 468.482 1036.12 468.482C1031.19 468.482 1027.2 472.476 1027.2 477.403C1027.2 482.33 1031.19 486.324 1036.12 486.324Z" fill="#0082FF"/>
<path d="M264.258 325.589C269.185 325.589 273.179 321.651 273.179 316.794C273.179 311.937 269.185 307.999 264.258 307.999C259.331 307.999 255.337 311.937 255.337 316.794C255.337 321.651 259.331 325.589 264.258 325.589Z" fill="#00C800"/>
<path d="M1268.71 78.2851C1273.19 79.7045 1277.97 77.2274 1279.39 72.7525C1280.8 68.2776 1278.33 63.4994 1273.85 62.08C1269.38 60.6605 1264.6 63.1374 1263.18 67.6123C1261.76 72.0873 1264.24 76.8656 1268.71 78.2851Z" fill="#FF5A00"/>
<path d="M1268.71 465.773C1273.19 467.193 1277.97 464.716 1279.39 460.241C1280.8 455.766 1278.33 450.988 1273.85 449.568C1269.38 448.149 1264.6 450.626 1263.18 455.101C1261.76 459.576 1264.24 464.354 1268.71 465.773Z" fill="#FF5A00"/>
<path d="M1344.83 252.639C1360.24 248.202 1369.13 232.118 1364.69 216.714C1360.25 201.31 1344.17 192.42 1328.76 196.857C1313.36 201.294 1304.47 217.378 1308.91 232.782C1313.34 248.186 1329.43 257.076 1344.83 252.639Z" fill="#2D2D2D"/>
<path d="M1324.04 225.503C1328.45 224.141 1331.12 219.651 1330 215.474C1328.87 211.298 1324.38 209.016 1319.97 210.378C1315.55 211.74 1312.89 216.23 1314.01 220.406C1315.13 224.583 1319.62 226.865 1324.04 225.503Z" fill="white"/>
<path d="M1323.02 221.726C1325.23 221.045 1326.56 218.8 1326 216.712C1325.44 214.623 1323.19 213.483 1320.99 214.164C1318.78 214.844 1317.45 217.089 1318.01 219.178C1318.57 221.266 1320.81 222.407 1323.02 221.726Z" fill="#231F20"/>
<path d="M1347.73 218.681C1352.15 217.319 1354.82 212.829 1353.69 208.653C1352.57 204.476 1348.08 202.194 1343.66 203.556C1339.25 204.918 1336.58 209.408 1337.7 213.585C1338.83 217.761 1343.32 220.043 1347.73 218.681Z" fill="white"/>
<path d="M1346.72 214.904C1348.92 214.223 1350.26 211.978 1349.7 209.89C1349.13 207.802 1346.89 206.661 1344.68 207.342C1342.48 208.023 1341.14 210.268 1341.7 212.356C1342.26 214.444 1344.51 215.585 1346.72 214.904Z" fill="#231F20"/>
<path d="M1336.14 220.217C1329 222.401 1324.57 229.182 1326.25 235.363L1344.83 252.229L1336.14 220.217L1336.14 220.217Z" fill="#C7EAFB"/>
<path d="M1351.46 227.872L1351.46 227.872C1349.78 221.691 1342.63 218.45 1335.49 220.633L1344.18 252.645L1351.46 227.871L1351.46 227.872Z" fill="#6E00FF"/>
<path d="M1313.19 220.503C1311.78 215.63 1314.6 210.543 1319.47 209.14C1324.34 207.737 1329.43 210.549 1330.83 215.421L1313.19 220.503L1313.19 220.503Z" fill="#FA03FF"/>
<path d="M1336.88 213.683C1335.48 208.811 1338.29 203.724 1343.16 202.321C1348.03 200.917 1353.12 203.73 1354.52 208.602L1336.88 213.684L1336.88 213.683Z" fill="#FA03FF"/>
<path d="M1082.05 223.494C1086.98 223.494 1090.97 219.5 1090.97 214.573C1090.97 209.646 1086.98 205.652 1082.05 205.652C1077.12 205.652 1073.13 209.646 1073.13 214.573C1073.13 219.5 1077.12 223.494 1082.05 223.494Z" fill="#0082FF"/>
<path d="M1082.05 103.26C1086.98 103.26 1090.97 99.3224 1090.97 94.465C1090.97 89.6076 1086.98 85.6699 1082.05 85.6699C1077.12 85.6699 1073.13 89.6076 1073.13 94.465C1073.13 99.3224 1077.12 103.26 1082.05 103.26Z" fill="#00C800"/>
<path d="M1389.07 637.588C1393.99 637.588 1397.99 633.65 1397.99 628.793C1397.99 623.935 1393.99 619.998 1389.07 619.998C1384.14 619.998 1380.14 623.935 1380.14 628.793C1380.14 633.65 1384.14 637.588 1389.07 637.588Z" fill="#00C800"/>
<path d="M1100.91 709.048C1101.45 708.472 1102.41 708.924 1102.34 709.722L1101.68 717.766C1101.65 718.126 1101.85 718.468 1102.17 718.62L1109.84 722.205C1110.58 722.555 1110.45 723.675 1109.65 723.809L1101.77 725.117C1101.4 725.178 1101.12 725.488 1101.09 725.871L1100.48 733.774C1100.42 734.585 1099.38 734.828 1098.95 734.131L1094.53 726.882C1094.35 726.587 1094.01 726.43 1093.68 726.484L1085.45 727.827C1084.67 727.955 1084.16 726.987 1084.7 726.403L1090.02 720.691C1090.28 720.415 1090.32 719.993 1090.12 719.664L1085.85 712.671C1085.41 711.957 1086.14 711.114 1086.88 711.465L1094.55 715.051C1094.87 715.202 1095.25 715.13 1095.49 714.871L1100.91 709.048Z" fill="#F8B552"/>
<path d="M555.365 643.048C555.902 642.472 556.862 642.924 556.797 643.722L556.14 651.766C556.11 652.126 556.308 652.468 556.631 652.62L564.293 656.205C565.041 656.555 564.91 657.675 564.106 657.809L556.227 659.117C555.856 659.178 555.577 659.488 555.547 659.871L554.938 667.774C554.875 668.585 553.836 668.828 553.411 668.131L548.985 660.882C548.805 660.587 548.471 660.43 548.139 660.484L539.911 661.827C539.127 661.955 538.617 660.987 539.161 660.403L544.478 654.691C544.735 654.415 544.775 653.993 544.574 653.664L540.305 646.671C539.869 645.957 540.592 645.114 541.341 645.465L549.005 649.051C549.327 649.202 549.704 649.13 549.945 648.871L555.365 643.048Z" fill="#F8B552"/>
<path d="M1231.32 417.935C1231.86 417.358 1232.82 417.81 1232.75 418.609L1232.49 421.84C1232.46 422.199 1232.66 422.542 1232.98 422.694L1236 424.105C1236.75 424.455 1236.62 425.575 1235.81 425.709L1232.79 426.21C1232.42 426.272 1232.14 426.581 1232.11 426.964L1231.87 430.045C1231.81 430.855 1230.77 431.099 1230.35 430.402L1228.55 427.465C1228.37 427.17 1228.04 427.013 1227.71 427.067L1224.36 427.614C1223.58 427.742 1223.07 426.773 1223.61 426.189L1225.69 423.958C1225.94 423.682 1225.98 423.26 1225.78 422.931L1224.15 420.251C1223.71 419.537 1224.43 418.694 1225.18 419.044L1228.2 420.457C1228.52 420.608 1228.9 420.536 1229.14 420.277L1231.32 417.935Z" fill="#F8B552"/>
<path d="M779.057 97.9984C797.267 106.214 818.689 98.1126 826.905 79.9025C835.121 61.6923 827.019 40.2697 808.809 32.0536C790.599 23.8376 769.177 31.9395 760.961 50.1496C752.744 68.3598 760.846 89.7824 779.057 97.9984Z" fill="#2D2D2D"/>
<path d="M781.511 55.565C786.744 58.0141 792.724 56.0047 794.868 51.0769C797.011 46.1491 794.506 40.1689 789.273 37.7197C784.039 35.2706 778.059 37.2799 775.916 42.2078C773.772 47.1356 776.277 53.1158 781.511 55.565Z" fill="white"/>
<path d="M783.163 51.7215C786.022 53.0232 789.362 51.7939 790.622 48.9758C791.882 46.1578 790.585 42.8181 787.726 41.5165C784.867 40.2149 781.527 41.4441 780.267 44.2622C779.007 47.0802 780.303 50.4199 783.163 51.7215Z" fill="black"/>
<path d="M781.866 45.5868C784.039 46.6039 786.522 45.7694 787.413 43.7231C788.303 41.6768 787.263 39.1935 785.089 38.1765C782.916 37.1594 780.433 37.9938 779.543 40.0401C778.653 42.0865 779.693 44.5698 781.866 45.5868Z" fill="white"/>
<path d="M809.543 68.2119C814.776 70.6611 820.756 68.6517 822.9 63.7239C825.044 58.7961 822.539 52.8158 817.305 50.3667C812.072 47.9176 806.091 49.9269 803.948 54.8547C801.804 59.7826 804.309 65.7628 809.543 68.2119Z" fill="white"/>
<path d="M811.196 64.3675C814.055 65.6692 817.395 64.4399 818.655 61.6218C819.915 58.8038 818.619 55.4641 815.759 54.1625C812.9 52.8609 809.561 54.0901 808.3 56.9082C807.04 59.7262 808.337 63.0659 811.196 64.3675Z" fill="black"/>
<path d="M809.898 58.2338C812.071 59.2508 814.555 58.4164 815.445 56.3701C816.335 54.3238 815.295 51.8405 813.122 50.8234C810.948 49.8064 808.465 50.6408 807.575 52.6871C806.685 54.7334 807.725 57.2168 809.898 58.2338Z" fill="white"/>
<path d="M768.388 73.2591C775.839 76.6211 784.606 73.3058 787.968 65.8542C791.33 58.4026 788.014 49.6364 780.563 46.2744C773.111 42.9124 764.345 46.2277 760.983 53.6793C757.621 61.131 760.936 69.8971 768.388 73.2591Z" fill="#2D2D2D"/>
<path d="M804.749 89.6644C812.201 93.0264 820.967 89.7111 824.329 82.2595C827.691 74.8079 824.376 66.0417 816.924 62.6797C809.472 59.3177 800.706 62.633 797.344 70.0846C793.982 77.5362 797.297 86.3024 804.749 89.6644Z" fill="#2D2D2D"/>
<path d="M796.355 60.2278C787.912 56.3005 778.481 59.0299 775.289 66.3237L779.825 98.003L796.355 60.228L796.355 60.2278Z" fill="#C7EAFB"/>
<path d="M805.088 79.9855L805.087 79.9853C808.279 72.6914 804.023 63.5947 795.581 59.6675L779.051 97.4424L805.089 79.9858L805.088 79.9855Z" fill="#6E00FF"/>
<path d="M833.284 67.3586C833.31 66.7451 833.781 66.243 834.391 66.1788L843.192 65.253C844.826 65.0812 846.188 66.4873 845.964 68.1147C845.766 69.547 844.411 70.5232 842.99 70.2568L834.293 68.6262C833.688 68.5129 833.259 67.973 833.284 67.3586Z" fill="#F8B552"/>
<path d="M765.702 35.6606C765.376 36.3299 764.609 36.6594 763.899 36.4348L753.671 33.1967C751.772 32.5956 750.94 30.3727 751.978 28.6729C752.892 27.1769 754.871 26.749 756.321 27.734L765.196 33.7629C765.812 34.1819 766.028 34.9901 765.702 35.6606Z" fill="#F8B552"/>
<path d="M842.927 52.9379C842.865 52.2029 843.331 51.5268 844.04 51.3241L860.02 46.7582C862.232 46.1261 864.415 47.8416 864.324 50.1405C864.256 51.8776 862.88 53.2791 861.145 53.3804L844.554 54.3486C843.719 54.3973 842.997 53.7716 842.927 52.9379Z" fill="#F8B552"/>
<path d="M762.948 22.0037C762.437 22.2207 761.843 22.0536 761.519 21.6018L752.674 9.2442C751.592 7.73141 752.353 5.60279 754.149 5.11961C755.408 4.78113 756.726 5.40253 757.267 6.5886L763.565 20.4188C763.842 21.0266 763.563 21.743 762.948 22.0037Z" fill="#F8B552"/>
<path d="M838.726 77.5143C839.298 76.8443 840.283 76.7122 841.012 77.2076L847.451 81.5861C849.117 82.7192 849.348 85.0859 847.931 86.5193C846.501 87.9672 844.103 87.744 842.964 86.0569L838.608 79.6026C838.174 78.959 838.222 78.1047 838.726 77.5143Z" fill="#F8B552"/>
<path d="M761.918 42.5189C762.028 43.1653 761.634 43.7908 761.003 43.9705L755.43 45.5593C753.987 45.9705 752.525 44.973 752.382 43.4801C752.238 41.9721 753.51 40.709 755.017 40.8636L760.782 41.455C761.357 41.5139 761.821 41.9492 761.918 42.5189Z" fill="#F8B552"/>
<path d="M745.932 10.407C746.468 9.8304 747.428 10.2823 747.363 11.0809L747.174 13.4007C747.144 13.76 747.342 14.1027 747.665 14.2541L749.802 15.254C750.55 15.6041 750.42 16.7241 749.615 16.8577L747.516 17.2061C747.145 17.2677 746.866 17.5774 746.836 17.9603L746.669 20.1274C746.607 20.9382 745.567 21.1813 745.142 20.4847L743.847 18.3641C743.668 18.0697 743.333 17.9127 743.001 17.9668L740.579 18.3622C739.794 18.4902 739.284 17.522 739.828 16.9377L741.292 15.3657C741.549 15.0894 741.588 14.6674 741.388 14.3385L740.25 12.4755C739.814 11.7614 740.537 10.9186 741.286 11.2688L743.425 12.2698C743.747 12.4207 744.124 12.3487 744.365 12.0903L745.932 10.407Z" fill="#F8B552"/>
<path d="M778.586 5.75804C779.123 5.18147 780.083 5.6334 780.017 6.43194L779.828 8.75179C779.799 9.11105 779.996 9.45379 780.32 9.60522L782.456 10.6051C783.205 10.9552 783.074 12.0752 782.269 12.2087L780.17 12.5572C779.799 12.6187 779.52 12.9285 779.491 13.3114L779.324 15.4785C779.261 16.2892 778.221 16.5324 777.796 15.8357L776.502 13.7152C776.322 13.4208 775.987 13.2638 775.656 13.3179L773.233 13.7133C772.449 13.8413 771.939 12.873 772.483 12.2888L773.946 10.7168C774.203 10.4405 774.243 10.0185 774.042 9.68955L772.905 7.8266C772.469 7.11243 773.192 6.26968 773.94 6.61984L776.079 7.62091C776.402 7.77174 776.778 7.69973 777.019 7.44137L778.586 5.75804Z" fill="#F8B552"/>
<path d="M740.924 43.8537C741.461 43.2772 742.421 43.7291 742.355 44.5276L742.166 46.8475C742.137 47.2068 742.334 47.5495 742.658 47.7009L744.794 48.7008C745.543 49.0509 745.412 50.1709 744.607 50.3045L742.508 50.6529C742.137 50.7144 741.858 51.0242 741.829 51.4071L741.662 53.5742C741.599 54.3849 740.559 54.6281 740.134 53.9314L738.84 51.8109C738.66 51.5165 738.325 51.3595 737.993 51.4136L735.571 51.809C734.787 51.937 734.277 50.9687 734.821 50.3845L736.284 48.8125C736.541 48.5362 736.581 48.1142 736.38 47.7853L735.243 45.9223C734.807 45.2081 735.53 44.3654 736.278 44.7155L738.417 45.7166C738.74 45.8674 739.116 45.7954 739.357 45.5371L740.924 43.8537Z" fill="#F8B552"/>
<path d="M833.378 83.1496C833.915 82.5731 834.875 83.025 834.809 83.8235L834.62 86.1434C834.591 86.5027 834.788 86.8454 835.112 86.9968L837.248 87.9967C837.997 88.3468 837.866 89.4668 837.061 89.6003L834.962 89.9488C834.591 90.0103 834.312 90.3201 834.283 90.703L834.116 92.8701C834.053 93.6808 833.013 93.924 832.588 93.2273L831.294 91.1068C831.114 90.8124 830.779 90.6554 830.448 90.7095L828.025 91.1049C827.241 91.2329 826.731 90.2646 827.275 89.6804L828.738 88.1084C828.995 87.8321 829.035 87.4101 828.834 87.0812L827.697 85.2182C827.261 84.504 827.984 83.6613 828.732 84.0114L830.871 85.0125C831.194 85.1633 831.57 85.0913 831.811 84.833L833.378 83.1496Z" fill="#F8B552"/>
<path d="M837.863 39.1706C838.4 38.5941 839.36 39.046 839.295 39.8445L839.105 42.1644C839.076 42.5236 839.273 42.8664 839.597 43.0178L841.734 44.0177C842.482 44.3678 842.351 45.4878 841.547 45.6213L839.447 45.9698C839.077 46.0313 838.798 46.3411 838.768 46.724L838.601 48.8911C838.538 49.7018 837.499 49.945 837.074 49.2483L835.779 47.1278C835.599 46.8334 835.265 46.6763 834.933 46.7305L832.51 47.1259C831.726 47.2539 831.216 46.2856 831.76 45.7014L833.224 44.1294C833.481 43.8531 833.52 43.4311 833.319 43.1021L832.182 41.2392C831.746 40.525 832.469 39.6823 833.217 40.0324L835.357 41.0335C835.679 41.1843 836.056 41.1123 836.296 40.854L837.863 39.1706Z" fill="#F8B552"/>
</svg>
