<svg width="277" height="303" viewBox="0 0 277 303" fill="none" xmlns="http://www.w3.org/2000/svg">
<path d="M258.776 121.506L259.296 104.035L155.156 1.40386C154.369 0.628532 153.103 0.637779 152.328 1.42451L34.4039 121.082C33.6286 121.869 33.6378 123.135 34.4245 123.911L154.082 241.834C154.869 242.61 156.135 242.6 156.911 241.814L258.257 138.977L258.776 121.506Z" fill="#F8E4B0"/>
<g filter="url(#filter0_d_21_701)">
<path d="M246.021 119.713L258.257 138.977L259.296 104.035L246.284 117.237C245.631 117.901 245.521 118.927 246.021 119.713Z" fill="#FFF5DB"/>
</g>
<path d="M32.0334 262.768L38.7817 268.985L101.884 200.49L95.1353 194.273L32.0334 262.768Z" fill="black"/>
<path d="M18.5374 250.333L25.2856 256.55L88.3875 188.055L81.6392 181.838L18.5374 250.333Z" fill="black"/>
<path d="M18.5369 250.335L38.7817 268.985L101.884 200.49L81.6387 181.839L18.5369 250.335Z" fill="#D7D7D7"/>
<path d="M8.72086 271.854L18.138 280.53C21.128 283.284 25.8514 283.02 28.6897 279.939L38.1611 269.658L17.9162 251.007L8.44478 261.288C5.60655 264.369 5.7296 269.098 8.71966 271.853L8.72086 271.854Z" fill="#D7D7D7"/>
<path d="M113.688 167.701L110.368 177.741L104.294 172.146L113.688 167.701Z" fill="black"/>
<path d="M79.4626 184.201L99.7075 202.852L109.924 177.332L104.061 171.93L79.4626 184.201Z" fill="#D7D7D7"/>
<path d="M18.5374 250.333L25.2856 256.55L88.3875 188.055L81.6392 181.838L18.5374 250.333Z" fill="black"/>
<path d="M18.5369 250.335L38.7817 268.985L101.884 200.49L81.6387 181.839L18.5369 250.335Z" fill="#D7D7D7"/>
<path d="M32.0334 262.768L38.7817 268.985L101.884 200.49L95.1353 194.273L32.0334 262.768Z" fill="black"/>
<defs>
<filter id="filter0_d_21_701" x="240.709" y="99.0342" width="25.5869" height="46.9434" filterUnits="userSpaceOnUse" color-interpolation-filters="sRGB">
<feFlood flood-opacity="0" result="BackgroundImageFix"/>
<feColorMatrix in="SourceAlpha" type="matrix" values="0 0 0 0 0 0 0 0 0 0 0 0 0 0 0 0 0 0 127 0" result="hardAlpha"/>
<feOffset dx="1" dy="1"/>
<feGaussianBlur stdDeviation="3"/>
<feComposite in2="hardAlpha" operator="out"/>
<feColorMatrix type="matrix" values="0 0 0 0 0 0 0 0 0 0 0 0 0 0 0 0 0 0 0.1 0"/>
<feBlend mode="normal" in2="BackgroundImageFix" result="effect1_dropShadow_21_701"/>
<feBlend mode="normal" in="SourceGraphic" in2="effect1_dropShadow_21_701" result="shape"/>
</filter>
</defs>
</svg>
