<svg width="693" height="573" viewBox="0 0 693 573" fill="none" xmlns="http://www.w3.org/2000/svg">
<path fill-rule="evenodd" clip-rule="evenodd" d="M6 0C2.68629 0 0 2.68629 0 6V175.947C0 179.261 2.68628 181.947 5.99999 181.947H495.249L519.213 230.953C520.61 233.809 524.908 232.815 524.908 229.635V147.627C524.908 147.235 524.833 146.861 524.697 146.518V6C524.697 2.68629 522.01 0 518.697 0H6Z" fill="#6E00FF"/>
<path d="M20.24 25.6V31H17.2V25.6L12.12 16.64H15.4L18.82 22.82L22.3 16.64H25.36L20.24 25.6ZM29.4834 31.2C26.3834 31.2 24.0634 28.76 24.0634 25.66C24.0634 22.54 26.3834 20.12 29.4834 20.12C32.5834 20.12 34.9034 22.54 34.9034 25.66C34.9034 28.76 32.5834 31.2 29.4834 31.2ZM29.4834 28.74C30.8634 28.74 32.0434 27.64 32.0434 25.66C32.0434 23.68 30.8634 22.6 29.4834 22.6C28.1034 22.6 26.9234 23.68 26.9234 25.66C26.9234 27.64 28.1034 28.74 29.4834 28.74ZM43.1775 26.5V20.32H45.9375V31H43.3975V29.6C42.8175 30.54 41.6375 31.2 40.2775 31.2C38.1375 31.2 36.5775 29.9 36.5775 27.12V20.32H39.3575V26.58C39.3575 28.08 40.0975 28.74 41.2175 28.74C42.2175 28.74 43.1775 27.94 43.1775 26.5ZM55.395 25.18V31H52.615V16.64H55.395V21.72C56.135 20.74 57.055 20.12 58.455 20.12C60.595 20.12 62.075 21.52 62.075 24.1V31H59.315V25.04C59.315 23.46 58.695 22.58 57.435 22.58C56.335 22.58 55.395 23.46 55.395 25.18ZM70.8305 31V29.68C70.1305 30.68 69.0705 31.2 67.6105 31.2C65.3905 31.2 63.9105 29.9 63.9105 27.9C63.9105 25.82 65.5905 24.7 68.7105 24.7C69.3105 24.7 69.8305 24.74 70.4905 24.82V24.18C70.4905 22.98 69.8105 22.28 68.6505 22.28C67.4505 22.28 66.7305 22.98 66.6305 24.18H64.1305C64.2905 21.72 66.0705 20.12 68.6505 20.12C71.4505 20.12 73.0905 21.66 73.0905 24.28V31H70.8305ZM66.5305 27.82C66.5305 28.72 67.1705 29.28 68.2105 29.28C69.6305 29.28 70.4905 28.5 70.4905 27.26V26.5C69.8305 26.4 69.3705 26.36 68.8905 26.36C67.3105 26.36 66.5305 26.86 66.5305 27.82ZM84.735 20.32L80.815 31H77.775L73.835 20.32H76.835L79.375 27.84L81.935 20.32H84.735ZM90.2237 31.18C87.0238 31.18 84.8838 28.96 84.8838 25.62C84.8838 22.44 87.1038 20.12 90.1838 20.12C93.5638 20.12 95.8038 22.86 95.3038 26.34H87.7238C87.9038 28.08 88.7438 29.04 90.1638 29.04C91.3838 29.04 92.2038 28.44 92.5238 27.38H95.2838C94.6838 29.8 92.8238 31.18 90.2237 31.18ZM90.1238 22.16C88.8238 22.16 88.0038 23 87.7638 24.58H92.3638C92.2838 23.1 91.4438 22.16 90.1238 22.16ZM105.845 31.2C102.765 31.2 100.645 28.92 100.645 25.66C100.645 22.46 102.845 20.12 105.845 20.12C108.625 20.12 110.685 22 111.025 24.88H108.105C107.965 23.46 107.105 22.58 105.845 22.58C104.405 22.58 103.485 23.76 103.485 25.66C103.485 27.58 104.385 28.74 105.845 28.74C107.125 28.74 107.945 27.9 108.105 26.44H111.025C110.705 29.38 108.705 31.2 105.845 31.2ZM115.59 25.18V31H112.81V16.64H115.59V21.72C116.33 20.74 117.25 20.12 118.65 20.12C120.79 20.12 122.27 21.52 122.27 24.1V31H119.51V25.04C119.51 23.46 118.89 22.58 117.63 22.58C116.53 22.58 115.59 23.46 115.59 25.18ZM129.386 31.2C126.286 31.2 123.966 28.76 123.966 25.66C123.966 22.54 126.286 20.12 129.386 20.12C132.486 20.12 134.806 22.54 134.806 25.66C134.806 28.76 132.486 31.2 129.386 31.2ZM129.386 28.74C130.766 28.74 131.946 27.64 131.946 25.66C131.946 23.68 130.766 22.6 129.386 22.6C128.006 22.6 126.826 23.68 126.826 25.66C126.826 27.64 128.006 28.74 129.386 28.74ZM145.6 27.58C145.6 29.82 143.9 31.2 140.86 31.2C137.82 31.2 136.12 29.74 135.9 27.36H138.56C138.58 28.46 139.52 29.16 140.9 29.16C141.98 29.16 142.8 28.82 142.8 28.06C142.8 27.38 142.36 27.1 141.34 26.9L139.42 26.54C137.5 26.2 136.34 25.14 136.34 23.48C136.34 21.5 138.04 20.12 140.7 20.12C143.38 20.12 145.22 21.54 145.42 23.84H142.76C142.66 22.8 141.88 22.16 140.7 22.16C139.68 22.16 139 22.54 139 23.22C139 23.86 139.44 24.12 140.4 24.3L142.46 24.68C144.54 25.08 145.6 26.04 145.6 27.58ZM152.138 31.18C148.938 31.18 146.798 28.96 146.798 25.62C146.798 22.44 149.018 20.12 152.098 20.12C155.478 20.12 157.718 22.86 157.218 26.34H149.638C149.818 28.08 150.658 29.04 152.078 29.04C153.298 29.04 154.118 28.44 154.438 27.38H157.198C156.598 29.8 154.738 31.18 152.138 31.18ZM152.038 22.16C150.738 22.16 149.918 23 149.678 24.58H154.278C154.198 23.1 153.358 22.16 152.038 22.16ZM161.86 25.18V31H159.08V20.32H161.64V21.84C162.42 20.78 163.52 20.12 164.92 20.12C167.06 20.12 168.54 21.52 168.54 24.1V31H165.78V25.04C165.78 23.46 165.16 22.58 163.9 22.58C162.8 22.58 161.86 23.46 161.86 25.18ZM174.515 19.94C174.515 17.84 176.455 16.28 178.675 16.58V17.98C177.495 17.82 176.595 18.28 176.355 19.2C176.515 19.16 176.675 19.14 176.815 19.14C177.695 19.14 178.335 19.8 178.335 20.62C178.335 21.56 177.615 22.22 176.535 22.22C175.315 22.22 174.515 21.36 174.515 19.94ZM179.355 19.94C179.355 17.84 181.295 16.28 183.515 16.58V17.98C182.335 17.82 181.435 18.28 181.195 19.2C181.355 19.16 181.515 19.14 181.655 19.14C182.535 19.14 183.175 19.8 183.175 20.62C183.175 21.56 182.475 22.22 181.375 22.22C180.155 22.22 179.355 21.36 179.355 19.94ZM188.629 31H185.589V16.64H188.629V31ZM194.106 31H191.326V20.32H193.886V21.84C194.666 20.76 195.666 20.12 197.086 20.12C198.546 20.12 199.666 20.8 200.206 22.02C201.046 20.84 202.126 20.12 203.726 20.12C205.886 20.12 207.346 21.54 207.346 24.1V31H204.586V24.98C204.586 23.48 203.946 22.58 202.726 22.58C201.626 22.58 200.726 23.44 200.726 25.04V31H197.966V24.98C197.966 23.48 197.326 22.58 196.106 22.58C194.986 22.58 194.106 23.44 194.106 25.04V31ZM220.384 25.66C220.384 28.82 218.524 31.2 215.644 31.2C214.384 31.2 213.304 30.66 212.504 29.62V34.86H209.724V20.32H212.284V21.88C213.104 20.74 214.284 20.12 215.644 20.12C218.524 20.12 220.384 22.52 220.384 25.66ZM217.524 25.66C217.524 23.66 216.384 22.58 215.024 22.58C213.664 22.58 212.524 23.64 212.524 25.66C212.524 27.68 213.664 28.72 215.024 28.72C216.384 28.72 217.524 27.7 217.524 25.66ZM224.966 31H222.166V16.64H224.966V31ZM233.819 31V29.68C233.119 30.68 232.059 31.2 230.599 31.2C228.379 31.2 226.899 29.9 226.899 27.9C226.899 25.82 228.579 24.7 231.699 24.7C232.299 24.7 232.819 24.74 233.479 24.82V24.18C233.479 22.98 232.799 22.28 231.639 22.28C230.439 22.28 229.719 22.98 229.619 24.18H227.119C227.279 21.72 229.059 20.12 231.639 20.12C234.439 20.12 236.079 21.66 236.079 24.28V31H233.819ZM229.519 27.82C229.519 28.72 230.159 29.28 231.199 29.28C232.619 29.28 233.479 28.5 233.479 27.26V26.5C232.819 26.4 232.359 26.36 231.879 26.36C230.299 26.36 229.519 26.86 229.519 27.82ZM244.974 26.5V20.32H247.734V31H245.194V29.6C244.614 30.54 243.434 31.2 242.074 31.2C239.934 31.2 238.374 29.9 238.374 27.12V20.32H241.154V26.58C241.154 28.08 241.894 28.74 243.014 28.74C244.014 28.74 244.974 27.94 244.974 26.5ZM259.252 27.58C259.252 29.82 257.552 31.2 254.512 31.2C251.472 31.2 249.772 29.74 249.552 27.36H252.212C252.232 28.46 253.172 29.16 254.552 29.16C255.632 29.16 256.452 28.82 256.452 28.06C256.452 27.38 256.012 27.1 254.992 26.9L253.072 26.54C251.152 26.2 249.992 25.14 249.992 23.48C249.992 21.5 251.692 20.12 254.352 20.12C257.032 20.12 258.872 21.54 259.072 23.84H256.412C256.312 22.8 255.532 22.16 254.352 22.16C253.332 22.16 252.652 22.54 252.652 23.22C252.652 23.86 253.092 24.12 254.052 24.3L256.112 24.68C258.192 25.08 259.252 26.04 259.252 27.58ZM264.37 17.84C264.37 18.78 263.61 19.48 262.51 19.48C261.43 19.48 260.67 18.78 260.67 17.84C260.67 16.86 261.43 16.16 262.51 16.16C263.61 16.16 264.37 16.86 264.37 17.84ZM263.93 31H261.15V20.32H263.93V31ZM277.064 25.66C277.064 28.78 275.204 31.2 272.324 31.2C270.944 31.2 269.784 30.58 268.964 29.46V31H266.404V16.64H269.184V21.7C269.964 20.66 271.044 20.12 272.324 20.12C275.204 20.12 277.064 22.5 277.064 25.66ZM274.204 25.66C274.204 23.62 273.064 22.58 271.704 22.58C270.364 22.58 269.204 23.6 269.204 25.62C269.204 27.64 270.324 28.72 271.704 28.72C273.064 28.72 274.204 27.66 274.204 25.66ZM281.645 31H278.845V16.64H281.645V31ZM288.778 31.18C285.578 31.18 283.438 28.96 283.438 25.62C283.438 22.44 285.658 20.12 288.738 20.12C292.118 20.12 294.358 22.86 293.858 26.34H286.278C286.458 28.08 287.298 29.04 288.718 29.04C289.938 29.04 290.758 28.44 291.078 27.38H293.838C293.238 29.8 291.378 31.18 288.778 31.18ZM288.678 22.16C287.378 22.16 286.558 23 286.318 24.58H290.918C290.838 23.1 289.998 22.16 288.678 22.16ZM298.85 18.78C298.85 20.9 296.89 22.44 294.67 22.14V20.76C295.87 20.9 296.75 20.46 297.01 19.52C296.85 19.58 296.69 19.6 296.55 19.6C295.67 19.6 295.01 18.94 295.01 18.1C295.01 17.16 295.73 16.5 296.83 16.5C298.05 16.5 298.85 17.36 298.85 18.78ZM303.69 18.78C303.69 20.9 301.75 22.44 299.51 22.14V20.76C300.71 20.9 301.59 20.46 301.85 19.52C301.69 19.58 301.53 19.6 301.39 19.6C300.51 19.6 299.85 18.94 299.85 18.1C299.85 17.16 300.57 16.5 301.67 16.5C302.89 16.5 303.69 17.36 303.69 18.78ZM318.764 27.58C318.764 29.82 317.064 31.2 314.024 31.2C310.984 31.2 309.284 29.74 309.064 27.36H311.724C311.744 28.46 312.684 29.16 314.064 29.16C315.144 29.16 315.964 28.82 315.964 28.06C315.964 27.38 315.524 27.1 314.504 26.9L312.584 26.54C310.664 26.2 309.504 25.14 309.504 23.48C309.504 21.5 311.204 20.12 313.864 20.12C316.544 20.12 318.384 21.54 318.584 23.84H315.924C315.824 22.8 315.044 22.16 313.864 22.16C312.844 22.16 312.164 22.54 312.164 23.22C312.164 23.86 312.604 24.12 313.564 24.3L315.624 24.68C317.704 25.08 318.764 26.04 318.764 27.58ZM325.382 31.2C322.282 31.2 319.962 28.76 319.962 25.66C319.962 22.54 322.282 20.12 325.382 20.12C328.482 20.12 330.802 22.54 330.802 25.66C330.802 28.76 328.482 31.2 325.382 31.2ZM325.382 28.74C326.762 28.74 327.942 27.64 327.942 25.66C327.942 23.68 326.762 22.6 325.382 22.6C324.002 22.6 322.822 23.68 322.822 25.66C322.822 27.64 324.002 28.74 325.382 28.74ZM29.5 55.756C29.5 59.592 26.42 62.28 21.38 62.28C16.312 62.28 13.148 59.564 12.84 55.308H17.152C17.264 57.52 18.692 58.948 21.296 58.948C23.452 58.948 24.992 57.996 24.992 56.372C24.992 55.112 24.012 54.356 22.304 54.02L19 53.376C15.948 52.788 13.596 51.136 13.596 47.804C13.596 44.22 16.76 41.644 21.1 41.644C25.608 41.644 28.912 44.276 29.192 48.476H24.88C24.74 46.376 23.284 44.948 21.156 44.948C19.084 44.948 17.908 46.124 17.908 47.524C17.908 48.896 19.168 49.484 20.624 49.764L24.068 50.464C27.596 51.164 29.5 52.788 29.5 55.756ZM41.2657 55.7V47.048H45.1297V62H41.5737V60.04C40.7617 61.356 39.1097 62.28 37.2057 62.28C34.2097 62.28 32.0257 60.46 32.0257 56.568V47.048H35.9177V55.812C35.9177 57.912 36.9537 58.836 38.5217 58.836C39.9217 58.836 41.2657 57.716 41.2657 55.7ZM54.9826 67.684C50.9506 67.684 48.2626 65.5 48.0946 62.056H51.8466C52.0146 63.764 53.1066 64.66 54.9546 64.66C57.1106 64.66 58.2306 63.512 58.2306 61.356V59.172C57.4186 60.6 55.8786 61.44 54.0586 61.44C50.3906 61.44 47.6466 58.332 47.6466 54.104C47.6466 49.764 50.2226 46.768 53.9186 46.768C55.9346 46.768 57.4466 47.552 58.5386 49.092V47.048H62.0946V61.3C62.0946 65.276 59.4066 67.684 54.9826 67.684ZM51.5386 54.104C51.5386 56.54 52.7986 58.08 54.8146 58.08C56.8586 58.08 58.2026 56.484 58.2026 54.132C58.2026 51.696 56.8586 50.128 54.8146 50.128C52.8266 50.128 51.5386 51.668 51.5386 54.104ZM71.9631 67.684C67.9311 67.684 65.2431 65.5 65.0751 62.056H68.8271C68.9951 63.764 70.0871 64.66 71.9351 64.66C74.0911 64.66 75.2111 63.512 75.2111 61.356V59.172C74.3991 60.6 72.8591 61.44 71.0391 61.44C67.3711 61.44 64.6271 58.332 64.6271 54.104C64.6271 49.764 67.2031 46.768 70.8991 46.768C72.9151 46.768 74.4271 47.552 75.5191 49.092V47.048H79.0751V61.3C79.0751 65.276 76.3871 67.684 71.9631 67.684ZM68.5191 54.104C68.5191 56.54 69.7791 58.08 71.7951 58.08C73.8391 58.08 75.1831 56.484 75.1831 54.132C75.1831 51.696 73.8391 50.128 71.7951 50.128C69.8071 50.128 68.5191 51.668 68.5191 54.104ZM89.0836 62.252C84.6036 62.252 81.6076 59.144 81.6076 54.468C81.6076 50.016 84.7156 46.768 89.0276 46.768C93.7596 46.768 96.8956 50.604 96.1956 55.476H85.5836C85.8356 57.912 87.0116 59.256 88.9996 59.256C90.7076 59.256 91.8556 58.416 92.3036 56.932H96.1676C95.3276 60.32 92.7236 62.252 89.0836 62.252ZM88.9436 49.624C87.1236 49.624 85.9756 50.8 85.6396 53.012H92.0796C91.9676 50.94 90.7916 49.624 88.9436 49.624ZM111.43 57.212C111.43 60.348 109.05 62.28 104.794 62.28C100.538 62.28 98.1584 60.236 97.8504 56.904H101.574C101.602 58.444 102.918 59.424 104.85 59.424C106.362 59.424 107.51 58.948 107.51 57.884C107.51 56.932 106.894 56.54 105.466 56.26L102.778 55.756C100.09 55.28 98.4664 53.796 98.4664 51.472C98.4664 48.7 100.846 46.768 104.57 46.768C108.322 46.768 110.898 48.756 111.178 51.976H107.454C107.314 50.52 106.222 49.624 104.57 49.624C103.142 49.624 102.19 50.156 102.19 51.108C102.19 52.004 102.806 52.368 104.15 52.62L107.034 53.152C109.946 53.712 111.43 55.056 111.43 57.212ZM123.083 58.22V61.608C122.131 62.084 121.235 62.28 120.087 62.28C117.007 62.28 115.075 60.516 115.075 57.156V50.38H112.051V47.048H115.075V42.624H118.939V47.048H123.223V50.38H118.939V56.26C118.939 57.996 119.723 58.696 121.123 58.696C121.851 58.696 122.523 58.528 123.083 58.22ZM135.371 62H131.451V41.896H135.371V62ZM147.961 55.7V47.048H151.825V62H148.269V60.04C147.457 61.356 145.805 62.28 143.901 62.28C140.905 62.28 138.721 60.46 138.721 56.568V47.048H142.613V55.812C142.613 57.912 143.649 58.836 145.217 58.836C146.617 58.836 147.961 57.716 147.961 55.7ZM159.214 54.748V62H155.322V47.048H158.906V49.932C159.998 48.028 162.322 46.88 164.73 46.88V50.912C161.426 50.66 159.214 51.444 159.214 54.748ZM170.644 62H166.752V41.896H170.644V53.376L176.104 47.048H180.584L174.396 54.216L181.312 62H176.356L170.644 55.056V62ZM187.611 43.576C187.611 44.892 186.547 45.872 185.007 45.872C183.495 45.872 182.431 44.892 182.431 43.576C182.431 42.204 183.495 41.224 185.007 41.224C186.547 41.224 187.611 42.204 187.611 43.576ZM186.995 62H183.103V47.048H186.995V62ZM194.351 53.852V62H190.459V47.048H194.043V49.176C195.135 47.692 196.675 46.768 198.635 46.768C201.631 46.768 203.703 48.728 203.703 52.34V62H199.839V53.656C199.839 51.444 198.971 50.212 197.207 50.212C195.667 50.212 194.351 51.444 194.351 53.852ZM213.412 67.684C209.38 67.684 206.692 65.5 206.524 62.056H210.276C210.444 63.764 211.536 64.66 213.384 64.66C215.54 64.66 216.66 63.512 216.66 61.356V59.172C215.848 60.6 214.308 61.44 212.488 61.44C208.82 61.44 206.076 58.332 206.076 54.104C206.076 49.764 208.652 46.768 212.348 46.768C214.364 46.768 215.876 47.552 216.968 49.092V47.048H220.524V61.3C220.524 65.276 217.836 67.684 213.412 67.684ZM209.968 54.104C209.968 56.54 211.228 58.08 213.244 58.08C215.288 58.08 216.632 56.484 216.632 54.132C216.632 51.696 215.288 50.128 213.244 50.128C211.256 50.128 209.968 51.668 209.968 54.104ZM243.356 47.048L237.868 62H233.612L228.096 47.048H232.296L235.852 57.576L239.436 47.048H243.356ZM253.585 62V60.152C252.605 61.552 251.121 62.28 249.077 62.28C245.969 62.28 243.897 60.46 243.897 57.66C243.897 54.748 246.249 53.18 250.617 53.18C251.457 53.18 252.185 53.236 253.109 53.348V52.452C253.109 50.772 252.157 49.792 250.533 49.792C248.853 49.792 247.845 50.772 247.705 52.452H244.205C244.429 49.008 246.921 46.768 250.533 46.768C254.453 46.768 256.749 48.924 256.749 52.592V62H253.585ZM247.565 57.548C247.565 58.808 248.461 59.592 249.917 59.592C251.905 59.592 253.109 58.5 253.109 56.764V55.7C252.185 55.56 251.541 55.504 250.869 55.504C248.657 55.504 247.565 56.204 247.565 57.548ZM263.995 54.748V62H260.103V47.048H263.687V49.932C264.779 48.028 267.103 46.88 269.511 46.88V50.912C266.207 50.66 263.995 51.444 263.995 54.748ZM276.041 43.576C276.041 44.892 274.977 45.872 273.437 45.872C271.925 45.872 270.861 44.892 270.861 43.576C270.861 42.204 271.925 41.224 273.437 41.224C274.977 41.224 276.041 42.204 276.041 43.576ZM275.425 62H271.533V47.048H275.425V62ZM287.792 62V60.152C286.812 61.552 285.328 62.28 283.284 62.28C280.176 62.28 278.104 60.46 278.104 57.66C278.104 54.748 280.456 53.18 284.824 53.18C285.664 53.18 286.392 53.236 287.316 53.348V52.452C287.316 50.772 286.364 49.792 284.74 49.792C283.06 49.792 282.052 50.772 281.912 52.452H278.412C278.636 49.008 281.128 46.768 284.74 46.768C288.66 46.768 290.956 48.924 290.956 52.592V62H287.792ZM281.772 57.548C281.772 58.808 282.668 59.592 284.124 59.592C286.112 59.592 287.316 58.5 287.316 56.764V55.7C286.392 55.56 285.748 55.504 285.076 55.504C282.864 55.504 281.772 56.204 281.772 57.548ZM309.234 54.524C309.234 58.892 306.63 62.28 302.598 62.28C300.666 62.28 299.042 61.412 297.894 59.844V62H294.31V41.896H298.202V48.98C299.294 47.524 300.806 46.768 302.598 46.768C306.63 46.768 309.234 50.1 309.234 54.524ZM305.23 54.524C305.23 51.668 303.634 50.212 301.73 50.212C299.854 50.212 298.23 51.64 298.23 54.468C298.23 57.296 299.798 58.808 301.73 58.808C303.634 58.808 305.23 57.324 305.23 54.524ZM315.648 62H311.728V41.896H315.648V62ZM325.634 62.252C321.154 62.252 318.158 59.144 318.158 54.468C318.158 50.016 321.266 46.768 325.578 46.768C330.31 46.768 333.446 50.604 332.746 55.476H322.134C322.386 57.912 323.562 59.256 325.55 59.256C327.258 59.256 328.406 58.416 328.854 56.932H332.718C331.878 60.32 329.274 62.252 325.634 62.252ZM325.494 49.624C323.674 49.624 322.526 50.8 322.19 53.012H328.63C328.518 50.94 327.342 49.624 325.494 49.624ZM347.981 57.212C347.981 60.348 345.601 62.28 341.345 62.28C337.089 62.28 334.709 60.236 334.401 56.904H338.125C338.153 58.444 339.469 59.424 341.401 59.424C342.913 59.424 344.061 58.948 344.061 57.884C344.061 56.932 343.445 56.54 342.017 56.26L339.329 55.756C336.641 55.28 335.017 53.796 335.017 51.472C335.017 48.7 337.397 46.768 341.121 46.768C344.873 46.768 347.449 48.756 347.729 51.976H344.005C343.865 50.52 342.773 49.624 341.121 49.624C339.693 49.624 338.741 50.156 338.741 51.108C338.741 52.004 339.357 52.368 340.701 52.62L343.585 53.152C346.497 53.712 347.981 55.056 347.981 57.212ZM354.362 55.952H351.422L350.442 41.896H355.37L354.362 55.952ZM355.594 59.592C355.594 61.076 354.446 62.14 352.906 62.14C351.366 62.14 350.218 61.076 350.218 59.592C350.218 58.108 351.338 57.016 352.906 57.016C354.474 57.016 355.594 58.108 355.594 59.592ZM21.212 124H14.072V103.896H21.212C27.596 103.896 31.46 107.984 31.46 113.836C31.46 119.688 27.456 124 21.212 124ZM18.328 107.564V120.332H20.988C24.992 120.332 27.092 118.008 27.092 113.836C27.092 109.832 24.992 107.564 20.988 107.564H18.328ZM37.9718 116.748V124H34.0798V109.048H37.6638V111.932C38.7558 110.028 41.0798 108.88 43.4878 108.88V112.912C40.1838 112.66 37.9718 113.444 37.9718 116.748ZM54.4134 124V122.152C53.4334 123.552 51.9494 124.28 49.9054 124.28C46.7974 124.28 44.7254 122.46 44.7254 119.66C44.7254 116.748 47.0774 115.18 51.4454 115.18C52.2854 115.18 53.0134 115.236 53.9374 115.348V114.452C53.9374 112.772 52.9854 111.792 51.3614 111.792C49.6814 111.792 48.6734 112.772 48.5334 114.452H45.0334C45.2574 111.008 47.7494 108.768 51.3614 108.768C55.2814 108.768 57.5774 110.924 57.5774 114.592V124H54.4134ZM48.3934 119.548C48.3934 120.808 49.2894 121.592 50.7454 121.592C52.7334 121.592 53.9374 120.5 53.9374 118.764V117.7C53.0134 117.56 52.3694 117.504 51.6974 117.504C49.4854 117.504 48.3934 118.204 48.3934 119.548ZM67.2873 129.684C63.2553 129.684 60.5673 127.5 60.3993 124.056H64.1513C64.3193 125.764 65.4113 126.66 67.2593 126.66C69.4153 126.66 70.5353 125.512 70.5353 123.356V121.172C69.7233 122.6 68.1833 123.44 66.3633 123.44C62.6953 123.44 59.9513 120.332 59.9513 116.104C59.9513 111.764 62.5273 108.768 66.2233 108.768C68.2393 108.768 69.7513 109.552 70.8433 111.092V109.048H74.3993V123.3C74.3993 127.276 71.7113 129.684 67.2873 129.684ZM63.8433 116.104C63.8433 118.54 65.1033 120.08 67.1193 120.08C69.1633 120.08 70.5073 118.484 70.5073 116.132C70.5073 113.696 69.1633 112.128 67.1193 112.128C65.1313 112.128 63.8433 113.668 63.8433 116.104ZM92.6673 124V122.152C91.6873 123.552 90.2033 124.28 88.1593 124.28C85.0513 124.28 82.9793 122.46 82.9793 119.66C82.9793 116.748 85.3313 115.18 89.6993 115.18C90.5393 115.18 91.2673 115.236 92.1913 115.348V114.452C92.1913 112.772 91.2393 111.792 89.6153 111.792C87.9353 111.792 86.9273 112.772 86.7873 114.452H83.2873C83.5113 111.008 86.0033 108.768 89.6153 108.768C93.5353 108.768 95.8313 110.924 95.8313 114.592V124H92.6673ZM86.6473 119.548C86.6473 120.808 87.5433 121.592 88.9993 121.592C90.9873 121.592 92.1913 120.5 92.1913 118.764V117.7C91.2673 117.56 90.6233 117.504 89.9513 117.504C87.7393 117.504 86.6473 118.204 86.6473 119.548ZM103.077 116.748V124H99.1852V109.048H102.769V111.932C103.861 110.028 106.185 108.88 108.593 108.88V112.912C105.289 112.66 103.077 113.444 103.077 116.748ZM114.507 116.748V124H110.615V109.048H114.199V111.932C115.291 110.028 117.615 108.88 120.023 108.88V112.912C116.719 112.66 114.507 113.444 114.507 116.748ZM128.543 124.28C124.203 124.28 120.955 120.864 120.955 116.524C120.955 112.156 124.203 108.768 128.543 108.768C132.883 108.768 136.131 112.156 136.131 116.524C136.131 120.864 132.883 124.28 128.543 124.28ZM128.543 120.836C130.475 120.836 132.127 119.296 132.127 116.524C132.127 113.752 130.475 112.24 128.543 112.24C126.611 112.24 124.959 113.752 124.959 116.524C124.959 119.296 126.611 120.836 128.543 120.836ZM150.496 124L147.668 114.284L144.868 124H140.976L136.72 109.048H140.5L143.048 118.512L145.792 109.048H149.628L152.288 118.512L154.808 109.048H158.644L154.36 124H150.496ZM172.844 119.212C172.844 122.348 170.464 124.28 166.208 124.28C161.952 124.28 159.572 122.236 159.264 118.904H162.988C163.016 120.444 164.332 121.424 166.264 121.424C167.776 121.424 168.924 120.948 168.924 119.884C168.924 118.932 168.308 118.54 166.88 118.26L164.192 117.756C161.504 117.28 159.88 115.796 159.88 113.472C159.88 110.7 162.26 108.768 165.984 108.768C169.736 108.768 172.312 110.756 172.592 113.976H168.868C168.728 112.52 167.636 111.624 165.984 111.624C164.556 111.624 163.604 112.156 163.604 113.108C163.604 114.004 164.22 114.368 165.564 114.62L168.448 115.152C171.36 115.712 172.844 117.056 172.844 119.212ZM196.277 116.524C196.277 120.892 193.673 124.28 189.641 124.28C187.709 124.28 186.085 123.412 184.937 121.844V124H181.353V103.896H185.245V110.98C186.337 109.524 187.849 108.768 189.641 108.768C193.673 108.768 196.277 112.1 196.277 116.524ZM192.273 116.524C192.273 113.668 190.677 112.212 188.773 112.212C186.897 112.212 185.273 113.64 185.273 116.468C185.273 119.296 186.841 120.808 188.773 120.808C190.677 120.808 192.273 119.324 192.273 116.524ZM205.267 124.252C200.787 124.252 197.791 121.144 197.791 116.468C197.791 112.016 200.899 108.768 205.211 108.768C209.943 108.768 213.079 112.604 212.379 117.476H201.767C202.019 119.912 203.195 121.256 205.183 121.256C206.891 121.256 208.039 120.416 208.487 118.932H212.351C211.511 122.32 208.907 124.252 205.267 124.252ZM205.127 111.624C203.307 111.624 202.159 112.8 201.823 115.012H208.263C208.151 112.94 206.975 111.624 205.127 111.624ZM224.173 120.22V123.608C223.221 124.084 222.325 124.28 221.177 124.28C218.097 124.28 216.165 122.516 216.165 119.156V112.38H213.141V109.048H216.165V104.624H220.029V109.048H224.313V112.38H220.029V118.26C220.029 119.996 220.813 120.696 222.213 120.696C222.941 120.696 223.613 120.528 224.173 120.22ZM238.953 124L236.125 114.284L233.325 124H229.433L225.177 109.048H228.957L231.505 118.512L234.249 109.048H238.085L240.745 118.512L243.265 109.048H247.101L242.817 124H238.953ZM255.169 124.252C250.69 124.252 247.694 121.144 247.694 116.468C247.694 112.016 250.802 108.768 255.114 108.768C259.846 108.768 262.982 112.604 262.282 117.476H251.67C251.922 119.912 253.098 121.256 255.086 121.256C256.794 121.256 257.942 120.416 258.39 118.932H262.254C261.414 122.32 258.81 124.252 255.169 124.252ZM255.03 111.624C253.21 111.624 252.062 112.8 251.726 115.012H258.166C258.054 112.94 256.878 111.624 255.03 111.624ZM271.111 124.252C266.631 124.252 263.635 121.144 263.635 116.468C263.635 112.016 266.743 108.768 271.055 108.768C275.787 108.768 278.923 112.604 278.223 117.476H267.611C267.863 119.912 269.039 121.256 271.027 121.256C272.735 121.256 273.883 120.416 274.331 118.932H278.195C277.355 122.32 274.751 124.252 271.111 124.252ZM270.971 111.624C269.151 111.624 268.003 112.8 267.667 115.012H274.107C273.995 112.94 272.819 111.624 270.971 111.624ZM284.722 115.852V124H280.83V109.048H284.414V111.176C285.506 109.692 287.046 108.768 289.006 108.768C292.002 108.768 294.074 110.728 294.074 114.34V124H290.21V115.656C290.21 113.444 289.342 112.212 287.578 112.212C286.038 112.212 284.722 113.444 284.722 115.852ZM316.747 109.048L311.259 124H307.003L301.487 109.048H305.687L309.243 119.576L312.827 109.048H316.747ZM326.976 124V122.152C325.996 123.552 324.512 124.28 322.468 124.28C319.36 124.28 317.288 122.46 317.288 119.66C317.288 116.748 319.64 115.18 324.008 115.18C324.848 115.18 325.576 115.236 326.5 115.348V114.452C326.5 112.772 325.548 111.792 323.924 111.792C322.244 111.792 321.236 112.772 321.096 114.452H317.596C317.82 111.008 320.312 108.768 323.924 108.768C327.844 108.768 330.14 110.924 330.14 114.592V124H326.976ZM320.956 119.548C320.956 120.808 321.852 121.592 323.308 121.592C325.296 121.592 326.5 120.5 326.5 118.764V117.7C325.576 117.56 324.932 117.504 324.26 117.504C322.048 117.504 320.956 118.204 320.956 119.548ZM337.386 116.748V124H333.494V109.048H337.078V111.932C338.17 110.028 340.494 108.88 342.902 108.88V112.912C339.598 112.66 337.386 113.444 337.386 116.748ZM349.432 105.576C349.432 106.892 348.368 107.872 346.828 107.872C345.316 107.872 344.252 106.892 344.252 105.576C344.252 104.204 345.316 103.224 346.828 103.224C348.368 103.224 349.432 104.204 349.432 105.576ZM348.816 124H344.924V109.048H348.816V124ZM361.183 124V122.152C360.203 123.552 358.719 124.28 356.675 124.28C353.567 124.28 351.495 122.46 351.495 119.66C351.495 116.748 353.847 115.18 358.215 115.18C359.055 115.18 359.783 115.236 360.707 115.348V114.452C360.707 112.772 359.755 111.792 358.131 111.792C356.451 111.792 355.443 112.772 355.303 114.452H351.803C352.027 111.008 354.519 108.768 358.131 108.768C362.051 108.768 364.347 110.924 364.347 114.592V124H361.183ZM355.163 119.548C355.163 120.808 356.059 121.592 357.515 121.592C359.503 121.592 360.707 120.5 360.707 118.764V117.7C359.783 117.56 359.139 117.504 358.467 117.504C356.255 117.504 355.163 118.204 355.163 119.548ZM382.625 116.524C382.625 120.892 380.021 124.28 375.989 124.28C374.057 124.28 372.433 123.412 371.285 121.844V124H367.701V103.896H371.593V110.98C372.685 109.524 374.197 108.768 375.989 108.768C380.021 108.768 382.625 112.1 382.625 116.524ZM378.621 116.524C378.621 113.668 377.025 112.212 375.121 112.212C373.245 112.212 371.621 113.64 371.621 116.468C371.621 119.296 373.189 120.808 375.121 120.808C377.025 120.808 378.621 119.324 378.621 116.524ZM389.039 124H385.119V103.896H389.039V124ZM399.025 124.252C394.545 124.252 391.549 121.144 391.549 116.468C391.549 112.016 394.657 108.768 398.969 108.768C403.701 108.768 406.837 112.604 406.137 117.476H395.525C395.777 119.912 396.953 121.256 398.941 121.256C400.649 121.256 401.797 120.416 402.245 118.932H406.109C405.269 122.32 402.665 124.252 399.025 124.252ZM398.885 111.624C397.065 111.624 395.917 112.8 395.581 115.012H402.021C401.909 112.94 400.733 111.624 398.885 111.624ZM421.372 119.212C421.372 122.348 418.992 124.28 414.736 124.28C410.48 124.28 408.1 122.236 407.792 118.904H411.516C411.544 120.444 412.86 121.424 414.792 121.424C416.304 121.424 417.452 120.948 417.452 119.884C417.452 118.932 416.836 118.54 415.408 118.26L412.72 117.756C410.032 117.28 408.408 115.796 408.408 113.472C408.408 110.7 410.788 108.768 414.512 108.768C418.264 108.768 420.84 110.756 421.12 113.976H417.396C417.256 112.52 416.164 111.624 414.512 111.624C413.084 111.624 412.132 112.156 412.132 113.108C412.132 114.004 412.748 114.368 414.092 114.62L416.976 115.152C419.888 115.712 421.372 117.056 421.372 119.212ZM439.177 120.22V123.608C438.225 124.084 437.329 124.28 436.181 124.28C433.101 124.28 431.169 122.516 431.169 119.156V112.38H428.145V109.048H431.169V104.624H435.033V109.048H439.317V112.38H435.033V118.26C435.033 119.996 435.817 120.696 437.217 120.696C437.945 120.696 438.617 120.528 439.177 120.22ZM447.973 124.28C443.633 124.28 440.385 120.864 440.385 116.524C440.385 112.156 443.633 108.768 447.973 108.768C452.313 108.768 455.561 112.156 455.561 116.524C455.561 120.864 452.313 124.28 447.973 124.28ZM447.973 120.836C449.905 120.836 451.557 119.296 451.557 116.524C451.557 113.752 449.905 112.24 447.973 112.24C446.041 112.24 444.389 113.752 444.389 116.524C444.389 119.296 446.041 120.836 447.973 120.836ZM26.364 150.212C26.364 153.348 23.984 155.28 19.728 155.28C15.472 155.28 13.092 153.236 12.784 149.904H16.508C16.536 151.444 17.852 152.424 19.784 152.424C21.296 152.424 22.444 151.948 22.444 150.884C22.444 149.932 21.828 149.54 20.4 149.26L17.712 148.756C15.024 148.28 13.4 146.796 13.4 144.472C13.4 141.7 15.78 139.768 19.504 139.768C23.256 139.768 25.832 141.756 26.112 144.976H22.388C22.248 143.52 21.156 142.624 19.504 142.624C18.076 142.624 17.124 143.156 17.124 144.108C17.124 145.004 17.74 145.368 19.084 145.62L21.968 146.152C24.88 146.712 26.364 148.056 26.364 150.212ZM32.9132 146.852V155H29.0212V134.896H32.9132V142.008C33.9492 140.636 35.2372 139.768 37.1972 139.768C40.1932 139.768 42.2652 141.728 42.2652 145.34V155H38.4012V146.656C38.4012 144.444 37.5332 143.212 35.7692 143.212C34.2292 143.212 32.9132 144.444 32.9132 146.852ZM52.2268 155.28C47.8868 155.28 44.6388 151.864 44.6388 147.524C44.6388 143.156 47.8868 139.768 52.2268 139.768C56.5668 139.768 59.8148 143.156 59.8148 147.524C59.8148 151.864 56.5668 155.28 52.2268 155.28ZM52.2268 151.836C54.1588 151.836 55.8108 150.296 55.8108 147.524C55.8108 144.752 54.1588 143.24 52.2268 143.24C50.2948 143.24 48.6428 144.752 48.6428 147.524C48.6428 150.296 50.2948 151.836 52.2268 151.836ZM74.1797 155L71.3517 145.284L68.5517 155H64.6597L60.4037 140.048H64.1837L66.7317 149.512L69.4757 140.048H73.3117L75.9717 149.512L78.4917 140.048H82.3277L78.0437 155H74.1797ZM99.4304 151.22V154.608C98.4784 155.084 97.5824 155.28 96.4344 155.28C93.3544 155.28 91.4224 153.516 91.4224 150.156V143.38H88.3984V140.048H91.4224V135.624H95.2864V140.048H99.5704V143.38H95.2864V149.26C95.2864 150.996 96.0704 151.696 97.4704 151.696C98.1984 151.696 98.8704 151.528 99.4304 151.22ZM105.839 146.852V155H101.947V134.896H105.839V142.008C106.875 140.636 108.163 139.768 110.123 139.768C113.119 139.768 115.191 141.728 115.191 145.34V155H111.327V146.656C111.327 144.444 110.459 143.212 108.695 143.212C107.155 143.212 105.839 144.444 105.839 146.852ZM125.041 155.252C120.561 155.252 117.565 152.144 117.565 147.468C117.565 143.016 120.673 139.768 124.985 139.768C129.717 139.768 132.853 143.604 132.153 148.476H121.541C121.793 150.912 122.969 152.256 124.957 152.256C126.665 152.256 127.813 151.416 128.261 149.932H132.125C131.285 153.32 128.681 155.252 125.041 155.252ZM124.901 142.624C123.081 142.624 121.933 143.8 121.597 146.012H128.037C127.925 143.94 126.749 142.624 124.901 142.624ZM139.267 136.576C139.267 137.892 138.203 138.872 136.663 138.872C135.151 138.872 134.087 137.892 134.087 136.576C134.087 135.204 135.151 134.224 136.663 134.224C138.203 134.224 139.267 135.204 139.267 136.576ZM138.651 155H134.759V140.048H138.651V155ZM146.007 147.748V155H142.115V140.048H145.699V142.932C146.791 141.028 149.115 139.88 151.523 139.88V143.912C148.219 143.66 146.007 144.444 146.007 147.748ZM163.288 147.748V155H159.396V140.048H162.98V142.932C164.072 141.028 166.396 139.88 168.804 139.88V143.912C165.5 143.66 163.288 144.444 163.288 147.748ZM177.212 155.252C172.732 155.252 169.736 152.144 169.736 147.468C169.736 143.016 172.844 139.768 177.156 139.768C181.888 139.768 185.024 143.604 184.324 148.476H173.712C173.964 150.912 175.14 152.256 177.128 152.256C178.836 152.256 179.984 151.416 180.432 149.932H184.296C183.456 153.32 180.852 155.252 177.212 155.252ZM177.072 142.624C175.252 142.624 174.104 143.8 173.768 146.012H180.208C180.096 143.94 178.92 142.624 177.072 142.624ZM190.851 155H186.931V134.896H190.851V155ZM203.245 155V153.152C202.265 154.552 200.781 155.28 198.737 155.28C195.629 155.28 193.557 153.46 193.557 150.66C193.557 147.748 195.909 146.18 200.277 146.18C201.117 146.18 201.845 146.236 202.769 146.348V145.452C202.769 143.772 201.817 142.792 200.193 142.792C198.513 142.792 197.505 143.772 197.365 145.452H193.865C194.089 142.008 196.581 139.768 200.193 139.768C204.113 139.768 206.409 141.924 206.409 145.592V155H203.245ZM197.225 150.548C197.225 151.808 198.121 152.592 199.577 152.592C201.565 152.592 202.769 151.5 202.769 149.764V148.7C201.845 148.56 201.201 148.504 200.529 148.504C198.317 148.504 197.225 149.204 197.225 150.548ZM218.841 151.22V154.608C217.889 155.084 216.993 155.28 215.845 155.28C212.765 155.28 210.833 153.516 210.833 150.156V143.38H207.809V140.048H210.833V135.624H214.697V140.048H218.981V143.38H214.697V149.26C214.697 150.996 215.481 151.696 216.881 151.696C217.609 151.696 218.281 151.528 218.841 151.22ZM225.865 136.576C225.865 137.892 224.801 138.872 223.261 138.872C221.749 138.872 220.685 137.892 220.685 136.576C220.685 135.204 221.749 134.224 223.261 134.224C224.801 134.224 225.865 135.204 225.865 136.576ZM225.249 155H221.357V140.048H225.249V155ZM235.321 155.28C230.981 155.28 227.733 151.864 227.733 147.524C227.733 143.156 230.981 139.768 235.321 139.768C239.661 139.768 242.909 143.156 242.909 147.524C242.909 151.864 239.661 155.28 235.321 155.28ZM235.321 151.836C237.253 151.836 238.905 150.296 238.905 147.524C238.905 144.752 237.253 143.24 235.321 143.24C233.389 143.24 231.737 144.752 231.737 147.524C231.737 150.296 233.389 151.836 235.321 151.836ZM249.284 146.852V155H245.392V140.048H248.976V142.176C250.068 140.692 251.608 139.768 253.568 139.768C256.564 139.768 258.636 141.728 258.636 145.34V155H254.772V146.656C254.772 144.444 253.904 143.212 252.14 143.212C250.6 143.212 249.284 144.444 249.284 146.852ZM274.618 150.212C274.618 153.348 272.238 155.28 267.982 155.28C263.726 155.28 261.346 153.236 261.038 149.904H264.762C264.79 151.444 266.106 152.424 268.038 152.424C269.55 152.424 270.698 151.948 270.698 150.884C270.698 149.932 270.082 149.54 268.654 149.26L265.966 148.756C263.278 148.28 261.654 146.796 261.654 144.472C261.654 141.7 264.034 139.768 267.758 139.768C271.51 139.768 274.086 141.756 274.366 144.976H270.642C270.502 143.52 269.41 142.624 267.758 142.624C266.33 142.624 265.378 143.156 265.378 144.108C265.378 145.004 265.994 145.368 267.338 145.62L270.222 146.152C273.134 146.712 274.618 148.056 274.618 150.212ZM281.167 146.852V155H277.275V134.896H281.167V142.008C282.203 140.636 283.491 139.768 285.451 139.768C288.447 139.768 290.519 141.728 290.519 145.34V155H286.655V146.656C286.655 144.444 285.787 143.212 284.023 143.212C282.483 143.212 281.167 144.444 281.167 146.852ZM298.381 136.576C298.381 137.892 297.317 138.872 295.777 138.872C294.265 138.872 293.201 137.892 293.201 136.576C293.201 135.204 294.265 134.224 295.777 134.224C297.317 134.224 298.381 135.204 298.381 136.576ZM297.765 155H293.873V140.048H297.765V155ZM316.152 147.524C316.152 151.948 313.548 155.28 309.516 155.28C307.752 155.28 306.24 154.524 305.12 153.068V160.404H301.228V140.048H304.812V142.232C305.96 140.636 307.612 139.768 309.516 139.768C313.548 139.768 316.152 143.128 316.152 147.524ZM312.148 147.524C312.148 144.724 310.552 143.212 308.648 143.212C306.744 143.212 305.148 144.696 305.148 147.524C305.148 150.352 306.744 151.808 308.648 151.808C310.552 151.808 312.148 150.38 312.148 147.524ZM331.274 150.212C331.274 153.348 328.894 155.28 324.638 155.28C320.382 155.28 318.002 153.236 317.694 149.904H321.418C321.446 151.444 322.762 152.424 324.694 152.424C326.206 152.424 327.354 151.948 327.354 150.884C327.354 149.932 326.738 149.54 325.31 149.26L322.622 148.756C319.934 148.28 318.31 146.796 318.31 144.472C318.31 141.7 320.69 139.768 324.414 139.768C328.166 139.768 330.742 141.756 331.022 144.976H327.298C327.158 143.52 326.066 142.624 324.414 142.624C322.986 142.624 322.034 143.156 322.034 144.108C322.034 145.004 322.65 145.368 323.994 145.62L326.878 146.152C329.79 146.712 331.274 148.056 331.274 150.212Z" fill="white"/>
<path d="M576.318 310.813C601.098 301.707 628.567 314.414 637.673 339.196L592.804 355.682L576.318 310.813Z" fill="#231F20"/>
<path d="M592.803 355.693L637.671 339.207L668.414 422.878L623.546 439.364L592.803 355.693Z" fill="#231F20"/>
<path d="M445.139 377.002C469.268 373.985 493.607 380.678 512.801 395.607C531.996 410.536 544.474 432.479 547.49 456.608C550.506 480.737 543.813 505.076 528.884 524.271C513.955 543.465 492.012 555.943 467.883 558.959L445.139 377.002Z" fill="#242121"/>
<path d="M445.139 377.002C444.517 372.023 444.881 366.971 446.211 362.134C447.541 357.297 449.811 352.769 452.891 348.809C455.971 344.849 459.801 341.534 464.162 339.054C468.523 336.574 473.33 334.978 478.308 334.355L483.047 372.263L445.139 377.002Z" fill="#242121"/>
<path d="M501.052 516.313C501.675 521.291 501.31 526.343 499.98 531.18C498.65 536.018 496.38 540.545 493.3 544.506C490.22 548.466 486.39 551.78 482.029 554.26C477.668 556.74 472.861 558.337 467.883 558.959L463.145 521.051L501.052 516.313Z" fill="#242121"/>
<path d="M483.047 372.263L445.139 377.002L463.145 521.051L501.052 516.313L483.047 372.263Z" fill="#242121"/>
<path d="M596.38 493.836L600.158 540.158" stroke="black" stroke-width="2" stroke-linecap="round"/>
<path d="M546.982 506.264L565.579 548.857" stroke="black" stroke-width="2" stroke-linecap="round"/>
<path d="M538.41 555.693L577.928 545.749" stroke="black" stroke-width="2" stroke-linecap="round"/>
<path d="M627.325 533.319L587.808 543.264" stroke="black" stroke-width="2" stroke-linecap="round"/>
<path d="M591.119 285.063L452.808 319.868L487.613 458.18L625.925 423.375L591.119 285.063Z" fill="#2D2D2D"/>
<path d="M591.119 285.063L452.808 319.868L461.509 354.446L599.821 319.641L591.119 285.063Z" fill="#2D2D2D"/>
<circle cx="71.3119" cy="71.3119" r="71.3119" transform="matrix(-0.969766 0.244036 0.244036 0.969766 608.523 354.22)" fill="#2D2D2D"/>
<path d="M452.808 319.867C462.419 358.061 501.173 381.231 539.366 371.62C577.56 362.009 600.731 323.255 591.12 285.061C581.508 246.868 542.755 223.697 504.561 233.308C466.367 242.919 443.197 281.673 452.808 319.867Z" fill="#2D2D2D"/>
<path d="M591.12 285.063L452.809 319.868L468.259 381.266C469.337 385.551 473.685 388.15 477.969 387.072L600.765 356.171C605.05 355.093 607.649 350.745 606.571 346.461L591.12 285.063Z" fill="#2D2D2D"/>
<path d="M490.465 307.76C502.059 304.843 509.093 293.078 506.176 281.483C503.258 269.889 491.494 262.855 479.899 265.773C468.304 268.69 461.271 280.455 464.188 292.049C467.106 303.644 478.87 310.678 490.465 307.76Z" fill="white"/>
<path d="M489.222 302.82C495.36 301.275 499.084 295.047 497.539 288.908C495.995 282.77 489.766 279.046 483.628 280.591C477.49 282.135 473.766 288.364 475.311 294.502C476.855 300.64 483.083 304.364 489.222 302.82Z" fill="#231F20"/>
<path d="M477.471 292.648C481.563 291.618 484.045 287.466 483.016 283.374C481.986 279.282 477.834 276.799 473.742 277.829C469.649 278.859 467.167 283.011 468.197 287.103C469.226 291.195 473.379 293.678 477.471 292.648Z" fill="white"/>
<path d="M492.363 336.172C503.958 333.255 510.992 321.49 508.074 309.896C505.156 298.301 493.392 291.267 481.797 294.185C470.203 297.103 463.169 308.867 466.087 320.462C469.004 332.056 480.769 339.09 492.363 336.172Z" fill="#2D2D2D"/>
<path d="M552.214 292.224C563.808 289.306 570.842 277.542 567.925 265.947C565.007 254.353 553.243 247.319 541.648 250.237C530.054 253.154 523.02 264.919 525.937 276.513C528.855 288.108 540.619 295.142 552.214 292.224Z" fill="white"/>
<path d="M550.971 287.283C557.109 285.739 560.833 279.51 559.288 273.372C557.744 267.234 551.515 263.51 545.377 265.055C539.239 266.599 535.515 272.828 537.06 278.966C538.604 285.104 544.832 288.828 550.971 287.283Z" fill="#231F20"/>
<path d="M539.22 277.111C543.312 276.081 545.795 271.929 544.765 267.837C543.735 263.744 539.583 261.262 535.491 262.292C531.398 263.321 528.916 267.474 529.946 271.566C530.975 275.658 535.128 278.141 539.22 277.111Z" fill="white"/>
<path d="M563.99 318.15C575.585 315.232 582.619 303.468 579.701 291.873C576.783 280.279 565.019 273.245 553.424 276.162C541.83 279.08 534.796 290.845 537.714 302.439C540.631 314.034 552.396 321.068 563.99 318.15Z" fill="#2D2D2D"/>
<path d="M556.573 314.764C555.593 310.871 553.857 307.21 551.462 303.989C549.068 300.768 546.063 298.05 542.618 295.991C539.173 293.931 535.357 292.57 531.386 291.986C527.415 291.401 523.368 291.604 519.476 292.584L526.934 322.222L556.573 314.764Z" fill="#6E00FF"/>
<path d="M497.296 329.679C496.317 325.787 496.113 321.74 496.698 317.769C497.283 313.798 498.644 309.982 500.703 306.537C502.763 303.092 505.481 300.087 508.702 297.693C511.923 295.298 515.584 293.562 519.476 292.582L526.934 322.221L497.296 329.679Z" fill="#C7EAFB"/>
<path d="M497.297 329.68L526.935 322.221L539.366 371.618L497.297 329.68Z" fill="#C7EAFB"/>
<path d="M556.572 314.763L526.934 322.221L539.365 371.618L556.572 314.763Z" fill="#6E00FF"/>
<circle cx="561.988" cy="395.877" r="30.5622" transform="rotate(-30.191 561.988 395.877)" fill="#F1A3FE"/>
<path d="M541.977 422.252L568.393 406.883L600.412 461.917L541.977 422.252Z" fill="#E9C875"/>
<path d="M594.808 391.516L568.391 406.885L600.41 461.919L594.808 391.516Z" fill="#E9C875"/>
<circle cx="545.766" cy="367.987" r="12.7343" transform="rotate(-30.191 545.766 367.987)" fill="#E95050"/>
<circle cx="594.805" cy="391.505" r="10.1874" transform="rotate(-30.191 594.805 391.505)" fill="#F1A3FE"/>
<circle cx="577.195" cy="401.758" r="10.1874" transform="rotate(-30.191 577.195 401.758)" fill="#F1A3FE"/>
<circle cx="559.584" cy="412" r="10.1874" transform="rotate(-30.191 559.584 412)" fill="#F1A3FE"/>
<circle cx="541.971" cy="422.236" r="10.1874" transform="rotate(-30.191 541.971 422.236)" fill="#F1A3FE"/>
<path d="M668.423 422.91C659.948 399.845 634.379 388.018 611.314 396.492C588.25 404.968 576.423 430.536 584.897 453.601L668.422 422.91L668.423 422.91Z" fill="#231F20"/>
</svg>
