<svg width="773" height="361" viewBox="0 0 773 361" fill="none" xmlns="http://www.w3.org/2000/svg">
<circle cx="729.778" cy="293.874" r="22.3637" transform="rotate(-14.9362 729.778 293.874)" fill="#876946"/>
<path d="M710.572 308.64L732.18 302.876L744.189 347.893L710.572 308.64Z" fill="#E9C875"/>
<path d="M753.784 297.115L732.176 302.879L744.185 347.896L753.784 297.115Z" fill="#E9C875"/>
<circle cx="723.698" cy="271.075" r="9.3182" transform="rotate(-14.9362 723.698 271.075)" fill="#E95050"/>
<circle cx="753.789" cy="297.113" r="7.45456" transform="rotate(-14.9362 753.789 297.113)" fill="#876946"/>
<circle cx="739.382" cy="300.955" r="7.45456" transform="rotate(-14.9362 739.382 300.955)" fill="#876946"/>
<circle cx="724.974" cy="304.8" r="7.45456" transform="rotate(-14.9362 724.974 304.8)" fill="#876946"/>
<circle cx="710.571" cy="308.641" r="7.45456" transform="rotate(-14.9362 710.571 308.641)" fill="#876946"/>
<ellipse cx="82.6008" cy="82.5999" rx="82.6008" ry="82.5999" transform="matrix(0.893018 0.450021 -0.450035 0.893011 255.35 0)" fill="#E95050"/>
<path d="M258.018 178.255C245.356 171.875 236.85 158.964 233.931 142.284C231.011 125.604 233.829 105.634 243.464 86.5154C253.099 67.3965 267.474 53.2515 282.618 45.6739C297.762 38.0965 313.199 37.2517 325.861 43.6324C338.523 50.0132 347.029 62.9236 349.948 79.6037C352.867 96.2842 350.05 116.254 340.415 135.372C330.78 154.491 316.405 168.636 301.261 176.214C286.117 183.791 270.679 184.636 258.018 178.255Z" fill="white" stroke="white" stroke-width="14.4479"/>
<ellipse cx="82.5999" cy="30.3307" rx="82.5999" ry="30.3307" transform="matrix(-0.450035 0.893011 -0.893018 -0.450021 356.196 50.8232)" fill="#E95050"/>
<mask id="path-12-inside-1_18_10824" fill="white">
<ellipse cx="6.52723" cy="23.9078" rx="6.52723" ry="23.9078" transform="matrix(-0.450035 0.893011 -0.893018 -0.450021 350.466 47.937)"/>
</mask>
<ellipse cx="6.52723" cy="23.9078" rx="6.52723" ry="23.9078" transform="matrix(-0.450035 0.893011 -0.893018 -0.450021 350.466 47.937)" fill="white"/>
<path d="M329.743 35.9337C324.656 33.3702 320.806 30.7063 318.675 28.7866C317.53 27.755 317.49 27.4818 317.823 28.0483C318.002 28.3546 318.592 29.4143 318.894 31.1058C319.219 32.9334 319.233 35.7685 317.73 38.7497L291.926 25.746C288.08 33.3769 291.5 40.2864 292.903 42.6762C294.693 45.7262 297.147 48.2847 299.334 50.2549C303.867 54.3389 310.034 58.3593 316.739 61.7379L329.743 35.9337ZM317.73 38.7497C316.228 41.731 313.941 43.407 312.278 44.2325C310.74 44.9965 309.537 45.1529 309.184 45.1906C308.53 45.2604 308.774 45.1299 310.284 45.4365C313.095 46.0071 317.527 47.5167 322.614 50.0801L335.618 24.2759C328.913 20.8973 322.013 18.3322 316.033 17.1184C313.148 16.5329 309.632 16.0828 306.115 16.4584C303.36 16.7527 295.772 18.1151 291.926 25.746L317.73 38.7497ZM322.614 50.0801C327.701 52.6436 331.551 55.3075 333.682 57.2272C334.827 58.2588 334.866 58.5319 334.534 57.9655C334.354 57.6592 333.764 56.5994 333.463 54.9079C333.137 53.0804 333.124 50.2453 334.626 47.264L360.431 60.2678C364.276 52.6368 360.857 45.7273 359.454 43.3376C357.664 40.2875 355.21 37.7291 353.023 35.7589C348.49 31.6749 342.322 27.6545 335.618 24.2759L322.614 50.0801ZM334.626 47.264C336.129 44.2828 338.415 42.6068 340.078 41.7813C341.617 41.0173 342.82 40.8609 343.173 40.8232C343.826 40.7534 343.583 40.8839 342.072 40.5773C339.262 40.0067 334.83 38.4971 329.743 35.9337L316.739 61.7379C323.443 65.1165 330.344 67.6815 336.324 68.8953C339.208 69.4809 342.725 69.931 346.241 69.5554C348.997 69.2611 356.585 67.8987 360.431 60.2678L334.626 47.264Z" fill="white" mask="url(#path-12-inside-1_18_10824)"/>
<rect x="528.568" y="130.465" width="38.2179" height="25.4786" rx="12.7393" transform="rotate(45.0889 528.568 130.465)" fill="#F0EBCD"/>
<rect x="506.535" y="132.936" width="63.6964" height="25.4786" rx="12.7393" transform="rotate(45.0889 506.535 132.936)" fill="#F8F5D3"/>
<path d="M461.764 179.37L483.349 201.022L436.435 247.792L461.764 179.37Z" fill="#E9C875"/>
<path d="M504.929 222.674L483.343 201.022L436.429 247.791L504.929 222.674Z" fill="#E9C875"/>
<g opacity="0.5">
<mask id="mask0_18_10824" style="mask-type:alpha" maskUnits="userSpaceOnUse" x="436" y="179" width="69" height="69">
<path d="M461.764 179.37L483.349 201.022L436.435 247.792L461.764 179.37Z" fill="#E9C875"/>
<path d="M504.929 222.674L483.343 201.022L436.429 247.791L504.929 222.674Z" fill="#E9C875"/>
</mask>
<g mask="url(#mask0_18_10824)">
<line y1="-1.27393" x2="108.663" y2="-1.27393" transform="matrix(-0.933803 0.357787 -0.139534 -0.990217 496.21 192.143)" stroke="#C9AC62" stroke-width="2.54786"/>
<line y1="-1.27393" x2="108.663" y2="-1.27393" transform="matrix(-0.933803 0.357787 -0.139534 -0.990217 498.903 211.266)" stroke="#C9AC62" stroke-width="2.54786"/>
<line y1="-1.27393" x2="108.663" y2="-1.27393" transform="matrix(-0.933803 0.357787 -0.139534 -0.990217 501.599 230.39)" stroke="#C9AC62" stroke-width="2.54786"/>
<line y1="-1.27393" x2="98.9659" y2="-1.27393" transform="matrix(-0.396022 1.02407 -0.895854 -0.129072 452.522 178.809)" stroke="#C9AC62" stroke-width="2.54786"/>
<line y1="-1.27393" x2="98.9659" y2="-1.27393" transform="matrix(-0.396022 1.02407 -0.895854 -0.129072 471.635 181.562)" stroke="#C9AC62" stroke-width="2.54786"/>
<line y1="-1.27393" x2="98.9659" y2="-1.27393" transform="matrix(-0.396022 1.02407 -0.895854 -0.129072 490.748 184.317)" stroke="#C9AC62" stroke-width="2.54786"/>
</g>
</g>
<rect x="488.226" y="142.195" width="76.4357" height="25.4786" rx="12.7393" transform="rotate(45.0889 488.226 142.195)" fill="#F0EBCD"/>
<rect x="469.916" y="151.454" width="89.175" height="25.4786" rx="12.7393" transform="rotate(45.0889 469.916 151.454)" fill="#F8F5D3"/>
<line x1="506.936" y1="162.246" x2="508.168" y2="167.19" stroke="#F1A3FE" stroke-width="2.54786" stroke-linecap="round"/>
<line x1="487.733" y1="162.763" x2="492.829" y2="162.771" stroke="#FFCC01" stroke-width="2.54786" stroke-linecap="round"/>
<line x1="516.208" y1="187.686" x2="517.441" y2="192.631" stroke="#9E6BE1" stroke-width="2.54786" stroke-linecap="round"/>
<line x1="505.758" y1="217.837" x2="510.678" y2="219.164" stroke="#F1A3FE" stroke-width="2.54786" stroke-linecap="round"/>
<line x1="527.882" y1="164.086" x2="529.115" y2="169.03" stroke="#AEDEF9" stroke-width="2.54786" stroke-linecap="round"/>
<line x1="498.745" y1="189.637" x2="500.057" y2="194.561" stroke="#AEDEF9" stroke-width="2.54786" stroke-linecap="round"/>
<line x1="505.678" y1="148.689" x2="510.774" y2="148.697" stroke="#9E6BE1" stroke-width="2.54786" stroke-linecap="round"/>
<line x1="530.492" y1="151.713" x2="535.587" y2="151.721" stroke="#9E6BE1" stroke-width="2.54786" stroke-linecap="round"/>
<line x1="472.798" y1="167.225" x2="477.718" y2="168.552" stroke="#AEDEF9" stroke-width="2.54786" stroke-linecap="round"/>
<line x1="480.695" y1="183.679" x2="482.006" y2="188.603" stroke="#FFCC01" stroke-width="2.54786" stroke-linecap="round"/>
<line x1="523.208" y1="179.516" x2="528.132" y2="178.205" stroke="#FFCC01" stroke-width="2.54786" stroke-linecap="round"/>
<rect x="608.457" y="53.7378" width="21.5746" height="14.383" rx="7.19152" transform="rotate(-37.1947 608.457 53.7378)" fill="#E87070"/>
<rect x="608.647" y="65.8857" width="35.9576" height="14.383" rx="7.19152" transform="rotate(-37.1947 608.647 65.8857)" fill="#E87070"/>
<path d="M631.23 94.4531L644.979 84.0192L667.586 113.808L631.23 94.4531Z" fill="#E9C875"/>
<path d="M658.729 73.585L644.98 84.0189L667.586 113.808L658.729 73.585Z" fill="#E9C875"/>
<g opacity="0.5">
<mask id="mask1_18_10824" style="mask-type:alpha" maskUnits="userSpaceOnUse" x="631" y="73" width="37" height="41">
<path d="M631.23 94.4531L644.979 84.0192L667.586 113.808L631.23 94.4531Z" fill="#E9C875"/>
<path d="M658.729 73.585L644.98 84.0189L667.586 113.808L658.729 73.585Z" fill="#E9C875"/>
</mask>
<g mask="url(#mask1_18_10824)">
<line y1="-0.719152" x2="61.3417" y2="-0.719152" transform="matrix(0.229165 0.973387 -0.999986 0.00531335 640.987 76.1538)" stroke="#C9AC62" stroke-width="1.4383"/>
<line y1="-0.719152" x2="61.3417" y2="-0.719152" transform="matrix(0.229165 0.973387 -0.999986 0.00531335 651.887 76.0957)" stroke="#C9AC62" stroke-width="1.4383"/>
<line y1="-0.719152" x2="61.3417" y2="-0.719152" transform="matrix(0.229165 0.973387 -0.999986 0.00531335 662.791 76.0386)" stroke="#C9AC62" stroke-width="1.4383"/>
<line y1="-0.719152" x2="55.8678" y2="-0.719152" transform="matrix(0.961626 0.529939 -0.24819 0.870411 630.216 99.582)" stroke="#C9AC62" stroke-width="1.4383"/>
<line y1="-0.719152" x2="55.8678" y2="-0.719152" transform="matrix(0.961626 0.529939 -0.24819 0.870411 633.205 89.0981)" stroke="#C9AC62" stroke-width="1.4383"/>
<line y1="-0.719152" x2="55.8678" y2="-0.719152" transform="matrix(0.961626 0.529939 -0.24819 0.870411 636.194 78.6143)" stroke="#C9AC62" stroke-width="1.4383"/>
</g>
</g>
<rect x="612.441" y="76.832" width="43.1491" height="14.383" rx="7.19152" transform="rotate(-37.1947 612.441 76.832)" fill="#E87070"/>
<rect x="616.234" y="87.7769" width="50.3407" height="14.383" rx="7.19152" transform="rotate(-37.1947 616.234 87.7769)" fill="#E87070"/>
<mask id="mask2_18_10824" style="mask-type:alpha" maskUnits="userSpaceOnUse" x="571" y="286" width="55" height="55">
<ellipse cx="598.164" cy="313.164" rx="27.1639" ry="27.164" fill="#D9D9D9"/>
</mask>
<g mask="url(#mask2_18_10824)">
<path d="M601.961 307.583L600.195 310.642L596.663 310.642L594.897 307.583L596.663 304.524L600.195 304.524L601.961 307.583Z" fill="#5F8CD6"/>
<path d="M607.258 292.291L605.492 295.35L601.96 295.35L600.194 292.291L601.96 289.232L605.492 289.232L607.258 292.291Z" fill="#C38DD4"/>
<path d="M591.367 295.352L589.601 298.411L586.069 298.411L584.303 295.352L586.069 292.293L589.601 292.293L591.367 295.352Z" fill="#C38DD4"/>
<path opacity="0.9" d="M586.078 310.639L584.312 313.698L580.78 313.698L579.014 310.639L580.78 307.581L584.312 307.581L586.078 310.639Z" fill="#4F81D3"/>
<path d="M607.258 310.639L605.492 313.698L601.96 313.698L600.194 310.639L601.96 307.581L605.492 307.581L607.258 310.639Z" fill="#5F8CD6"/>
<path d="M612.555 295.347L610.789 298.406L607.257 298.406L605.491 295.347L607.257 292.289L610.789 292.289L612.555 295.347Z" fill="#F64A24"/>
<path d="M596.664 298.408L594.898 301.467L591.366 301.467L589.6 298.408L591.366 295.349L594.898 295.349L596.664 298.408Z" fill="#F64A24"/>
<path d="M601.969 313.711L600.203 316.77L596.671 316.77L594.905 313.711L596.671 310.652L600.203 310.652L601.969 313.711Z" fill="#F64A24"/>
<path d="M591.375 313.696L589.609 316.755L586.077 316.755L584.311 313.696L586.077 310.637L589.609 310.637L591.375 313.696Z" fill="#C38DD4"/>
<path d="M612.555 301.466L610.789 304.525L607.257 304.525L605.491 301.466L607.257 298.407L610.789 298.407L612.555 301.466Z" fill="#F64A24"/>
<path opacity="0.9" d="M617.852 286.175L616.086 289.233L612.554 289.233L610.787 286.175L612.554 283.116L616.086 283.116L617.852 286.175Z" fill="#4F81D3"/>
<path opacity="0.9" d="M617.852 322.772L616.086 325.831L612.554 325.831L610.787 322.772L612.554 319.713L616.086 319.713L617.852 322.772Z" fill="#4F81D3"/>
<path d="M601.969 325.834L600.203 328.893L596.671 328.893L594.905 325.834L596.671 322.775L600.203 322.775L601.969 325.834Z" fill="#C38DD4"/>
<path d="M596.672 304.522L594.906 307.581L591.374 307.581L589.608 304.522L591.374 301.463L594.906 301.463L596.672 304.522Z" fill="#F64A24"/>
<path d="M580.828 307.578L579.062 310.637L575.53 310.637L573.764 307.578L575.53 304.519L579.062 304.519L580.828 307.578Z" fill="#F64A24"/>
<path d="M601.953 319.814L600.187 322.873L596.655 322.873L594.889 319.814L596.655 316.755L600.187 316.755L601.953 319.814Z" fill="#F64A24"/>
<path d="M617.852 310.639L616.086 313.698L612.554 313.698L610.787 310.639L612.554 307.581L616.086 307.581L617.852 310.639Z" fill="#5F8CD6"/>
<path d="M601.969 301.466L600.203 304.525L596.671 304.525L594.905 301.466L596.671 298.407L600.203 298.407L601.969 301.466Z" fill="#C38DD4"/>
<path d="M607.258 322.772L605.492 325.831L601.96 325.831L600.194 322.772L601.96 319.713L605.492 319.713L607.258 322.772Z" fill="#C38DD4"/>
<path d="M591.375 325.834L589.609 328.893L586.077 328.893L584.311 325.834L586.077 322.775L589.609 322.775L591.375 325.834Z" fill="#4F81D3"/>
<path d="M586.078 304.522L584.312 307.581L580.78 307.581L579.014 304.522L580.78 301.463L584.312 301.463L586.078 304.522Z" fill="#C38DD4"/>
<path d="M586.078 286.17L584.312 289.229L580.78 289.229L579.014 286.17L580.78 283.111L584.312 283.111L586.078 286.17Z" fill="#C38DD4"/>
<path d="M607.258 316.757L605.492 319.815L601.96 319.815L600.194 316.757L601.96 313.698L605.492 313.698L607.258 316.757Z" fill="#C38DD4"/>
<path d="M617.852 304.522L616.086 307.581L612.554 307.581L610.787 304.522L612.554 301.463L616.086 301.463L617.852 304.522Z" fill="#C38DD4"/>
<path d="M575.531 292.287L573.765 295.346L570.233 295.346L568.467 292.287L570.233 289.229L573.765 289.229L575.531 292.287Z" fill="#C38DD4"/>
<path d="M623.148 313.696L621.382 316.755L617.85 316.755L616.084 313.696L617.85 310.637L621.382 310.637L623.148 313.696Z" fill="#C38DD4"/>
<path d="M580.828 319.814L579.062 322.873L575.53 322.873L573.764 319.814L575.53 316.755L579.062 316.755L580.828 319.814Z" fill="#C38DD4"/>
<path d="M607.258 304.522L605.492 307.581L601.96 307.581L600.194 304.522L601.96 301.463L605.492 301.463L607.258 304.522Z" fill="#C38DD4"/>
<path opacity="0.9" d="M612.555 325.828L610.789 328.887L607.257 328.887L605.491 325.828L607.257 322.769L610.789 322.769L612.555 325.828Z" fill="#4F81D3"/>
<path d="M596.664 292.291L594.898 295.35L591.366 295.35L589.6 292.291L591.366 289.232L594.898 289.232L596.664 292.291Z" fill="#C38DD4"/>
<path opacity="0.9" d="M591.367 307.578L589.601 310.637L586.069 310.637L584.303 307.578L586.069 304.519L589.601 304.519L591.367 307.578Z" fill="#4F81D3"/>
<path opacity="0.9" d="M612.555 307.579L610.789 310.638L607.257 310.638L605.491 307.579L607.257 304.52L610.789 304.52L612.555 307.579Z" fill="#4F81D3"/>
<path opacity="0.9" d="M601.969 295.347L600.203 298.406L596.671 298.406L594.905 295.347L596.671 292.289L600.203 292.289L601.969 295.347Z" fill="#4F81D3"/>
<path d="M596.672 310.636L594.906 313.694L591.374 313.694L589.608 310.636L591.374 307.577L594.906 307.577L596.672 310.636Z" fill="#C38DD4"/>
<path d="M617.852 298.405L616.086 301.464L612.554 301.464L610.787 298.405L612.554 295.346L616.086 295.346L617.852 298.405Z" fill="#C38DD4"/>
<path d="M575.531 286.17L573.765 289.229L570.233 289.229L568.467 286.17L570.233 283.111L573.765 283.111L575.531 286.17Z" fill="#C38DD4"/>
<path d="M623.148 307.579L621.382 310.638L617.85 310.638L616.084 307.579L617.85 304.52L621.382 304.52L623.148 307.579Z" fill="#C38DD4"/>
<path d="M580.828 313.697L579.062 316.756L575.53 316.756L573.764 313.697L575.53 310.638L579.062 310.638L580.828 313.697Z" fill="#C38DD4"/>
<path d="M607.258 298.405L605.492 301.464L601.96 301.464L600.194 298.405L601.96 295.346L605.492 295.346L607.258 298.405Z" fill="#F64A24"/>
<path d="M612.555 283.113L610.789 286.172L607.257 286.172L605.491 283.113L607.257 280.054L610.789 280.054L612.555 283.113Z" fill="#5F8CD6"/>
<path d="M612.555 319.711L610.789 322.77L607.257 322.77L605.491 319.711L607.257 316.652L610.789 316.652L612.555 319.711Z" fill="#5F8CD6"/>
<path d="M596.664 322.772L594.898 325.831L591.366 325.831L589.6 322.772L591.366 319.713L594.898 319.713L596.664 322.772Z" fill="#4F81D3"/>
<path d="M591.375 301.462L589.609 304.521L586.077 304.521L584.311 301.462L586.077 298.403L589.609 298.403L591.375 301.462Z" fill="#F64A24"/>
<path d="M596.656 316.754L594.89 319.813L591.358 319.813L589.592 316.754L591.358 313.695L594.89 313.695L596.656 316.754Z" fill="#F64A24"/>
<path d="M612.562 313.698L610.796 316.757L607.264 316.757L605.498 313.698L607.264 310.639L610.796 310.639L612.562 313.698Z" fill="#C38DD4"/>
<path opacity="0.9" d="M580.828 289.226L579.062 292.285L575.53 292.285L573.764 289.226L575.53 286.168L579.062 286.168L580.828 289.226Z" fill="#4F81D3"/>
<path opacity="0.9" d="M586.125 316.754L584.359 319.813L580.827 319.813L579.061 316.754L580.827 313.695L584.359 313.695L586.125 316.754Z" fill="#4F81D3"/>
<path opacity="0.9" d="M586.125 298.402L584.359 301.461L580.827 301.461L579.061 298.402L580.827 295.343L584.359 295.343L586.125 298.402Z" fill="#4F81D3"/>
<path d="M612.516 325.861L610.75 328.919L607.218 328.919L605.452 325.861L607.218 322.802L610.75 322.802L612.516 325.861Z" fill="#C38DD4"/>
<path d="M596.664 328.994L594.898 332.053L591.366 332.053L589.6 328.994L591.366 325.935L594.898 325.935L596.664 328.994Z" fill="#C38DD4"/>
<path d="M591.375 325.929L589.609 328.987L586.077 328.987L584.311 325.929L586.077 322.87L589.609 322.87L591.375 325.929Z" fill="#4F81D3"/>
<path d="M617.82 328.906L616.054 331.965L612.522 331.965L610.756 328.906L612.522 325.847L616.054 325.847L617.82 328.906Z" fill="#F64A24"/>
<path d="M601.961 332.051L600.195 335.109L596.663 335.109L594.897 332.051L596.663 328.992L600.195 328.992L601.961 332.051Z" fill="#F64A24"/>
<path d="M623.148 319.816L621.382 322.875L617.85 322.875L616.084 319.816L617.85 316.757L621.382 316.757L623.148 319.816Z" fill="#4F81D3"/>
<path d="M607.266 322.876L605.5 325.935L601.968 325.935L600.202 322.876L601.968 319.817L605.5 319.817L607.266 322.876Z" fill="#C38DD4"/>
<path d="M586.125 341.221L584.359 344.279L580.827 344.279L579.061 341.221L580.827 338.162L584.359 338.162L586.125 341.221Z" fill="#F64A24"/>
<path d="M607.266 335.108L605.5 338.167L601.968 338.167L600.202 335.108L601.968 332.049L605.5 332.049L607.266 335.108Z" fill="#C38DD4"/>
<path d="M612.531 319.735L610.765 322.794L607.233 322.794L605.467 319.735L607.233 316.676L610.765 316.676L612.531 319.735Z" fill="#C38DD4"/>
<path d="M596.672 322.876L594.906 325.935L591.374 325.935L589.608 322.876L591.374 319.817L594.906 319.817L596.672 322.876Z" fill="#4F81D3"/>
<path d="M591.375 319.812L589.609 322.871L586.077 322.871L584.311 319.812L586.077 316.753L589.609 316.753L591.375 319.812Z" fill="#C38DD4"/>
<path d="M623.148 338.165L621.382 341.224L617.85 341.224L616.084 338.165L617.85 335.106L621.382 335.106L623.148 338.165Z" fill="#C38DD4"/>
<path d="M617.836 322.776L616.07 325.835L612.538 325.835L610.772 322.776L612.538 319.717L616.07 319.717L617.836 322.776Z" fill="#4F81D3"/>
<path d="M601.961 325.933L600.195 328.992L596.663 328.992L594.897 325.933L596.663 322.874L600.195 322.874L601.961 325.933Z" fill="#C38DD4"/>
<path opacity="0.9" d="M617.852 341.221L616.086 344.28L612.554 344.28L610.787 341.221L612.554 338.163L616.086 338.163L617.852 341.221Z" fill="#4F81D3"/>
<path d="M607.266 328.99L605.5 332.048L601.968 332.048L600.202 328.99L601.968 325.931L605.5 325.931L607.266 328.99Z" fill="#4F81D3"/>
<path d="M580.828 338.165L579.062 341.224L575.53 341.224L573.764 338.165L575.53 335.106L579.062 335.106L580.828 338.165Z" fill="#C38DD4"/>
<path d="M580.828 319.812L579.062 322.871L575.53 322.871L573.764 319.812L575.53 316.753L579.062 316.753L580.828 319.812Z" fill="#C38DD4"/>
<path d="M628.445 341.221L626.679 344.28L623.147 344.28L621.381 341.221L623.147 338.163L626.679 338.163L628.445 341.221Z" fill="#C38DD4"/>
<path d="M586.125 328.986L584.359 332.045L580.827 332.045L579.061 328.986L580.827 325.927L584.359 325.927L586.125 328.986Z" fill="#C38DD4"/>
<path d="M612.523 331.963L610.757 335.022L607.225 335.022L605.459 331.963L607.225 328.904L610.757 328.904L612.523 331.963Z" fill="#F64A24"/>
<path d="M617.852 316.755L616.086 319.814L612.554 319.814L610.787 316.755L612.554 313.696L616.086 313.696L617.852 316.755Z" fill="#5F8CD6"/>
<path d="M601.961 319.816L600.195 322.875L596.663 322.875L594.897 319.816L596.663 316.757L600.195 316.757L601.961 319.816Z" fill="#4F81D3"/>
<path d="M596.672 335.104L594.906 338.163L591.374 338.163L589.608 335.104L591.374 332.045L594.906 332.045L596.672 335.104Z" fill="#F64A24"/>
<path d="M580.836 338.157L579.07 341.216L575.538 341.216L573.772 338.157L575.538 335.098L579.07 335.098L580.836 338.157Z" fill="#F64A24"/>
<path d="M628.445 335.104L626.679 338.163L623.147 338.163L621.381 335.104L623.147 332.045L626.679 332.045L628.445 335.104Z" fill="#4F81D3"/>
<path d="M586.125 322.868L584.359 325.927L580.827 325.927L579.061 322.868L580.827 319.81L584.359 319.81L586.125 322.868Z" fill="#4F81D3"/>
<path d="M591.422 332.044L589.656 335.103L586.124 335.103L584.358 332.044L586.124 328.985L589.656 328.985L591.422 332.044Z" fill="#4F81D3"/>
<ellipse cx="613.109" cy="309.736" rx="1.65598" ry="2.00206" fill="#F6F210"/>
<ellipse cx="622.172" cy="314.017" rx="1.65598" ry="2.00206" fill="#F6F210"/>
<ellipse cx="610.469" cy="318.839" rx="1.65598" ry="2.00206" fill="#F6F210"/>
<ellipse cx="606" cy="333.342" rx="1.65598" ry="2.00206" fill="#F6F210"/>
<ellipse cx="605.633" cy="292.593" rx="1.65598" ry="2.00206" fill="#F6F210"/>
<ellipse cx="619.547" cy="321.805" rx="1.65598" ry="2.00206" fill="#F6F210"/>
<ellipse cx="596.508" cy="311.162" rx="1.65598" ry="2.00206" fill="#F6F210"/>
<ellipse cx="599.82" cy="317.017" rx="1.65598" ry="2.00206" fill="#F6F210"/>
<ellipse cx="589.078" cy="328.746" rx="1.65598" ry="2.00206" fill="#F6F210"/>
<ellipse cx="592.109" cy="290.895" rx="1.65598" ry="2.00206" fill="#F6F210"/>
<ellipse cx="574.578" cy="316.508" rx="1.65598" ry="2.00206" fill="#F6F210"/>
<ellipse cx="586.953" cy="304.473" rx="1.65598" ry="2.00206" fill="#F6F210"/>
<ellipse cx="578.953" cy="335.434" rx="1.65598" ry="2.00206" fill="#F6F210"/>
<ellipse cx="597.836" cy="301.161" rx="1.65598" ry="2.00206" fill="#F6F210"/>
<ellipse cx="582.265" cy="319.995" rx="1.65598" ry="2.00206" fill="#F6F210"/>
<ellipse cx="580.187" cy="301.667" rx="1.65598" ry="2.00206" fill="#F6F210"/>
<ellipse cx="570.351" cy="324.13" rx="1.65598" ry="2.00206" fill="#F6F210"/>
<ellipse cx="601.828" cy="323.609" rx="1.65598" ry="2.00206" fill="#F6F210"/>
<ellipse cx="596.508" cy="334.887" rx="1.65598" ry="2.00206" fill="#F6F210"/>
<ellipse cx="612.023" cy="300.634" rx="1.65598" ry="2.00206" fill="#F6F210"/>
<ellipse cx="608.711" cy="304.473" rx="1.65598" ry="2.00206" fill="#F6F210"/>
<ellipse cx="592.523" cy="319.299" rx="1.65598" ry="2.00206" fill="#F6F210"/>
</g>
<mask id="mask3_18_10824" style="mask-type:alpha" maskUnits="userSpaceOnUse" x="120" y="30" width="55" height="55">
<ellipse cx="147.164" cy="57.164" rx="27.1639" ry="27.164" fill="#D9D9D9"/>
</mask>
<g mask="url(#mask3_18_10824)">
<path d="M150.961 51.5828L149.195 54.6417L145.663 54.6417L143.897 51.5828L145.663 48.524L149.195 48.524L150.961 51.5828Z" fill="#5F8CD6"/>
<path d="M156.258 36.2908L154.492 39.3497L150.96 39.3497L149.194 36.2908L150.96 33.232L154.492 33.232L156.258 36.2908Z" fill="#C38DD4"/>
<path d="M140.367 39.3519L138.601 42.4107L135.069 42.4107L133.303 39.3519L135.069 36.293L138.601 36.293L140.367 39.3519Z" fill="#C38DD4"/>
<path opacity="0.9" d="M135.078 54.6395L133.312 57.6983L129.78 57.6983L128.014 54.6395L129.78 51.5806L133.312 51.5806L135.078 54.6395Z" fill="#4F81D3"/>
<path d="M156.258 54.6395L154.492 57.6983L150.96 57.6983L149.194 54.6395L150.96 51.5806L154.492 51.5806L156.258 54.6395Z" fill="#5F8CD6"/>
<path d="M161.555 39.3475L159.789 42.4063L156.257 42.4063L154.491 39.3475L156.257 36.2886L159.789 36.2886L161.555 39.3475Z" fill="#F64A24"/>
<path d="M145.664 42.408L143.898 45.4669L140.366 45.4669L138.6 42.408L140.366 39.3492L143.898 39.3492L145.664 42.408Z" fill="#F64A24"/>
<path d="M150.969 57.7108L149.203 60.7696L145.671 60.7696L143.905 57.7108L145.671 54.6519L149.203 54.6519L150.969 57.7108Z" fill="#F64A24"/>
<path d="M140.375 57.6961L138.609 60.7549L135.077 60.7549L133.311 57.6961L135.077 54.6373L138.609 54.6373L140.375 57.6961Z" fill="#C38DD4"/>
<path d="M161.555 45.4661L159.789 48.525L156.257 48.525L154.491 45.4661L156.257 42.4073L159.789 42.4073L161.555 45.4661Z" fill="#F64A24"/>
<path opacity="0.9" d="M166.852 30.1746L165.086 33.2335L161.554 33.2335L159.787 30.1746L161.554 27.1158L165.086 27.1158L166.852 30.1746Z" fill="#4F81D3"/>
<path opacity="0.9" d="M166.852 66.7723L165.086 69.8311L161.554 69.8311L159.787 66.7723L161.554 63.7134L165.086 63.7134L166.852 66.7723Z" fill="#4F81D3"/>
<path d="M150.969 69.8338L149.203 72.8926L145.671 72.8926L143.905 69.8338L145.671 66.775L149.203 66.775L150.969 69.8338Z" fill="#C38DD4"/>
<path d="M145.672 48.5223L143.906 51.5811L140.374 51.5811L138.608 48.5223L140.374 45.4634L143.906 45.4634L145.672 48.5223Z" fill="#F64A24"/>
<path d="M129.828 51.5779L128.062 54.6368L124.53 54.6368L122.764 51.5779L124.53 48.5191L128.062 48.5191L129.828 51.5779Z" fill="#F64A24"/>
<path d="M150.953 63.8143L149.187 66.8731L145.655 66.8731L143.889 63.8143L145.655 60.7554L149.187 60.7554L150.953 63.8143Z" fill="#F64A24"/>
<path d="M166.852 54.6395L165.086 57.6983L161.554 57.6983L159.787 54.6395L161.554 51.5806L165.086 51.5806L166.852 54.6395Z" fill="#5F8CD6"/>
<path d="M150.969 45.4661L149.203 48.525L145.671 48.525L143.905 45.4661L145.671 42.4073L149.203 42.4073L150.969 45.4661Z" fill="#C38DD4"/>
<path d="M156.258 66.7723L154.492 69.8311L150.96 69.8311L149.194 66.7723L150.96 63.7134L154.492 63.7134L156.258 66.7723Z" fill="#C38DD4"/>
<path d="M140.375 69.8338L138.609 72.8926L135.077 72.8926L133.311 69.8338L135.077 66.775L138.609 66.775L140.375 69.8338Z" fill="#4F81D3"/>
<path d="M135.078 48.5223L133.312 51.5811L129.78 51.5811L128.014 48.5223L129.78 45.4634L133.312 45.4634L135.078 48.5223Z" fill="#C38DD4"/>
<path d="M135.078 30.1697L133.312 33.2286L129.78 33.2286L128.014 30.1697L129.78 27.1109L133.312 27.1109L135.078 30.1697Z" fill="#C38DD4"/>
<path d="M156.258 60.7566L154.492 63.8155L150.96 63.8155L149.194 60.7566L150.96 57.6978L154.492 57.6978L156.258 60.7566Z" fill="#C38DD4"/>
<path d="M166.852 48.5223L165.086 51.5811L161.554 51.5811L159.787 48.5223L161.554 45.4634L165.086 45.4634L166.852 48.5223Z" fill="#C38DD4"/>
<path d="M124.531 36.2874L122.765 39.3462L119.233 39.3462L117.467 36.2874L119.233 33.2286L122.765 33.2286L124.531 36.2874Z" fill="#C38DD4"/>
<path d="M172.148 57.6961L170.382 60.7549L166.85 60.7549L165.084 57.6961L166.85 54.6373L170.382 54.6373L172.148 57.6961Z" fill="#C38DD4"/>
<path d="M129.828 63.8143L128.062 66.8731L124.53 66.8731L122.764 63.8143L124.53 60.7554L128.062 60.7554L129.828 63.8143Z" fill="#C38DD4"/>
<path d="M156.258 48.5223L154.492 51.5811L150.96 51.5811L149.194 48.5223L150.96 45.4634L154.492 45.4634L156.258 48.5223Z" fill="#C38DD4"/>
<path opacity="0.9" d="M161.555 69.8279L159.789 72.8868L156.257 72.8868L154.491 69.8279L156.257 66.7691L159.789 66.7691L161.555 69.8279Z" fill="#4F81D3"/>
<path d="M145.664 36.2908L143.898 39.3497L140.366 39.3497L138.6 36.2908L140.366 33.232L143.898 33.232L145.664 36.2908Z" fill="#C38DD4"/>
<path opacity="0.9" d="M140.367 51.5779L138.601 54.6368L135.069 54.6368L133.303 51.5779L135.069 48.5191L138.601 48.5191L140.367 51.5779Z" fill="#4F81D3"/>
<path opacity="0.9" d="M161.555 51.5789L159.789 54.6378L156.257 54.6378L154.491 51.5789L156.257 48.5201L159.789 48.5201L161.555 51.5789Z" fill="#4F81D3"/>
<path opacity="0.9" d="M150.969 39.3475L149.203 42.4063L145.671 42.4063L143.905 39.3475L145.671 36.2886L149.203 36.2886L150.969 39.3475Z" fill="#4F81D3"/>
<path d="M145.672 54.6356L143.906 57.6944L140.374 57.6944L138.608 54.6356L140.374 51.5767L143.906 51.5767L145.672 54.6356Z" fill="#C38DD4"/>
<path d="M166.852 42.4051L165.086 45.4639L161.554 45.4639L159.787 42.4051L161.554 39.3463L165.086 39.3463L166.852 42.4051Z" fill="#C38DD4"/>
<path d="M124.531 30.1697L122.765 33.2286L119.233 33.2286L117.467 30.1697L119.233 27.1109L122.765 27.1109L124.531 30.1697Z" fill="#C38DD4"/>
<path d="M172.148 51.5789L170.382 54.6378L166.85 54.6378L165.084 51.5789L166.85 48.5201L170.382 48.5201L172.148 51.5789Z" fill="#C38DD4"/>
<path d="M129.828 57.6971L128.062 60.7559L124.53 60.7559L122.764 57.6971L124.53 54.6382L128.062 54.6382L129.828 57.6971Z" fill="#C38DD4"/>
<path d="M156.258 42.4051L154.492 45.4639L150.96 45.4639L149.194 42.4051L150.96 39.3463L154.492 39.3463L156.258 42.4051Z" fill="#F64A24"/>
<path d="M161.555 27.1131L159.789 30.1719L156.257 30.1719L154.491 27.1131L156.257 24.0543L159.789 24.0543L161.555 27.1131Z" fill="#5F8CD6"/>
<path d="M161.555 63.7112L159.789 66.7701L156.257 66.7701L154.491 63.7112L156.257 60.6524L159.789 60.6524L161.555 63.7112Z" fill="#5F8CD6"/>
<path d="M145.664 66.7723L143.898 69.8311L140.366 69.8311L138.6 66.7723L140.366 63.7134L143.898 63.7134L145.664 66.7723Z" fill="#4F81D3"/>
<path d="M140.375 45.4617L138.609 48.5206L135.077 48.5206L133.311 45.4617L135.077 42.4029L138.609 42.4029L140.375 45.4617Z" fill="#F64A24"/>
<path d="M145.656 60.7537L143.89 63.8126L140.358 63.8126L138.592 60.7537L140.358 57.6949L143.89 57.6949L145.656 60.7537Z" fill="#F64A24"/>
<path d="M161.562 57.6981L159.796 60.7569L156.264 60.7569L154.498 57.6981L156.264 54.6392L159.796 54.6392L161.562 57.6981Z" fill="#C38DD4"/>
<path opacity="0.9" d="M129.828 33.2264L128.062 36.2852L124.53 36.2852L122.764 33.2264L124.53 30.1675L128.062 30.1675L129.828 33.2264Z" fill="#4F81D3"/>
<path opacity="0.9" d="M135.125 60.7537L133.359 63.8126L129.827 63.8126L128.061 60.7537L129.827 57.6949L133.359 57.6949L135.125 60.7537Z" fill="#4F81D3"/>
<path opacity="0.9" d="M135.125 42.4017L133.359 45.4605L129.827 45.4605L128.061 42.4017L129.827 39.3428L133.359 39.3428L135.125 42.4017Z" fill="#4F81D3"/>
<path d="M161.516 69.8607L159.75 72.9195L156.218 72.9195L154.452 69.8607L156.218 66.8018L159.75 66.8018L161.516 69.8607Z" fill="#C38DD4"/>
<path d="M145.664 72.994L143.898 76.0528L140.366 76.0528L138.6 72.994L140.366 69.9351L143.898 69.9351L145.664 72.994Z" fill="#C38DD4"/>
<path d="M140.375 69.9285L138.609 72.9874L135.077 72.9874L133.311 69.9285L135.077 66.8697L138.609 66.8697L140.375 69.9285Z" fill="#4F81D3"/>
<path d="M166.82 72.9061L165.054 75.9649L161.522 75.9649L159.756 72.9061L161.522 69.8472L165.054 69.8472L166.82 72.9061Z" fill="#F64A24"/>
<path d="M150.961 76.0506L149.195 79.1094L145.663 79.1094L143.897 76.0506L145.663 72.9918L149.195 72.9918L150.961 76.0506Z" fill="#F64A24"/>
<path d="M172.148 63.8162L170.382 66.8751L166.85 66.8751L165.084 63.8162L166.85 60.7574L170.382 60.7574L172.148 63.8162Z" fill="#4F81D3"/>
<path d="M156.266 66.8763L154.5 69.9351L150.968 69.9351L149.202 66.8763L150.968 63.8174L154.5 63.8174L156.266 66.8763Z" fill="#C38DD4"/>
<path d="M135.125 85.2205L133.359 88.2794L129.827 88.2794L128.061 85.2205L129.827 82.1617L133.359 82.1617L135.125 85.2205Z" fill="#F64A24"/>
<path d="M156.266 79.1082L154.5 82.167L150.968 82.167L149.202 79.1082L150.968 76.0494L154.5 76.0494L156.266 79.1082Z" fill="#C38DD4"/>
<path d="M161.531 63.7352L159.765 66.794L156.233 66.794L154.467 63.7352L156.233 60.6763L159.765 60.6763L161.531 63.7352Z" fill="#C38DD4"/>
<path d="M145.672 66.8763L143.906 69.9351L140.374 69.9351L138.608 66.8763L140.374 63.8174L143.906 63.8174L145.672 66.8763Z" fill="#4F81D3"/>
<path d="M140.375 63.8118L138.609 66.8707L135.077 66.8707L133.311 63.8118L135.077 60.753L138.609 60.753L140.375 63.8118Z" fill="#C38DD4"/>
<path d="M172.148 82.1649L170.382 85.2237L166.85 85.2237L165.084 82.1649L166.85 79.106L170.382 79.106L172.148 82.1649Z" fill="#C38DD4"/>
<path d="M166.836 66.7762L165.07 69.835L161.538 69.835L159.772 66.7762L161.538 63.7173L165.07 63.7173L166.836 66.7762Z" fill="#4F81D3"/>
<path d="M150.961 69.9329L149.195 72.9918L145.663 72.9918L143.897 69.9329L145.663 66.8741L149.195 66.8741L150.961 69.9329Z" fill="#C38DD4"/>
<path opacity="0.9" d="M166.852 85.2215L165.086 88.2803L161.554 88.2803L159.787 85.2215L161.554 82.1627L165.086 82.1627L166.852 85.2215Z" fill="#4F81D3"/>
<path d="M156.266 72.9896L154.5 76.0484L150.968 76.0484L149.202 72.9896L150.968 69.9307L154.5 69.9307L156.266 72.9896Z" fill="#4F81D3"/>
<path d="M129.828 82.1649L128.062 85.2237L124.53 85.2237L122.764 82.1649L124.53 79.106L128.062 79.106L129.828 82.1649Z" fill="#C38DD4"/>
<path d="M129.828 63.8118L128.062 66.8707L124.53 66.8707L122.764 63.8118L124.53 60.753L128.062 60.753L129.828 63.8118Z" fill="#C38DD4"/>
<path d="M177.445 85.2215L175.679 88.2803L172.147 88.2803L170.381 85.2215L172.147 82.1627L175.679 82.1627L177.445 85.2215Z" fill="#C38DD4"/>
<path d="M135.125 72.9861L133.359 76.045L129.827 76.045L128.061 72.9861L129.827 69.9273L133.359 69.9273L135.125 72.9861Z" fill="#C38DD4"/>
<path d="M161.523 75.9627L159.757 79.0215L156.225 79.0215L154.459 75.9627L156.225 72.9039L159.757 72.9039L161.523 75.9627Z" fill="#F64A24"/>
<path d="M166.852 60.7552L165.086 63.814L161.554 63.814L159.787 60.7552L161.554 57.6963L165.086 57.6963L166.852 60.7552Z" fill="#5F8CD6"/>
<path d="M150.961 63.8162L149.195 66.8751L145.663 66.8751L143.897 63.8162L145.663 60.7574L149.195 60.7574L150.961 63.8162Z" fill="#4F81D3"/>
<path d="M145.672 79.1038L143.906 82.1627L140.374 82.1627L138.608 79.1038L140.374 76.045L143.906 76.045L145.672 79.1038Z" fill="#F64A24"/>
<path d="M129.836 82.157L128.07 85.2159L124.538 85.2159L122.772 82.157L124.538 79.0982L128.07 79.0982L129.836 82.157Z" fill="#F64A24"/>
<path d="M177.445 79.1038L175.679 82.1627L172.147 82.1627L170.381 79.1038L172.147 76.045L175.679 76.045L177.445 79.1038Z" fill="#4F81D3"/>
<path d="M135.125 66.8685L133.359 69.9273L129.827 69.9273L128.061 66.8685L129.827 63.8096L133.359 63.8096L135.125 66.8685Z" fill="#4F81D3"/>
<path d="M140.422 76.0438L138.656 79.1026L135.124 79.1026L133.358 76.0438L135.124 72.9849L138.656 72.9849L140.422 76.0438Z" fill="#4F81D3"/>
<ellipse cx="162.109" cy="53.736" rx="1.65598" ry="2.00206" fill="#F6F210"/>
<ellipse cx="171.172" cy="58.0172" rx="1.65598" ry="2.00206" fill="#F6F210"/>
<ellipse cx="159.468" cy="62.8395" rx="1.65598" ry="2.00206" fill="#F6F210"/>
<ellipse cx="155" cy="77.3424" rx="1.65598" ry="2.00206" fill="#F6F210"/>
<ellipse cx="154.633" cy="36.5929" rx="1.65598" ry="2.00206" fill="#F6F210"/>
<ellipse cx="168.547" cy="65.8048" rx="1.65598" ry="2.00206" fill="#F6F210"/>
<ellipse cx="145.508" cy="55.1617" rx="1.65598" ry="2.00206" fill="#F6F210"/>
<ellipse cx="148.82" cy="61.0172" rx="1.65598" ry="2.00206" fill="#F6F210"/>
<ellipse cx="138.078" cy="72.7457" rx="1.65598" ry="2.00206" fill="#F6F210"/>
<ellipse cx="141.109" cy="34.8951" rx="1.65598" ry="2.00206" fill="#F6F210"/>
<ellipse cx="123.578" cy="60.5084" rx="1.65598" ry="2.00206" fill="#F6F210"/>
<ellipse cx="135.953" cy="48.4728" rx="1.65598" ry="2.00206" fill="#F6F210"/>
<ellipse cx="127.953" cy="79.4337" rx="1.65598" ry="2.00206" fill="#F6F210"/>
<ellipse cx="146.836" cy="45.1608" rx="1.65598" ry="2.00206" fill="#F6F210"/>
<ellipse cx="131.265" cy="63.9947" rx="1.65598" ry="2.00206" fill="#F6F210"/>
<ellipse cx="129.187" cy="45.6671" rx="1.65598" ry="2.00206" fill="#F6F210"/>
<ellipse cx="119.351" cy="68.1305" rx="1.65598" ry="2.00206" fill="#F6F210"/>
<ellipse cx="150.828" cy="67.609" rx="1.65598" ry="2.00206" fill="#F6F210"/>
<ellipse cx="145.508" cy="78.8868" rx="1.65598" ry="2.00206" fill="#F6F210"/>
<ellipse cx="161.023" cy="44.6339" rx="1.65598" ry="2.00206" fill="#F6F210"/>
<ellipse cx="157.711" cy="48.4728" rx="1.65598" ry="2.00206" fill="#F6F210"/>
<ellipse cx="141.523" cy="63.2994" rx="1.65598" ry="2.00206" fill="#F6F210"/>
</g>
<mask id="mask4_18_10824" style="mask-type:alpha" maskUnits="userSpaceOnUse" x="730" y="127" width="34" height="33">
<ellipse cx="747.164" cy="143.5" rx="16.5" ry="16.5" fill="#D9D9D9"/>
</mask>
<g mask="url(#mask4_18_10824)">
<path d="M749.471 140.11L748.398 141.968L746.253 141.968L745.18 140.11L746.253 138.252L748.398 138.252L749.471 140.11Z" fill="#5F8CD6"/>
<path d="M752.688 130.821L751.616 132.679L749.47 132.679L748.398 130.821L749.47 128.963L751.616 128.963L752.688 130.821Z" fill="#C38DD4"/>
<path d="M743.036 132.681L741.963 134.539L739.818 134.539L738.745 132.681L739.818 130.823L741.963 130.823L743.036 132.681Z" fill="#C38DD4"/>
<path opacity="0.9" d="M739.823 141.967L738.751 143.825L736.605 143.825L735.532 141.967L736.605 140.109L738.751 140.109L739.823 141.967Z" fill="#4F81D3"/>
<path d="M752.688 141.967L751.616 143.825L749.47 143.825L748.398 141.967L749.47 140.109L751.616 140.109L752.688 141.967Z" fill="#5F8CD6"/>
<path d="M755.905 132.678L754.833 134.536L752.687 134.536L751.614 132.678L752.687 130.82L754.833 130.82L755.905 132.678Z" fill="#F64A24"/>
<path d="M746.253 134.537L745.18 136.395L743.035 136.395L741.962 134.537L743.035 132.679L745.18 132.679L746.253 134.537Z" fill="#F64A24"/>
<path d="M749.476 143.832L748.403 145.69L746.257 145.69L745.185 143.832L746.257 141.974L748.403 141.974L749.476 143.832Z" fill="#F64A24"/>
<path d="M743.041 143.823L741.968 145.681L739.823 145.681L738.75 143.823L739.823 141.965L741.968 141.965L743.041 143.823Z" fill="#C38DD4"/>
<path d="M755.905 136.394L754.833 138.252L752.687 138.252L751.614 136.394L752.687 134.536L754.833 134.536L755.905 136.394Z" fill="#F64A24"/>
<path opacity="0.9" d="M759.123 127.106L758.05 128.964L755.905 128.964L754.832 127.106L755.905 125.248L758.05 125.248L759.123 127.106Z" fill="#4F81D3"/>
<path opacity="0.9" d="M759.123 149.337L758.05 151.195L755.905 151.195L754.832 149.337L755.905 147.479L758.05 147.479L759.123 149.337Z" fill="#4F81D3"/>
<path d="M749.476 151.196L748.403 153.054L746.257 153.054L745.185 151.196L746.257 149.338L748.403 149.338L749.476 151.196Z" fill="#C38DD4"/>
<path d="M746.258 138.251L745.185 140.109L743.04 140.109L741.967 138.251L743.04 136.393L745.185 136.393L746.258 138.251Z" fill="#F64A24"/>
<path d="M736.634 140.107L735.561 141.965L733.416 141.965L732.343 140.107L733.416 138.249L735.561 138.249L736.634 140.107Z" fill="#F64A24"/>
<path d="M749.467 147.54L748.394 149.398L746.249 149.398L745.176 147.54L746.249 145.682L748.394 145.682L749.467 147.54Z" fill="#F64A24"/>
<path d="M759.123 141.967L758.05 143.825L755.905 143.825L754.832 141.967L755.905 140.109L758.05 140.109L759.123 141.967Z" fill="#5F8CD6"/>
<path d="M749.476 136.394L748.403 138.252L746.257 138.252L745.185 136.394L746.257 134.536L748.403 134.536L749.476 136.394Z" fill="#C38DD4"/>
<path d="M752.688 149.337L751.616 151.195L749.47 151.195L748.398 149.337L749.47 147.479L751.616 147.479L752.688 149.337Z" fill="#C38DD4"/>
<path d="M743.041 151.196L741.968 153.054L739.823 153.054L738.75 151.196L739.823 149.338L741.968 149.338L743.041 151.196Z" fill="#4F81D3"/>
<path d="M739.823 138.251L738.751 140.109L736.605 140.109L735.532 138.251L736.605 136.393L738.751 136.393L739.823 138.251Z" fill="#C38DD4"/>
<path d="M739.823 127.103L738.751 128.961L736.605 128.961L735.532 127.103L736.605 125.245L738.751 125.245L739.823 127.103Z" fill="#C38DD4"/>
<path d="M752.688 145.683L751.616 147.541L749.47 147.541L748.398 145.683L749.47 143.825L751.616 143.825L752.688 145.683Z" fill="#C38DD4"/>
<path d="M759.123 138.251L758.05 140.109L755.905 140.109L754.832 138.251L755.905 136.393L758.05 136.393L759.123 138.251Z" fill="#C38DD4"/>
<path d="M733.417 130.819L732.344 132.677L730.199 132.677L729.126 130.819L730.199 128.961L732.344 128.961L733.417 130.819Z" fill="#C38DD4"/>
<path d="M762.34 143.823L761.267 145.681L759.122 145.681L758.049 143.823L759.122 141.965L761.267 141.965L762.34 143.823Z" fill="#C38DD4"/>
<path d="M736.634 147.54L735.561 149.398L733.416 149.398L732.343 147.54L733.416 145.682L735.561 145.682L736.634 147.54Z" fill="#C38DD4"/>
<path d="M752.688 138.251L751.616 140.109L749.47 140.109L748.398 138.251L749.47 136.393L751.616 136.393L752.688 138.251Z" fill="#C38DD4"/>
<path opacity="0.9" d="M755.905 151.192L754.833 153.05L752.687 153.05L751.614 151.192L752.687 149.334L754.833 149.334L755.905 151.192Z" fill="#4F81D3"/>
<path d="M746.253 130.821L745.18 132.679L743.035 132.679L741.962 130.821L743.035 128.963L745.18 128.963L746.253 130.821Z" fill="#C38DD4"/>
<path opacity="0.9" d="M743.036 140.107L741.963 141.965L739.818 141.965L738.745 140.107L739.818 138.249L741.963 138.249L743.036 140.107Z" fill="#4F81D3"/>
<path opacity="0.9" d="M755.905 140.108L754.833 141.966L752.687 141.966L751.614 140.108L752.687 138.25L754.833 138.25L755.905 140.108Z" fill="#4F81D3"/>
<path opacity="0.9" d="M749.476 132.678L748.403 134.536L746.257 134.536L745.185 132.678L746.257 130.82L748.403 130.82L749.476 132.678Z" fill="#4F81D3"/>
<path d="M746.258 141.964L745.185 143.822L743.04 143.822L741.967 141.964L743.04 140.106L745.185 140.106L746.258 141.964Z" fill="#C38DD4"/>
<path d="M759.123 134.535L758.05 136.393L755.905 136.393L754.832 134.535L755.905 132.677L758.05 132.677L759.123 134.535Z" fill="#C38DD4"/>
<path d="M733.417 127.103L732.344 128.961L730.199 128.961L729.126 127.103L730.199 125.245L732.344 125.245L733.417 127.103Z" fill="#C38DD4"/>
<path d="M762.34 140.108L761.267 141.966L759.122 141.966L758.049 140.108L759.122 138.25L761.267 138.25L762.34 140.108Z" fill="#C38DD4"/>
<path d="M736.634 143.824L735.561 145.682L733.416 145.682L732.343 143.824L733.416 141.966L735.561 141.966L736.634 143.824Z" fill="#C38DD4"/>
<path d="M752.688 134.535L751.616 136.393L749.47 136.393L748.398 134.535L749.47 132.677L751.616 132.677L752.688 134.535Z" fill="#F64A24"/>
<path d="M755.905 125.247L754.833 127.105L752.687 127.105L751.614 125.247L752.687 123.389L754.833 123.389L755.905 125.247Z" fill="#5F8CD6"/>
<path d="M755.905 147.477L754.833 149.335L752.687 149.335L751.614 147.477L752.687 145.619L754.833 145.619L755.905 147.477Z" fill="#5F8CD6"/>
<path d="M746.253 149.337L745.18 151.195L743.035 151.195L741.962 149.337L743.035 147.479L745.18 147.479L746.253 149.337Z" fill="#4F81D3"/>
<path d="M743.041 136.392L741.968 138.25L739.823 138.25L738.75 136.392L739.823 134.534L741.968 134.534L743.041 136.392Z" fill="#F64A24"/>
<path d="M746.249 145.681L745.176 147.539L743.031 147.539L741.958 145.681L743.031 143.823L745.176 143.823L746.249 145.681Z" fill="#F64A24"/>
<path d="M755.91 143.825L754.837 145.683L752.692 145.683L751.619 143.825L752.692 141.967L754.837 141.967L755.91 143.825Z" fill="#C38DD4"/>
<path opacity="0.9" d="M736.634 128.96L735.561 130.818L733.416 130.818L732.343 128.96L733.416 127.102L735.561 127.102L736.634 128.96Z" fill="#4F81D3"/>
<path opacity="0.9" d="M739.852 145.681L738.779 147.539L736.633 147.539L735.561 145.681L736.633 143.823L738.779 143.823L739.852 145.681Z" fill="#4F81D3"/>
<path opacity="0.9" d="M739.852 134.533L738.779 136.391L736.633 136.391L735.561 134.533L736.633 132.675L738.779 132.675L739.852 134.533Z" fill="#4F81D3"/>
<path d="M755.882 151.212L754.809 153.07L752.664 153.07L751.591 151.212L752.664 149.354L754.809 149.354L755.882 151.212Z" fill="#C38DD4"/>
<path d="M746.253 153.116L745.18 154.974L743.035 154.974L741.962 153.116L743.035 151.258L745.18 151.258L746.253 153.116Z" fill="#C38DD4"/>
<path d="M743.04 151.254L741.967 153.112L739.822 153.112L738.749 151.254L739.822 149.396L741.967 149.396L743.04 151.254Z" fill="#4F81D3"/>
<path d="M759.104 153.062L758.031 154.92L755.885 154.92L754.813 153.062L755.885 151.204L758.031 151.204L759.104 153.062Z" fill="#F64A24"/>
<path d="M749.471 154.973L748.398 156.831L746.253 156.831L745.18 154.973L746.253 153.115L748.398 153.115L749.471 154.973Z" fill="#F64A24"/>
<path d="M762.34 147.541L761.267 149.399L759.122 149.399L758.049 147.541L759.122 145.683L761.267 145.683L762.34 147.541Z" fill="#4F81D3"/>
<path d="M752.692 149.4L751.62 151.258L749.474 151.258L748.402 149.4L749.474 147.542L751.62 147.542L752.692 149.4Z" fill="#C38DD4"/>
<path d="M739.852 160.542L738.779 162.4L736.633 162.4L735.561 160.542L736.633 158.684L738.779 158.684L739.852 160.542Z" fill="#F64A24"/>
<path d="M752.692 156.83L751.62 158.688L749.474 158.688L748.402 156.83L749.474 154.972L751.62 154.972L752.692 156.83Z" fill="#C38DD4"/>
<path d="M755.891 147.492L754.818 149.35L752.672 149.35L751.6 147.492L752.672 145.634L754.818 145.634L755.891 147.492Z" fill="#C38DD4"/>
<path d="M746.258 149.4L745.185 151.258L743.04 151.258L741.967 149.4L743.04 147.542L745.185 147.542L746.258 149.4Z" fill="#4F81D3"/>
<path d="M743.04 147.539L741.967 149.397L739.822 149.397L738.749 147.539L739.822 145.681L741.967 145.681L743.04 147.539Z" fill="#C38DD4"/>
<path d="M762.34 158.686L761.267 160.544L759.122 160.544L758.049 158.686L759.122 156.828L761.267 156.828L762.34 158.686Z" fill="#C38DD4"/>
<path d="M759.113 149.339L758.041 151.197L755.895 151.197L754.822 149.339L755.895 147.481L758.041 147.481L759.113 149.339Z" fill="#4F81D3"/>
<path d="M749.471 151.256L748.398 153.114L746.253 153.114L745.18 151.256L746.253 149.398L748.398 149.398L749.471 151.256Z" fill="#C38DD4"/>
<path opacity="0.9" d="M759.123 160.543L758.05 162.401L755.905 162.401L754.832 160.543L755.905 158.685L758.05 158.685L759.123 160.543Z" fill="#4F81D3"/>
<path d="M752.692 153.113L751.62 154.971L749.474 154.971L748.402 153.113L749.474 151.255L751.62 151.255L752.692 153.113Z" fill="#4F81D3"/>
<path d="M736.634 158.686L735.561 160.544L733.416 160.544L732.343 158.686L733.416 156.828L735.561 156.828L736.634 158.686Z" fill="#C38DD4"/>
<path d="M736.634 147.539L735.561 149.397L733.416 149.397L732.343 147.539L733.416 145.681L735.561 145.681L736.634 147.539Z" fill="#C38DD4"/>
<path d="M765.558 160.543L764.485 162.401L762.339 162.401L761.267 160.543L762.339 158.685L764.485 158.685L765.558 160.543Z" fill="#C38DD4"/>
<path d="M739.852 153.111L738.779 154.969L736.633 154.969L735.561 153.111L736.633 151.253L738.779 151.253L739.852 153.111Z" fill="#C38DD4"/>
<path d="M755.886 154.919L754.813 156.777L752.668 156.777L751.595 154.919L752.668 153.061L754.813 153.061L755.886 154.919Z" fill="#F64A24"/>
<path d="M759.123 145.682L758.05 147.54L755.905 147.54L754.832 145.682L755.905 143.824L758.05 143.824L759.123 145.682Z" fill="#5F8CD6"/>
<path d="M749.471 147.541L748.398 149.399L746.253 149.399L745.18 147.541L746.253 145.683L748.398 145.683L749.471 147.541Z" fill="#4F81D3"/>
<path d="M746.258 156.827L745.185 158.685L743.04 158.685L741.967 156.827L743.04 154.969L745.185 154.969L746.258 156.827Z" fill="#F64A24"/>
<path d="M736.639 158.682L735.566 160.54L733.421 160.54L732.348 158.682L733.421 156.824L735.566 156.824L736.639 158.682Z" fill="#F64A24"/>
<path d="M765.558 156.827L764.485 158.685L762.339 158.685L761.267 156.827L762.339 154.969L764.485 154.969L765.558 156.827Z" fill="#4F81D3"/>
<path d="M739.852 149.395L738.779 151.253L736.633 151.253L735.561 149.395L736.633 147.537L738.779 147.537L739.852 149.395Z" fill="#4F81D3"/>
<path d="M743.068 154.968L741.996 156.826L739.85 156.826L738.777 154.968L739.85 153.11L741.996 153.11L743.068 154.968Z" fill="#4F81D3"/>
<ellipse cx="756.242" cy="141.418" rx="1.00588" ry="1.2161" fill="#F6F210"/>
<ellipse cx="761.747" cy="144.018" rx="1.00588" ry="1.2161" fill="#F6F210"/>
<ellipse cx="754.638" cy="146.948" rx="1.00588" ry="1.2161" fill="#F6F210"/>
<ellipse cx="751.924" cy="155.757" rx="1.00588" ry="1.2161" fill="#F6F210"/>
<ellipse cx="751.7" cy="131.005" rx="1.00588" ry="1.2161" fill="#F6F210"/>
<ellipse cx="760.152" cy="148.749" rx="1.00588" ry="1.2161" fill="#F6F210"/>
<ellipse cx="746.158" cy="142.284" rx="1.00588" ry="1.2161" fill="#F6F210"/>
<ellipse cx="748.17" cy="145.841" rx="1.00588" ry="1.2161" fill="#F6F210"/>
<ellipse cx="741.645" cy="152.965" rx="1.00588" ry="1.2161" fill="#F6F210"/>
<ellipse cx="743.486" cy="129.973" rx="1.00588" ry="1.2161" fill="#F6F210"/>
<ellipse cx="732.837" cy="145.532" rx="1.00588" ry="1.2161" fill="#F6F210"/>
<ellipse cx="740.354" cy="138.221" rx="1.00588" ry="1.2161" fill="#F6F210"/>
<ellipse cx="735.495" cy="157.027" rx="1.00588" ry="1.2161" fill="#F6F210"/>
<ellipse cx="746.965" cy="136.209" rx="1.00588" ry="1.2161" fill="#F6F210"/>
<ellipse cx="737.507" cy="147.649" rx="1.00588" ry="1.2161" fill="#F6F210"/>
<ellipse cx="736.244" cy="136.517" rx="1.00588" ry="1.2161" fill="#F6F210"/>
<ellipse cx="730.27" cy="150.161" rx="1.00588" ry="1.2161" fill="#F6F210"/>
<ellipse cx="749.39" cy="149.845" rx="1.00588" ry="1.2161" fill="#F6F210"/>
<ellipse cx="746.158" cy="156.695" rx="1.00588" ry="1.2161" fill="#F6F210"/>
<ellipse cx="755.582" cy="135.889" rx="1.00588" ry="1.2161" fill="#F6F210"/>
<ellipse cx="753.57" cy="138.221" rx="1.00588" ry="1.2161" fill="#F6F210"/>
<ellipse cx="743.737" cy="147.227" rx="1.00588" ry="1.2161" fill="#F6F210"/>
</g>
<ellipse cx="68.0007" cy="231.09" rx="52.2424" ry="39.1818" transform="rotate(-12.0523 68.0007 231.09)" fill="#CF80DC"/>
<path d="M27.3291 260.306L72.1894 250.728L92.942 347.925L27.3291 260.306Z" fill="#E9C875"/>
<path d="M117.051 241.149L72.1905 250.727L92.9431 347.924L117.051 241.149Z" fill="#E9C875"/>
<g opacity="0.5">
<mask id="mask5_18_10824" style="mask-type:alpha" maskUnits="userSpaceOnUse" x="27" y="241" width="91" height="107">
<path d="M27.3467 260.312L72.207 250.734L92.9596 347.931L27.3467 260.312Z" fill="#E9C875"/>
<path d="M117.068 241.155L72.2081 250.733L92.9607 347.931L117.068 241.155Z" fill="#E9C875"/>
</mask>
<g mask="url(#mask5_18_10824)">
<line y1="-3.55358" x2="163.029" y2="-3.55358" transform="matrix(-0.20611 0.978529 -0.907499 -0.420054 71.4766 227.294)" stroke="#C9AC62" stroke-width="7.10715"/>
<line y1="-3.55358" x2="163.029" y2="-3.55358" transform="matrix(-0.20611 0.978529 -0.907499 -0.420054 97.7812 239.469)" stroke="#C9AC62" stroke-width="7.10715"/>
<line y1="-3.55358" x2="163.029" y2="-3.55358" transform="matrix(-0.20611 0.978529 -0.907499 -0.420054 124.065 251.624)" stroke="#C9AC62" stroke-width="7.10715"/>
<line y1="-3.55358" x2="148.481" y2="-3.55358" transform="matrix(0.645362 0.888296 -0.594487 0.682495 19.1133 271.499)" stroke="#C9AC62" stroke-width="7.10715"/>
<line y1="-3.55358" x2="148.481" y2="-3.55358" transform="matrix(0.645362 0.888296 -0.594487 0.682495 38.1582 249.665)" stroke="#C9AC62" stroke-width="7.10715"/>
<line y1="-3.55358" x2="148.481" y2="-3.55358" transform="matrix(0.645362 0.888296 -0.594487 0.682495 57.1826 227.816)" stroke="#C9AC62" stroke-width="7.10715"/>
</g>
</g>
<circle cx="117.059" cy="241.152" r="15.2905" transform="rotate(-12.0523 117.059 241.152)" fill="#CF80DC"/>
<circle cx="87.1452" cy="247.531" r="15.2905" transform="rotate(-12.0523 87.1452 247.531)" fill="#CF80DC"/>
<circle cx="57.237" cy="253.909" r="15.2905" transform="rotate(-12.0523 57.237 253.909)" fill="#CF80DC"/>
<circle cx="27.3278" cy="260.311" r="15.2905" transform="rotate(-12.0523 27.3278 260.311)" fill="#CF80DC"/>
</svg>
