<svg width="174" height="183" viewBox="0 0 174 183" fill="none" xmlns="http://www.w3.org/2000/svg">
<g clip-path="url(#clip0_18_10919)">
<rect width="174" height="183" rx="4" fill="#A0FF00"/>
<path d="M124.977 41.0231L126.321 38.1814L125.065 37.8227L124.258 39.5287L121.788 38.9048L120.713 41.1787L118.243 40.5549L116.899 43.3965L118.155 43.7555L118.962 42.0491L121.432 42.6729L122.507 40.3993L124.977 41.0231Z" fill="#00C800"/>
<path d="M66.3084 87.9645C58.53 98.9678 43.3045 101.583 32.3013 93.8041C21.298 86.0256 18.6832 70.8001 26.4617 59.7969L66.3084 87.9645Z" fill="#231F20"/>
<path d="M26.4597 59.7969C21.7929 66.3989 23.3616 75.534 29.9637 80.2008L38.4136 68.2469L26.4597 59.7969Z" fill="#231F20"/>
<path d="M65.8265 105.545L74.2773 93.5918L38.4173 68.239L29.9665 80.1922L65.8265 105.545Z" fill="#231F20"/>
<path d="M39.2145 85.3027C34.8619 92.1163 36.8568 101.168 43.6698 105.52L51.5509 93.1839L39.2145 85.3027Z" fill="#231F20"/>
<path d="M47.1832 91.4482C42.8306 98.2619 44.8255 107.313 51.6385 111.666L59.5197 99.3294L47.1832 91.4482Z" fill="#6E00FF"/>
<path d="M54.9879 95.9873C50.6353 102.801 52.6302 111.852 59.4432 116.205L67.3244 103.868L54.9879 95.9873Z" fill="#231F20"/>
<path d="M63.0309 102.078C58.6783 108.892 60.6732 117.943 67.4862 122.296L75.3673 109.959L63.0309 102.078Z" fill="#6E00FF"/>
<path d="M64.5159 74.2377C56.1752 86.0362 39.8493 88.8399 28.0508 80.4992C16.2523 72.1586 13.4486 55.8327 21.7892 44.0342L64.5159 74.2377Z" fill="#231F20"/>
<path d="M21.7906 44.0342C16.7864 51.1134 18.4685 60.9087 25.5478 65.9128L34.6085 53.0949L21.7906 44.0342Z" fill="#231F20"/>
<path d="M64.0048 93.0886L73.0664 80.2715L34.6145 53.0863L25.5529 65.9034L64.0048 93.0886Z" fill="#231F20"/>
<path d="M35.4669 71.3838C30.7998 78.6899 32.9388 88.3955 40.2442 93.0626L48.695 79.8346L35.4669 71.3838Z" fill="#231F20"/>
<path d="M44.0138 77.9727C39.3466 85.2787 41.4857 94.9843 48.7911 99.6515L57.2419 86.4234L44.0138 77.9727Z" fill="#C7EAFB"/>
<path d="M52.381 82.8398C47.7138 90.1459 49.8529 99.8515 57.1583 104.519L65.6091 91.2906L52.381 82.8398Z" fill="#231F20"/>
<path d="M61.006 89.3711C56.3388 96.6772 58.4779 106.383 65.7833 111.05L74.2341 97.8219L61.006 89.3711Z" fill="#C7EAFB"/>
<path d="M59.4316 75.8757C59.4215 76.2243 59.1574 76.5128 58.8111 76.5536L52.9204 77.2475C52.4507 77.3028 52.0536 76.9029 52.1123 76.4336L52.3168 74.7974C52.3685 74.3844 52.755 74.0985 53.165 74.1701L58.8498 75.1629C59.1939 75.223 59.4417 75.5266 59.4316 75.8757V75.8757Z" fill="#FFE500"/>
<path d="M64.8876 71.3852C64.6734 71.6171 64.3269 71.6693 64.0539 71.5108L55.6069 66.6099C55.167 66.3547 55.1174 65.7387 55.5107 65.4163L56.9018 64.2762C57.1774 64.0504 57.5758 64.0569 57.8438 64.2918L64.8368 70.4204C65.1221 70.6704 65.1451 71.1066 64.8876 71.3852V71.3852Z" fill="#FFE500"/>
<path d="M63.9305 78.1833C64.1878 78.4512 64.2036 78.8712 63.9655 79.1563L61.3649 82.2702C61.0731 82.6196 60.5359 82.6188 60.2451 82.2685L59.2631 81.0853C58.9694 80.7315 59.0729 80.1974 59.4776 79.979L63.058 78.0459C63.3461 77.8904 63.7036 77.9472 63.9305 78.1833V78.1833Z" fill="#FFE500"/>
<path d="M14.8883 99.1916L11.2266 98.1367L10.2562 101.505L13.9179 102.56L14.8883 99.1916Z" fill="#0A6FCB"/>
<path d="M57.5032 41.4512L58.5293 38.4801L57.2419 38.2603L56.6256 40.044L54.1025 39.6928L53.2811 42.0702L50.7578 41.7192L49.7312 44.6903L51.0188 44.9103L51.6353 43.1262L54.1586 43.4773L54.9801 41.1L57.5032 41.4512Z" fill="#FF5A00"/>
<path d="M32.7277 39.596C34.2535 39.596 35.4905 38.359 35.4905 36.8331C35.4905 35.3073 34.2535 34.0703 32.7277 34.0703C31.2019 34.0703 29.9648 35.3073 29.9648 36.8331C29.9648 38.359 31.2019 39.596 32.7277 39.596Z" fill="#0082FF"/>
<path d="M88.6705 166.208H84.5682L79.8528 135.557C79.7821 135.097 79.3516 134.782 78.8916 134.853C78.4316 134.923 78.1162 135.354 78.1869 135.814L82.8629 166.208H74.1947C73.7291 166.208 73.3516 166.586 73.3516 167.051C73.3516 167.517 73.7291 167.894 74.1947 167.894H83.8419C83.8419 167.894 83.8438 167.894 83.8444 167.894C83.8456 167.894 83.8462 167.894 83.8475 167.894H88.6711C89.1366 167.894 89.5142 167.517 89.5142 167.051C89.5142 166.586 89.1366 166.208 88.6711 166.208L88.6705 166.208Z" fill="#2D2D2D"/>
<path d="M120.41 151.114L115.52 158.271L93.0636 137.261C92.7237 136.943 92.1903 136.96 91.8724 137.3C91.5545 137.64 91.5721 138.174 91.912 138.491L114.557 159.678L112.242 163.065C111.98 163.449 112.078 163.974 112.463 164.237C112.847 164.499 113.372 164.401 113.635 164.016L116.356 160.034C116.356 160.034 116.357 160.032 116.358 160.031C116.358 160.031 116.359 160.03 116.359 160.029L121.802 152.064C122.065 151.68 121.966 151.155 121.582 150.893C121.198 150.63 120.673 150.729 120.41 151.113L120.41 151.114Z" fill="#2D2D2D"/>
<path d="M115.766 87.9762C123.544 98.9795 138.77 101.594 149.773 93.8158C160.776 86.0373 163.391 70.8118 155.612 59.8086L115.766 87.9762Z" fill="#231F20"/>
<path d="M104.292 114.013C99.6249 107.411 101.194 98.2762 107.796 93.6094L116.246 105.563L104.292 114.013Z" fill="#231F20"/>
<path d="M155.614 59.8086C160.281 66.4107 158.712 75.5457 152.11 80.2125L143.66 68.2586L155.614 59.8086Z" fill="#231F20"/>
<path d="M152.119 80.212L143.668 68.2588L107.808 93.6116L116.259 105.565L152.119 80.212Z" fill="#231F20"/>
<path d="M142.852 85.3145C147.205 92.1281 145.21 101.179 138.397 105.532L130.516 93.1956L142.852 85.3145Z" fill="#231F20"/>
<path d="M134.876 91.46C139.228 98.2736 137.233 107.325 130.42 111.678L122.539 99.3411L134.876 91.46Z" fill="#6E00FF"/>
<path d="M127.075 95.999C131.427 102.813 129.432 111.864 122.619 116.217L114.738 103.88L127.075 95.999Z" fill="#231F20"/>
<path d="M119.032 102.09C123.384 108.903 121.389 117.955 114.576 122.307L106.695 109.971L119.032 102.09Z" fill="#6E00FF"/>
<path d="M77.7743 114.002C82.4411 107.4 80.8724 98.2645 74.2703 93.5977L65.8203 105.552L77.7743 114.002Z" fill="#231F20"/>
<path d="M117.551 74.2503C125.891 86.0489 142.217 88.8526 154.016 80.5119C165.814 72.1713 168.618 55.8454 160.277 44.0469L117.551 74.2503Z" fill="#231F20"/>
<path d="M105.248 102.169C100.243 95.0894 101.926 85.2942 109.005 80.29L118.066 93.108L105.248 102.169Z" fill="#231F20"/>
<path d="M160.271 44.0469C165.275 51.1261 163.593 60.9214 156.514 65.9255L147.453 53.1076L160.271 44.0469Z" fill="#231F20"/>
<path d="M156.53 65.9245L147.469 53.1074L109.017 80.2926L118.078 93.1097L156.53 65.9245Z" fill="#231F20"/>
<path d="M146.599 71.3965C151.266 78.7026 149.127 88.4081 141.822 93.0753L133.371 79.8473L146.599 71.3965Z" fill="#231F20"/>
<path d="M138.041 77.9863C142.708 85.2924 140.569 94.998 133.263 99.6652L124.812 86.4371L138.041 77.9863Z" fill="#C7EAFB"/>
<path d="M129.685 82.8535C134.352 90.1596 132.213 99.8652 124.908 104.532L116.457 91.3043L129.685 82.8535Z" fill="#231F20"/>
<path d="M121.056 89.3838C125.723 96.6899 123.584 106.395 116.279 111.063L107.828 97.8346L121.056 89.3838Z" fill="#C7EAFB"/>
<path d="M76.8179 102.156C81.8221 95.0767 80.1399 85.2815 73.0607 80.2773L64 93.0953L76.8179 102.156Z" fill="#231F20"/>
<path d="M114.658 84.5879H67.5352V108.149H114.658V84.5879Z" fill="#2D2D2D"/>
<path d="M114.658 108.149H67.5352V131.71H114.658V108.149Z" fill="#2D2D2D"/>
<path d="M91.0884 108.15C104.101 108.15 114.65 97.6009 114.65 84.5884C114.65 71.576 104.101 61.0273 91.0884 61.0273C78.076 61.0273 67.5273 71.576 67.5273 84.5884C67.5273 97.6009 78.076 108.15 91.0884 108.15Z" fill="#2D2D2D"/>
<path d="M91.0962 155.272C104.109 155.272 114.657 144.723 114.657 131.71C114.657 118.698 104.109 108.149 91.0962 108.149C78.0838 108.149 67.5352 118.698 67.5352 131.71C67.5352 144.723 78.0838 155.272 91.0962 155.272Z" fill="#2D2D2D"/>
<path d="M81.0734 82.5325C84.7059 82.5325 87.6506 79.5877 87.6506 75.9552C87.6506 72.3227 84.7059 69.3779 81.0734 69.3779C77.4408 69.3779 74.4961 72.3227 74.4961 75.9552C74.4961 79.5877 77.4408 82.5325 81.0734 82.5325Z" fill="white"/>
<path d="M81.0781 79.2441C82.8946 79.2441 84.3671 77.7715 84.3671 75.955C84.3671 74.1386 82.8946 72.666 81.0781 72.666C79.2616 72.666 77.7891 74.1386 77.7891 75.955C77.7891 77.7715 79.2616 79.2441 81.0781 79.2441Z" fill="#231F20"/>
<path d="M78.833 75.5224C80.2639 75.5224 81.4238 74.3625 81.4238 72.9316C81.4238 71.5008 80.2639 70.3408 78.833 70.3408C77.4021 70.3408 76.2422 71.5008 76.2422 72.9316C76.2422 74.3625 77.4021 75.5224 78.833 75.5224Z" fill="white"/>
<path d="M78.0943 97.6612C83.4189 97.6612 87.7354 93.3447 87.7354 88.02C87.7354 82.6954 83.4189 78.3789 78.0943 78.3789C72.7696 78.3789 68.4531 82.6954 68.4531 88.02C68.4531 93.3447 72.7696 97.6612 78.0943 97.6612Z" fill="#2D2D2D"/>
<path d="M101.101 82.5325C104.733 82.5325 107.678 79.5877 107.678 75.9552C107.678 72.3227 104.733 69.3779 101.101 69.3779C97.4682 69.3779 94.5234 72.3227 94.5234 75.9552C94.5234 79.5877 97.4682 82.5325 101.101 82.5325Z" fill="white"/>
<path d="M101.105 79.2441C102.922 79.2441 104.394 77.7715 104.394 75.955C104.394 74.1386 102.922 72.666 101.105 72.666C99.289 72.666 97.8164 74.1386 97.8164 75.955C97.8164 77.7715 99.289 79.2441 101.105 79.2441Z" fill="#231F20"/>
<path d="M98.8642 75.5224C100.295 75.5224 101.455 74.3625 101.455 72.9316C101.455 71.5008 100.295 70.3408 98.8642 70.3408C97.4334 70.3408 96.2734 71.5008 96.2734 72.9316C96.2734 74.3625 97.4334 75.5224 98.8642 75.5224Z" fill="white"/>
<path d="M104.083 97.6622C109.407 97.6622 113.724 93.3457 113.724 88.021C113.724 82.6964 109.407 78.3799 104.083 78.3799C98.7579 78.3799 94.4414 82.6964 94.4414 88.021C94.4414 93.3457 98.7579 97.6622 104.083 97.6622Z" fill="#2D2D2D"/>
<path fill-rule="evenodd" clip-rule="evenodd" d="M128.075 89.4626C131.109 89.4626 133.568 87.0031 133.568 83.9692C133.568 80.9353 131.109 78.4759 128.075 78.4759C127.937 78.4759 127.801 78.4809 127.667 78.4908C130.294 78.8841 132.309 81.1507 132.309 83.8879C132.309 86.8735 129.912 89.2992 126.937 89.3447C127.304 89.422 127.685 89.4626 128.075 89.4626ZM128.075 91.4619C132.213 91.4619 135.567 88.1073 135.567 83.9692C135.567 79.8312 132.213 76.4766 128.075 76.4766C123.937 76.4766 120.582 79.8312 120.582 83.9692C120.582 85.3725 120.968 86.6857 121.639 87.8085H110.519V88.274H105.137V89.2364H110.519V89.2365H105.137V90.1989H110.519V91.4609H127.44V91.4354C127.649 91.453 127.861 91.4619 128.075 91.4619ZM122.057 89.6347H123.171L123.171 89.6348H122.057V89.6347ZM126.883 87.3458C128.779 87.3291 130.31 85.7873 130.31 83.8879C130.31 82.0266 128.84 80.5088 126.997 80.4327C128.37 80.9692 129.343 82.3051 129.343 83.8681C129.343 85.474 128.316 86.8402 126.883 87.3458ZM127.343 83.8681C127.343 84.8002 126.588 85.5558 125.656 85.5558C124.724 85.5558 123.968 84.8002 123.968 83.8681C123.968 82.9361 124.724 82.1805 125.656 82.1805C126.588 82.1805 127.343 82.9361 127.343 83.8681Z" fill="#FEF138"/>
<mask id="mask0_18_10919" style="mask-type:alpha" maskUnits="userSpaceOnUse" x="105" y="76" width="31" height="16">
<path fill-rule="evenodd" clip-rule="evenodd" d="M128.071 89.4626C131.105 89.4626 133.564 87.0031 133.564 83.9692C133.564 80.9353 131.105 78.4759 128.071 78.4759C127.934 78.4759 127.798 78.4809 127.663 78.4908C130.291 78.8843 132.306 81.1507 132.306 83.8877C132.306 86.8736 129.908 89.2994 126.933 89.3445C127.3 89.4219 127.681 89.4626 128.071 89.4626ZM128.071 91.4619C132.209 91.4619 135.563 88.1073 135.563 83.9692C135.563 79.8312 132.209 76.4766 128.071 76.4766C123.933 76.4766 120.578 79.8312 120.578 83.9692C120.578 85.3725 120.964 86.6856 121.635 87.8083H110.52V88.274H105.133V89.2364V89.2364V90.1988H110.52V91.4608H127.44V91.4358C127.648 91.4531 127.858 91.4619 128.071 91.4619ZM122.053 89.6345H123.167L123.167 89.6346H122.053V89.6345ZM126.88 87.3457C128.775 87.3288 130.306 85.7871 130.306 83.8877C130.306 82.0263 128.836 80.5084 126.993 80.4326C128.366 80.969 129.339 82.3049 129.339 83.8681C129.339 85.4739 128.312 86.8399 126.88 87.3457ZM127.339 83.8681C127.339 84.8002 126.584 85.5558 125.652 85.5558C124.72 85.5558 123.964 84.8002 123.964 83.8681C123.964 82.9361 124.72 82.1805 125.652 82.1805C126.584 82.1805 127.339 82.9361 127.339 83.8681Z" fill="#FEF138"/>
</mask>
<g mask="url(#mask0_18_10919)">
<circle cx="105.747" cy="90.7175" r="1.34833" fill="#FF7EF2"/>
<circle cx="108.044" cy="87.3503" r="1.34833" fill="#FF7EF2"/>
<circle cx="112.376" cy="91.2302" r="1.34833" fill="#FF7EF2"/>
<circle cx="118.055" cy="91.2302" r="1.34833" fill="#FF7EF2"/>
<circle cx="114.657" cy="87.4782" r="1.34833" fill="#FF7EF2"/>
<circle cx="121.337" cy="88.2604" r="1.34833" fill="#FF7EF2"/>
<circle cx="123.466" cy="90.0456" r="1.34833" fill="#FF7EF2"/>
<circle cx="126.743" cy="88.5339" r="1.34833" fill="#FF7EF2"/>
<circle cx="124.876" cy="78.3806" r="1.34833" fill="#FF7EF2"/>
<circle cx="121.649" cy="83.0275" r="0.941602" fill="#FF7EF2"/>
<circle cx="123.629" cy="86.2453" r="0.941602" fill="#FF7EF2"/>
<circle cx="127.684" cy="82.2365" r="0.941602" fill="#FF7EF2"/>
<circle cx="129.383" cy="79.9807" r="0.941602" fill="#FF7EF2"/>
<circle cx="134.625" cy="82.5324" r="0.941602" fill="#FF7EF2"/>
<circle cx="133.09" cy="87.7561" r="0.941602" fill="#FF7EF2"/>
</g>
<path d="M82.5547 90.1988C82.5547 95.9289 86.8427 100.574 92.1319 100.574L109.948 90.1982L82.5547 90.1982L82.5547 90.1988Z" fill="#C7EAFB"/>
<path d="M90.6951 80.3074C85.451 80.9963 81.8045 86.1605 82.5508 91.8418L109.711 88.274L90.695 80.3068L90.6951 80.3074Z" fill="#6E00FF"/>
<rect x="109.488" y="87.7637" width="1.07974" height="3.69737" fill="#FF7EF2"/>
<path d="M116.618 68.597C116.488 68.2735 116.614 67.9034 116.915 67.7275L122.037 64.736C122.445 64.4975 122.969 64.7052 123.103 65.1588L123.57 66.7403C123.688 67.1395 123.448 67.5561 123.043 67.6544L117.436 69.0178C117.097 69.1003 116.748 68.9211 116.618 68.597V68.597Z" fill="#FFE500"/>
<path d="M117.316 61.6087C117.08 61.3527 117.058 60.9654 117.264 60.6845L123.885 51.6424C124.178 51.2422 124.776 51.2455 125.065 51.649L126.65 53.8652C126.869 54.17 126.82 54.5906 126.538 54.8374L118.512 61.8588C118.214 62.1189 117.764 62.0947 117.496 61.8043L117.316 61.6087Z" fill="#FFE500"/>
<path d="M122.718 73.2944C122.69 72.924 122.946 72.5902 123.311 72.5221L127.299 71.7785C127.747 71.6951 128.16 72.038 128.161 72.4932L128.164 74.0308C128.165 74.4906 127.745 74.8363 127.294 74.747L123.303 73.9562C122.982 73.8925 122.742 73.6209 122.718 73.2944V73.2944Z" fill="#FFE500"/>
<path d="M104.28 87.7111C98.4013 87.7111 93.3805 83.6762 92.3424 78.1175C92.2321 77.529 91.705 77.1017 91.0881 77.1017C90.4713 77.1017 89.9434 77.529 89.8338 78.1175C88.7949 83.6762 83.7749 87.7111 77.896 87.7111C74.6589 87.7111 71.6136 86.4965 69.3212 84.2909C67.0287 82.0853 65.7656 79.1553 65.7656 76.0406C65.7656 69.6055 71.207 64.3701 77.8953 64.3701H104.28C110.968 64.3701 116.41 69.6055 116.41 76.0406C116.41 79.1553 115.147 82.0853 112.855 84.2909C110.563 86.4965 107.517 87.7111 104.28 87.7111Z" fill="#D4D4D4" fill-opacity="0.3"/>
<path d="M104.28 87.7111C98.4013 87.7111 93.3805 83.6762 92.3424 78.1175C92.2321 77.529 91.705 77.1017 91.0881 77.1017C90.4713 77.1017 89.9434 77.529 89.8338 78.1175C88.795 83.6762 83.7749 87.7111 77.896 87.7111C74.6589 87.7111 71.6136 86.4965 69.3212 84.2909C67.0287 82.0853 65.7656 79.1553 65.7656 76.0406C65.7656 69.6055 71.207 64.3701 77.8953 64.3701H104.28C110.968 64.3701 116.41 69.6055 116.41 76.0406C116.41 79.1553 115.147 82.0853 112.855 84.2909C110.563 86.4965 107.517 87.7111 104.28 87.7111ZM91.0874 74.9795C92.7732 74.9795 94.2135 76.1418 94.5128 77.7426C95.3619 82.289 99.4696 85.589 104.279 85.589C106.928 85.589 109.419 84.5951 111.295 82.7905C113.171 80.986 114.203 78.5886 114.203 76.0406C114.203 70.7755 109.752 66.4923 104.279 66.4923H77.8953C72.4231 66.4923 67.9713 70.7755 67.9713 76.0406C67.9713 78.5886 69.0043 80.9853 70.8798 82.7905C72.7554 84.5958 75.247 85.589 77.8953 85.589C82.7051 85.589 86.8128 82.289 87.662 77.7426C87.9612 76.1418 89.4015 74.9795 91.0874 74.9795Z" fill="#FFCC01"/>
<path d="M186.463 167.895H0.0664062V184.662H186.463V167.895Z" fill="#8ADD00"/>
<path d="M23.7273 112.8H10.2383V114.299H23.7273V112.8Z" fill="#AFA2FB"/>
<path d="M33.2851 119.544H10.8047V122.167H33.2851V119.544Z" fill="#0A6FCB"/>
<path d="M33.2851 119.544H10.8047V116.943H22.3066L23.0863 111.392L29.9945 108.491L33.2851 119.544Z" fill="#AFA2FB"/>
<path d="M19.2204 84.1437L15.5586 83.0889L14.5882 86.4576L18.25 87.5124L19.2204 84.1437Z" fill="#0A6FCB"/>
<path d="M20.4309 86.6449L13.1953 84.5605L9.43266 97.6222L16.6683 99.7066L20.4309 86.6449Z" fill="#AFA2FB"/>
<path d="M18.3921 96.877C20.0994 96.877 21.4834 95.4929 21.4834 93.7857C21.4834 92.0784 20.0994 90.6943 18.3921 90.6943C16.6848 90.6943 15.3008 92.0784 15.3008 93.7857C15.3008 95.4929 16.6848 96.877 18.3921 96.877Z" fill="#0A6FCB"/>
<path d="M22.8788 112.613V110.433C27.4092 110.433 31.0952 106.915 31.0952 102.591C31.0952 98.2664 27.4092 94.7487 22.8788 94.7487H15.8594V92.5684H22.8788C25.6496 92.5684 28.2567 93.6058 30.2197 95.4891C32.1941 97.3838 33.2817 99.9056 33.2817 102.591C33.2817 105.276 32.1941 107.798 30.2197 109.693C28.2567 111.576 25.6496 112.613 22.8788 112.613Z" fill="#0A6FCB"/>
<path d="M169.415 122.166H165.855V167.876H169.415V122.166Z" fill="#72B503"/>
<path d="M9.43439 122.166H5.875V167.876H9.43439V122.166Z" fill="#72B503"/>
<path d="M163.226 105.572V99.433L164.033 97.626H156.827L157.433 99.433V105.572C154.786 106.71 152.93 109.361 152.93 112.449C152.93 116.574 156.243 119.919 160.329 119.919C164.416 119.919 167.729 116.574 167.729 112.449C167.729 109.361 165.873 106.71 163.226 105.572H163.226Z" fill="#E2F4FD"/>
<path d="M160.241 88.0729L166.798 79.2676H153.684L160.241 88.0729Z" fill="#E2F4FD"/>
<path d="M163.604 83.3887H156.672L159.216 86.8355V90.5081L161.06 88.7898V86.8355L163.604 83.3887Z" fill="#8CEB4D"/>
<path d="M174.473 122.166H0.0664062V129.097H174.473V122.166Z" fill="#98DA2A"/>
<path d="M167.73 112.426C167.73 116.565 164.417 119.92 160.33 119.92C156.243 119.92 152.93 116.565 152.93 112.426H167.73H167.73Z" fill="#8CEB4D"/>
<path d="M170.73 119.731H147.875V121.979H170.73V119.731Z" fill="#5FBCFF"/>
<path d="M147.875 81.327V121.417H148.999V81.327H147.875Z" fill="#5FBCFF"/>
<path d="M170.352 86.1982H143.75V87.3223H170.352V86.1982Z" fill="#5FBCFF"/>
<path d="M148.436 89.0101C149.575 89.0101 150.497 88.0873 150.497 86.9489C150.497 85.8105 149.575 84.8877 148.436 84.8877C147.298 84.8877 146.375 85.8105 146.375 86.9489C146.375 88.0873 147.298 89.0101 148.436 89.0101Z" fill="#0A6FCB"/>
<path d="M161.386 92.6624L160.336 90.8994V90.8818L160.331 90.8906L160.327 90.8832V90.8976L159.277 92.6607C159.059 93.0277 159.059 93.4801 159.277 93.8471C159.494 94.2115 159.893 94.4369 160.327 94.4404V94.4421C160.764 94.4421 161.167 94.2159 161.386 93.8489C161.604 93.4819 161.604 93.0294 161.386 92.6624H161.386Z" fill="#8CEB4D"/>
<path d="M155.648 113.737C156.424 113.737 157.053 113.066 157.053 112.238C157.053 111.41 156.424 110.739 155.648 110.739C154.871 110.739 154.242 111.41 154.242 112.238C154.242 113.066 154.871 113.737 155.648 113.737Z" fill="#9CD9F8"/>
<path d="M157.89 110.553C158.356 110.553 158.733 110.133 158.733 109.616C158.733 109.098 158.356 108.679 157.89 108.679C157.424 108.679 157.047 109.098 157.047 109.616C157.047 110.133 157.424 110.553 157.89 110.553Z" fill="#9CD9F8"/>
<path d="M100.8 124.717L96.9524 118.119V113.861L97.3889 112.331H92.5935L93.03 113.861V118.119L89.1821 124.717C88.6535 125.624 89.3144 126.757 90.3712 126.757H99.6112C100.668 126.757 101.329 125.624 100.8 124.717Z" fill="#5FBCFF"/>
<circle cx="94.9927" cy="119.19" r="12.52" fill="url(#paint0_radial_18_10919)" fill-opacity="0.7"/>
<path d="M94.9937 116.593L90.1587 124.408C89.7187 125.119 90.2688 126.008 91.1484 126.008H98.839C99.7189 126.008 100.269 125.119 99.8286 124.408L94.9937 116.593Z" fill="#5FBCFF"/>
<path d="M94.9937 116.593L90.1587 124.408C89.7187 125.119 90.2688 126.008 91.1484 126.008H98.839C99.7189 126.008 100.269 125.119 99.8286 124.408L94.9937 116.593Z" fill="#BA85FF"/>
<rect x="93.8164" y="114.013" width="2.35669" height="4.45434" fill="#BA85FF"/>
<path d="M101.389 106.93L101.085 108.806L102.785 109.672L100.907 109.968L100.611 111.848L99.7461 110.156L97.8607 110.448L99.2072 109.102L98.3426 107.41L100.043 108.276L101.389 106.93Z" fill="#FFE500"/>
<path d="M89.6155 113.828L90.3019 114.671L91.3183 114.274L90.7312 115.189L91.4222 116.03L90.3699 115.757L89.7781 116.674L89.7147 115.587L88.6624 115.313L89.6789 114.915L89.6155 113.828Z" fill="#FFE500"/>
<path d="M89.3301 102.518L90.5182 103.978L92.2777 103.289L91.2613 104.873L92.4575 106.33L90.636 105.856L89.6115 107.443L89.5018 105.562L87.6803 105.088L89.4398 104.4L89.3301 102.518Z" fill="#FFE500"/>
<rect width="28.8624" height="4.73113" rx="0.79795" transform="matrix(-0.455719 -0.890124 -0.890124 0.455719 161.719 62.5234)" fill="#FA78C3"/>
<path d="M93.869 39.9964L97.012 40.0448L96.8193 38.753L94.9324 38.7237L94.4793 36.2169L91.9643 36.1779L91.5109 33.6709L88.3679 33.622L88.5604 34.914L90.4477 34.9433L90.901 37.4503L93.4159 37.4896L93.869 39.9964Z" fill="#FF5A00"/>
<path d="M137.307 57.9163L140.449 57.9647L140.257 56.673L138.37 56.6436L137.917 54.1368L135.402 54.0978L134.948 51.5908L131.805 51.5419L131.998 52.8339L133.885 52.8633L134.339 55.3703L136.853 55.4095L137.307 57.9163Z" fill="#FF5A00"/>
<path d="M74.2316 52.1304C75.7574 52.1304 76.9944 50.9109 76.9944 49.4065C76.9944 47.9022 75.7574 46.6826 74.2316 46.6826C72.7058 46.6826 71.4688 47.9022 71.4688 49.4065C71.4688 50.9109 72.7058 52.1304 74.2316 52.1304Z" fill="#00C800"/>
<path d="M51.9498 61.9743L53.2933 59.1326L52.0375 58.7739L51.2306 60.4798L48.7608 59.8559L47.6854 62.1298L45.2153 61.5061L43.8712 64.3477L45.1272 64.7066L45.9343 63.0003L48.4044 63.6241L49.4799 61.3504L51.9498 61.9743Z" fill="#00C800"/>
<g opacity="0.4">
<path d="M91.5474 108.879C92.9415 109.154 94.2948 108.247 94.57 106.853C94.8451 105.459 93.938 104.105 92.5439 103.83C91.1497 103.555 89.7965 104.462 89.5213 105.856C89.2461 107.251 90.1532 108.604 91.5474 108.879Z" fill="#AD79F4"/>
<path d="M92.8154 105.559C93.866 105.766 94.8858 105.083 95.0932 104.032C95.3006 102.982 94.617 101.962 93.5664 101.754C92.5158 101.547 91.496 102.231 91.2886 103.281C91.0812 104.332 91.7648 105.352 92.8154 105.559Z" fill="#AD79F4"/>
<path d="M95.4131 104.746C96.4637 104.953 97.4835 104.269 97.6909 103.219C97.8982 102.168 97.2146 101.148 96.164 100.941C95.1134 100.734 94.0936 101.417 93.8862 102.468C93.6789 103.518 94.3625 104.538 95.4131 104.746Z" fill="#AD79F4"/>
<path d="M98.2139 107.276C99.2645 107.483 100.284 106.8 100.492 105.749C100.699 104.698 100.015 103.679 98.9648 103.471C97.9142 103.264 96.8944 103.947 96.687 104.998C96.4797 106.049 97.1633 107.068 98.2139 107.276Z" fill="#AD79F4"/>
<path d="M94.0669 109.377C95.4611 109.652 96.8143 108.745 97.0895 107.351C97.3647 105.957 96.4575 104.603 95.0634 104.328C93.6692 104.053 92.316 104.96 92.0408 106.354C91.7657 107.749 92.6728 109.102 94.0669 109.377Z" fill="#AD79F4"/>
<path d="M94.2609 110.971C94.8952 110.765 95.2425 110.084 95.0367 109.45C94.8308 108.816 94.1498 108.468 93.5156 108.674C92.8813 108.88 92.534 109.561 92.7399 110.195C92.9457 110.83 93.6267 111.177 94.2609 110.971Z" fill="#AD79F4"/>
<path d="M96.3325 106.82C97.7267 107.096 99.0799 106.188 99.3551 104.794C99.6303 103.4 98.7232 102.047 97.329 101.772C95.9349 101.497 94.5816 102.404 94.3064 103.798C94.0313 105.192 94.9384 106.545 96.3325 106.82Z" fill="#AD79F4"/>
<path d="M97.9732 105.251C99.3673 105.526 100.721 104.619 100.996 103.225C101.271 101.831 100.364 100.478 98.9696 100.202C97.5755 99.9272 96.2222 100.834 95.9471 102.228C95.6719 103.623 96.579 104.976 97.9732 105.251Z" fill="#AD79F4"/>
<path d="M97.2193 109.999C98.6134 110.274 99.9667 109.367 100.242 107.973C100.517 106.579 99.6099 105.226 98.2157 104.95C96.8216 104.675 95.4683 105.582 95.1932 106.976C94.918 108.371 95.8251 109.724 97.2193 109.999Z" fill="#AD79F4"/>
<path d="M96.007 110.887C96.6413 110.681 96.9886 110 96.7828 109.366C96.5769 108.732 95.8959 108.384 95.2617 108.59C94.6274 108.796 94.2801 109.477 94.486 110.111C94.6918 110.746 95.3728 111.093 96.007 110.887Z" fill="#AD79F4"/>
<path d="M95.4406 111.973C96.0749 111.767 96.4222 111.086 96.2164 110.452C96.0105 109.818 95.3295 109.47 94.6953 109.676C94.061 109.882 93.7137 110.563 93.9195 111.197C94.1254 111.831 94.8064 112.179 95.4406 111.973Z" fill="#AD79F4"/>
<path d="M94.7844 112.533C95.4186 112.327 95.7659 111.646 95.5601 111.011C95.3543 110.377 94.6733 110.03 94.039 110.236C93.4048 110.442 93.0575 111.123 93.2633 111.757C93.4691 112.391 94.1501 112.738 94.7844 112.533Z" fill="#AD79F4"/>
<path d="M99.4849 107.442C100.879 107.718 102.232 106.81 102.507 105.416C102.783 104.022 101.876 102.669 100.481 102.394C99.0872 102.119 97.734 103.026 97.4588 104.42C97.1836 105.814 98.0907 107.167 99.4849 107.442Z" fill="#AD79F4"/>
</g>
<path d="M12.102 15.788H10.068V20H7.332V7.076H12.102C15.252 7.076 17.214 8.57 17.214 11.378C17.214 14.186 15.252 15.788 12.102 15.788ZM12.084 9.38H10.068V13.484H12.084C13.632 13.484 14.496 12.674 14.496 11.396C14.496 10.118 13.632 9.38 12.084 9.38ZM21.0182 20H18.4982V7.076H21.0182V20ZM28.6259 20V18.812C27.9959 19.712 27.0419 20.18 25.7279 20.18C23.7299 20.18 22.3979 19.01 22.3979 17.21C22.3979 15.338 23.9099 14.33 26.7179 14.33C27.2579 14.33 27.7259 14.366 28.3199 14.438V13.862C28.3199 12.782 27.7079 12.152 26.6639 12.152C25.5839 12.152 24.9359 12.782 24.8459 13.862H22.5959C22.7399 11.648 24.3419 10.208 26.6639 10.208C29.1839 10.208 30.6599 11.594 30.6599 13.952V20H28.6259ZM24.7559 17.138C24.7559 17.948 25.3319 18.452 26.2679 18.452C27.5459 18.452 28.3199 17.75 28.3199 16.634V15.95C27.7259 15.86 27.3119 15.824 26.8799 15.824C25.4579 15.824 24.7559 16.274 24.7559 17.138ZM38.3059 15.95V10.388H40.7899V20H38.5039V18.74C37.9819 19.586 36.9199 20.18 35.6959 20.18C33.7699 20.18 32.3659 19.01 32.3659 16.508V10.388H34.8679V16.022C34.8679 17.372 35.5339 17.966 36.5419 17.966C37.4419 17.966 38.3059 17.246 38.3059 15.95ZM50.796 16.922C50.796 18.938 49.266 20.18 46.53 20.18C43.794 20.18 42.264 18.866 42.066 16.724H44.46C44.478 17.714 45.324 18.344 46.566 18.344C47.538 18.344 48.276 18.038 48.276 17.354C48.276 16.742 47.88 16.49 46.962 16.31L45.234 15.986C43.506 15.68 42.462 14.726 42.462 13.232C42.462 11.45 43.992 10.208 46.386 10.208C48.798 10.208 50.454 11.486 50.634 13.556H48.24C48.15 12.62 47.448 12.044 46.386 12.044C45.468 12.044 44.856 12.386 44.856 12.998C44.856 13.574 45.252 13.808 46.116 13.97L47.97 14.312C49.842 14.672 50.796 15.536 50.796 16.922ZM55.0421 8.156C55.0421 9.002 54.3581 9.632 53.3681 9.632C52.3961 9.632 51.7121 9.002 51.7121 8.156C51.7121 7.274 52.3961 6.644 53.3681 6.644C54.3581 6.644 55.0421 7.274 55.0421 8.156ZM54.6461 20H52.1441V10.388H54.6461V20ZM66.1066 15.194C66.1066 18.002 64.4326 20.18 61.8406 20.18C60.5986 20.18 59.5546 19.622 58.8166 18.614V20H56.5126V7.076H59.0146V11.63C59.7166 10.694 60.6886 10.208 61.8406 10.208C64.4326 10.208 66.1066 12.35 66.1066 15.194ZM63.5326 15.194C63.5326 13.358 62.5066 12.422 61.2826 12.422C60.0766 12.422 59.0326 13.34 59.0326 15.158C59.0326 16.976 60.0406 17.948 61.2826 17.948C62.5066 17.948 63.5326 16.994 63.5326 15.194ZM69.8699 20H67.3499V7.076H69.8699V20ZM75.9296 20.162C73.0496 20.162 71.1236 18.164 71.1236 15.158C71.1236 12.296 73.1216 10.208 75.8936 10.208C78.9356 10.208 80.9516 12.674 80.5016 15.806H73.6796C73.8416 17.372 74.5976 18.236 75.8756 18.236C76.9736 18.236 77.7116 17.696 77.9996 16.742H80.4836C79.9436 18.92 78.2696 20.162 75.9296 20.162ZM75.8396 12.044C74.6696 12.044 73.9316 12.8 73.7156 14.222H77.8556C77.7836 12.89 77.0276 12.044 75.8396 12.044Z" fill="#231F20"/>
</g>
<defs>
<radialGradient id="paint0_radial_18_10919" cx="0" cy="0" r="1" gradientUnits="userSpaceOnUse" gradientTransform="translate(94.9927 119.19) rotate(90) scale(12.52)">
<stop stop-color="#C5AFF5"/>
<stop offset="1" stop-color="#C5AFF5" stop-opacity="0"/>
</radialGradient>
<clipPath id="clip0_18_10919">
<rect width="174" height="183" rx="4" fill="white"/>
</clipPath>
</defs>
</svg>
