<svg width="190" height="242" viewBox="0 0 190 242" fill="none" xmlns="http://www.w3.org/2000/svg">
<path d="M137.223 80.9762C155.231 82.0363 168.969 97.4934 167.908 115.502L135.303 113.582L137.223 80.9762Z" fill="#231F20"/>
<path d="M135.298 113.585L167.902 115.505L164.321 176.306L131.717 174.386L135.298 113.585Z" fill="#231F20"/>
<path d="M36.9922 86.6445C52.9294 91.3413 66.3481 102.177 74.2963 116.767C82.2445 131.358 84.0711 148.508 79.3742 164.445C74.6774 180.382 63.842 193.801 49.2515 201.749C34.661 209.698 17.5107 211.524 1.57351 206.827L36.9922 86.6445Z" fill="#242121"/>
<path d="M36.9922 86.6445C37.9612 83.3565 39.5684 80.2915 41.7219 77.6246C43.8754 74.9576 46.5332 72.741 49.5433 71.1012C52.5535 69.4614 55.8572 68.4305 59.2658 68.0675C62.6744 67.7044 66.1211 68.0163 69.4092 68.9853L62.0303 94.0234L36.9922 86.6445Z" fill="#242121"/>
<path d="M33.9905 189.168C33.0215 192.456 31.4143 195.521 29.2608 198.188C27.1073 200.855 24.4495 203.072 21.4393 204.711C18.4291 206.351 15.1254 207.382 11.7168 207.745C8.30826 208.108 4.86156 207.796 1.57351 206.827L8.9524 181.789L33.9905 189.168Z" fill="#242121"/>
<path d="M62.0303 94.0234L36.9922 86.6445L8.9524 181.789L33.9905 189.168L62.0303 94.0234Z" fill="#242121"/>
<path d="M99.8298 201.109L89.5527 231.156" stroke="black" stroke-width="2" stroke-linecap="round"/>
<path d="M65.4983 195.395L65.5214 227.15" stroke="black" stroke-width="2" stroke-linecap="round"/>
<path d="M46.6367 224.031L74.1041 228.589" stroke="black" stroke-width="2" stroke-linecap="round"/>
<path d="M108.438 234.288L80.9701 229.731" stroke="black" stroke-width="2" stroke-linecap="round"/>
<path d="M153.523 68.9078L57.3867 52.957L41.436 149.093L137.572 165.044L153.523 68.9078Z" fill="#2D2D2D"/>
<path d="M153.523 68.9078L57.3867 52.957L53.399 76.991L149.535 92.9418L153.523 68.9078Z" fill="#2D2D2D"/>
<circle cx="48.7251" cy="48.7251" r="48.7251" transform="matrix(-0.986513 -0.163681 -0.163681 0.986513 145.547 116.984)" fill="#2D2D2D"/>
<path d="M57.384 52.9586C52.9793 79.5058 70.9294 104.597 97.4766 109.002C124.024 113.407 149.115 95.4566 153.52 68.9094C157.925 42.3621 139.975 17.2707 113.427 12.866C86.8802 8.46132 61.7887 26.4114 57.384 52.9586Z" fill="#2D2D2D"/>
<path d="M153.523 68.9039L57.3867 52.9531L50.7208 93.129C49.9976 97.4877 52.9448 101.607 57.3035 102.331L137.655 115.662C142.014 116.386 146.134 113.438 146.857 109.08L153.523 68.9039Z" fill="#2D2D2D"/>
<path d="M84.2772 55.6658C92.3362 57.0029 99.9533 51.5538 101.29 43.4948C102.628 35.4358 97.1784 27.8188 89.1194 26.4816C81.0604 25.1445 73.4434 30.5936 72.1063 38.6526C70.7691 46.7116 76.2182 54.3286 84.2772 55.6658Z" fill="white"/>
<path d="M84.8453 52.2263C89.1118 52.9342 93.1444 50.0494 93.8523 45.7829C94.5602 41.5163 91.6753 37.4838 87.4088 36.7759C83.1423 36.068 79.1097 38.9528 78.4018 43.2194C77.6939 47.4859 80.5788 51.5184 84.8453 52.2263Z" fill="#231F20"/>
<path d="M80.2614 42.6519C83.1058 43.1238 85.7942 41.2006 86.2661 38.3562C86.738 35.5119 84.8148 32.8235 81.9705 32.3516C79.1261 31.8796 76.4377 33.8029 75.9658 36.6472C75.4939 39.4916 77.4171 42.1799 80.2614 42.6519Z" fill="white"/>
<path d="M77.7108 73.9841C85.7698 75.3213 93.3868 69.8721 94.724 61.8132C96.0611 53.7542 90.612 46.1371 82.553 44.8C74.494 43.4629 66.877 48.912 65.5398 56.971C64.2027 65.03 69.6518 72.647 77.7108 73.9841Z" fill="#2D2D2D"/>
<path d="M127.195 62.7791C135.254 64.1162 142.871 58.6671 144.208 50.6081C145.545 42.5491 140.096 34.9321 132.037 33.5949C123.978 32.2578 116.361 37.7069 115.024 45.7659C113.687 53.8249 119.136 61.4419 127.195 62.7791Z" fill="white"/>
<path d="M127.763 59.3474C132.03 60.0553 136.062 57.1705 136.77 52.904C137.478 48.6374 134.593 44.6049 130.327 43.897C126.06 43.1891 122.028 46.0739 121.32 50.3404C120.612 54.607 123.497 58.6395 127.763 59.3474Z" fill="#231F20"/>
<path d="M123.179 49.7642C126.024 50.2361 128.712 48.3129 129.184 45.4685C129.656 42.6242 127.733 39.9358 124.888 39.4639C122.044 38.9919 119.356 40.9152 118.884 43.7595C118.412 46.6039 120.335 49.2922 123.179 49.7642Z" fill="white"/>
<path d="M127.496 82.241C135.555 83.5781 143.172 78.129 144.509 70.07C145.846 62.011 140.397 54.394 132.338 53.0568C124.279 51.7197 116.662 57.1688 115.325 65.2278C113.988 73.2868 119.437 80.9038 127.496 82.241Z" fill="#2D2D2D"/>
<path d="M123.775 78.0792C124.224 75.3739 124.136 72.6066 123.515 69.9355C122.895 67.2644 121.754 64.7416 120.158 62.5113C118.563 60.2809 116.544 58.3867 114.216 56.9367C111.888 55.4868 109.298 54.5095 106.593 54.0606L103.175 74.6612L123.775 78.0792Z" fill="#6E00FF"/>
<path d="M82.5762 71.2421C83.025 68.5368 84.0023 65.9464 85.4523 63.6188C86.9023 61.2912 88.7965 59.2719 91.0268 57.6764C93.2572 56.0808 95.7799 54.9402 98.4511 54.3196C101.122 53.699 103.889 53.6107 106.595 54.0595L103.177 74.6601L82.5762 71.2421Z" fill="#C7EAFB"/>
<path d="M82.5742 71.248L103.175 74.6661L97.4781 109L82.5742 71.248Z" fill="#C7EAFB"/>
<path d="M123.773 78.0908L103.173 74.6728L97.4762 109.007L123.773 78.0908Z" fill="#6E00FF"/>
<circle cx="105.026" cy="130.348" r="20.8822" transform="rotate(-6.64553 105.026 130.348)" fill="#F1A3FE"/>
<path d="M85.293 141.412L106.035 138.995L111.069 182.208L85.293 141.412Z" fill="#E9C875"/>
<path d="M126.777 136.571L106.035 138.988L111.07 182.2L126.777 136.571Z" fill="#E9C875"/>
<circle cx="102.478" cy="108.452" r="8.70092" transform="rotate(-6.64553 102.478 108.452)" fill="#E95050"/>
<circle cx="126.778" cy="136.575" r="6.96073" transform="rotate(-6.64553 126.778 136.575)" fill="#F1A3FE"/>
<circle cx="112.946" cy="138.189" r="6.96073" transform="rotate(-6.64553 112.946 138.189)" fill="#F1A3FE"/>
<circle cx="99.1218" cy="139.794" r="6.96073" transform="rotate(-6.64553 99.1218 139.794)" fill="#F1A3FE"/>
<circle cx="85.2937" cy="141.399" r="6.96073" transform="rotate(-6.64553 85.2937 141.399)" fill="#F1A3FE"/>
<path d="M164.319 176.339C165.305 159.578 152.518 145.191 135.758 144.204C118.997 143.217 104.61 156.004 103.622 172.765L164.318 176.339L164.319 176.339Z" fill="#231F20"/>
</svg>
