<svg width="720" height="254" viewBox="0 0 720 254" fill="none" xmlns="http://www.w3.org/2000/svg">
<path d="M457.305 136.129C481.466 170.307 528.759 178.429 562.937 154.268C597.115 130.107 605.237 82.8134 581.076 48.6353L457.305 136.129Z" fill="#231F20"/>
<path d="M421.666 217.007C407.17 196.5 412.043 168.125 432.55 153.628L458.797 190.76L421.666 217.007Z" fill="#231F20"/>
<path d="M581.073 48.6353C595.569 69.1425 590.696 97.5176 570.189 112.014L543.941 74.8825L581.073 48.6353Z" fill="#231F20"/>
<path d="M570.22 112.013L543.971 74.8838L432.583 153.634L458.832 190.763L570.22 112.013Z" fill="#231F20"/>
<path d="M541.47 127.864C554.99 149.029 548.793 177.144 527.631 190.664L503.15 152.345L541.47 127.864Z" fill="#231F20"/>
<path d="M516.688 146.954C530.208 168.118 524.012 196.234 502.849 209.754L478.369 171.434L516.688 146.954Z" fill="#6E00FF"/>
<path d="M492.468 161.053C505.988 182.217 499.791 210.332 478.629 223.852L454.148 185.533L492.468 161.053Z" fill="#231F20"/>
<path d="M467.481 179.971C481.001 201.136 474.805 229.251 453.642 242.771L429.162 204.452L467.481 179.971Z" fill="#6E00FF"/>
<path d="M303.689 136.093C279.527 170.271 232.234 178.393 198.056 154.232C163.878 130.07 155.756 82.7772 179.917 48.5991L303.689 136.093Z" fill="#231F20"/>
<path d="M339.327 216.971C353.823 196.463 348.95 168.088 328.443 153.592L302.195 190.723L339.327 216.971Z" fill="#231F20"/>
<path d="M179.918 48.5991C165.422 69.1064 170.295 97.4815 190.802 111.978L217.049 74.8464L179.918 48.5991Z" fill="#231F20"/>
<path d="M302.194 190.702L328.443 153.573L217.055 74.8228L190.806 111.952L302.194 190.702Z" fill="#231F20"/>
<path d="M219.521 127.826C206.001 148.991 212.197 177.106 233.36 190.626L257.84 152.307L219.521 127.826Z" fill="#231F20"/>
<path d="M244.3 146.916C230.78 168.081 236.976 196.196 258.139 209.716L282.619 171.397L244.3 146.916Z" fill="#6E00FF"/>
<path d="M268.523 161.014C255.003 182.179 261.199 210.294 282.362 223.814L306.842 185.495L268.523 161.014Z" fill="#231F20"/>
<path d="M293.509 179.935C279.989 201.099 286.186 229.215 307.348 242.735L331.828 204.415L293.509 179.935Z" fill="#6E00FF"/>
<path d="M456.758 93.3548C480.433 126.845 526.774 134.803 560.264 111.128C593.754 87.4534 601.713 41.1122 578.038 7.62207L456.758 93.3548Z" fill="#231F20"/>
<path d="M421.838 172.605C407.634 152.51 412.409 124.706 432.503 110.502L458.222 146.886L421.838 172.605Z" fill="#231F20"/>
<path d="M578.036 7.62207C592.24 27.7165 587.466 55.5205 567.371 69.7247L541.652 33.341L578.036 7.62207Z" fill="#231F20"/>
<path d="M567.403 69.7232L541.682 33.3418L432.536 110.507L458.257 146.888L567.403 69.7232Z" fill="#231F20"/>
<path d="M539.23 85.2563C552.477 105.995 546.406 133.544 525.669 146.792L501.682 109.244L539.23 85.2563Z" fill="#231F20"/>
<path d="M514.948 103.962C528.196 124.7 522.124 152.25 501.388 165.497L477.4 127.949L514.948 103.962Z" fill="#6E00FF"/>
<path d="M491.214 117.777C504.462 138.515 498.39 166.065 477.654 179.312L453.666 141.764L491.214 117.777Z" fill="#231F20"/>
<path d="M466.73 136.314C479.977 157.053 473.906 184.602 453.169 197.85L429.182 160.302L466.73 136.314Z" fill="#6E00FF"/>
<path d="M306.235 93.3196C282.56 126.81 236.219 134.768 202.729 111.093C169.239 87.4182 161.281 41.077 184.956 7.58691L306.235 93.3196Z" fill="#231F20"/>
<path d="M341.155 172.569C355.36 152.475 350.585 124.671 330.49 110.467L304.771 146.851L341.155 172.569Z" fill="#231F20"/>
<path d="M184.957 7.58691C170.753 27.6814 175.528 55.4853 195.622 69.6896L221.341 33.3058L184.957 7.58691Z" fill="#231F20"/>
<path d="M304.771 146.83L330.492 110.448L221.346 33.283L195.625 69.6644L304.771 146.83Z" fill="#231F20"/>
<path d="M223.761 85.2194C210.514 105.958 216.585 133.507 237.322 146.755L261.309 109.207L223.761 85.2194Z" fill="#231F20"/>
<path d="M248.043 103.925C234.795 124.663 240.867 152.213 261.603 165.46L285.591 127.912L248.043 103.925Z" fill="#6E00FF"/>
<path d="M271.777 117.739C258.529 138.477 264.601 166.027 285.338 179.275L309.325 141.727L271.777 117.739Z" fill="#231F20"/>
<path d="M296.262 136.279C283.014 157.017 289.086 184.567 309.822 197.814L333.81 160.266L296.262 136.279Z" fill="#6E00FF"/>
<path d="M460.397 151.236L495.218 117.075L480.221 111.675L490.918 101.145L466.773 91.25L482.803 80.969L467.461 71.4719L488.616 61.1294L483.988 50.5249L500.303 53.7558L491.13 21.2603L516.376 39.1775L517.328 22.1428L531.278 34.5935L535.534 13.1002L545.51 32.0299L550.303 20.0615L558.256 36.9759L573.545 18.2057L572.442 37.3634L578.442 34.2458L576.031 46.4167L611.673 30.8697L602.252 59.4138L620.213 57.0502L604.824 77.6844L624.763 81.6333L609.877 94.2937L619.532 108.047L597.006 104.931L620.975 132.014L585.875 132.598L588.39 148.436L564.809 142.489L563.386 149.674L557.056 142.231L552.133 167.09L539.209 149.46L531.399 153.565L525.738 144.102L508.611 149.052L508.804 131.398L460.397 151.236Z" fill="white" fill-opacity="0.9"/>
<rect x="624.824" y="92.7915" width="95.1439" height="70.6005" rx="35.3002" fill="white" fill-opacity="0.6"/>
<circle cx="627.318" cy="170.161" r="7.91774" fill="white" fill-opacity="0.6"/>
<circle cx="608.064" cy="180.179" r="5.08166" fill="white" fill-opacity="0.6"/>
<circle cx="652.072" cy="128.677" r="5.71865" fill="#C7EAFB"/>
<circle cx="674.336" cy="128.677" r="5.71865" fill="#C7EAFB"/>
<circle cx="696.598" cy="128.677" r="5.71865" fill="#C7EAFB"/>
<path d="M164.546 170.693H0V252.965H164.546V170.693Z" fill="#343434"/>
<path d="M82.4421 252.992C127.88 252.992 164.714 216.157 164.714 170.719C164.714 125.282 127.88 88.4473 82.4421 88.4473C37.0044 88.4473 0.169922 125.282 0.169922 170.719C0.169922 216.157 37.0044 252.992 82.4421 252.992Z" fill="#343434"/>
<path d="M47.2928 163.538C59.9769 163.538 70.2594 153.255 70.2594 140.571C70.2594 127.887 59.9769 117.605 47.2928 117.605C34.6087 117.605 24.3262 127.887 24.3262 140.571C24.3262 153.255 34.6087 163.538 47.2928 163.538Z" fill="white"/>
<path d="M47.299 152.061C53.6407 152.061 58.7817 146.92 58.7817 140.578C58.7817 134.236 53.6407 129.095 47.299 129.095C40.9574 129.095 35.8164 134.236 35.8164 140.578C35.8164 146.92 40.9574 152.061 47.299 152.061Z" fill="#231F20"/>
<path d="M117.222 163.538C129.906 163.538 140.189 153.255 140.189 140.571C140.189 127.887 129.906 117.605 117.222 117.605C104.538 117.605 94.2557 127.887 94.2557 140.571C94.2557 153.255 104.538 163.538 117.222 163.538Z" fill="white"/>
<path d="M117.229 152.061C123.57 152.061 128.711 146.92 128.711 140.578C128.711 134.236 123.57 129.095 117.229 129.095C110.887 129.095 105.746 134.236 105.746 140.578C105.746 146.92 110.887 152.061 117.229 152.061Z" fill="#231F20"/>
<path d="M63.7852 190.079C63.7852 210.088 78.7583 226.309 97.2276 226.309L159.438 190.078L63.7852 190.078L63.7852 190.079Z" fill="#C7EAFB"/>
<path d="M97.2276 153.851L97.2276 153.853C78.7583 153.853 63.7852 170.073 63.7852 190.081L159.438 190.081L97.2276 153.85L97.2276 153.851Z" fill="#6E00FF"/>
<g opacity="0.8">
<path d="M5.90247 135.076V142.729H13.5561V173.289L21.2097 180.889H67.024L82.2776 157.982L97.5848 180.889H143.399L151.053 173.289V142.729H158.707V135.076H5.90247Z" fill="white"/>
<path d="M143.396 183.587H97.5816C96.6653 183.587 95.8569 183.156 95.318 182.401L82.2744 162.836L69.2309 182.401C68.7458 183.156 67.8832 183.587 66.9669 183.587H21.1526C20.4519 183.587 19.7513 183.318 19.2662 182.779L11.6126 175.125C11.1275 174.64 10.804 173.939 10.804 173.239V145.373H5.84535C4.33617 145.373 3.15039 144.188 3.15039 142.679V135.025C3.15039 133.516 4.33617 132.33 5.84535 132.33H158.65C160.159 132.33 161.345 133.516 161.345 135.025V142.679C161.345 144.188 160.159 145.373 158.65 145.373H153.691V173.239C153.691 173.939 153.421 174.64 152.882 175.125L145.229 182.779C144.744 183.264 144.043 183.587 143.342 183.587H143.396ZM99.037 178.197H142.318L148.355 172.161V142.732C148.355 141.223 149.541 140.038 151.05 140.038H156.009V137.774H8.59427V140.038H13.5529C15.0621 140.038 16.2479 141.223 16.2479 142.732V172.161L22.2846 178.197H65.5655L80.0644 156.476C81.0885 154.967 83.5679 154.967 84.5381 156.476L99.037 178.197Z" fill="#231F20"/>
</g>
<path d="M143.518 183.588H97.635C96.7173 183.588 95.9077 183.155 95.3679 182.397L82.3049 162.754L69.2419 182.397C68.7561 183.155 67.8921 183.588 66.9745 183.588H21.0916C20.3899 183.588 19.6882 183.317 19.2024 182.776L11.5374 175.092C11.0516 174.605 10.7275 173.901 10.7275 173.198V145.222H5.76149C4.25006 145.222 3.0625 144.031 3.0625 142.516V134.832C3.0625 133.317 4.25006 132.126 5.76149 132.126H158.794C160.306 132.126 161.493 133.317 161.493 134.832V142.516C161.493 144.031 160.306 145.222 158.794 145.222H153.828V173.198C153.828 173.901 153.558 174.605 153.018 175.092L145.353 182.776C144.868 183.263 144.166 183.588 143.464 183.588H143.518ZM99.0926 178.176H142.439L148.484 172.116V142.57C148.484 141.055 149.672 139.865 151.183 139.865H156.149V137.592H8.51452V139.865H13.4806C14.992 139.865 16.1796 141.055 16.1796 142.57V172.116L22.2253 178.176H65.571L80.0915 156.369C81.1172 154.854 83.6003 154.854 84.572 156.369L99.0926 178.176Z" fill="#231F20"/>
<rect x="90.9492" y="115.358" width="50.8189" height="5.04102" rx="2.52051" transform="rotate(-17 90.9492 115.358)" fill="#D4D4D4"/>
<path d="M595.564 202.647H496.107V252.375H595.564V202.647Z" fill="#2D2D2D"/>
<path d="M545.812 252.369C573.276 252.369 595.54 230.105 595.54 202.641C595.54 175.177 573.276 152.913 545.812 152.913C518.348 152.913 496.084 175.177 496.084 202.641C496.084 230.105 518.348 252.369 545.812 252.369Z" fill="#2D2D2D"/>
<path d="M524.681 198.301C532.347 198.301 538.562 192.086 538.562 184.419C538.562 176.752 532.347 170.537 524.681 170.537C517.014 170.537 510.799 176.752 510.799 184.419C510.799 192.086 517.014 198.301 524.681 198.301Z" fill="white"/>
<path d="M518.982 190.851C522.296 190.851 524.982 188.164 524.982 184.851C524.982 181.537 522.296 178.851 518.982 178.851C515.669 178.851 512.982 181.537 512.982 184.851C512.982 188.164 515.669 190.851 518.982 190.851Z" fill="#231F20"/>
<path d="M566.958 198.3C574.625 198.3 580.84 192.085 580.84 184.418C580.84 176.752 574.625 170.537 566.958 170.537C559.291 170.537 553.076 176.752 553.076 184.418C553.076 192.085 559.291 198.3 566.958 198.3Z" fill="white"/>
<path d="M564.882 193.803C569.997 193.803 574.144 189.657 574.144 184.542C574.144 179.427 569.997 175.28 564.882 175.28C559.767 175.28 555.621 179.427 555.621 184.542C555.621 189.657 559.767 193.803 564.882 193.803Z" fill="#231F20"/>
<path d="M582.661 187.699C582.661 196.387 575.618 203.428 566.933 203.428C558.248 203.428 551.205 196.385 551.205 187.699L582.663 187.699L582.661 187.699Z" fill="#2D2D2D"/>
<path d="M540.415 187.699C540.415 196.387 533.372 203.428 524.687 203.428C516.002 203.428 508.959 196.385 508.959 187.699L540.417 187.699L540.415 187.699Z" fill="#2D2D2D"/>
<path d="M545.811 195.566C533.717 195.566 523.912 204.616 523.912 215.78L545.812 253.382V195.566H545.811Z" fill="#C7EAFB"/>
<path d="M567.707 215.78H567.706C567.706 204.616 557.903 195.566 545.809 195.566V253.382L567.708 215.78H567.707Z" fill="#6E00FF"/>
<path d="M597.115 168.592L594.557 167.766L597.65 155.259L601.939 156.643L597.115 168.592ZM597.165 172.105C596.749 173.397 595.451 174.001 594.111 173.568C592.771 173.136 592.07 171.888 592.487 170.596C592.904 169.305 594.185 168.669 595.549 169.109C596.914 169.549 597.582 170.814 597.165 172.105Z" fill="#FA03FF"/>
<path d="M608.53 152.058L605.362 151.036C606.467 148.029 609.652 146.744 613.015 147.828C616.426 148.929 618.145 151.609 617.272 154.313C616.832 155.678 615.626 156.58 613.9 157.261L611.786 158.059C610.334 158.639 609.967 159.194 609.745 160.548L607.577 159.848C607.46 157.793 607.707 156.608 609.538 155.854L611.619 154.992C612.594 154.553 613.166 154.199 613.433 153.371C613.795 152.25 613.169 151.187 611.707 150.715C610.269 150.252 609.044 150.798 608.53 152.058ZM609.844 164.077C609.427 165.369 608.105 165.965 606.765 165.532C605.401 165.092 604.676 163.836 605.093 162.544C605.509 161.253 606.791 160.617 608.204 161.073C609.568 161.513 610.261 162.786 609.844 164.077Z" fill="#FA03FF"/>
<rect x="546.186" y="167.116" width="23.5112" height="3.77903" rx="1.88951" transform="rotate(-30 546.186 167.116)" fill="#D4D4D4"/>
<rect x="564.809" y="155.437" width="23.5112" height="3.77903" rx="1.88951" transform="rotate(15 564.809 155.437)" fill="#D4D4D4"/>
<rect x="510.381" y="160.301" width="30.7167" height="3.04696" rx="1.52348" transform="rotate(17.0143 510.381 160.301)" fill="#D4D4D4"/>
<path d="M449.982 181.85H309.982V251.85H449.982V181.85Z" fill="#2D2D2D"/>
<path d="M379.715 252.243C418.417 252.243 449.79 220.869 449.79 182.168C449.79 143.467 418.417 112.094 379.715 112.094C341.014 112.094 309.641 143.467 309.641 182.168C309.641 220.869 341.014 252.243 379.715 252.243Z" fill="#2D2D2D"/>
<path d="M349.966 176.066C360.769 176.066 369.528 167.308 369.528 156.505C369.528 145.701 360.769 136.943 349.966 136.943C339.162 136.943 330.404 145.701 330.404 156.505C330.404 167.308 339.162 176.066 349.966 176.066Z" fill="white"/>
<path d="M350.048 167.345C356.08 167.345 360.971 162.454 360.971 156.421C360.971 150.387 356.08 145.496 350.048 145.496C344.015 145.496 339.125 150.387 339.125 156.421C339.125 162.454 344.015 167.345 350.048 167.345Z" fill="black"/>
<path d="M342.795 157.748C347.281 157.748 350.918 154.111 350.918 149.625C350.918 145.138 347.281 141.502 342.795 141.502C338.309 141.502 334.672 145.138 334.672 149.625C334.672 154.111 338.309 157.748 342.795 157.748Z" fill="white"/>
<path d="M409.544 176.066C420.348 176.066 429.106 167.308 429.106 156.504C429.106 145.7 420.348 136.942 409.544 136.942C398.74 136.942 389.982 145.7 389.982 156.504C389.982 167.308 398.74 176.066 409.544 176.066Z" fill="white"/>
<path d="M409.628 167.345C415.661 167.345 420.551 162.454 420.551 156.42C420.551 150.387 415.661 145.496 409.628 145.496C403.595 145.496 398.705 150.387 398.705 156.42C398.705 162.454 403.595 167.345 409.628 167.345Z" fill="black"/>
<path d="M402.375 157.747C406.861 157.747 410.498 154.11 410.498 149.624C410.498 145.138 406.861 141.501 402.375 141.501C397.889 141.501 394.252 145.138 394.252 149.624C394.252 154.11 397.889 157.747 402.375 157.747Z" fill="white"/>
<path d="M341.151 217.054C356.988 217.054 369.826 204.216 369.826 188.379C369.826 172.543 356.988 159.705 341.151 159.705C325.315 159.705 312.477 172.543 312.477 188.379C312.477 204.216 325.315 217.054 341.151 217.054Z" fill="#2D2D2D"/>
<path d="M418.428 217.054C434.265 217.054 447.103 204.216 447.103 188.379C447.103 172.543 434.265 159.705 418.428 159.705C402.592 159.705 389.754 172.543 389.754 188.379C389.754 204.216 402.592 217.054 418.428 217.054Z" fill="#2D2D2D"/>
<path d="M379.725 216.85C398.249 216.85 413.266 202.988 413.266 185.89L379.724 128.298L379.724 216.85L379.725 216.85Z" fill="#C7EAFB"/>
<path d="M346.186 185.89L346.188 185.89C346.188 202.988 361.203 216.85 379.727 216.85L379.727 128.298L346.185 185.89L346.186 185.89Z" fill="#6E00FF"/>
<path d="M451.054 154.933C450.61 153.829 451.042 152.567 452.069 151.968L466.872 143.322C469.619 141.717 473.144 143.114 474.045 146.167V146.167C474.838 148.853 473.224 151.656 470.502 152.318L453.845 156.368C452.687 156.649 451.499 156.038 451.054 154.933V154.933Z" fill="#F8B552"/>
<path d="M306.455 152.798C306.413 154.24 305.321 155.433 303.889 155.601L283.248 158.033C279.416 158.484 276.177 155.221 276.655 151.393V151.393C277.076 148.023 280.23 145.691 283.575 146.275L304.049 149.851C305.472 150.099 306.497 151.355 306.455 152.798V152.798Z" fill="#F8B552"/>
<path d="M456.597 121.791C455.902 120.542 456.187 118.977 457.278 118.054L481.856 97.2607C485.259 94.3821 490.481 95.6718 492.152 99.8036V99.8036C493.415 102.926 492.103 106.496 489.119 108.058L460.595 122.985C459.159 123.736 457.385 123.207 456.597 121.791V121.791Z" fill="#F8B552"/>
<path d="M468.76 168.527C469.237 166.889 470.87 165.871 472.551 166.165L487.41 168.767C491.255 169.44 493.547 173.436 492.189 177.095V177.095C490.816 180.791 486.404 182.308 483.05 180.236L470.215 172.309C468.936 171.519 468.34 169.972 468.76 168.527V168.527Z" fill="#F8B552"/>
<path d="M305.23 167.931C305.939 168.985 305.741 170.404 304.771 171.223L296.195 178.469C293.976 180.344 290.6 179.748 289.158 177.225V177.225C287.701 174.678 288.94 171.434 291.725 170.507L302.376 166.958C303.438 166.604 304.606 167.002 305.23 167.931V167.931Z" fill="#F8B552"/>
<path d="M250.432 127.269C251.265 124.706 254.898 124.699 255.72 127.265V127.265C256.089 128.415 257.165 129.194 258.372 129.194V129.194C261.075 129.194 262.23 132.654 260.043 134.241V134.241C259.064 134.951 258.655 136.214 259.03 137.364V137.364C259.867 139.938 256.924 142.091 254.733 140.501V140.501C253.756 139.792 252.429 139.795 251.45 140.501V140.501C249.248 142.09 246.274 139.946 247.114 137.364V137.364C247.488 136.214 247.08 134.951 246.101 134.241V134.241C243.913 132.654 245.073 129.194 247.776 129.194V129.194C248.981 129.194 250.059 128.415 250.432 127.269V127.269Z" fill="#F8B552"/>
<path d="M304.385 93.0431C305.218 90.4806 308.851 90.4733 309.673 93.0395V93.0395C310.042 94.1888 311.118 94.9686 312.325 94.9686V94.9686C315.028 94.9686 316.184 98.4279 313.996 100.015V100.015C313.017 100.726 312.609 101.988 312.983 103.138V103.138C313.82 105.712 310.877 107.865 308.686 106.275V106.275C307.71 105.566 306.382 105.569 305.403 106.275V106.275C303.201 107.864 300.227 105.721 301.067 103.138V103.138C301.441 101.988 301.033 100.726 300.054 100.015V100.015C297.866 98.4278 299.026 94.9686 301.729 94.9686V94.9686C302.934 94.9686 304.012 94.1892 304.385 93.0431V93.0431Z" fill="#F8B552"/>
<path d="M268.209 190.323C269.042 187.761 272.675 187.754 273.497 190.32V190.32C273.866 191.469 274.942 192.249 276.149 192.249V192.249C278.852 192.249 280.008 195.708 277.82 197.296V197.296C276.841 198.006 276.433 199.268 276.807 200.418V200.418C277.644 202.993 274.701 205.145 272.51 203.555V203.555C271.534 202.846 270.206 202.849 269.227 203.555V203.555C267.025 205.144 264.051 203.001 264.891 200.418V200.418C265.265 199.268 264.857 198.006 263.878 197.296V197.296C261.69 195.708 262.85 192.249 265.553 192.249V192.249C266.758 192.249 267.836 191.469 268.209 190.323V190.323Z" fill="#F8B552"/>
<path d="M462.783 186.054C463.617 183.492 467.25 183.485 468.072 186.051V186.051C468.44 187.2 469.517 187.98 470.723 187.98V187.98C473.426 187.98 474.582 191.439 472.395 193.027V193.027C471.416 193.737 471.007 194.999 471.381 196.149V196.149C472.218 198.724 469.276 200.876 467.085 199.286V199.286C466.108 198.577 464.78 198.58 463.802 199.286V199.286C461.599 200.875 458.626 198.732 459.466 196.149V196.149C459.84 194.999 459.431 193.737 458.452 193.027V193.027C456.265 191.439 457.425 187.98 460.127 187.98V187.98C461.332 187.98 462.41 187.2 462.783 186.054V186.054Z" fill="#F8B552"/>
<path d="M512.666 145.441C513.499 142.878 517.132 142.871 517.955 145.437V145.437C518.323 146.586 519.399 147.366 520.606 147.366V147.366C523.309 147.366 524.465 150.825 522.277 152.413V152.413C521.299 153.123 520.89 154.385 521.264 155.535V155.535C522.101 158.11 519.159 160.263 516.968 158.672V158.672C515.991 157.964 514.663 157.966 513.684 158.672V158.672C511.482 160.262 508.509 158.118 509.349 155.535V155.535C509.723 154.385 509.314 153.123 508.335 152.413V152.413C506.148 150.825 507.307 147.366 510.01 147.366V147.366C511.215 147.366 512.293 146.587 512.666 145.441V145.441Z" fill="#F8B552"/>
<path d="M435.693 104.813C436.527 102.25 440.16 102.243 440.982 104.809V104.809C441.35 105.958 442.427 106.738 443.634 106.738V106.738C446.336 106.738 447.492 110.197 445.305 111.785V111.785C444.326 112.495 443.917 113.758 444.291 114.908V114.908C445.129 117.482 442.186 119.635 439.995 118.045V118.045C439.018 117.336 437.691 117.338 436.712 118.044V118.044C434.509 119.634 431.536 117.49 432.376 114.908V114.908C432.75 113.758 432.341 112.495 431.363 111.785V111.785C429.175 110.197 430.335 106.738 433.037 106.738V106.738C434.243 106.738 435.321 105.959 435.693 104.813V104.813Z" fill="#F8B552"/>
<path d="M253.213 135.269L280.014 104.65L260.508 95.2366L253.213 135.269Z" fill="#E9F7FD" fill-opacity="0.95"/>
<path fill-rule="evenodd" clip-rule="evenodd" d="M313.545 45.8502L304.289 67.0752L295.386 56.0621L293.466 68.2446H293.433L280.467 48.2471L277.039 68.2446H276.053L273.138 59.1642L269.018 68.0458L260.763 57.8345L259.122 68.2446H258.914L244.84 58.4726L246.429 70.8405L239.227 69.378L245.125 77.5449L232.982 82.9393L245.798 88.6326L235.607 96.2321L246.434 98.091L243.946 106.932L253.834 102.803L253.029 109.577L261 103.62C263.539 107.69 268.29 108.335 272.05 104.926C272.626 104.404 273.147 103.815 273.611 103.175H274.013L284.75 118.81L286.551 103.427L293.677 121.377L302.938 104.113L308.044 115.308L313.746 103.571L317.484 120.238L328.977 103.89L337.711 114.507L340.578 103.969L356.709 111.31L350.715 98.0787L366.426 91.0162L350.651 86.2077L366.983 72.6555L351.551 75.4292L365.8 51.8008L341.022 65.7697L337.539 52.0464L329.146 67.5407L325.26 54.7742L320.244 65.1709L313.545 45.8502Z" fill="#E9F7FD" fill-opacity="0.95"/>
<path d="M317.73 124.51C316.999 125.3 315.818 125.478 314.886 124.938L289.423 110.164C286.305 108.355 285.954 103.99 288.741 101.706V101.706C290.694 100.105 293.517 100.152 295.416 101.816L317.556 121.22C318.529 122.072 318.608 123.56 317.73 124.51V124.51Z" fill="#F8B552"/>
<path fill-rule="evenodd" clip-rule="evenodd" d="M195.785 81.69C197.894 84.8592 201.499 86.9476 205.591 86.9476C211.61 86.9476 216.574 82.4303 217.277 76.6011L217.363 76.6013C225.99 76.6013 232.983 69.6078 232.983 60.9808C232.983 56.8464 231.377 53.0872 228.754 50.2931C231.314 48.472 232.983 45.4816 232.983 42.1013C232.983 37.1554 229.409 33.0442 224.703 32.2091C224.704 32.1575 224.704 32.1058 224.704 32.0541C224.704 23.4271 217.71 16.4336 209.083 16.4336C205.43 16.4336 202.069 17.6881 199.408 19.7898C197.599 14.575 192.643 10.8313 186.812 10.8313C183.45 10.8313 180.38 12.0755 178.035 14.1286C175.043 11.5879 171.168 10.0552 166.935 10.0552C162.642 10.0552 158.717 11.6316 155.708 14.237C155.328 14.2026 154.943 14.1851 154.554 14.1851C150.851 14.1851 147.52 15.7776 145.208 18.3152C143.431 17.6129 141.495 17.2271 139.468 17.2271C130.841 17.2271 123.848 24.2206 123.848 32.8475C123.848 34.4883 124.101 36.07 124.57 37.5558C118.412 39.6503 113.982 45.4816 113.982 52.3476C113.982 58.6243 117.684 64.0363 123.024 66.5193C121.64 68.1471 120.805 70.2562 120.805 72.5604C120.805 77.7138 124.982 81.8914 130.136 81.8914C132 81.8914 133.737 81.3444 135.195 80.4021C138.059 83.9128 142.42 86.1545 147.304 86.1545C150.73 86.1545 153.898 85.0518 156.473 83.182C159.62 86.8632 164.298 89.1966 169.521 89.1966C175.643 89.1966 181.017 85.9898 184.054 81.1641C186.082 82.0081 188.308 82.4741 190.642 82.4741C192.434 82.4741 194.161 82.1995 195.785 81.69Z" fill="white" fill-opacity="0.8"/>
<circle cx="114.982" cy="83.8501" r="5" fill="white" fill-opacity="0.7"/>
<ellipse cx="106.482" cy="92.8501" rx="3.5" ry="4" fill="white" fill-opacity="0.7"/>
</svg>
