<svg width="500" height="134" viewBox="0 0 500 134" fill="none" xmlns="http://www.w3.org/2000/svg">
<path d="M410.711 57.3207C411.441 56.9279 411.713 56.0183 411.321 55.2889C410.928 54.5594 410.018 54.2865 409.289 54.6793L410.711 57.3207ZM304.563 111.569C304.325 112.362 304.775 113.199 305.569 113.437L318.5 117.316C319.293 117.554 320.129 117.104 320.367 116.31C320.605 115.517 320.155 114.681 319.362 114.442L307.868 110.994L311.316 99.5004C311.554 98.7069 311.104 97.8706 310.31 97.6326C309.517 97.3946 308.681 97.8448 308.442 98.6383L304.563 111.569ZM409.289 54.6793L305.289 110.679L306.711 113.321L410.711 57.3207L409.289 54.6793Z" fill="#202020"/>
<rect x="222" y="90" width="70" height="44" rx="8" fill="#C7EAFB"/>
<path d="M250.22 115.78C250.22 118.44 248.26 120 245.1 120H239.48V105.64H244.88C247.9 105.64 249.76 107 249.76 109.46C249.76 110.78 249.02 111.84 247.74 112.5C249.34 113.06 250.22 114.2 250.22 115.78ZM244.64 108.04H242.24V111.38H244.64C246.12 111.38 246.88 110.74 246.88 109.7C246.88 108.68 246.12 108.04 244.64 108.04ZM244.86 113.8H242.24V117.6H244.86C246.5 117.6 247.36 116.88 247.36 115.66C247.36 114.52 246.5 113.8 244.86 113.8ZM258.949 120L255.189 110.46V120H252.429V105.64H256.069L260.229 116.28L264.409 105.64H268.049V120H265.289V110.38L261.489 120H258.949ZM274.024 120H270.984V105.64H274.024V120Z" fill="#231F20"/>
<rect x="319" width="181" height="44" rx="8" fill="#C7EAFB"/>
<path d="M347.5 25.54C347.5 28.28 345.3 30.2 341.7 30.2C338.08 30.2 335.82 28.26 335.6 25.22H338.68C338.76 26.8 339.78 27.82 341.64 27.82C343.18 27.82 344.28 27.14 344.28 25.98C344.28 25.08 343.58 24.54 342.36 24.3L340 23.84C337.82 23.42 336.14 22.24 336.14 19.86C336.14 17.3 338.4 15.46 341.5 15.46C344.72 15.46 347.08 17.34 347.28 20.34H344.2C344.1 18.84 343.06 17.82 341.54 17.82C340.06 17.82 339.22 18.66 339.22 19.66C339.22 20.64 340.12 21.06 341.16 21.26L343.62 21.76C346.14 22.26 347.5 23.42 347.5 25.54ZM355.904 25.5V19.32H358.664V30H356.124V28.6C355.544 29.54 354.364 30.2 353.004 30.2C350.864 30.2 349.304 28.9 349.304 26.12V19.32H352.084V25.58C352.084 27.08 352.824 27.74 353.944 27.74C354.944 27.74 355.904 26.94 355.904 25.5ZM363.942 24.82V30H361.162V19.32H363.722V21.38C364.502 20.02 366.162 19.2 367.882 19.2V22.08C365.522 21.9 363.942 22.46 363.942 24.82ZM379.141 19.32L375.221 30H372.181L368.241 19.32H371.241L373.781 26.84L376.341 19.32H379.141ZM383.581 16.84C383.581 17.78 382.821 18.48 381.721 18.48C380.641 18.48 379.881 17.78 379.881 16.84C379.881 15.86 380.641 15.16 381.721 15.16C382.821 15.16 383.581 15.86 383.581 16.84ZM383.141 30H380.361V19.32H383.141V30ZM395.235 19.32L391.315 30H388.275L384.335 19.32H387.335L389.875 26.84L392.435 19.32H395.235ZM402.541 30V28.68C401.841 29.68 400.781 30.2 399.321 30.2C397.101 30.2 395.621 28.9 395.621 26.9C395.621 24.82 397.301 23.7 400.421 23.7C401.021 23.7 401.541 23.74 402.201 23.82V23.18C402.201 21.98 401.521 21.28 400.361 21.28C399.161 21.28 398.441 21.98 398.341 23.18H395.841C396.001 20.72 397.781 19.12 400.361 19.12C403.161 19.12 404.801 20.66 404.801 23.28V30H402.541ZM398.241 26.82C398.241 27.72 398.881 28.28 399.921 28.28C401.341 28.28 402.201 27.5 402.201 26.26V25.5C401.541 25.4 401.081 25.36 400.601 25.36C399.021 25.36 398.241 25.86 398.241 26.82ZM409.997 30H407.197V15.64H409.997V30ZM419.89 16.84C419.89 17.78 419.13 18.48 418.03 18.48C416.95 18.48 416.19 17.78 416.19 16.84C416.19 15.86 416.95 15.16 418.03 15.16C419.13 15.16 419.89 15.86 419.89 16.84ZM419.45 30H416.67V19.32H419.45V30ZM424.704 24.18V30H421.924V19.32H424.484V20.84C425.264 19.78 426.364 19.12 427.764 19.12C429.904 19.12 431.384 20.52 431.384 23.1V30H428.624V24.04C428.624 22.46 428.004 21.58 426.744 21.58C425.644 21.58 424.704 22.46 424.704 24.18ZM443.299 30H438.199V15.64H443.299C447.859 15.64 450.619 18.56 450.619 22.74C450.619 26.92 447.759 30 443.299 30ZM441.239 18.26V27.38H443.139C445.999 27.38 447.499 25.72 447.499 22.74C447.499 19.88 445.999 18.26 443.139 18.26H441.239ZM458.85 30V28.68C458.15 29.68 457.09 30.2 455.63 30.2C453.41 30.2 451.93 28.9 451.93 26.9C451.93 24.82 453.61 23.7 456.73 23.7C457.33 23.7 457.85 23.74 458.51 23.82V23.18C458.51 21.98 457.83 21.28 456.67 21.28C455.47 21.28 454.75 21.98 454.65 23.18H452.15C452.31 20.72 454.09 19.12 456.67 19.12C459.47 19.12 461.11 20.66 461.11 23.28V30H458.85ZM454.55 26.82C454.55 27.72 455.19 28.28 456.23 28.28C457.65 28.28 458.51 27.5 458.51 26.26V25.5C457.85 25.4 457.39 25.36 456.91 25.36C455.33 25.36 454.55 25.86 454.55 26.82ZM472.755 19.32L467.555 33.86H464.535L466.055 29.88L461.855 19.32H464.855L467.535 26.64L469.975 19.32H472.755ZM482.721 26.58C482.721 28.82 481.021 30.2 477.981 30.2C474.941 30.2 473.241 28.74 473.021 26.36H475.681C475.701 27.46 476.641 28.16 478.021 28.16C479.101 28.16 479.921 27.82 479.921 27.06C479.921 26.38 479.481 26.1 478.461 25.9L476.541 25.54C474.621 25.2 473.461 24.14 473.461 22.48C473.461 20.5 475.161 19.12 477.821 19.12C480.501 19.12 482.341 20.54 482.541 22.84H479.881C479.781 21.8 479.001 21.16 477.821 21.16C476.801 21.16 476.121 21.54 476.121 22.22C476.121 22.86 476.561 23.12 477.521 23.3L479.581 23.68C481.661 24.08 482.721 25.04 482.721 26.58Z" fill="black"/>
<rect width="177" height="40" rx="8" fill="#C7EAFB"/>
<path d="M19.9 28H16.86V16.38H12.34V13.64H24.44V16.38H19.9V28ZM28.0903 22.82V28H25.3103V17.32H27.8703V19.38C28.6503 18.02 30.3103 17.2 32.0303 17.2V20.08C29.6703 19.9 28.0903 20.46 28.0903 22.82ZM38.0362 28.18C34.8363 28.18 32.6963 25.96 32.6963 22.62C32.6963 19.44 34.9163 17.12 37.9963 17.12C41.3763 17.12 43.6163 19.86 43.1163 23.34H35.5363C35.7163 25.08 36.5563 26.04 37.9763 26.04C39.1963 26.04 40.0163 25.44 40.3363 24.38H43.0963C42.4963 26.8 40.6363 28.18 38.0362 28.18ZM37.9363 19.16C36.6363 19.16 35.8163 20 35.5763 21.58H40.1763C40.0963 20.1 39.2563 19.16 37.9363 19.16ZM51.3383 28V26.68C50.6383 27.68 49.5783 28.2 48.1183 28.2C45.8983 28.2 44.4183 26.9 44.4183 24.9C44.4183 22.82 46.0983 21.7 49.2183 21.7C49.8183 21.7 50.3383 21.74 50.9983 21.82V21.18C50.9983 19.98 50.3183 19.28 49.1583 19.28C47.9583 19.28 47.2383 19.98 47.1383 21.18H44.6383C44.7983 18.72 46.5783 17.12 49.1583 17.12C51.9583 17.12 53.5983 18.66 53.5983 21.28V28H51.3383ZM47.0383 24.82C47.0383 25.72 47.6783 26.28 48.7183 26.28C50.1383 26.28 50.9983 25.5 50.9983 24.26V23.5C50.3383 23.4 49.8783 23.36 49.3983 23.36C47.8183 23.36 47.0383 23.86 47.0383 24.82ZM62.4777 25.3V27.72C61.7977 28.06 61.1577 28.2 60.3377 28.2C58.1377 28.2 56.7577 26.94 56.7577 24.54V19.7H54.5977V17.32H56.7577V14.16H59.5177V17.32H62.5777V19.7H59.5177V23.9C59.5177 25.14 60.0777 25.64 61.0777 25.64C61.5977 25.64 62.0777 25.52 62.4777 25.3ZM67.0552 28H64.2752V17.32H66.8352V18.84C67.6152 17.76 68.6152 17.12 70.0352 17.12C71.4952 17.12 72.6152 17.8 73.1552 19.02C73.9952 17.84 75.0752 17.12 76.6752 17.12C78.8352 17.12 80.2952 18.54 80.2952 21.1V28H77.5352V21.98C77.5352 20.48 76.8952 19.58 75.6752 19.58C74.5752 19.58 73.6752 20.44 73.6752 22.04V28H70.9152V21.98C70.9152 20.48 70.2752 19.58 69.0552 19.58C67.9352 19.58 67.0552 20.44 67.0552 22.04V28ZM87.3136 28.18C84.1136 28.18 81.9736 25.96 81.9736 22.62C81.9736 19.44 84.1936 17.12 87.2736 17.12C90.6536 17.12 92.8936 19.86 92.3936 23.34H84.8136C84.9936 25.08 85.8336 26.04 87.2536 26.04C88.4736 26.04 89.2936 25.44 89.6136 24.38H92.3736C91.7736 26.8 89.9136 28.18 87.3136 28.18ZM87.2136 19.16C85.9136 19.16 85.0936 20 84.8536 21.58H89.4536C89.3736 20.1 88.5336 19.16 87.2136 19.16ZM97.0356 22.18V28H94.2556V17.32H96.8156V18.84C97.5956 17.78 98.6956 17.12 100.096 17.12C102.236 17.12 103.716 18.52 103.716 21.1V28H100.956V22.04C100.956 20.46 100.336 19.58 99.0756 19.58C97.9756 19.58 97.0356 20.46 97.0356 22.18ZM112.673 25.3V27.72C111.993 28.06 111.353 28.2 110.533 28.2C108.333 28.2 106.953 26.94 106.953 24.54V19.7H104.793V17.32H106.953V14.16H109.713V17.32H112.773V19.7H109.713V23.9C109.713 25.14 110.273 25.64 111.273 25.64C111.793 25.64 112.273 25.52 112.673 25.3ZM125.31 28H122.27V16.38H117.75V13.64H129.85V16.38H125.31V28ZM140.712 17.32L135.512 31.86H132.492L134.012 27.88L129.812 17.32H132.812L135.492 24.64L137.932 17.32H140.712ZM152.591 22.66C152.591 25.82 150.731 28.2 147.851 28.2C146.591 28.2 145.511 27.66 144.711 26.62V31.86H141.931V17.32H144.491V18.88C145.311 17.74 146.491 17.12 147.851 17.12C150.731 17.12 152.591 19.52 152.591 22.66ZM149.731 22.66C149.731 20.66 148.591 19.58 147.231 19.58C145.871 19.58 144.731 20.64 144.731 22.66C144.731 24.68 145.871 25.72 147.231 25.72C148.591 25.72 149.731 24.7 149.731 22.66ZM159.013 28.18C155.813 28.18 153.673 25.96 153.673 22.62C153.673 19.44 155.893 17.12 158.973 17.12C162.353 17.12 164.593 19.86 164.093 23.34H156.513C156.693 25.08 157.533 26.04 158.953 26.04C160.173 26.04 160.993 25.44 161.313 24.38H164.073C163.473 26.8 161.613 28.18 159.013 28.18ZM158.913 19.16C157.613 19.16 156.793 20 156.553 21.58H161.153C161.073 20.1 160.233 19.16 158.913 19.16Z" fill="black"/>
<path d="M209.325 113.339C210.064 113.712 210.966 113.415 211.339 112.675C211.712 111.936 211.415 111.034 210.675 110.661L209.325 113.339ZM88.5304 49.5754C87.7436 49.8348 87.316 50.6829 87.5754 51.4696L91.8022 64.2909C92.0616 65.0777 92.9097 65.5052 93.6964 65.2458C94.4832 64.9864 94.9107 64.1384 94.6514 63.3516L90.8942 51.9549L102.291 48.1978C103.078 47.9384 103.505 47.0903 103.246 46.3036C102.986 45.5168 102.138 45.0893 101.352 45.3486L88.5304 49.5754ZM210.675 110.661L89.6752 49.6606L88.3248 52.3394L209.325 113.339L210.675 110.661Z" fill="#202020"/>
<path d="M199 18.5C198.172 18.5 197.5 19.1716 197.5 20C197.5 20.8284 198.172 21.5 199 21.5V18.5ZM298.061 21.0607C298.646 20.4749 298.646 19.5251 298.061 18.9393L288.515 9.3934C287.929 8.80761 286.979 8.80761 286.393 9.3934C285.808 9.97918 285.808 10.9289 286.393 11.5147L294.879 20L286.393 28.4853C285.808 29.0711 285.808 30.0208 286.393 30.6066C286.979 31.1924 287.929 31.1924 288.515 30.6066L298.061 21.0607ZM199 21.5L297 21.5V18.5L199 18.5V21.5Z" fill="#202020"/>
</svg>
