<svg width="345" height="378" viewBox="0 0 345 378" fill="none" xmlns="http://www.w3.org/2000/svg">
<path d="M83.2712 208.932C104.088 199.636 127.744 198.99 149.037 207.136C170.33 215.282 187.514 231.554 196.81 252.37C206.106 273.187 206.752 296.843 198.605 318.136C190.459 339.429 174.188 356.613 153.371 365.909L83.2712 208.932Z" fill="#242121"/>
<path d="M83.2712 208.932C81.3533 204.637 80.3002 200.006 80.1718 195.305C80.0435 190.603 80.8424 185.922 82.5231 181.529C84.2038 177.136 86.7333 173.117 89.9672 169.702C93.201 166.287 97.0759 163.542 101.371 161.624L115.975 194.327L83.2712 208.932Z" fill="#242121"/>
<path d="M171.471 318.601C173.389 322.896 174.442 327.526 174.57 332.228C174.699 336.93 173.9 341.611 172.219 346.003C170.538 350.396 168.009 354.415 164.775 357.831C161.541 361.246 157.666 363.991 153.371 365.909L138.767 333.205L171.471 318.601Z" fill="#242121"/>
<path d="M115.975 194.327L83.2712 208.932L138.767 333.205L171.471 318.601L115.975 194.327Z" fill="#242121"/>
<path d="M232.142 119.254C214.193 133.31 202.562 153.92 199.809 176.551C197.056 199.182 203.405 221.98 217.461 239.929C231.517 257.878 252.127 269.509 274.758 272.262C297.389 275.015 320.187 268.666 338.136 254.61L232.142 119.254Z" fill="#242121"/>
<path d="M232.142 119.254C229.242 115.551 225.641 112.455 221.545 110.144C217.449 107.832 212.937 106.35 208.268 105.782C203.599 105.214 198.864 105.571 194.333 106.833C189.802 108.095 185.564 110.237 181.861 113.137L203.943 141.336L232.142 119.254Z" fill="#242121"/>
<path d="M287.855 248.493C290.755 252.196 294.355 255.292 298.452 257.603C302.548 259.915 307.059 261.397 311.728 261.965C316.398 262.533 321.133 262.176 325.664 260.914C330.195 259.652 334.433 257.51 338.136 254.61L316.054 226.411L287.855 248.493Z" fill="#242121"/>
<path d="M203.943 141.336L232.142 119.254L316.054 226.411L287.855 248.493L203.943 141.336Z" fill="#242121"/>
<path d="M250.823 272.411L266.864 312.923" stroke="black" stroke-width="4.77551" stroke-linecap="round"/>
<path d="M209.918 297.049L238.231 330.169" stroke="black" stroke-width="4.77551" stroke-linecap="round"/>
<path d="M215.729 343.724L248.455 324.011" stroke="black" stroke-width="4.77551" stroke-linecap="round"/>
<path d="M289.362 299.369L256.637 319.082" stroke="black" stroke-width="4.77551" stroke-linecap="round"/>
<path d="M187.878 84.6233L73.3389 153.619L140.211 264.633L254.75 195.638L187.878 84.6233Z" fill="#2D2D2D"/>
<path d="M187.878 84.6233L73.3389 153.619L90.057 181.372L204.596 112.377L187.878 84.6233Z" fill="#2D2D2D"/>
<circle cx="66.8571" cy="66.8571" r="66.8571" transform="matrix(-0.856594 0.515991 0.515991 0.856594 223.569 143.876)" fill="#2D2D2D"/>
<path d="M74.5358 155.599C93.5883 187.228 134.674 197.423 166.303 178.371C197.932 159.318 208.127 118.233 189.075 86.6036C170.022 54.9746 128.937 44.7794 97.3075 63.8319C65.6785 82.8845 55.4832 123.97 74.5358 155.599Z" fill="#2D2D2D"/>
<path d="M187.878 84.6233L73.3389 153.619L96.9186 192.763C102.362 201.8 114.101 204.713 123.138 199.269L204.951 149.987C213.988 144.543 216.901 132.805 211.457 123.768L187.878 84.6233Z" fill="#2D2D2D"/>
<path d="M83.6033 98.9258C93.205 93.142 105.533 95.9975 111.139 105.304C116.745 114.61 113.506 126.843 103.904 132.627C94.3022 138.41 81.9741 135.555 76.3683 126.249C70.7624 116.942 74.0017 104.71 83.6033 98.9258Z" fill="white"/>
<path d="M79.1502 91.5313C88.7519 85.7474 101.08 88.6029 106.686 97.9092C112.292 107.215 109.052 119.448 99.4508 125.232C89.8491 131.016 77.521 128.16 71.9151 118.854C66.3093 109.548 69.5485 97.3151 79.1502 91.5313Z" fill="#2D2D2D"/>
<path d="M134.736 68.125C144.338 62.3412 156.666 65.1967 162.272 74.5029C167.878 83.8091 164.638 96.042 155.037 101.826C145.435 107.61 133.107 104.754 127.501 95.4479C121.895 86.1417 125.134 73.9088 134.736 68.125Z" fill="white"/>
<path d="M130.283 60.7305C139.885 54.9467 152.213 57.8021 157.819 67.1084C163.425 76.4146 160.185 88.6475 150.584 94.4313C140.982 100.215 128.654 97.3596 123.048 88.0534C117.442 78.7472 120.681 66.5143 130.283 60.7305Z" fill="#2D2D2D"/>
<path d="M161.811 50.972C161.805 50.936 161.799 50.9 161.792 50.8629C161.781 50.8 161.77 50.7355 161.758 50.6733C161.743 50.5863 161.725 50.5005 161.707 50.4147C161.703 50.3998 161.701 50.3842 161.698 50.3692C161.412 48.9986 160.92 47.6628 160.224 46.4116C160.216 46.3981 160.208 46.3845 160.2 46.3693C160.155 46.2889 160.11 46.2096 160.063 46.1298C160.035 46.084 160.007 46.0371 159.979 45.9913C159.952 45.9455 159.924 45.8987 159.896 45.8528C159.848 45.7737 159.798 45.6975 159.749 45.6196C159.74 45.606 159.732 45.5925 159.722 45.5785C158.942 44.3767 157.99 43.3181 156.913 42.4258C156.901 42.4158 156.888 42.4064 156.876 42.3954C156.809 42.3395 156.74 42.2843 156.672 42.2301C156.621 42.1898 156.571 42.1506 156.52 42.1104C156.491 42.0881 156.462 42.0658 156.433 42.0435C155.882 41.6247 155.308 41.2523 154.717 40.9258L154.726 40.9087L135.748 30.3431C134.809 29.8204 133.665 30.5093 133.688 31.584L134.156 53.3011L134.176 53.3007C134.187 53.9766 134.248 54.658 134.361 55.3403C134.368 55.3763 134.374 55.4123 134.38 55.4484C134.391 55.5112 134.402 55.5757 134.415 55.639C134.43 55.726 134.447 55.8108 134.465 55.8965C134.469 55.9115 134.471 55.9271 134.475 55.9431C134.759 57.3132 135.251 58.6491 135.949 59.9007C135.957 59.9142 135.965 59.9278 135.973 59.943C136.018 60.0223 136.063 60.1027 136.11 60.1825C136.137 60.2283 136.166 60.2752 136.193 60.321C136.221 60.3668 136.249 60.4137 136.277 60.4595C136.324 60.5386 136.375 60.6148 136.424 60.6927C136.432 60.7063 136.441 60.7198 136.45 60.7338C137.231 61.9356 138.183 62.9942 139.26 63.8865C139.272 63.8965 139.284 63.9059 139.296 63.9159C139.363 63.9718 139.432 64.027 139.501 64.0822C139.552 64.1225 139.602 64.1617 139.652 64.2008C139.681 64.2232 139.71 64.2455 139.74 64.2688C141.191 65.3718 142.803 66.1533 144.482 66.615C144.498 66.6198 144.513 66.623 144.529 66.6278C144.612 66.6504 144.694 66.6729 144.779 66.6932C144.862 66.7142 144.944 66.734 145.026 66.7529C145.042 66.7571 145.059 66.7612 145.075 66.7644C146.771 67.1535 148.556 67.2277 150.347 66.941C150.383 66.935 150.42 66.9294 150.457 66.9228C150.52 66.9121 150.582 66.9014 150.645 66.8906C150.731 66.8753 150.817 66.858 150.904 66.841C150.919 66.8377 150.933 66.835 150.948 66.8328C152.312 66.5545 153.641 66.0693 154.885 65.3782C154.898 65.3701 154.913 65.3614 154.927 65.3543C155.006 65.3097 155.086 65.2644 155.164 65.2187C155.209 65.1913 155.256 65.1633 155.301 65.1359C155.347 65.1085 155.393 65.0804 155.439 65.053C155.517 65.0057 155.593 64.9558 155.669 64.907C155.683 64.8989 155.697 64.8902 155.71 64.8811C156.903 64.1046 157.953 63.157 158.836 62.0811C158.846 62.0694 158.855 62.0584 158.864 62.0457C158.921 61.9777 158.975 61.9094 159.029 61.8399C159.068 61.7896 159.107 61.7393 159.146 61.689C159.169 61.6595 159.191 61.6306 159.213 61.6C160.304 60.1512 161.073 58.5384 161.522 56.8573C161.526 56.8407 161.53 56.824 161.535 56.8084C161.557 56.7256 161.577 56.6435 161.597 56.5619C161.618 56.4787 161.636 56.3951 161.656 56.3108C161.659 56.2948 161.664 56.2792 161.667 56.2632C162.044 54.5641 162.107 52.7735 161.81 50.9743L161.811 50.972Z" fill="#0082FF"/>
<path d="M166.204 122.683C164.262 119.46 161.705 116.651 158.678 114.416C155.65 112.181 152.213 110.564 148.561 109.658C144.909 108.752 141.114 108.574 137.393 109.134C133.672 109.695 130.098 110.982 126.875 112.924L141.66 137.468L166.204 122.683Z" fill="#6E00FF"/>
<path d="M117.118 152.252C115.176 149.029 113.888 145.454 113.328 141.734C112.768 138.013 112.946 134.218 113.852 130.566C114.758 126.914 116.375 123.476 118.61 120.449C120.845 117.422 123.654 114.864 126.877 112.923L141.662 137.467L117.118 152.252Z" fill="#C7EAFB"/>
<path d="M117.116 152.251L141.66 137.467L166.301 178.373L117.116 152.251Z" fill="#C7EAFB"/>
<path d="M166.202 122.681L141.658 137.466L166.299 178.373L166.202 122.681Z" fill="#6E00FF"/>
<path fill-rule="evenodd" clip-rule="evenodd" d="M129.896 221.283C136.052 214.271 146.459 212.227 154.96 216.927C161.006 220.27 164.677 226.244 165.333 232.633C165.958 231.544 166.619 230.368 167.32 229.1C187.721 192.198 174.345 145.745 137.443 125.344C135.212 124.11 132.643 126.082 132.916 128.617C134.543 143.693 131.707 159.403 123.812 173.682C118.967 182.445 112.653 189.882 105.346 195.855C110.199 194.597 115.523 195.123 120.257 197.74C128.758 202.44 132.562 212.341 129.896 221.283Z" fill="white"/>
</svg>
