<svg width="576" height="251" viewBox="0 0 576 251" fill="none" xmlns="http://www.w3.org/2000/svg">
<rect x="12" y="55" width="552" height="184" rx="8" fill="#F3F3F3"/>
<rect x="262" y="170" width="70" height="44" rx="8" fill="#C7EAFB"/>
<path d="M290.22 195.78C290.22 198.44 288.26 200 285.1 200H279.48V185.64H284.88C287.9 185.64 289.76 187 289.76 189.46C289.76 190.78 289.02 191.84 287.74 192.5C289.34 193.06 290.22 194.2 290.22 195.78ZM284.64 188.04H282.24V191.38H284.64C286.12 191.38 286.88 190.74 286.88 189.7C286.88 188.68 286.12 188.04 284.64 188.04ZM284.86 193.8H282.24V197.6H284.86C286.5 197.6 287.36 196.88 287.36 195.66C287.36 194.52 286.5 193.8 284.86 193.8ZM298.949 200L295.189 190.46V200H292.429V185.64H296.069L300.229 196.28L304.409 185.64H308.049V200H305.289V190.38L301.489 200H298.949ZM314.024 200H310.984V185.64H314.024V200Z" fill="#231F20"/>
<rect x="359" y="80" width="181" height="44" rx="8" fill="#C7EAFB"/>
<path d="M387.5 105.54C387.5 108.28 385.3 110.2 381.7 110.2C378.08 110.2 375.82 108.26 375.6 105.22H378.68C378.76 106.8 379.78 107.82 381.64 107.82C383.18 107.82 384.28 107.14 384.28 105.98C384.28 105.08 383.58 104.54 382.36 104.3L380 103.84C377.82 103.42 376.14 102.24 376.14 99.86C376.14 97.3 378.4 95.46 381.5 95.46C384.72 95.46 387.08 97.34 387.28 100.34H384.2C384.1 98.84 383.06 97.82 381.54 97.82C380.06 97.82 379.22 98.66 379.22 99.66C379.22 100.64 380.12 101.06 381.16 101.26L383.62 101.76C386.14 102.26 387.5 103.42 387.5 105.54ZM395.904 105.5V99.32H398.664V110H396.124V108.6C395.544 109.54 394.364 110.2 393.004 110.2C390.864 110.2 389.304 108.9 389.304 106.12V99.32H392.084V105.58C392.084 107.08 392.824 107.74 393.944 107.74C394.944 107.74 395.904 106.94 395.904 105.5ZM403.942 104.82V110H401.162V99.32H403.722V101.38C404.502 100.02 406.162 99.2 407.882 99.2V102.08C405.522 101.9 403.942 102.46 403.942 104.82ZM419.141 99.32L415.221 110H412.181L408.241 99.32H411.241L413.781 106.84L416.341 99.32H419.141ZM423.581 96.84C423.581 97.78 422.821 98.48 421.721 98.48C420.641 98.48 419.881 97.78 419.881 96.84C419.881 95.86 420.641 95.16 421.721 95.16C422.821 95.16 423.581 95.86 423.581 96.84ZM423.141 110H420.361V99.32H423.141V110ZM435.235 99.32L431.315 110H428.275L424.335 99.32H427.335L429.875 106.84L432.435 99.32H435.235ZM442.541 110V108.68C441.841 109.68 440.781 110.2 439.321 110.2C437.101 110.2 435.621 108.9 435.621 106.9C435.621 104.82 437.301 103.7 440.421 103.7C441.021 103.7 441.541 103.74 442.201 103.82V103.18C442.201 101.98 441.521 101.28 440.361 101.28C439.161 101.28 438.441 101.98 438.341 103.18H435.841C436.001 100.72 437.781 99.12 440.361 99.12C443.161 99.12 444.801 100.66 444.801 103.28V110H442.541ZM438.241 106.82C438.241 107.72 438.881 108.28 439.921 108.28C441.341 108.28 442.201 107.5 442.201 106.26V105.5C441.541 105.4 441.081 105.36 440.601 105.36C439.021 105.36 438.241 105.86 438.241 106.82ZM449.997 110H447.197V95.64H449.997V110ZM459.89 96.84C459.89 97.78 459.13 98.48 458.03 98.48C456.95 98.48 456.19 97.78 456.19 96.84C456.19 95.86 456.95 95.16 458.03 95.16C459.13 95.16 459.89 95.86 459.89 96.84ZM459.45 110H456.67V99.32H459.45V110ZM464.704 104.18V110H461.924V99.32H464.484V100.84C465.264 99.78 466.364 99.12 467.764 99.12C469.904 99.12 471.384 100.52 471.384 103.1V110H468.624V104.04C468.624 102.46 468.004 101.58 466.744 101.58C465.644 101.58 464.704 102.46 464.704 104.18ZM483.299 110H478.199V95.64H483.299C487.859 95.64 490.619 98.56 490.619 102.74C490.619 106.92 487.759 110 483.299 110ZM481.239 98.26V107.38H483.139C485.999 107.38 487.499 105.72 487.499 102.74C487.499 99.88 485.999 98.26 483.139 98.26H481.239ZM498.85 110V108.68C498.15 109.68 497.09 110.2 495.63 110.2C493.41 110.2 491.93 108.9 491.93 106.9C491.93 104.82 493.61 103.7 496.73 103.7C497.33 103.7 497.85 103.74 498.51 103.82V103.18C498.51 101.98 497.83 101.28 496.67 101.28C495.47 101.28 494.75 101.98 494.65 103.18H492.15C492.31 100.72 494.09 99.12 496.67 99.12C499.47 99.12 501.11 100.66 501.11 103.28V110H498.85ZM494.55 106.82C494.55 107.72 495.19 108.28 496.23 108.28C497.65 108.28 498.51 107.5 498.51 106.26V105.5C497.85 105.4 497.39 105.36 496.91 105.36C495.33 105.36 494.55 105.86 494.55 106.82ZM512.755 99.32L507.555 113.86H504.535L506.055 109.88L501.855 99.32H504.855L507.535 106.64L509.975 99.32H512.755ZM522.721 106.58C522.721 108.82 521.021 110.2 517.981 110.2C514.941 110.2 513.241 108.74 513.021 106.36H515.681C515.701 107.46 516.641 108.16 518.021 108.16C519.101 108.16 519.921 107.82 519.921 107.06C519.921 106.38 519.481 106.1 518.461 105.9L516.541 105.54C514.621 105.2 513.461 104.14 513.461 102.48C513.461 100.5 515.161 99.12 517.821 99.12C520.501 99.12 522.341 100.54 522.541 102.84H519.881C519.781 101.8 519.001 101.16 517.821 101.16C516.801 101.16 516.121 101.54 516.121 102.22C516.121 102.86 516.561 103.12 517.521 103.3L519.581 103.68C521.661 104.08 522.721 105.04 522.721 106.58Z" fill="black"/>
<rect x="40" y="80" width="177" height="40" rx="8" fill="#C7EAFB"/>
<path d="M59.9 108H56.86V96.38H52.34V93.64H64.44V96.38H59.9V108ZM68.0903 102.82V108H65.3103V97.32H67.8703V99.38C68.6503 98.02 70.3103 97.2 72.0303 97.2V100.08C69.6703 99.9 68.0903 100.46 68.0903 102.82ZM78.0362 108.18C74.8363 108.18 72.6963 105.96 72.6963 102.62C72.6963 99.44 74.9163 97.12 77.9963 97.12C81.3763 97.12 83.6163 99.86 83.1163 103.34H75.5363C75.7163 105.08 76.5563 106.04 77.9763 106.04C79.1963 106.04 80.0163 105.44 80.3363 104.38H83.0963C82.4963 106.8 80.6363 108.18 78.0362 108.18ZM77.9363 99.16C76.6363 99.16 75.8163 100 75.5763 101.58H80.1763C80.0963 100.1 79.2563 99.16 77.9363 99.16ZM91.3383 108V106.68C90.6383 107.68 89.5783 108.2 88.1183 108.2C85.8983 108.2 84.4183 106.9 84.4183 104.9C84.4183 102.82 86.0983 101.7 89.2183 101.7C89.8183 101.7 90.3383 101.74 90.9983 101.82V101.18C90.9983 99.98 90.3183 99.28 89.1583 99.28C87.9583 99.28 87.2383 99.98 87.1383 101.18H84.6383C84.7983 98.72 86.5783 97.12 89.1583 97.12C91.9583 97.12 93.5983 98.66 93.5983 101.28V108H91.3383ZM87.0383 104.82C87.0383 105.72 87.6783 106.28 88.7183 106.28C90.1383 106.28 90.9983 105.5 90.9983 104.26V103.5C90.3383 103.4 89.8783 103.36 89.3983 103.36C87.8183 103.36 87.0383 103.86 87.0383 104.82ZM102.478 105.3V107.72C101.798 108.06 101.158 108.2 100.338 108.2C98.1377 108.2 96.7577 106.94 96.7577 104.54V99.7H94.5977V97.32H96.7577V94.16H99.5177V97.32H102.578V99.7H99.5177V103.9C99.5177 105.14 100.078 105.64 101.078 105.64C101.598 105.64 102.078 105.52 102.478 105.3ZM107.055 108H104.275V97.32H106.835V98.84C107.615 97.76 108.615 97.12 110.035 97.12C111.495 97.12 112.615 97.8 113.155 99.02C113.995 97.84 115.075 97.12 116.675 97.12C118.835 97.12 120.295 98.54 120.295 101.1V108H117.535V101.98C117.535 100.48 116.895 99.58 115.675 99.58C114.575 99.58 113.675 100.44 113.675 102.04V108H110.915V101.98C110.915 100.48 110.275 99.58 109.055 99.58C107.935 99.58 107.055 100.44 107.055 102.04V108ZM127.314 108.18C124.114 108.18 121.974 105.96 121.974 102.62C121.974 99.44 124.194 97.12 127.274 97.12C130.654 97.12 132.894 99.86 132.394 103.34H124.814C124.994 105.08 125.834 106.04 127.254 106.04C128.474 106.04 129.294 105.44 129.614 104.38H132.374C131.774 106.8 129.914 108.18 127.314 108.18ZM127.214 99.16C125.914 99.16 125.094 100 124.854 101.58H129.454C129.374 100.1 128.534 99.16 127.214 99.16ZM137.036 102.18V108H134.256V97.32H136.816V98.84C137.596 97.78 138.696 97.12 140.096 97.12C142.236 97.12 143.716 98.52 143.716 101.1V108H140.956V102.04C140.956 100.46 140.336 99.58 139.076 99.58C137.976 99.58 137.036 100.46 137.036 102.18ZM152.673 105.3V107.72C151.993 108.06 151.353 108.2 150.533 108.2C148.333 108.2 146.953 106.94 146.953 104.54V99.7H144.793V97.32H146.953V94.16H149.713V97.32H152.773V99.7H149.713V103.9C149.713 105.14 150.273 105.64 151.273 105.64C151.793 105.64 152.273 105.52 152.673 105.3ZM165.31 108H162.27V96.38H157.75V93.64H169.85V96.38H165.31V108ZM180.712 97.32L175.512 111.86H172.492L174.012 107.88L169.812 97.32H172.812L175.492 104.64L177.932 97.32H180.712ZM192.591 102.66C192.591 105.82 190.731 108.2 187.851 108.2C186.591 108.2 185.511 107.66 184.711 106.62V111.86H181.931V97.32H184.491V98.88C185.311 97.74 186.491 97.12 187.851 97.12C190.731 97.12 192.591 99.52 192.591 102.66ZM189.731 102.66C189.731 100.66 188.591 99.58 187.231 99.58C185.871 99.58 184.731 100.64 184.731 102.66C184.731 104.68 185.871 105.72 187.231 105.72C188.591 105.72 189.731 104.7 189.731 102.66ZM199.013 108.18C195.813 108.18 193.673 105.96 193.673 102.62C193.673 99.44 195.893 97.12 198.973 97.12C202.353 97.12 204.593 99.86 204.093 103.34H196.513C196.693 105.08 197.533 106.04 198.953 106.04C200.173 106.04 200.993 105.44 201.313 104.38H204.073C203.473 106.8 201.613 108.18 199.013 108.18ZM198.913 99.16C197.613 99.16 196.793 100 196.553 101.58H201.153C201.073 100.1 200.233 99.16 198.913 99.16Z" fill="black"/>
<path d="M249.325 193.339C250.064 193.712 250.966 193.415 251.339 192.675C251.712 191.936 251.415 191.034 250.675 190.661L249.325 193.339ZM128.53 129.575C127.744 129.835 127.316 130.683 127.575 131.47L131.802 144.291C132.062 145.078 132.91 145.505 133.696 145.246C134.483 144.986 134.911 144.138 134.651 143.352L130.894 131.955L142.291 128.198C143.078 127.938 143.505 127.09 143.246 126.304C142.986 125.517 142.138 125.089 141.352 125.349L128.53 129.575ZM250.675 190.661L129.675 129.661L128.325 132.339L249.325 193.339L250.675 190.661Z" fill="#202020"/>
<path d="M239 98.5C238.172 98.5 237.5 99.1716 237.5 100C237.5 100.828 238.172 101.5 239 101.5V98.5ZM338.061 101.061C338.646 100.475 338.646 99.5251 338.061 98.9393L328.515 89.3934C327.929 88.8076 326.979 88.8076 326.393 89.3934C325.808 89.9792 325.808 90.9289 326.393 91.5147L334.879 100L326.393 108.485C325.808 109.071 325.808 110.021 326.393 110.607C326.979 111.192 327.929 111.192 328.515 110.607L338.061 101.061ZM239 101.5H337V98.5H239V101.5Z" fill="#202020"/>
</svg>
