<svg width="659" height="471" viewBox="0 0 659 471" fill="none" xmlns="http://www.w3.org/2000/svg">
<line x1="326.302" y1="28.4062" x2="326.302" y2="435.269" stroke="#A2A2A2" stroke-width="0.689127"/>
<line x1="580.245" y1="224.352" x2="71.669" y2="224.352" stroke="#A2A2A2" stroke-width="0.689127"/>
<path d="M277.965 9V2.96325H281.587V3.86462H278.982V5.43583H281.298V6.32894H278.982V8.09862H281.587V9H277.965ZM283.312 9L284.834 2.96325H286.165L287.695 9H286.636L286.306 7.53629H284.701L284.371 9H283.312ZM284.892 6.6928H286.115L285.752 5.07198C285.691 4.80184 285.639 4.55926 285.595 4.34426C285.55 4.12374 285.52 3.96386 285.504 3.86462C285.487 3.96386 285.457 4.12374 285.413 4.34426C285.374 4.55926 285.322 4.79908 285.255 5.06371L284.892 6.6928ZM291.306 9.0827C290.892 9.0827 290.534 9.01378 290.23 8.87596C289.927 8.73813 289.693 8.54242 289.528 8.28882C289.368 8.02971 289.285 7.72649 289.279 7.37917H290.313C290.313 7.62726 290.401 7.82297 290.578 7.96631C290.76 8.10413 291.005 8.17305 291.314 8.17305C291.611 8.17305 291.843 8.10413 292.008 7.96631C292.179 7.82848 292.265 7.63828 292.265 7.39571C292.265 7.19173 292.204 7.01531 292.083 6.86646C291.967 6.7121 291.799 6.60735 291.578 6.55222L290.884 6.36202C290.41 6.24073 290.043 6.02297 289.784 5.70873C289.53 5.39449 289.404 5.01409 289.404 4.56753C289.404 4.22573 289.481 3.92802 289.635 3.67443C289.789 3.42083 290.007 3.22511 290.288 3.08729C290.575 2.94946 290.911 2.88055 291.297 2.88055C291.882 2.88055 292.345 3.03216 292.687 3.33537C293.028 3.63308 293.202 4.03553 293.208 4.54273H292.174C292.174 4.30567 292.097 4.12098 291.942 3.98867C291.788 3.85084 291.57 3.78193 291.289 3.78193C291.019 3.78193 290.809 3.84533 290.661 3.97213C290.512 4.09893 290.437 4.2781 290.437 4.50965C290.437 4.71914 290.492 4.89832 290.603 5.04717C290.718 5.19051 290.884 5.2925 291.099 5.35314L291.818 5.55161C292.298 5.67289 292.664 5.89066 292.918 6.2049C293.172 6.51363 293.298 6.89678 293.298 7.35436C293.298 7.69617 293.216 7.99939 293.05 8.26401C292.885 8.52312 292.653 8.72435 292.356 8.86769C292.058 9.01103 291.708 9.0827 291.306 9.0827ZM296.553 9V6.80858L294.784 2.96325H295.867L296.81 5.05544C296.881 5.22083 296.942 5.38346 296.992 5.54334C297.041 5.70322 297.074 5.82726 297.091 5.91547C297.113 5.82726 297.146 5.70322 297.19 5.54334C297.24 5.38346 297.3 5.22083 297.372 5.05544L298.29 2.96325H299.365L297.595 6.80858V9H296.553ZM308.124 9V3.92251H306.545V2.96325H310.746V3.92251H309.166V9H308.124ZM314.431 9.0827C314.045 9.0827 313.709 9.01103 313.422 8.86769C313.141 8.71884 312.923 8.5121 312.769 8.24747C312.62 7.97734 312.545 7.66034 312.545 7.29648V4.66677C312.545 4.30291 312.62 3.98867 312.769 3.72404C312.923 3.4539 313.141 3.24717 313.422 3.10383C313.709 2.95498 314.045 2.88055 314.431 2.88055C314.822 2.88055 315.158 2.95498 315.44 3.10383C315.721 3.24717 315.936 3.4539 316.085 3.72404C316.239 3.98867 316.316 4.30015 316.316 4.6585V7.29648C316.316 7.66034 316.239 7.97734 316.085 8.24747C315.936 8.5121 315.721 8.71884 315.44 8.86769C315.158 9.01103 314.822 9.0827 314.431 9.0827ZM314.431 8.17305C314.712 8.17305 314.924 8.09862 315.067 7.94977C315.211 7.79541 315.283 7.57764 315.283 7.29648V4.66677C315.283 4.38009 315.211 4.16233 315.067 4.01348C314.924 3.86462 314.712 3.7902 314.431 3.7902C314.15 3.7902 313.937 3.86462 313.794 4.01348C313.651 4.16233 313.579 4.38009 313.579 4.66677V7.29648C313.579 7.57764 313.651 7.79541 313.794 7.94977C313.943 8.09862 314.155 8.17305 314.431 8.17305ZM324.265 9V8.09035H325.481V3.87289H324.265V2.96325H327.738V3.87289H326.523V8.09035H327.738V9H324.265ZM329.769 9V2.96325H330.993L331.58 4.88178C331.641 5.07473 331.691 5.25115 331.729 5.41103C331.768 5.5709 331.793 5.68668 331.804 5.75835C331.815 5.68668 331.839 5.5709 331.878 5.41103C331.917 5.25115 331.963 5.07473 332.019 4.88178L332.581 2.96325H333.805V9H332.837V7.12282C332.837 6.84717 332.846 6.54671 332.862 6.22144C332.879 5.89617 332.898 5.5709 332.92 5.24564C332.942 4.92037 332.967 4.61164 332.994 4.31945C333.027 4.02726 333.055 3.7709 333.077 3.55038L332.267 6.40337H331.324L330.489 3.55038C330.516 3.75988 330.544 4.00796 330.571 4.29464C330.599 4.5758 330.624 4.87902 330.646 5.20429C330.673 5.52404 330.695 5.84931 330.712 6.18009C330.729 6.51087 330.737 6.82511 330.737 7.12282V9H329.769ZM335.728 9V2.96325H337.738C338.14 2.96325 338.49 3.04043 338.788 3.19479C339.091 3.34916 339.326 3.56692 339.491 3.84809C339.656 4.12374 339.739 4.449 339.739 4.82389C339.739 5.19326 339.654 5.51853 339.483 5.79969C339.317 6.08086 339.086 6.29862 338.788 6.45299C338.49 6.60735 338.14 6.68453 337.738 6.68453H336.762V9H335.728ZM336.762 5.75008H337.738C338.025 5.75008 338.253 5.66738 338.424 5.50199C338.601 5.33109 338.689 5.10505 338.689 4.82389C338.689 4.53721 338.601 4.31118 338.424 4.14579C338.253 3.9804 338.025 3.8977 337.738 3.8977H336.762V5.75008ZM341.729 9V2.96325H342.763V8.04074H345.326V9H341.729ZM347.39 9V2.96325H351.012V3.86462H348.407V5.43583H350.723V6.32894H348.407V8.09862H351.012V9H347.39ZM352.911 9V2.96325H354.135L354.722 4.88178C354.783 5.07473 354.832 5.25115 354.871 5.41103C354.91 5.5709 354.934 5.68668 354.945 5.75835C354.956 5.68668 354.981 5.5709 355.02 5.41103C355.058 5.25115 355.105 5.07473 355.16 4.88178L355.723 2.96325H356.947V9H355.979V7.12282C355.979 6.84717 355.987 6.54671 356.004 6.22144C356.02 5.89617 356.04 5.5709 356.062 5.24564C356.084 4.92037 356.109 4.61164 356.136 4.31945C356.169 4.02726 356.197 3.7709 356.219 3.55038L355.408 6.40337H354.466L353.63 3.55038C353.658 3.75988 353.686 4.00796 353.713 4.29464C353.741 4.5758 353.766 4.87902 353.788 5.20429C353.815 5.52404 353.837 5.84931 353.854 6.18009C353.87 6.51087 353.879 6.82511 353.879 7.12282V9H352.911ZM358.961 9V2.96325H362.583V3.86462H359.978V5.43583H362.294V6.32894H359.978V8.09862H362.583V9H358.961ZM364.614 9V2.96325H365.879L367.558 7.84227C367.542 7.66585 367.522 7.45911 367.5 7.22205C367.484 6.97948 367.47 6.73415 367.459 6.48606C367.448 6.23247 367.442 6.01194 367.442 5.8245V2.96325H368.385V9H367.12L365.458 4.12098C365.469 4.28086 365.483 4.47381 365.499 4.69985C365.516 4.92588 365.529 5.15743 365.54 5.39449C365.551 5.63155 365.557 5.84931 365.557 6.04778V9H364.614ZM371.764 9V3.92251H370.185V2.96325H374.386V3.92251H372.806V9H371.764Z" fill="#333132"/>
<path d="M595.647 227.795V221.759H596.681V224.182H598.301V221.759H599.335V227.795H598.301V225.141H596.681V227.795H595.647ZM601.54 227.795V226.886H602.756V222.668H601.54V221.759H605.013V222.668H603.797V226.886H605.013V227.795H601.54ZM609.095 227.878C608.709 227.878 608.37 227.806 608.078 227.663C607.791 227.514 607.568 227.308 607.408 227.043C607.254 226.773 607.176 226.456 607.176 226.092V223.462C607.176 223.093 607.254 222.776 607.408 222.511C607.568 222.247 607.791 222.043 608.078 221.899C608.37 221.75 608.709 221.676 609.095 221.676C609.486 221.676 609.823 221.75 610.104 221.899C610.391 222.043 610.614 222.247 610.774 222.511C610.934 222.776 611.014 223.093 611.014 223.462H609.972C609.972 223.176 609.894 222.958 609.74 222.809C609.591 222.66 609.376 222.586 609.095 222.586C608.814 222.586 608.596 222.66 608.442 222.809C608.287 222.958 608.21 223.173 608.21 223.454V226.092C608.21 226.373 608.287 226.591 608.442 226.745C608.596 226.9 608.814 226.977 609.095 226.977C609.376 226.977 609.591 226.9 609.74 226.745C609.894 226.591 609.972 226.373 609.972 226.092V225.48H608.946V224.587H611.014V226.092C611.014 226.456 610.934 226.773 610.774 227.043C610.614 227.308 610.391 227.514 610.104 227.663C609.823 227.806 609.486 227.878 609.095 227.878ZM613.003 227.795V221.759H614.037V224.182H615.658V221.759H616.691V227.795H615.658V225.141H614.037V227.795H613.003ZM624.682 227.795V226.886H625.897V222.668H624.682V221.759H628.155V222.668H626.939V226.886H628.155V227.795H624.682ZM630.186 227.795V221.759H631.41L631.997 223.677C632.058 223.87 632.107 224.047 632.146 224.206C632.184 224.366 632.209 224.482 632.22 224.554C632.231 224.482 632.256 224.366 632.295 224.206C632.333 224.047 632.38 223.87 632.435 223.677L632.998 221.759H634.221V227.795H633.254V225.918C633.254 225.643 633.262 225.342 633.279 225.017C633.295 224.692 633.315 224.366 633.337 224.041C633.359 223.716 633.383 223.407 633.411 223.115C633.444 222.823 633.472 222.566 633.494 222.346L632.683 225.199H631.741L630.905 222.346C630.933 222.555 630.961 222.803 630.988 223.09C631.016 223.371 631.04 223.674 631.063 224C631.09 224.319 631.112 224.645 631.129 224.976C631.145 225.306 631.153 225.621 631.153 225.918V227.795H630.186ZM636.145 227.795V221.759H638.155C638.557 221.759 638.907 221.836 639.205 221.99C639.508 222.145 639.742 222.362 639.908 222.644C640.073 222.919 640.156 223.244 640.156 223.619C640.156 223.989 640.07 224.314 639.899 224.595C639.734 224.876 639.502 225.094 639.205 225.248C638.907 225.403 638.557 225.48 638.155 225.48H637.179V227.795H636.145ZM637.179 224.546H638.155C638.441 224.546 638.67 224.463 638.841 224.297C639.017 224.127 639.106 223.901 639.106 223.619C639.106 223.333 639.017 223.107 638.841 222.941C638.67 222.776 638.441 222.693 638.155 222.693H637.179V224.546ZM641.583 227.795L643.105 221.759H644.436L645.966 227.795H644.907L644.577 226.332H642.972L642.642 227.795H641.583ZM643.163 225.488H644.387L644.023 223.867C643.962 223.597 643.91 223.355 643.866 223.14C643.821 222.919 643.791 222.759 643.775 222.66C643.758 222.759 643.728 222.919 643.684 223.14C643.645 223.355 643.593 223.595 643.526 223.859L643.163 225.488ZM649.593 227.878C649.207 227.878 648.868 227.806 648.576 227.663C648.289 227.514 648.066 227.308 647.906 227.043C647.752 226.773 647.675 226.456 647.675 226.092V223.462C647.675 223.093 647.752 222.776 647.906 222.511C648.066 222.247 648.289 222.043 648.576 221.899C648.868 221.75 649.207 221.676 649.593 221.676C649.985 221.676 650.321 221.75 650.602 221.899C650.889 222.043 651.112 222.247 651.272 222.511C651.432 222.776 651.512 223.093 651.512 223.462H650.47C650.47 223.176 650.392 222.958 650.238 222.809C650.089 222.66 649.874 222.586 649.593 222.586C649.312 222.586 649.094 222.66 648.94 222.809C648.785 222.958 648.708 223.173 648.708 223.454V226.092C648.708 226.373 648.785 226.591 648.94 226.745C649.094 226.894 649.312 226.969 649.593 226.969C649.874 226.969 650.089 226.894 650.238 226.745C650.392 226.591 650.47 226.373 650.47 226.092H651.512C651.512 226.45 651.432 226.765 651.272 227.035C651.112 227.305 650.889 227.514 650.602 227.663C650.321 227.806 649.985 227.878 649.593 227.878ZM654.824 227.795V222.718H653.245V221.759H657.446V222.718H655.866V227.795H654.824Z" fill="#333132"/>
<path d="M0.936823 227.795V221.759H1.97051V226.836H4.53407V227.795H0.936823ZM8.35136 227.878C7.96545 227.878 7.62915 227.806 7.34248 227.663C7.06131 227.514 6.84355 227.308 6.68918 227.043C6.54033 226.773 6.46591 226.456 6.46591 226.092V223.462C6.46591 223.098 6.54033 222.784 6.68918 222.519C6.84355 222.249 7.06131 222.043 7.34248 221.899C7.62915 221.75 7.96545 221.676 8.35136 221.676C8.74278 221.676 9.07908 221.75 9.36024 221.899C9.6414 222.043 9.85641 222.249 10.0053 222.519C10.1596 222.784 10.2368 223.096 10.2368 223.454V226.092C10.2368 226.456 10.1596 226.773 10.0053 227.043C9.85641 227.308 9.6414 227.514 9.36024 227.663C9.07908 227.806 8.74278 227.878 8.35136 227.878ZM8.35136 226.969C8.63252 226.969 8.84477 226.894 8.98811 226.745C9.13145 226.591 9.20312 226.373 9.20312 226.092V223.462C9.20312 223.176 9.13145 222.958 8.98811 222.809C8.84477 222.66 8.63252 222.586 8.35136 222.586C8.07019 222.586 7.85794 222.66 7.7146 222.809C7.57127 222.958 7.4996 223.176 7.4996 223.462V226.092C7.4996 226.373 7.57127 226.591 7.7146 226.745C7.86346 226.894 8.07571 226.969 8.35136 226.969ZM12.4085 227.795L11.7882 221.759H12.6814L13.0452 225.976C13.0562 226.07 13.0645 226.186 13.07 226.323C13.0811 226.456 13.0893 226.591 13.0948 226.729C13.1059 226.867 13.1114 226.988 13.1114 227.093C13.1224 226.988 13.1334 226.867 13.1445 226.729C13.1555 226.591 13.1665 226.456 13.1775 226.323C13.1941 226.186 13.2079 226.07 13.2189 225.976L13.715 221.759H14.5833L15.0464 225.976C15.063 226.07 15.0768 226.186 15.0878 226.323C15.1043 226.456 15.1209 226.591 15.1374 226.729C15.1539 226.867 15.1677 226.988 15.1788 227.093C15.1843 226.988 15.1898 226.867 15.1953 226.729C15.2008 226.591 15.2063 226.456 15.2118 226.323C15.2229 226.186 15.2339 226.07 15.2449 225.976L15.6005 221.759H16.4853L15.832 227.795H14.6909L14.2443 223.561C14.2333 223.457 14.2195 223.335 14.203 223.198C14.1919 223.054 14.1809 222.914 14.1699 222.776C14.1588 222.633 14.1506 222.511 14.1451 222.412C14.1396 222.511 14.1285 222.633 14.112 222.776C14.101 222.914 14.0899 223.054 14.0789 223.198C14.0679 223.335 14.0569 223.457 14.0458 223.561L13.5579 227.795H12.4085ZM23.9711 227.795V226.886H25.1867V222.668H23.9711V221.759H27.4443V222.668H26.2287V226.886H27.4443V227.795H23.9711ZM29.4753 227.795V221.759H30.6992L31.2864 223.677C31.347 223.87 31.3966 224.047 31.4352 224.206C31.4738 224.366 31.4986 224.482 31.5096 224.554C31.5207 224.482 31.5455 224.366 31.5841 224.206C31.6227 224.047 31.6695 223.87 31.7247 223.677L32.287 221.759H33.5109V227.795H32.5433V225.918C32.5433 225.643 32.5516 225.342 32.5681 225.017C32.5847 224.692 32.604 224.366 32.626 224.041C32.6481 223.716 32.6729 223.407 32.7005 223.115C32.7335 222.823 32.7611 222.566 32.7832 222.346L31.9727 225.199H31.03L30.1948 222.346C30.2224 222.555 30.2499 222.803 30.2775 223.09C30.3051 223.371 30.3299 223.674 30.3519 224C30.3795 224.319 30.4015 224.645 30.4181 224.976C30.4346 225.306 30.4429 225.621 30.4429 225.918V227.795H29.4753ZM35.4344 227.795V221.759H37.4439C37.8464 221.759 38.1965 221.836 38.4942 221.99C38.7974 222.145 39.0317 222.362 39.1971 222.644C39.3625 222.919 39.4452 223.244 39.4452 223.619C39.4452 223.989 39.3597 224.314 39.1888 224.595C39.0234 224.876 38.7919 225.094 38.4942 225.248C38.1965 225.403 37.8464 225.48 37.4439 225.48H36.4681V227.795H35.4344ZM36.4681 224.546H37.4439C37.7306 224.546 37.9594 224.463 38.1303 224.297C38.3067 224.127 38.3949 223.901 38.3949 223.619C38.3949 223.333 38.3067 223.107 38.1303 222.941C37.9594 222.776 37.7306 222.693 37.4439 222.693H36.4681V224.546ZM40.8726 227.795L42.3941 221.759H43.7255L45.2554 227.795H44.1969L43.8661 226.332H42.2618L41.9311 227.795H40.8726ZM42.452 225.488H43.6759L43.3121 223.867C43.2514 223.597 43.199 223.355 43.1549 223.14C43.1108 222.919 43.0805 222.759 43.064 222.66C43.0474 222.759 43.0171 222.919 42.973 223.14C42.9344 223.355 42.8821 223.595 42.8159 223.859L42.452 225.488ZM48.8825 227.878C48.4966 227.878 48.1575 227.806 47.8653 227.663C47.5787 227.514 47.3554 227.308 47.1955 227.043C47.0411 226.773 46.964 226.456 46.964 226.092V223.462C46.964 223.093 47.0411 222.776 47.1955 222.511C47.3554 222.247 47.5787 222.043 47.8653 221.899C48.1575 221.75 48.4966 221.676 48.8825 221.676C49.2739 221.676 49.6102 221.75 49.8914 221.899C50.1781 222.043 50.4013 222.247 50.5612 222.511C50.7211 222.776 50.801 223.093 50.801 223.462H49.7591C49.7591 223.176 49.6819 222.958 49.5275 222.809C49.3787 222.66 49.1637 222.586 48.8825 222.586C48.6013 222.586 48.3836 222.66 48.2292 222.809C48.0748 222.958 47.9977 223.173 47.9977 223.454V226.092C47.9977 226.373 48.0748 226.591 48.2292 226.745C48.3836 226.894 48.6013 226.969 48.8825 226.969C49.1637 226.969 49.3787 226.894 49.5275 226.745C49.6819 226.591 49.7591 226.373 49.7591 226.092H50.801C50.801 226.45 50.7211 226.765 50.5612 227.035C50.4013 227.305 50.1781 227.514 49.8914 227.663C49.6102 227.806 49.2739 227.878 48.8825 227.878ZM54.1139 227.795V222.718H52.5344V221.759H56.7353V222.718H55.1558V227.795H54.1139Z" fill="#333132"/>
<path d="M277.874 470V463.963H278.908V466.386H280.529V463.963H281.562V470H280.529V467.345H278.908V470H277.874ZM283.312 470L284.834 463.963H286.165L287.695 470H286.636L286.306 468.536H284.701L284.371 470H283.312ZM284.892 467.693H286.115L285.752 466.072C285.691 465.802 285.639 465.559 285.595 465.344C285.55 465.124 285.52 464.964 285.504 464.865C285.487 464.964 285.457 465.124 285.413 465.344C285.374 465.559 285.322 465.799 285.255 466.064L284.892 467.693ZM289.437 470V463.963H291.347C291.749 463.963 292.097 464.038 292.389 464.187C292.687 464.335 292.918 464.545 293.083 464.815C293.249 465.08 293.332 465.394 293.332 465.758C293.332 466.155 293.23 466.505 293.026 466.808C292.827 467.111 292.557 467.326 292.215 467.453L293.414 470H292.257L291.206 467.602H290.47V470H289.437ZM290.47 466.692H291.347C291.639 466.692 291.868 466.612 292.033 466.452C292.199 466.292 292.281 466.072 292.281 465.791C292.281 465.504 292.199 465.281 292.033 465.121C291.868 464.956 291.639 464.873 291.347 464.873H290.47V466.692ZM295.214 470V463.963H297.008C297.416 463.963 297.769 464.04 298.067 464.195C298.37 464.349 298.604 464.567 298.77 464.848C298.935 465.129 299.018 465.463 299.018 465.849V468.106C299.018 468.487 298.935 468.82 298.77 469.107C298.604 469.388 298.37 469.609 298.067 469.768C297.769 469.923 297.416 470 297.008 470H295.214ZM296.247 469.049H297.008C297.306 469.049 297.543 468.966 297.719 468.801C297.896 468.63 297.984 468.398 297.984 468.106V465.849C297.984 465.562 297.896 465.336 297.719 465.171C297.543 465 297.306 464.914 297.008 464.914H296.247V469.049ZM308.124 470V464.923H306.545V463.963H310.746V464.923H309.166V470H308.124ZM314.431 470.083C314.045 470.083 313.709 470.011 313.422 469.868C313.141 469.719 312.923 469.512 312.769 469.247C312.62 468.977 312.545 468.66 312.545 468.296V465.667C312.545 465.303 312.62 464.989 312.769 464.724C312.923 464.454 313.141 464.247 313.422 464.104C313.709 463.955 314.045 463.881 314.431 463.881C314.822 463.881 315.158 463.955 315.44 464.104C315.721 464.247 315.936 464.454 316.085 464.724C316.239 464.989 316.316 465.3 316.316 465.658V468.296C316.316 468.66 316.239 468.977 316.085 469.247C315.936 469.512 315.721 469.719 315.44 469.868C315.158 470.011 314.822 470.083 314.431 470.083ZM314.431 469.173C314.712 469.173 314.924 469.099 315.067 468.95C315.211 468.795 315.283 468.578 315.283 468.296V465.667C315.283 465.38 315.211 465.162 315.067 465.013C314.924 464.865 314.712 464.79 314.431 464.79C314.15 464.79 313.937 464.865 313.794 465.013C313.651 465.162 313.579 465.38 313.579 465.667V468.296C313.579 468.578 313.651 468.795 313.794 468.95C313.943 469.099 314.155 469.173 314.431 469.173ZM324.265 470V469.09H325.481V464.873H324.265V463.963H327.738V464.873H326.523V469.09H327.738V470H324.265ZM329.769 470V463.963H330.993L331.58 465.882C331.641 466.075 331.691 466.251 331.729 466.411C331.768 466.571 331.793 466.687 331.804 466.758C331.815 466.687 331.839 466.571 331.878 466.411C331.917 466.251 331.963 466.075 332.019 465.882L332.581 463.963H333.805V470H332.837V468.123C332.837 467.847 332.846 467.547 332.862 467.221C332.879 466.896 332.898 466.571 332.92 466.246C332.942 465.92 332.967 465.612 332.994 465.319C333.027 465.027 333.055 464.771 333.077 464.55L332.267 467.403H331.324L330.489 464.55C330.516 464.76 330.544 465.008 330.571 465.295C330.599 465.576 330.624 465.879 330.646 466.204C330.673 466.524 330.695 466.849 330.712 467.18C330.729 467.511 330.737 467.825 330.737 468.123V470H329.769ZM335.728 470V463.963H337.738C338.14 463.963 338.49 464.04 338.788 464.195C339.091 464.349 339.326 464.567 339.491 464.848C339.656 465.124 339.739 465.449 339.739 465.824C339.739 466.193 339.654 466.519 339.483 466.8C339.317 467.081 339.086 467.299 338.788 467.453C338.49 467.607 338.14 467.685 337.738 467.685H336.762V470H335.728ZM336.762 466.75H337.738C338.025 466.75 338.253 466.667 338.424 466.502C338.601 466.331 338.689 466.105 338.689 465.824C338.689 465.537 338.601 465.311 338.424 465.146C338.253 464.98 338.025 464.898 337.738 464.898H336.762V466.75ZM341.729 470V463.963H342.763V469.041H345.326V470H341.729ZM347.39 470V463.963H351.012V464.865H348.407V466.436H350.723V467.329H348.407V469.099H351.012V470H347.39ZM352.911 470V463.963H354.135L354.722 465.882C354.783 466.075 354.832 466.251 354.871 466.411C354.91 466.571 354.934 466.687 354.945 466.758C354.956 466.687 354.981 466.571 355.02 466.411C355.058 466.251 355.105 466.075 355.16 465.882L355.723 463.963H356.947V470H355.979V468.123C355.979 467.847 355.987 467.547 356.004 467.221C356.02 466.896 356.04 466.571 356.062 466.246C356.084 465.92 356.109 465.612 356.136 465.319C356.169 465.027 356.197 464.771 356.219 464.55L355.408 467.403H354.466L353.63 464.55C353.658 464.76 353.686 465.008 353.713 465.295C353.741 465.576 353.766 465.879 353.788 466.204C353.815 466.524 353.837 466.849 353.854 467.18C353.87 467.511 353.879 467.825 353.879 468.123V470H352.911ZM358.961 470V463.963H362.583V464.865H359.978V466.436H362.294V467.329H359.978V469.099H362.583V470H358.961ZM364.614 470V463.963H365.879L367.558 468.842C367.542 468.666 367.522 468.459 367.5 468.222C367.484 467.979 367.47 467.734 367.459 467.486C367.448 467.232 367.442 467.012 367.442 466.825V463.963H368.385V470H367.12L365.458 465.121C365.469 465.281 365.483 465.474 365.499 465.7C365.516 465.926 365.529 466.157 365.54 466.394C365.551 466.632 365.557 466.849 365.557 467.048V470H364.614ZM371.764 470V464.923H370.185V463.963H374.386V464.923H372.806V470H371.764Z" fill="#333132"/>
</svg>
