<svg width="542" height="542" viewBox="0 0 542 542" fill="none" xmlns="http://www.w3.org/2000/svg">
<circle cx="270.959" cy="270.628" r="216.063" transform="rotate(17.3387 270.959 270.628)" fill="url(#paint0_radial_41_4220)"/>
<path d="M413.9 208.362C414.129 208.356 414.357 208.352 414.586 208.348C414.815 208.344 415.043 208.342 415.272 208.34L413.9 208.362Z" fill="#242121"/>
<path d="M491.723 282.453C491.728 282.655 491.732 282.858 491.735 283.061C492.408 324.997 458.957 359.538 417.022 360.21C375.087 360.883 340.547 327.434 339.873 285.5L491.733 283.064L491.723 282.453Z" fill="#242121"/>
<path d="M491.735 283.061C491.821 288.403 490.854 293.708 488.889 298.676C486.924 303.644 484 308.177 480.283 312.014C476.566 315.852 472.13 318.92 467.228 321.044C462.325 323.167 457.053 324.304 451.711 324.39L451.058 283.712L491.735 283.061Z" fill="#242121"/>
<path d="M296.482 286.195C291.14 286.281 285.868 287.418 280.965 289.541C276.063 291.665 271.627 294.733 267.91 298.571C264.193 302.408 261.269 306.941 259.304 311.909C257.339 316.877 256.372 322.183 256.457 327.525L297.135 326.872L296.482 286.195Z" fill="#242121"/>
<path d="M296.485 286.192L297.137 326.869L451.711 324.39L451.058 283.712L296.485 286.192Z" fill="#242121"/>
<path d="M380.773 366.217C386.115 366.131 391.387 364.994 396.29 362.871C401.192 360.747 405.628 357.679 409.345 353.841C413.062 350.003 415.986 345.471 417.951 340.503C419.916 335.535 420.884 330.229 420.798 324.887L380.12 325.539L380.773 366.217Z" fill="#6E00FF"/>
<path d="M349.856 366.713C355.198 366.627 360.47 365.49 365.373 363.367C370.275 361.243 374.711 358.175 378.428 354.337C382.145 350.499 385.069 345.967 387.034 340.999C388.999 336.031 389.967 330.725 389.881 325.383L349.204 326.035L349.856 366.713Z" fill="#242121"/>
<path d="M318.941 367.208C324.283 367.123 329.555 365.986 334.458 363.862C339.36 361.739 343.796 358.671 347.513 354.833C351.23 350.995 354.154 346.463 356.119 341.495C358.084 336.527 359.052 331.221 358.966 325.879L318.288 326.531L318.941 367.208Z" fill="#6E00FF"/>
<path d="M288.024 367.704C293.366 367.619 298.638 366.482 303.541 364.358C308.443 362.235 312.879 359.167 316.596 355.329C320.313 351.491 323.237 346.959 325.202 341.991C327.167 337.023 328.135 331.716 328.049 326.375L287.371 327.027L288.024 367.704Z" fill="#242121"/>
<path d="M257.11 368.2C262.452 368.115 267.724 366.978 272.627 364.854C277.529 362.731 281.965 359.663 285.682 355.825C289.399 351.987 292.323 347.455 294.288 342.487C296.253 337.519 297.22 332.212 297.135 326.87L256.457 327.523L257.11 368.2Z" fill="#6E00FF"/>
<path d="M436.696 174.667C436.925 174.661 437.153 174.656 437.382 174.653C437.611 174.649 437.839 174.647 438.068 174.645L436.696 174.667Z" fill="#242121"/>
<path d="M514.519 248.757C514.524 248.96 514.528 249.163 514.531 249.366C515.203 291.302 481.753 325.842 439.818 326.515C397.883 327.188 363.343 293.739 362.669 251.805L514.529 249.369L514.519 248.757Z" fill="#242121"/>
<path d="M514.531 249.366C514.617 254.708 513.65 260.013 511.685 264.981C509.72 269.949 506.796 274.481 503.079 278.319C499.362 282.157 494.926 285.225 490.024 287.348C485.121 289.472 479.849 290.609 474.507 290.695L473.854 250.017L514.531 249.366Z" fill="#242121"/>
<path d="M319.278 252.5C313.936 252.586 308.664 253.723 303.761 255.846C298.859 257.969 294.423 261.037 290.706 264.875C286.989 268.713 284.065 273.245 282.1 278.213C280.135 283.181 279.168 288.488 279.253 293.83L319.931 293.177L319.278 252.5Z" fill="#242121"/>
<path d="M319.281 252.496L319.933 293.174L474.507 290.695L473.854 250.017L319.281 252.496Z" fill="#242121"/>
<path d="M403.569 332.521C408.911 332.436 414.183 331.299 419.086 329.175C423.988 327.052 428.424 323.984 432.141 320.146C435.858 316.308 438.782 311.776 440.747 306.808C442.712 301.84 443.679 296.533 443.594 291.192L402.916 291.844L403.569 332.521Z" fill="#C7EAFB"/>
<path d="M372.652 333.017C377.994 332.932 383.266 331.795 388.169 329.671C393.071 327.548 397.507 324.48 401.224 320.642C404.941 316.804 407.865 312.272 409.83 307.304C411.795 302.336 412.762 297.029 412.677 291.688L371.999 292.34L372.652 333.017Z" fill="#242121"/>
<path d="M341.737 333.513C347.079 333.428 352.351 332.291 357.254 330.167C362.156 328.044 366.592 324.976 370.309 321.138C374.026 317.3 376.95 312.768 378.915 307.8C380.88 302.832 381.847 297.525 381.762 292.183L341.084 292.836L341.737 333.513Z" fill="#C7EAFB"/>
<path d="M310.82 334.009C316.162 333.923 321.434 332.786 326.337 330.663C331.239 328.54 335.675 325.471 339.392 321.634C343.109 317.796 346.033 313.263 347.998 308.296C349.963 303.328 350.93 298.021 350.845 292.679L310.167 293.332L310.82 334.009Z" fill="#242121"/>
<path d="M279.906 334.505C285.248 334.419 290.52 333.282 295.423 331.159C300.325 329.036 304.761 325.967 308.478 322.129C312.195 318.292 315.119 313.759 317.084 308.791C319.049 303.823 320.016 298.517 319.931 293.175L279.253 293.828L279.906 334.505Z" fill="#C7EAFB"/>
<path d="M132.83 264.796C157.661 277.005 176.626 298.578 185.551 324.769C194.476 350.961 192.632 379.625 180.423 404.456C168.214 429.287 146.641 448.251 120.449 457.177C94.2581 466.102 65.594 464.257 40.7627 452.049L132.83 264.796Z" fill="#242121"/>
<path d="M132.83 264.796C135.349 259.673 138.852 255.096 143.14 251.327C147.427 247.558 152.415 244.67 157.819 242.829C163.222 240.988 168.936 240.229 174.633 240.595C180.33 240.962 185.899 242.447 191.022 244.966L171.841 283.977L132.83 264.796Z" fill="#242121"/>
<path d="M98.9544 432.218C96.4355 437.341 92.9323 441.918 88.6447 445.687C84.3571 449.456 79.3691 452.344 73.9655 454.185C68.5619 456.027 62.8486 456.786 57.1516 456.419C51.4547 456.052 45.8857 454.567 40.7627 452.049L59.9434 413.038L98.9544 432.218Z" fill="#242121"/>
<path d="M171.841 283.977L132.83 264.796L59.9434 413.038L98.9544 432.218L171.841 283.977Z" fill="#242121"/>
<path d="M203.66 470.403L178.308 516.816" stroke="black" stroke-width="2.26014" stroke-linecap="round"/>
<path d="M148.916 451.358L139.988 503.484" stroke="black" stroke-width="2.26014" stroke-linecap="round"/>
<path d="M109.878 493.008L153.673 508.243" stroke="black" stroke-width="2.26014" stroke-linecap="round"/>
<path d="M208.417 527.289L164.622 512.053" stroke="black" stroke-width="2.26014" stroke-linecap="round"/>
<path d="M328.365 268.315L175.651 215.187L122.326 368.469L275.04 421.597L328.365 268.315Z" fill="#2D2D2D"/>
<path d="M328.365 268.315L175.651 215.187L162.32 253.508L315.034 306.635L328.365 268.315Z" fill="#2D2D2D"/>
<circle cx="81.1464" cy="81.1464" r="81.1464" transform="matrix(-0.944479 -0.328573 -0.328573 0.944479 302.44 345.211)" fill="#2D2D2D"/>
<path d="M175.829 215.239C161.103 257.566 183.48 303.817 225.807 318.542C268.135 333.267 314.385 310.891 329.111 268.564C343.836 226.236 321.46 179.985 279.132 165.26C236.805 150.535 190.554 172.911 175.829 215.239Z" fill="#2D2D2D"/>
<path d="M328.369 268.307L175.655 215.18L151.963 283.282C150.323 287.998 152.816 293.151 157.531 294.791L293.168 341.977C297.884 343.618 303.037 341.125 304.677 336.409L328.369 268.307Z" fill="#2D2D2D"/>
<path d="M218.878 227.151C231.679 231.604 245.681 224.798 250.151 211.949C254.622 199.099 247.867 185.072 235.066 180.619C222.264 176.165 208.262 182.971 203.792 195.821C199.322 208.67 206.076 222.697 218.878 227.151Z" fill="white"/>
<path d="M222.689 216.204C229.466 218.562 236.879 214.959 239.246 208.156C241.612 201.354 238.036 193.928 231.259 191.57C224.482 189.212 217.069 192.815 214.702 199.618C212.336 206.421 215.911 213.847 222.689 216.204Z" fill="#231F20"/>
<path d="M214.208 240.61C225.362 244.49 236.928 240.382 240.041 231.434C243.154 222.486 236.635 212.086 225.481 208.206C214.326 204.325 202.761 208.433 199.648 217.382C196.535 226.33 203.054 236.729 214.208 240.61Z" fill="#0082FF"/>
<path d="M201.202 277.764C219.275 284.052 239.042 274.443 245.353 256.302C251.664 238.162 242.129 218.359 224.055 212.072C205.982 205.784 186.215 215.393 179.904 233.534C173.593 251.674 183.129 271.477 201.202 277.764Z" fill="#2D2D2D"/>
<path d="M287.053 250.865C299.855 255.319 313.857 248.513 318.327 235.663C322.797 222.814 316.043 208.787 303.241 204.333C290.439 199.88 276.438 206.686 271.968 219.535C267.497 232.385 274.252 246.412 287.053 250.865Z" fill="white"/>
<path d="M290.865 239.915C297.642 242.273 305.055 238.67 307.421 231.867C309.788 225.065 306.212 217.639 299.435 215.281C292.657 212.923 285.245 216.526 282.878 223.329C280.511 230.132 284.087 237.558 290.865 239.915Z" fill="#231F20"/>
<path d="M282.374 264.388C293.555 268.278 305.149 264.16 308.269 255.19C311.389 246.221 304.855 235.796 293.674 231.906C282.493 228.016 270.899 232.135 267.779 241.104C264.658 250.074 271.193 260.498 282.374 264.388Z" fill="#0082FF"/>
<path d="M269.44 301.502C287.513 307.79 307.281 298.181 313.591 280.041C319.902 261.9 310.367 242.098 292.294 235.81C274.221 229.523 254.453 239.131 248.143 257.272C241.832 275.412 251.367 295.215 269.44 301.502Z" fill="#2D2D2D"/>
<path d="M277.69 275.223C279.191 270.91 279.827 266.343 279.563 261.784C279.299 257.224 278.139 252.762 276.15 248.65C274.161 244.539 271.382 240.86 267.971 237.823C264.56 234.786 260.584 232.451 256.271 230.95L244.844 263.796L277.69 275.223Z" fill="#6E00FF"/>
<path d="M211.997 252.371C213.498 248.058 215.833 244.082 218.87 240.672C221.907 237.261 225.586 234.481 229.697 232.492C233.809 230.503 238.271 229.344 242.831 229.079C247.39 228.815 251.957 229.451 256.27 230.952L244.843 263.798L211.997 252.371Z" fill="#C7EAFB"/>
<path d="M211.999 252.371L244.845 263.798L225.801 318.541L211.999 252.371Z" fill="#C7EAFB"/>
<path d="M277.69 275.223L244.844 263.796L225.8 318.539L277.69 275.223Z" fill="#6E00FF"/>
<path fill-rule="evenodd" clip-rule="evenodd" d="M208.036 188.042C214.404 180.402 225.042 177.094 234.96 180.544C244.878 183.995 251.166 193.191 251.417 203.134L208.036 188.042ZM218.97 227.144L218.575 227.007C218.641 227.03 218.706 227.054 218.772 227.077C218.838 227.099 218.904 227.122 218.97 227.144Z" fill="#F4B7EE"/>
<path fill-rule="evenodd" clip-rule="evenodd" d="M256.252 172.411C256.818 172.795 256.918 173.592 256.448 174.09C245.076 186.144 227.315 191.112 210.699 185.332C209.014 184.746 207.389 184.066 205.827 183.299C205.22 183.002 205.029 182.235 205.409 181.676V181.676C205.732 181.201 206.359 181.044 206.875 181.296C208.34 182.012 209.864 182.648 211.442 183.197C227.166 188.667 243.98 183.98 254.763 172.582C255.152 172.17 255.783 172.092 256.252 172.411V172.411Z" fill="white"/>
<path fill-rule="evenodd" clip-rule="evenodd" d="M319.741 226.898C319.491 216.954 313.203 207.757 303.284 204.306C293.365 200.856 282.726 204.164 276.358 211.806L319.741 226.898Z" fill="#F4B7EE"/>
<path fill-rule="evenodd" clip-rule="evenodd" d="M290.949 184.485C290.266 184.435 289.694 184.998 289.753 185.68C291.189 202.189 302.032 217.107 318.646 222.887C320.332 223.473 322.029 223.949 323.73 224.318C324.391 224.461 325.016 223.978 325.065 223.304V223.304C325.107 222.731 324.713 222.219 324.151 222.096C322.558 221.748 320.968 221.301 319.389 220.752C303.666 215.282 293.392 201.172 292.011 185.544C291.961 184.979 291.514 184.527 290.949 184.485V184.485Z" fill="white"/>
<rect x="251.827" y="264.656" width="83.9596" height="8.69426" transform="rotate(4.18218 251.827 264.656)" fill="white"/>
<rect x="231.233" y="291.844" width="83.9596" height="8.69426" transform="rotate(19.1822 231.233 291.844)" fill="white"/>
<path d="M236.522 257.797L167.066 210.626L162.182 217.818L231.638 264.989L236.522 257.797Z" fill="white"/>
<rect width="83.9596" height="8.69426" transform="matrix(-0.944479 -0.328573 -0.328573 0.944479 237.827 294.137)" fill="white"/>
<path d="M209.247 243.649C209.672 242.43 211.028 241.813 212.226 242.295L248.245 256.784L285.481 267.779C286.718 268.145 287.399 269.471 286.975 270.689L270.775 317.257C270.382 318.387 269.175 319.015 268.024 318.689L230.464 308.043L194.316 293.046C193.21 292.588 192.654 291.347 193.047 290.216L209.247 243.649Z" fill="white"/>
<defs>
<radialGradient id="paint0_radial_41_4220" cx="0" cy="0" r="1" gradientUnits="userSpaceOnUse" gradientTransform="translate(270.959 270.628) rotate(90) scale(216.063)">
<stop stop-color="#FED75A"/>
<stop offset="1" stop-color="#FED75A" stop-opacity="0"/>
</radialGradient>
</defs>
</svg>
