<svg width="216" height="308" viewBox="0 0 216 308" fill="none" xmlns="http://www.w3.org/2000/svg">
<path d="M20.9515 121.294C43.5794 124.072 64.1767 135.726 78.2125 153.691C92.2482 171.656 98.5725 194.461 95.7942 217.088C93.0158 239.716 81.3624 260.314 63.3975 274.349C45.4326 288.385 22.6278 294.709 -7.90435e-05 291.931L20.9515 121.294Z" fill="#242121"/>
<path d="M20.9515 121.294C21.5247 116.626 23.0118 112.116 25.3279 108.022C27.644 103.929 30.7437 100.331 34.4501 97.4354C38.1565 94.5396 42.397 92.4023 46.9294 91.1453C51.4618 89.8884 56.1974 89.5365 60.8658 90.1097L56.5009 125.659L20.9515 121.294Z" fill="#242121"/>
<path d="M39.9142 260.747C39.341 265.415 37.8539 269.925 35.5378 274.019C33.2217 278.112 30.1219 281.71 26.4156 284.605C22.7092 287.501 18.4687 289.638 13.9363 290.895C9.40392 292.152 4.66833 292.504 -7.90435e-05 291.931L4.36483 256.382L39.9142 260.747Z" fill="#242121"/>
<path d="M56.5009 125.659L20.9515 121.294L4.36483 256.382L39.9142 260.747L56.5009 125.659Z" fill="#242121"/>
<path d="M194.746 121.295C172.118 124.073 151.521 135.727 137.485 153.691C123.449 171.656 117.125 194.461 119.903 217.089C122.682 239.717 134.335 260.314 152.3 274.35C170.265 288.386 193.07 294.71 215.697 291.932L194.746 121.295Z" fill="#242121"/>
<path d="M194.746 121.295C194.173 116.626 192.686 112.117 190.369 108.023C188.053 103.929 184.954 100.332 181.247 97.436C177.541 94.5403 173.3 92.4029 168.768 91.146C164.236 89.889 159.5 89.5371 154.832 90.1103L159.197 125.66L194.746 121.295Z" fill="#242121"/>
<path d="M175.783 260.747C176.356 265.416 177.843 269.925 180.16 274.019C182.476 278.113 185.575 281.71 189.282 284.606C192.988 287.502 197.229 289.639 201.761 290.896C206.293 292.153 211.029 292.505 215.697 291.932L211.333 256.382L175.783 260.747Z" fill="#242121"/>
<path d="M159.197 125.66L194.746 121.295L211.333 256.382L175.783 260.747L159.197 125.66Z" fill="#242121"/>
<path d="M131.726 262.127L124.562 305.107" stroke="black" stroke-width="4.77551" stroke-linecap="round"/>
<path d="M83.9695 262.127L91.1328 305.107" stroke="black" stroke-width="4.77551" stroke-linecap="round"/>
<path d="M174.062 71.1079H40.8438V204.822H174.062V71.1079Z" fill="#2D2D2D"/>
<path d="M174.062 71.1079H40.8438V104.536H174.062V71.1079Z" fill="#2D2D2D"/>
<circle cx="66.8571" cy="66.8571" r="66.8571" transform="matrix(-1 0 0 1 174.707 137.963)" fill="#2D2D2D"/>
<path d="M40.9922 71.1057C40.9922 108.03 70.9251 137.963 107.849 137.963C144.774 137.963 174.706 108.03 174.706 71.1057C174.706 34.1815 144.774 4.24854 107.849 4.24854C70.9251 4.24854 40.9922 34.1815 40.9922 71.1057Z" fill="#2D2D2D"/>
<path d="M174.062 71.104H40.8438V118.859C40.8438 129.409 49.396 137.961 59.9458 137.961H154.96C165.51 137.961 174.062 129.409 174.062 118.859V71.104Z" fill="#2D2D2D"/>
<path d="M77.7168 68.7193C88.8843 68.7193 97.9375 59.6325 97.9375 48.4234C97.9375 37.2142 88.8843 28.1274 77.7168 28.1274C66.5492 28.1274 57.4961 37.2142 57.4961 48.4234C57.4961 59.6325 66.5492 68.7193 77.7168 68.7193Z" fill="white"/>
<path d="M77.7168 59.168C83.629 59.168 88.4219 54.3574 88.4219 48.4231C88.4219 42.4889 83.629 37.6782 77.7168 37.6782C71.8045 37.6782 67.0117 42.4889 67.0117 48.4231C67.0117 54.3574 71.8045 59.168 77.7168 59.168Z" fill="#231F20"/>
<path d="M77.7237 80.4651C87.454 80.4651 95.342 74.1372 95.342 66.3314C95.342 58.5256 87.454 52.1978 77.7237 52.1978C67.9934 52.1978 60.1055 58.5256 60.1055 66.3314C60.1055 74.1372 67.9934 80.4651 77.7237 80.4651Z" fill="#0082FF"/>
<path d="M77.6601 112.895C93.4261 112.895 106.207 100.066 106.207 84.2414C106.207 68.4168 93.4261 55.5884 77.6601 55.5884C61.8941 55.5884 49.1133 68.4168 49.1133 84.2414C49.1133 100.066 61.8941 112.895 77.6601 112.895Z" fill="#2D2D2D"/>
<path d="M137.189 68.7193C148.357 68.7193 157.41 59.6325 157.41 48.4234C157.41 37.2142 148.357 28.1274 137.189 28.1274C126.022 28.1274 116.969 37.2142 116.969 48.4234C116.969 59.6325 126.022 68.7193 137.189 68.7193Z" fill="white"/>
<path d="M137.186 59.168C143.098 59.168 147.891 54.3574 147.891 48.4231C147.891 42.4889 143.098 37.6782 137.186 37.6782C131.273 37.6782 126.48 42.4889 126.48 48.4231C126.48 54.3574 131.273 59.168 137.186 59.168Z" fill="#231F20"/>
<path d="M137.208 80.498C146.961 80.498 154.868 74.1549 154.868 66.3303C154.868 58.5057 146.961 52.1626 137.208 52.1626C127.454 52.1626 119.547 58.5057 119.547 66.3303C119.547 74.1549 127.454 80.498 137.208 80.498Z" fill="#0082FF"/>
<path d="M137.187 112.895C152.953 112.895 165.734 100.066 165.734 84.2414C165.734 68.4168 152.953 55.5884 137.187 55.5884C121.421 55.5884 108.641 68.4168 108.641 84.2414C108.641 100.066 121.421 112.895 137.187 112.895Z" fill="#2D2D2D"/>
<path fill-rule="evenodd" clip-rule="evenodd" d="M96.5859 41.2607C93.6999 33.589 86.316 28.1329 77.6625 28.1329C69.009 28.1329 61.6251 33.589 58.7391 41.2607L96.5859 41.2607Z" fill="#F4B7EE"/>
<path fill-rule="evenodd" clip-rule="evenodd" d="M91.0957 14.8514C92.5022 15.2283 93.2618 16.7601 92.6043 18.0594C86.7131 29.7012 74.6695 37.6782 60.7697 37.6782C59.8598 37.6782 58.9579 37.644 58.0651 37.5769C56.633 37.4692 55.7155 36.0603 56.0872 34.6731V34.6731C56.4006 33.5032 57.5339 32.7583 58.7425 32.837C59.4126 32.8806 60.0886 32.9027 60.7697 32.9027C72.6858 32.9027 83.0402 26.1253 88.1972 16.1874C88.7468 15.1282 89.9431 14.5426 91.0957 14.8514V14.8514Z" fill="white"/>
<path fill-rule="evenodd" clip-rule="evenodd" d="M156.179 41.2607C153.293 33.5892 145.909 28.1334 137.255 28.1334C128.602 28.1334 121.218 33.5892 118.332 41.2607L156.179 41.2607Z" fill="#F4B7EE"/>
<path fill-rule="evenodd" clip-rule="evenodd" d="M124.604 14.8514C123.197 15.2283 122.437 16.7601 123.095 18.0594C128.986 29.7012 141.03 37.6782 154.93 37.6782C155.839 37.6782 156.741 37.644 157.634 37.5769C159.066 37.4692 159.984 36.0603 159.612 34.6731V34.6731C159.299 33.5032 158.165 32.7583 156.957 32.837C156.287 32.8806 155.611 32.9027 154.93 32.9027C143.013 32.9027 132.659 26.1253 127.502 16.1874C126.952 15.1282 125.756 14.5426 124.604 14.8514V14.8514Z" fill="white"/>
<path d="M109.076 122.413L112.071 93.9172L159.565 98.909L109.076 122.413Z" fill="#C7EAFB"/>
<path d="M109.075 122.413C105.333 122.02 101.705 120.893 98.3983 119.098C95.0915 117.303 92.1708 114.873 89.8028 111.949C87.4348 109.025 85.6659 105.663 84.5973 102.055C83.5286 98.4473 83.181 94.6643 83.5743 90.9222L112.07 93.9172L109.075 122.413Z" fill="#C7EAFB"/>
<path d="M108.999 64.6583L111.994 93.1544L159.488 88.1626L108.999 64.6583Z" fill="#6E00FF"/>
<path d="M108.999 64.6583C105.257 65.0516 101.629 66.1781 98.3221 67.9736C95.0153 69.769 92.0946 72.1982 89.7266 75.1224C87.3586 78.0466 85.5898 81.4086 84.5211 85.0164C83.4524 88.6243 83.1048 92.4073 83.4981 96.1494L111.994 93.1544L108.999 64.6583Z" fill="#6E00FF"/>
<path d="M20.9515 121.294C43.5794 124.072 64.1767 135.726 78.2125 153.691C92.2482 171.656 98.5725 194.46 95.7942 217.088C93.0158 239.716 81.3624 260.313 63.3975 274.349C45.4326 288.385 22.6278 294.709 -7.90435e-05 291.931L20.9515 121.294Z" fill="#242121"/>
<path d="M20.9515 121.294C21.5247 116.626 23.0118 112.116 25.3279 108.022C27.644 103.928 30.7437 100.331 34.4501 97.4352C38.1565 94.5395 42.397 92.4021 46.9294 91.1452C51.4618 89.8882 56.1974 89.5363 60.8658 90.1095L56.5009 125.659L20.9515 121.294Z" fill="#242121"/>
<path d="M39.9142 260.746C39.341 265.415 37.8539 269.925 35.5378 274.018C33.2217 278.112 30.1219 281.709 26.4156 284.605C22.7092 287.501 18.4687 289.638 13.9363 290.895C9.40392 292.152 4.66833 292.504 -7.90435e-05 291.931L4.36483 256.382L39.9142 260.746Z" fill="#242121"/>
<path d="M56.5009 125.659L20.9515 121.294L4.36483 256.382L39.9142 260.746L56.5009 125.659Z" fill="#242121"/>
<path d="M194.746 121.295C172.118 124.073 151.521 135.727 137.485 153.692C123.449 171.657 117.125 194.461 119.903 217.089C122.682 239.717 134.335 260.314 152.3 274.35C170.265 288.386 193.07 294.71 215.697 291.932L194.746 121.295Z" fill="#242121"/>
<path d="M194.746 121.295C194.173 116.627 192.686 112.117 190.369 108.023C188.053 103.929 184.954 100.332 181.247 97.4362C177.541 94.5405 173.3 92.4031 168.768 91.1461C164.236 89.8892 159.5 89.5373 154.832 90.1105L159.197 125.66L194.746 121.295Z" fill="#242121"/>
<path d="M175.783 260.747C176.356 265.416 177.843 269.926 180.16 274.019C182.476 278.113 185.575 281.71 189.282 284.606C192.988 287.502 197.229 289.639 201.761 290.896C206.293 292.153 211.029 292.505 215.697 291.932L211.333 256.382L175.783 260.747Z" fill="#242121"/>
<path d="M159.197 125.66L194.746 121.295L211.333 256.382L175.783 260.747L159.197 125.66Z" fill="#242121"/>
<path d="M131.726 262.127L124.562 305.107" stroke="black" stroke-width="4.77551" stroke-linecap="round"/>
<path d="M83.9695 262.127L91.1328 305.107" stroke="black" stroke-width="4.77551" stroke-linecap="round"/>
<path d="M174.062 71.1079H40.8438V204.822H174.062V71.1079Z" fill="#2D2D2D"/>
<path d="M174.062 71.1079H40.8438V104.536H174.062V71.1079Z" fill="#2D2D2D"/>
<circle cx="66.8571" cy="66.8571" r="66.8571" transform="matrix(-1 0 0 1 174.707 137.963)" fill="#2D2D2D"/>
<path d="M40.9922 71.1057C40.9922 108.03 70.9251 137.963 107.849 137.963C144.774 137.963 174.706 108.03 174.706 71.1057C174.706 34.1815 144.774 4.24854 107.849 4.24854C70.9251 4.24854 40.9922 34.1815 40.9922 71.1057Z" fill="#2D2D2D"/>
<path d="M174.062 71.104H40.8438V118.859C40.8438 129.409 49.396 137.961 59.9458 137.961H154.96C165.51 137.961 174.062 129.409 174.062 118.859V71.104Z" fill="#2D2D2D"/>
<path d="M77.7168 68.7155C88.8843 68.7155 97.9375 59.6287 97.9375 48.4196C97.9375 37.2105 88.8843 28.1237 77.7168 28.1237C66.5492 28.1237 57.4961 37.2105 57.4961 48.4196C57.4961 59.6287 66.5492 68.7155 77.7168 68.7155Z" fill="white"/>
<path d="M77.7168 59.1643C83.629 59.1643 88.4219 54.3536 88.4219 48.4194C88.4219 42.4851 83.629 37.6745 77.7168 37.6745C71.8045 37.6745 67.0117 42.4851 67.0117 48.4194C67.0117 54.3536 71.8045 59.1643 77.7168 59.1643Z" fill="#231F20"/>
<path fill-rule="evenodd" clip-rule="evenodd" d="M97.8662 46.6972C96.998 36.2914 88.3084 28.1178 77.7168 28.1178C67.1252 28.1178 58.4356 36.2914 57.5674 46.6972L97.8662 46.6972Z" fill="#FF7EF2"/>
<path d="M137.189 68.7154C148.357 68.7154 157.41 59.6286 157.41 48.4194C157.41 37.2103 148.357 28.1235 137.189 28.1235C126.022 28.1235 116.969 37.2103 116.969 48.4194C116.969 59.6286 126.022 68.7154 137.189 68.7154Z" fill="white"/>
<path d="M137.189 59.1641C143.102 59.1641 147.895 54.3535 147.895 48.4192C147.895 42.485 143.102 37.6743 137.189 37.6743C131.277 37.6743 126.484 42.485 126.484 48.4192C126.484 54.3535 131.277 59.1641 137.189 59.1641Z" fill="#231F20"/>
<path fill-rule="evenodd" clip-rule="evenodd" d="M157.339 46.6971C156.471 36.2913 147.781 28.1176 137.189 28.1176C126.598 28.1176 117.908 36.2913 117.04 46.6971L157.339 46.6971Z" fill="#FF7EF2"/>
<path d="M136.501 90.2063C136.501 86.4435 135.76 82.7176 134.32 79.2412C132.88 75.7649 130.77 72.6062 128.109 69.9455C125.448 67.2848 122.29 65.1743 118.813 63.7343C115.337 62.2944 111.611 61.5532 107.848 61.5532L107.848 90.2063H136.501Z" fill="#6E00FF"/>
<path d="M79.1939 90.2063C79.1939 86.4435 79.935 82.7176 81.375 79.2412C82.8149 75.7649 84.9255 72.6062 87.5862 69.9455C90.2468 67.2848 93.4055 65.1743 96.8819 63.7343C100.358 62.2944 104.084 61.5532 107.847 61.5532L107.847 90.2063H79.1939Z" fill="#C7EAFB"/>
<path d="M79.1953 90.2056H107.848V137.961L79.1953 90.2056Z" fill="#C7EAFB"/>
<path d="M136.5 90.2056H107.847V137.961L136.5 90.2056Z" fill="#6E00FF"/>
<rect x="36.5195" y="39.5806" width="116.867" height="14.3265" transform="rotate(-19.5521 36.5195 39.5806)" fill="#2D2D2D" fill-opacity="0.3"/>
<rect x="34.4062" y="41.1666" width="123.009" height="19.102" transform="rotate(-19.5521 34.4062 41.1666)" fill="white"/>
<rect x="44.0469" y="25.9049" width="116.867" height="14.3265" transform="rotate(-5.93789 44.0469 25.9049)" fill="#2D2D2D" fill-opacity="0.3"/>
<rect x="41.6211" y="26.9517" width="123.009" height="19.102" transform="rotate(-5.93789 41.6211 26.9517)" fill="white"/>
</svg>
