<svg width="325" height="382" viewBox="0 0 325 382" fill="none" xmlns="http://www.w3.org/2000/svg">
<path d="M86.1149 126.136C108.088 136.939 124.87 156.029 132.768 179.206C140.666 202.382 139.033 227.747 128.23 249.721C117.426 271.694 98.336 288.475 75.1593 296.373C51.9826 304.271 26.6177 302.639 4.64459 291.835L86.1149 126.136Z" fill="#242121"/>
<path d="M86.1149 126.136C88.3438 121.602 91.4438 117.552 95.2379 114.217C99.032 110.882 103.446 108.326 108.228 106.697C113.009 105.067 118.065 104.396 123.106 104.72C128.147 105.045 133.075 106.359 137.609 108.588L120.636 143.108L86.1149 126.136Z" fill="#242121"/>
<path d="M56.1383 274.287C53.9094 278.821 50.8094 282.871 47.0153 286.206C43.2212 289.541 38.8074 292.097 34.0257 293.726C29.2441 295.355 24.1883 296.027 19.1471 295.703C14.1059 295.378 9.17792 294.064 4.64459 291.835L21.6176 257.314L56.1383 274.287Z" fill="#242121"/>
<path d="M120.636 143.108L86.1149 126.136L21.6176 257.314L56.1383 274.287L120.636 143.108Z" fill="#242121"/>
<path d="M262.405 187.474C238.471 182.307 213.465 186.859 192.887 200.129C172.31 213.4 157.847 234.301 152.68 258.235C147.513 282.169 152.065 307.176 165.336 327.753C178.606 348.331 199.507 362.794 223.441 367.961L262.405 187.474Z" fill="#242121"/>
<path d="M262.405 187.474C263.471 182.536 263.554 177.436 262.65 172.466C261.745 167.496 259.87 162.753 257.132 158.508C254.394 154.262 250.847 150.598 246.693 147.723C242.539 144.849 237.859 142.821 232.921 141.755L224.804 179.356L262.405 187.474Z" fill="#242121"/>
<path d="M193.957 322.242C192.891 327.18 192.808 332.279 193.713 337.249C194.618 342.219 196.493 346.962 199.231 351.208C201.969 355.453 205.516 359.118 209.67 361.992C213.824 364.867 218.504 366.895 223.441 367.961L231.559 330.359L193.957 322.242Z" fill="#242121"/>
<path d="M224.804 179.356L262.405 187.474L231.559 330.359L193.957 322.242L224.804 179.356Z" fill="#242121"/>
<path d="M148.79 308.073L126.356 349.143" stroke="black" stroke-width="2" stroke-linecap="round"/>
<path d="M100.348 291.217L92.4469 337.344" stroke="black" stroke-width="2" stroke-linecap="round"/>
<path d="M65.8037 328.075L104.558 341.557" stroke="black" stroke-width="2" stroke-linecap="round"/>
<path d="M153 358.409L114.246 344.927" stroke="black" stroke-width="2" stroke-linecap="round"/>
<path d="M259.143 129.249L124.007 82.2363L76.8196 217.876L211.956 264.888L259.143 129.249Z" fill="#2D2D2D"/>
<path d="M259.143 129.249L124.007 82.2363L112.21 116.146L247.346 163.158L259.143 129.249Z" fill="#2D2D2D"/>
<circle cx="71.8064" cy="71.8064" r="71.8064" transform="matrix(-0.944479 -0.328573 -0.328573 0.944479 236.204 197.296)" fill="#2D2D2D"/>
<path d="M124.16 82.2859C111.13 119.742 130.931 160.669 168.386 173.699C205.842 186.73 246.769 166.929 259.8 129.473C272.83 92.0175 253.029 51.0903 215.574 38.0599C178.118 25.0295 137.191 44.8302 124.16 82.2859Z" fill="#2D2D2D"/>
<path d="M259.145 129.246L124.009 82.2334L103.044 142.497C101.592 146.67 103.798 151.23 107.971 152.682L227.996 194.437C232.169 195.889 236.728 193.683 238.18 189.51L259.145 129.246Z" fill="#2D2D2D"/>
<path d="M162.252 92.8276C173.58 96.7686 185.97 90.7458 189.926 79.3753C193.881 68.0048 187.905 55.5924 176.576 51.6514C165.248 47.7104 152.858 53.7332 148.902 65.1037C144.946 76.4742 150.923 88.8866 162.252 92.8276Z" fill="white"/>
<path d="M165.625 83.1399C171.622 85.2263 178.182 82.0378 180.276 76.0181C182.37 69.9985 179.206 63.4272 173.209 61.3408C167.211 59.2544 160.652 62.4429 158.558 68.4626C156.464 74.4822 159.628 81.0535 165.625 83.1399Z" fill="#231F20"/>
<path d="M158.118 104.739C167.989 108.173 178.223 104.538 180.978 96.6197C183.732 88.7015 177.964 79.4989 168.094 76.0651C158.223 72.6313 147.989 76.2666 145.234 84.1848C142.479 92.103 148.248 101.306 158.118 104.739Z" fill="#0082FF"/>
<path d="M146.608 137.618C162.601 143.182 180.093 134.679 185.677 118.626C191.262 102.574 182.824 85.0504 166.831 79.4867C150.838 73.9229 133.346 82.4257 127.761 98.4781C122.177 114.531 130.615 132.054 146.608 137.618Z" fill="#2D2D2D"/>
<path d="M222.577 113.814C233.905 117.755 246.295 111.732 250.251 100.362C254.207 88.9912 248.23 76.5787 236.901 72.6378C225.573 68.6968 213.183 74.7196 209.227 86.0901C205.272 97.4605 211.248 109.873 222.577 113.814Z" fill="white"/>
<path d="M225.95 104.127C231.948 106.213 238.507 103.025 240.601 97.0049C242.695 90.9853 239.531 84.414 233.534 82.3276C227.537 80.2412 220.977 83.4297 218.883 89.4494C216.789 95.4691 219.953 102.04 225.95 104.127Z" fill="#231F20"/>
<path d="M218.436 125.779C228.33 129.222 238.589 125.577 241.351 117.64C244.112 109.703 238.33 100.478 228.435 97.0361C218.541 93.594 208.282 97.2381 205.521 105.175C202.759 113.113 208.542 122.337 218.436 125.779Z" fill="#0082FF"/>
<path d="M206.99 158.624C222.983 164.188 240.474 155.685 246.059 139.633C251.643 123.58 243.206 106.057 227.213 100.493C211.22 94.9293 193.728 103.432 188.143 119.484C182.559 135.537 190.997 153.06 206.99 158.624Z" fill="#2D2D2D"/>
<path d="M214.301 135.366C215.629 131.549 216.192 127.508 215.958 123.474C215.724 119.439 214.698 115.49 212.938 111.852C211.178 108.214 208.718 104.959 205.7 102.271C202.682 99.5837 199.164 97.5171 195.347 96.1892L185.235 125.255L214.301 135.366Z" fill="#6E00FF"/>
<path d="M156.169 115.143C157.497 111.326 159.564 107.808 162.251 104.79C164.939 101.772 168.195 99.3124 171.833 97.5524C175.47 95.7923 179.419 94.7661 183.454 94.5322C187.489 94.2983 191.53 94.8614 195.347 96.1892L185.235 125.255L156.169 115.143Z" fill="#C7EAFB"/>
<path d="M156.17 115.143L185.235 125.255L168.383 173.697L156.17 115.143Z" fill="#C7EAFB"/>
<path d="M214.301 135.366L185.235 125.255L168.383 173.697L214.301 135.366Z" fill="#6E00FF"/>
<path fill-rule="evenodd" clip-rule="evenodd" d="M152.665 58.2144C158.3 51.4531 167.714 48.5257 176.491 51.579C185.267 54.6323 190.832 62.7704 191.054 71.5693L152.665 58.2144Z" fill="#F4B7EE"/>
<path fill-rule="evenodd" clip-rule="evenodd" d="M195.331 44.3901C195.832 44.7305 195.92 45.4353 195.504 45.876C185.441 56.5411 169.725 60.9363 155.023 55.8216C153.532 55.3029 152.094 54.701 150.711 54.0229C150.174 53.7595 150.005 53.0814 150.341 52.5865V52.5865C150.627 52.1658 151.182 52.0268 151.639 52.2502C152.935 52.8838 154.284 53.4468 155.68 53.9327C169.593 58.7728 184.471 54.6257 194.013 44.5415C194.358 44.1774 194.916 44.1084 195.331 44.3901V44.3901Z" fill="white"/>
<path fill-rule="evenodd" clip-rule="evenodd" d="M251.512 92.6025C251.29 83.8033 245.726 75.6649 236.949 72.6115C228.172 69.5582 218.758 72.4857 213.123 79.2474L251.512 92.6025Z" fill="#F4B7EE"/>
<path fill-rule="evenodd" clip-rule="evenodd" d="M226.037 55.0724C225.433 55.0283 224.926 55.5262 224.979 56.1299C226.25 70.738 235.844 83.9382 250.546 89.0529C252.037 89.5716 253.539 89.9925 255.044 90.319C255.628 90.4458 256.181 90.0186 256.225 89.4221V89.4221C256.262 88.9148 255.913 88.4615 255.416 88.353C254.006 88.0452 252.6 87.6498 251.203 87.1639C237.29 82.3238 228.199 69.8382 226.976 56.009C226.932 55.5096 226.537 55.109 226.037 55.0724V55.0724Z" fill="white"/>
<rect x="191.416" y="126.011" width="74.2958" height="7.69354" transform="rotate(4.18218 191.416 126.011)" fill="white"/>
<rect x="173.193" y="150.07" width="74.2958" height="7.69354" transform="rotate(19.1822 173.193 150.07)" fill="white"/>
<path d="M177.872 119.942L116.41 78.2006L112.088 84.5651L173.55 126.306L177.872 119.942Z" fill="white"/>
<rect width="74.2958" height="7.69354" transform="matrix(-0.944479 -0.328573 -0.328573 0.944479 179.026 152.099)" fill="white"/>
<path d="M153.739 107.424C154.114 106.345 155.314 105.8 156.374 106.226L188.248 119.047L221.197 128.777C222.292 129.1 222.895 130.274 222.52 131.352L208.184 172.56C207.836 173.56 206.769 174.116 205.75 173.827L172.513 164.406L140.526 151.136C139.547 150.73 139.055 149.632 139.403 148.631L153.739 107.424Z" fill="white"/>
</svg>
