<svg width="272" height="373" viewBox="0 0 272 373" fill="none" xmlns="http://www.w3.org/2000/svg">
<g clip-path="url(#clip0_7968_147181)">
<path fill-rule="evenodd" clip-rule="evenodd" d="M153.547 372.298C154.963 372.534 156.303 371.577 156.539 370.161L164.339 323.361C164.575 321.944 163.618 320.605 162.202 320.368C160.785 320.132 159.446 321.089 159.21 322.506L151.41 369.306C151.174 370.722 152.131 372.062 153.547 372.298Z" fill="#2D2D2D"/>
<path fill-rule="evenodd" clip-rule="evenodd" d="M117.991 372.298C116.575 372.534 115.235 371.577 114.999 370.161L107.199 323.361C106.963 321.944 107.92 320.605 109.336 320.368C110.753 320.132 112.092 321.089 112.328 322.506L120.128 369.306C120.364 370.722 119.407 372.062 117.991 372.298Z" fill="#2D2D2D"/>
<path fill-rule="evenodd" clip-rule="evenodd" d="M75.8243 371.194C76.631 372.382 78.248 372.691 79.4359 371.884L84.5479 368.413C91.8578 363.449 101.42 363.308 108.873 368.054L114.341 371.537C115.157 372.057 116.105 372.333 117.072 372.333C118.553 372.333 119.959 371.688 120.925 370.567L122.103 369.198C123.679 367.369 126.535 367.44 128.017 369.345L129.561 371.33C130.443 372.463 132.076 372.667 133.209 371.785C134.343 370.903 134.547 369.27 133.665 368.137L132.121 366.152C128.622 361.655 121.882 361.487 118.163 365.805L117.05 367.097L111.666 363.668C102.462 357.807 90.6538 357.98 81.6266 364.111L76.5146 367.582C75.3267 368.389 75.0176 370.006 75.8243 371.194Z" fill="#2D2D2D"/>
<path fill-rule="evenodd" clip-rule="evenodd" d="M195.708 371.194C194.901 372.382 193.284 372.691 192.096 371.884L186.984 368.413C179.674 363.449 170.112 363.308 162.66 368.054L157.191 371.537C156.375 372.057 155.427 372.333 154.46 372.333C152.98 372.333 151.573 371.688 150.607 370.567L149.429 369.198C147.853 367.369 144.998 367.44 143.515 369.345L141.971 371.33C141.09 372.463 139.456 372.667 138.323 371.785C137.189 370.903 136.985 369.27 137.867 368.137L139.411 366.152C142.91 361.655 149.651 361.487 153.369 365.805L154.482 367.097L159.866 363.668C169.07 357.807 180.878 357.98 189.906 364.111L195.018 367.582C196.206 368.389 196.515 370.006 195.708 371.194Z" fill="#2D2D2D"/>
<g clip-path="url(#clip1_7968_147181)">
<path d="M122.68 273.886C125.705 249.247 118.819 224.415 103.535 204.853C96.6197 196.001 88.241 188.557 78.8565 182.778L79.8939 174.33L84.6468 135.62C79.5634 134.996 74.4069 135.379 69.4716 136.748C64.5363 138.117 59.9189 140.444 55.8831 143.597C51.8473 146.75 48.472 150.668 45.95 155.125C43.428 159.583 41.8088 164.493 41.1846 169.577L23.1236 316.672L18.3706 355.381C43.0099 358.407 67.8417 351.52 87.4035 336.237C106.965 320.954 119.655 298.525 122.68 273.886Z" fill="#242121"/>
<path d="M61.8325 321.425C61.2084 326.508 59.5891 331.419 57.0671 335.877C54.5451 340.334 51.1698 344.251 47.134 347.405C43.0982 350.558 38.4808 352.885 33.5455 354.254C28.6102 355.622 23.4537 356.006 18.3703 355.381L23.1232 316.672L61.8325 321.425Z" fill="#2D2D2D"/>
<path d="M148.926 273.89C145.901 249.251 152.787 224.419 168.071 204.857C174.986 196.005 183.365 188.561 192.749 182.782L191.712 174.333L186.959 135.624C192.043 135 197.199 135.383 202.134 136.752C207.07 138.12 211.687 140.448 215.723 143.601C219.759 146.754 223.134 150.671 225.656 155.129C228.178 159.586 229.797 164.497 230.421 169.58L248.482 316.676L253.235 355.385C228.596 358.41 203.764 351.524 184.202 336.241C164.641 320.957 151.951 298.529 148.926 273.89Z" fill="#242121"/>
<path d="M209.773 321.429C210.397 326.512 212.016 331.423 214.538 335.88C217.06 340.338 220.436 344.255 224.471 347.408C228.507 350.561 233.125 352.889 238.06 354.257C242.995 355.626 248.152 356.009 253.235 355.385L248.482 316.676L209.773 321.429Z" fill="#2D2D2D"/>
</g>
<path d="M63 260.533C63 300.74 95.5937 333.333 135.8 333.333C176.006 333.333 208.6 300.74 208.6 260.533V114.933H63V260.533Z" fill="#2D2D2D"/>
<g clip-path="url(#clip2_7968_147181)">
<path d="M63 114.933C63 74.7271 95.5937 42.1334 135.8 42.1334C176.006 42.1334 208.6 74.7271 208.6 114.933V163.475C208.6 176.873 197.739 187.733 184.342 187.733H87.258C73.8607 187.733 63 176.873 63 163.475V114.933Z" fill="#2D2D2D"/>
<path d="M103.04 111.813C115.102 111.813 124.88 102.035 124.88 89.9734C124.88 77.9115 115.102 68.1334 103.04 68.1334C90.9778 68.1334 81.1997 77.9115 81.1997 89.9734C81.1997 102.035 90.9778 111.813 103.04 111.813Z" fill="white"/>
<path d="M100.96 80.6133C100.96 84.6339 97.7001 87.8933 93.6795 87.8933C92.7987 87.8933 91.9544 87.7369 91.173 87.4503C91.0008 88.2642 90.9102 89.1083 90.9102 89.9736C90.9102 96.6722 96.3405 102.103 103.039 102.103C109.738 102.103 115.168 96.6722 115.168 89.9736C115.168 83.2749 109.738 77.8446 103.039 77.8446C102.174 77.8446 101.33 77.9351 100.517 78.1072C100.803 78.8886 100.96 79.7327 100.96 80.6133Z" fill="#2D2D2D"/>
<path d="M168.56 111.813C180.622 111.813 190.4 102.035 190.4 89.9734C190.4 77.9115 180.622 68.1334 168.56 68.1334C156.498 68.1334 146.72 77.9115 146.72 89.9734C146.72 102.035 156.498 111.813 168.56 111.813Z" fill="white"/>
<path d="M166.479 80.6134C166.479 84.634 163.22 87.8934 159.199 87.8934C158.318 87.8934 157.474 87.737 156.692 87.4504C156.52 88.2642 156.43 89.1082 156.43 89.9734C156.43 96.672 161.86 102.102 168.559 102.102C175.257 102.102 180.688 96.672 180.688 89.9734C180.688 83.2747 175.257 77.8444 168.559 77.8444C167.694 77.8444 166.85 77.9349 166.036 78.107C166.323 78.8885 166.479 79.7327 166.479 80.6134Z" fill="#2D2D2D"/>
<path d="M98.1 140.933C110.305 140.933 120.2 131.039 120.2 118.833C120.2 106.628 110.305 96.7334 98.1 96.7334C85.8945 96.7334 76 106.628 76 118.833C76 131.039 85.8945 140.933 98.1 140.933Z" fill="#2D2D2D"/>
<path d="M173.5 140.933C185.705 140.933 195.6 131.039 195.6 118.833C195.6 106.628 185.705 96.7335 173.5 96.7335C161.294 96.7335 151.4 106.628 151.4 118.833C151.4 131.039 161.294 140.933 173.5 140.933Z" fill="#2D2D2D"/>
<path d="M107.215 123.794C105.66 127.579 104.86 131.636 104.86 135.733L135.8 187.733L135.8 104.533C131.737 104.533 127.713 105.34 123.96 106.908C120.206 108.476 116.795 110.774 113.922 113.672C111.049 116.569 108.77 120.008 107.215 123.794Z" fill="#CACACA"/>
<path d="M164.385 123.794C165.94 127.579 166.74 131.636 166.74 135.733L135.8 187.733V104.533C139.863 104.533 143.886 105.34 147.64 106.908C151.394 108.476 154.805 110.774 157.678 113.672C160.551 116.569 162.83 120.008 164.385 123.794Z" fill="#6E00FF"/>
<path fill-rule="evenodd" clip-rule="evenodd" d="M103.3 110.638C114.569 110.638 123.704 101.502 123.704 90.2334C123.704 78.9644 114.569 69.829 103.3 69.829C92.0309 69.829 82.8956 78.9644 82.8956 90.2334C82.8956 101.502 92.0309 110.638 103.3 110.638ZM103.3 114.933C116.941 114.933 128 103.875 128 90.2334C128 89.2248 127.939 88.2304 127.822 87.2535H143.778C143.66 88.2304 143.6 89.2248 143.6 90.2334C143.6 103.875 154.658 114.933 168.3 114.933C181.941 114.933 193 103.875 193 90.2334C193 89.2273 192.94 88.2353 192.823 87.2608H203.973C205.409 87.2608 206.573 86.0967 206.573 84.6608C206.573 83.2248 205.409 82.0608 203.973 82.0608H191.616C188.242 72.4357 179.077 65.5334 168.3 65.5334C157.524 65.5334 148.36 72.4338 144.985 82.057H126.614C123.24 72.4338 114.076 65.5334 103.3 65.5334C92.5227 65.5334 83.3576 72.4357 79.984 82.0608H67.6273C66.1914 82.0608 65.0273 83.2248 65.0273 84.6608C65.0273 86.0967 66.1914 87.2608 67.6273 87.2608H78.7769C78.66 88.2353 78.5999 89.2273 78.5999 90.2334C78.5999 103.875 89.6585 114.933 103.3 114.933ZM168.3 110.638C179.569 110.638 188.704 101.502 188.704 90.2334C188.704 78.9644 179.569 69.829 168.3 69.829C157.031 69.829 147.896 78.9644 147.896 90.2334C147.896 101.502 157.031 110.638 168.3 110.638Z" fill="#00C800"/>
</g>
</g>
<defs>
<clipPath id="clip0_7968_147181">
<rect width="272" height="373" fill="white"/>
</clipPath>
<clipPath id="clip1_7968_147181">
<rect width="234.858" height="330.2" fill="white" transform="translate(18.3706 42.1333)"/>
</clipPath>
<clipPath id="clip2_7968_147181">
<rect width="312" height="234" fill="white" transform="translate(-20.2002 -2.06671)"/>
</clipPath>
</defs>
</svg>
