<svg width="459" height="194" viewBox="0 0 459 194" fill="none" xmlns="http://www.w3.org/2000/svg">
<rect width="459" height="194" rx="8" fill="#F3F3F3"/>
<rect x="204" y="141" width="62" height="39" rx="8" fill="#C7EAFB"/>
<path d="M229.776 163.624C229.776 165.752 228.208 167 225.68 167H221.184V155.512H225.504C227.92 155.512 229.408 156.6 229.408 158.568C229.408 159.624 228.816 160.472 227.792 161C229.072 161.448 229.776 162.36 229.776 163.624ZM225.312 157.432H223.392V160.104H225.312C226.496 160.104 227.104 159.592 227.104 158.76C227.104 157.944 226.496 157.432 225.312 157.432ZM225.488 162.04H223.392V165.08H225.488C226.8 165.08 227.488 164.504 227.488 163.528C227.488 162.616 226.8 162.04 225.488 162.04ZM236.759 167L233.751 159.368V167H231.543V155.512H234.455L237.783 164.024L241.127 155.512H244.039V167H241.831V159.304L238.791 167H236.759ZM248.819 167H246.387V155.512H248.819V167Z" fill="#231F20"/>
<rect x="291" y="45" width="151" height="39" rx="8" fill="#C7EAFB"/>
<path d="M317 67.432C317 69.624 315.24 71.16 312.36 71.16C309.464 71.16 307.656 69.608 307.48 67.176H309.944C310.008 68.44 310.824 69.256 312.312 69.256C313.544 69.256 314.424 68.712 314.424 67.784C314.424 67.064 313.864 66.632 312.888 66.44L311 66.072C309.256 65.736 307.912 64.792 307.912 62.888C307.912 60.84 309.72 59.368 312.2 59.368C314.776 59.368 316.664 60.872 316.824 63.272H314.36C314.28 62.072 313.448 61.256 312.232 61.256C311.048 61.256 310.376 61.928 310.376 62.728C310.376 63.512 311.096 63.848 311.928 64.008L313.896 64.408C315.912 64.808 317 65.736 317 67.432ZM323.723 67.4V62.456H325.931V71H323.899V69.88C323.435 70.632 322.491 71.16 321.403 71.16C319.691 71.16 318.443 70.12 318.443 67.896V62.456H320.667V67.464C320.667 68.664 321.259 69.192 322.155 69.192C322.955 69.192 323.723 68.552 323.723 67.4ZM330.154 66.856V71H327.93V62.456H329.978V64.104C330.602 63.016 331.93 62.36 333.306 62.36V64.664C331.418 64.52 330.154 64.968 330.154 66.856ZM342.313 62.456L339.177 71H336.745L333.593 62.456H335.993L338.025 68.472L340.073 62.456H342.313ZM345.865 60.472C345.865 61.224 345.257 61.784 344.377 61.784C343.513 61.784 342.905 61.224 342.905 60.472C342.905 59.688 343.513 59.128 344.377 59.128C345.257 59.128 345.865 59.688 345.865 60.472ZM345.513 71H343.289V62.456H345.513V71ZM355.188 62.456L352.052 71H349.62L346.468 62.456H348.868L350.9 68.472L352.948 62.456H355.188ZM361.033 71V69.944C360.473 70.744 359.625 71.16 358.457 71.16C356.681 71.16 355.497 70.12 355.497 68.52C355.497 66.856 356.841 65.96 359.337 65.96C359.817 65.96 360.233 65.992 360.761 66.056V65.544C360.761 64.584 360.217 64.024 359.289 64.024C358.329 64.024 357.753 64.584 357.673 65.544H355.673C355.801 63.576 357.225 62.296 359.289 62.296C361.529 62.296 362.841 63.528 362.841 65.624V71H361.033ZM357.593 68.456C357.593 69.176 358.105 69.624 358.937 69.624C360.073 69.624 360.761 69 360.761 68.008V67.4C360.233 67.32 359.865 67.288 359.481 67.288C358.217 67.288 357.593 67.688 357.593 68.456ZM366.998 71H364.758V59.512H366.998V71ZM374.912 60.472C374.912 61.224 374.304 61.784 373.424 61.784C372.56 61.784 371.952 61.224 371.952 60.472C371.952 59.688 372.56 59.128 373.424 59.128C374.304 59.128 374.912 59.688 374.912 60.472ZM374.56 71H372.336V62.456H374.56V71ZM378.763 66.344V71H376.539V62.456H378.587V63.672C379.211 62.824 380.091 62.296 381.211 62.296C382.923 62.296 384.107 63.416 384.107 65.48V71H381.899V66.232C381.899 64.968 381.403 64.264 380.395 64.264C379.515 64.264 378.763 64.968 378.763 66.344ZM393.639 71H389.559V59.512H393.639C397.287 59.512 399.495 61.848 399.495 65.192C399.495 68.536 397.207 71 393.639 71ZM391.991 61.608V68.904H393.511C395.799 68.904 396.999 67.576 396.999 65.192C396.999 62.904 395.799 61.608 393.511 61.608H391.991ZM406.08 71V69.944C405.52 70.744 404.672 71.16 403.504 71.16C401.728 71.16 400.544 70.12 400.544 68.52C400.544 66.856 401.888 65.96 404.384 65.96C404.864 65.96 405.28 65.992 405.808 66.056V65.544C405.808 64.584 405.264 64.024 404.336 64.024C403.376 64.024 402.8 64.584 402.72 65.544H400.72C400.848 63.576 402.272 62.296 404.336 62.296C406.576 62.296 407.888 63.528 407.888 65.624V71H406.08ZM402.64 68.456C402.64 69.176 403.152 69.624 403.984 69.624C405.12 69.624 405.808 69 405.808 68.008V67.4C405.28 67.32 404.912 67.288 404.528 67.288C403.264 67.288 402.64 67.688 402.64 68.456ZM417.204 62.456L413.044 74.088H410.628L411.844 70.904L408.484 62.456H410.884L413.028 68.312L414.98 62.456H417.204ZM425.177 68.264C425.177 70.056 423.817 71.16 421.385 71.16C418.953 71.16 417.593 69.992 417.417 68.088H419.545C419.561 68.968 420.313 69.528 421.417 69.528C422.281 69.528 422.937 69.256 422.937 68.648C422.937 68.104 422.585 67.88 421.769 67.72L420.233 67.432C418.697 67.16 417.769 66.312 417.769 64.984C417.769 63.4 419.129 62.296 421.257 62.296C423.401 62.296 424.873 63.432 425.033 65.272H422.905C422.825 64.44 422.201 63.928 421.257 63.928C420.441 63.928 419.897 64.232 419.897 64.776C419.897 65.288 420.249 65.496 421.017 65.64L422.665 65.944C424.329 66.264 425.177 67.032 425.177 68.264Z" fill="black"/>
<rect x="18" y="49" width="147" height="35" rx="8" fill="#C7EAFB"/>
<path d="M36.32 73H33.888V63.704H30.272V61.512H39.952V63.704H36.32V73ZM42.8723 68.856V73H40.6483V64.456H42.6963V66.104C43.3203 65.016 44.6483 64.36 46.0243 64.36V66.664C44.1363 66.52 42.8723 66.968 42.8723 68.856ZM50.829 73.144C48.269 73.144 46.557 71.368 46.557 68.696C46.557 66.152 48.333 64.296 50.797 64.296C53.501 64.296 55.293 66.488 54.893 69.272H48.829C48.973 70.664 49.645 71.432 50.781 71.432C51.757 71.432 52.413 70.952 52.669 70.104H54.877C54.397 72.04 52.909 73.144 50.829 73.144ZM50.749 65.928C49.709 65.928 49.053 66.6 48.861 67.864H52.541C52.477 66.68 51.805 65.928 50.749 65.928ZM61.4706 73V71.944C60.9106 72.744 60.0626 73.16 58.8946 73.16C57.1186 73.16 55.9346 72.12 55.9346 70.52C55.9346 68.856 57.2786 67.96 59.7746 67.96C60.2546 67.96 60.6706 67.992 61.1986 68.056V67.544C61.1986 66.584 60.6546 66.024 59.7266 66.024C58.7666 66.024 58.1906 66.584 58.1106 67.544H56.1106C56.2386 65.576 57.6626 64.296 59.7266 64.296C61.9666 64.296 63.2786 65.528 63.2786 67.624V73H61.4706ZM58.0306 70.456C58.0306 71.176 58.5426 71.624 59.3746 71.624C60.5106 71.624 61.1986 71 61.1986 70.008V69.4C60.6706 69.32 60.3026 69.288 59.9186 69.288C58.6546 69.288 58.0306 69.688 58.0306 70.456ZM70.3821 70.84V72.776C69.8381 73.048 69.3261 73.16 68.6701 73.16C66.9101 73.16 65.8061 72.152 65.8061 70.232V66.36H64.0781V64.456H65.8061V61.928H68.0141V64.456H70.4621V66.36H68.0141V69.72C68.0141 70.712 68.4621 71.112 69.2621 71.112C69.6781 71.112 70.0621 71.016 70.3821 70.84ZM74.0441 73H71.8201V64.456H73.8681V65.672C74.4921 64.808 75.2921 64.296 76.4281 64.296C77.5961 64.296 78.4921 64.84 78.9241 65.816C79.5961 64.872 80.4601 64.296 81.7401 64.296C83.4681 64.296 84.6361 65.432 84.6361 67.48V73H82.4281V68.184C82.4281 66.984 81.9161 66.264 80.9401 66.264C80.0601 66.264 79.3401 66.952 79.3401 68.232V73H77.1321V68.184C77.1321 66.984 76.6201 66.264 75.6441 66.264C74.7481 66.264 74.0441 66.952 74.0441 68.232V73ZM90.2509 73.144C87.6909 73.144 85.9789 71.368 85.9789 68.696C85.9789 66.152 87.7549 64.296 90.2189 64.296C92.9229 64.296 94.7149 66.488 94.3149 69.272H88.2509C88.3949 70.664 89.0669 71.432 90.2029 71.432C91.1789 71.432 91.8349 70.952 92.0909 70.104H94.2989C93.8189 72.04 92.3309 73.144 90.2509 73.144ZM90.1709 65.928C89.1309 65.928 88.4749 66.6 88.2829 67.864H91.9629C91.8989 66.68 91.2269 65.928 90.1709 65.928ZM98.0285 68.344V73H95.8045V64.456H97.8525V65.672C98.4765 64.824 99.3565 64.296 100.477 64.296C102.189 64.296 103.373 65.416 103.373 67.48V73H101.165V68.232C101.165 66.968 100.669 66.264 99.6605 66.264C98.7805 66.264 98.0285 66.968 98.0285 68.344ZM110.538 70.84V72.776C109.994 73.048 109.482 73.16 108.826 73.16C107.066 73.16 105.962 72.152 105.962 70.232V66.36H104.234V64.456H105.962V61.928H108.17V64.456H110.618V66.36H108.17V69.72C108.17 70.712 108.618 71.112 109.418 71.112C109.834 71.112 110.218 71.016 110.538 70.84ZM120.648 73H118.216V63.704H114.6V61.512H124.28V63.704H120.648V73ZM132.969 64.456L128.809 76.088H126.393L127.609 72.904L124.249 64.456H126.649L128.793 70.312L130.745 64.456H132.969ZM142.473 68.728C142.473 71.256 140.985 73.16 138.681 73.16C137.673 73.16 136.809 72.728 136.169 71.896V76.088H133.945V64.456H135.993V65.704C136.649 64.792 137.593 64.296 138.681 64.296C140.985 64.296 142.473 66.216 142.473 68.728ZM140.185 68.728C140.185 67.128 139.273 66.264 138.185 66.264C137.097 66.264 136.185 67.112 136.185 68.728C136.185 70.344 137.097 71.176 138.185 71.176C139.273 71.176 140.185 70.36 140.185 68.728ZM147.61 73.144C145.05 73.144 143.338 71.368 143.338 68.696C143.338 66.152 145.114 64.296 147.578 64.296C150.282 64.296 152.074 66.488 151.674 69.272H145.61C145.754 70.664 146.426 71.432 147.562 71.432C148.538 71.432 149.194 70.952 149.45 70.104H151.658C151.178 72.04 149.69 73.144 147.61 73.144ZM147.53 65.928C146.49 65.928 145.834 66.6 145.642 67.864H149.322C149.258 66.68 148.586 65.928 147.53 65.928Z" fill="black"/>
<path d="M188.186 158.26C188.881 158.709 189.81 158.51 190.26 157.814C190.709 157.119 190.51 156.19 189.814 155.74L188.186 158.26ZM89.6851 91.5334C88.8751 91.7073 88.3595 92.5049 88.5334 93.3149L91.3676 106.514C91.5415 107.324 92.3391 107.84 93.1491 107.666C93.959 107.492 94.4747 106.694 94.3007 105.884L91.7815 94.1517L103.514 91.6324C104.324 91.4585 104.84 90.6609 104.666 89.8509C104.492 89.041 103.694 88.5253 102.884 88.6993L89.6851 91.5334ZM189.391 155.467C188.696 155.017 187.767 155.216 187.317 155.912C186.867 156.608 187.067 157.536 187.763 157.986L189.391 155.467ZM177.609 151.422C178.304 151.872 179.233 151.672 179.683 150.977C180.133 150.281 179.933 149.352 179.237 148.903L177.609 151.422ZM178.391 148.356C177.696 147.906 176.767 148.105 176.317 148.801C175.867 149.497 176.067 150.425 176.763 150.875L178.391 148.356ZM166.609 144.311C167.304 144.761 168.233 144.561 168.683 143.866C169.133 143.17 168.933 142.241 168.237 141.792L166.609 144.311ZM167.391 141.245C166.696 140.795 165.767 140.994 165.317 141.69C164.867 142.386 165.067 143.314 165.763 143.764L167.391 141.245ZM155.609 137.2C156.304 137.65 157.233 137.45 157.683 136.755C158.133 136.059 157.933 135.13 157.237 134.68L155.609 137.2ZM156.391 134.133C155.696 133.684 154.767 133.883 154.317 134.579C153.867 135.275 154.067 136.203 154.763 136.653L156.391 134.133ZM144.609 130.089C145.304 130.539 146.233 130.339 146.683 129.643C147.133 128.948 146.933 128.019 146.237 127.569L144.609 130.089ZM145.391 127.022C144.696 126.573 143.767 126.772 143.317 127.468C142.867 128.163 143.067 129.092 143.763 129.542L145.391 127.022ZM133.609 122.978C134.304 123.427 135.233 123.228 135.683 122.532C136.133 121.837 135.933 120.908 135.237 120.458L133.609 122.978ZM134.391 119.911C133.696 119.461 132.767 119.661 132.317 120.357C131.867 121.052 132.067 121.981 132.763 122.431L134.391 119.911ZM122.609 115.867C123.304 116.316 124.233 116.117 124.683 115.421C125.133 114.725 124.933 113.797 124.237 113.347L122.609 115.867ZM123.391 112.8C122.696 112.35 121.767 112.55 121.317 113.245C120.867 113.941 121.067 114.87 121.763 115.32L123.391 112.8ZM111.609 108.755C112.304 109.205 113.233 109.006 113.683 108.31C114.133 107.614 113.933 106.686 113.237 106.236L111.609 108.755ZM112.391 105.689C111.696 105.239 110.767 105.439 110.317 106.134C109.867 106.83 110.067 107.759 110.763 108.208L112.391 105.689ZM100.609 101.644C101.304 102.094 102.233 101.895 102.683 101.199C103.133 100.503 102.933 99.5747 102.237 99.1249L100.609 101.644ZM101.391 98.5779C100.696 98.1282 99.767 98.3275 99.3172 99.0233C98.8675 99.719 99.0669 100.648 99.7626 101.097L101.391 98.5779ZM89.6087 94.5332C90.3044 94.9829 91.233 94.7836 91.6828 94.0878C92.1325 93.3921 91.9331 92.4636 91.2374 92.0138L89.6087 94.5332ZM189.814 155.74L189.391 155.467L187.763 157.986L188.186 158.26L189.814 155.74ZM179.237 148.903L178.391 148.356L176.763 150.875L177.609 151.422L179.237 148.903ZM168.237 141.792L167.391 141.245L165.763 143.764L166.609 144.311L168.237 141.792ZM157.237 134.68L156.391 134.133L154.763 136.653L155.609 137.2L157.237 134.68ZM146.237 127.569L145.391 127.022L143.763 129.542L144.609 130.089L146.237 127.569ZM135.237 120.458L134.391 119.911L132.763 122.431L133.609 122.978L135.237 120.458ZM124.237 113.347L123.391 112.8L121.763 115.32L122.609 115.867L124.237 113.347ZM113.237 106.236L112.391 105.689L110.763 108.208L111.609 108.755L113.237 106.236ZM102.237 99.1249L101.391 98.5779L99.7626 101.097L100.609 101.644L102.237 99.1249ZM91.2374 92.0138L90.8143 91.7403L89.1856 94.2597L89.6087 94.5332L91.2374 92.0138Z" fill="#202020"/>
<path d="M179 64.5C178.172 64.5 177.5 65.1716 177.5 66C177.5 66.8284 178.172 67.5 179 67.5V64.5ZM278.061 67.0607C278.646 66.4749 278.646 65.5251 278.061 64.9393L268.515 55.3934C267.929 54.8076 266.979 54.8076 266.393 55.3934C265.808 55.9792 265.808 56.9289 266.393 57.5147L274.879 66L266.393 74.4853C265.808 75.0711 265.808 76.0208 266.393 76.6066C266.979 77.1924 267.929 77.1924 268.515 76.6066L278.061 67.0607ZM179 67.5H277V64.5H179V67.5Z" fill="#202020"/>
<path d="M160.368 107.728H158.288C158.368 105.728 160.016 104.352 162.224 104.352C164.464 104.352 166 105.616 166 107.392C166 108.288 165.456 109.056 164.56 109.792L163.456 110.672C162.704 111.296 162.592 111.696 162.72 112.544H161.296C160.832 111.344 160.752 110.592 161.696 109.792L162.768 108.88C163.264 108.432 163.536 108.112 163.536 107.568C163.536 106.832 162.96 106.32 162 106.32C161.056 106.32 160.432 106.88 160.368 107.728ZM163.456 114.624C163.456 115.472 162.784 116.08 161.904 116.08C161.008 116.08 160.336 115.472 160.336 114.624C160.336 113.776 160.976 113.152 161.904 113.152C162.8 113.152 163.456 113.776 163.456 114.624Z" fill="#202020"/>
</svg>
