<svg width="298" height="384" viewBox="0 0 298 384" fill="none" xmlns="http://www.w3.org/2000/svg">
<g clip-path="url(#clip0_1_7003)">
<path d="M249.96 359.934L251.886 311.869L257.665 167.674C258.729 141.128 238.071 118.746 211.525 117.683L209.6 165.748L207.673 213.808C187.63 227.644 174.112 250.407 173.061 276.615C171.29 320.801 205.628 358.063 249.787 359.927C249.845 359.929 249.902 359.932 249.959 359.935L249.96 359.934Z" fill="#231F20"/>
<path d="M85.9504 195.951L97.9084 149.363L109.868 102.77C84.1353 96.165 57.92 111.671 51.3152 137.403L43.3428 168.465L35.1842 200.248L15.4366 277.183L3.47661 323.776C3.53276 323.791 3.58784 323.804 3.64291 323.817C46.477 334.717 90.0704 308.885 101.064 266.052C107.585 240.646 101.174 214.959 85.9493 195.95L85.9504 195.951Z" fill="#231F20"/>
<path d="M239.609 105.924L86.4038 83.4492L75.1668 160.051L228.372 182.525L239.609 105.924Z" fill="#2D2D2D"/>
<path d="M228.372 182.525L75.1665 160.05L63.9295 236.652L217.135 259.126L228.372 182.525Z" fill="#2D2D2D"/>
<path d="M115.425 364.398L68.3595 357.493C66.8461 357.271 65.7994 355.865 66.0214 354.351C66.2434 352.838 67.65 351.791 69.1634 352.013L116.229 358.917C117.742 359.139 118.789 360.546 118.567 362.059C118.345 363.573 116.938 364.62 115.425 364.398Z" fill="#2D2D2D"/>
<path d="M99.732 362.098C98.4026 361.903 97.3777 360.763 97.3684 359.377L96.6394 255.102C96.6292 253.573 97.8594 252.324 99.3887 252.314C100.918 252.304 102.167 253.534 102.177 255.063L102.906 359.338C102.916 360.868 101.686 362.117 100.157 362.127C100.013 362.128 99.8705 362.117 99.7322 362.097L99.732 362.098Z" fill="#2D2D2D"/>
<path d="M178.178 373.603L131.112 366.699C129.599 366.477 128.552 365.07 128.774 363.557C128.996 362.044 130.403 360.997 131.916 361.219L178.982 368.123C180.495 368.345 181.542 369.752 181.32 371.265C181.098 372.778 179.691 373.825 178.178 373.603Z" fill="#2D2D2D"/>
<path d="M146.804 369.002C146.665 368.982 146.526 368.951 146.389 368.909C144.927 368.46 144.106 366.91 144.556 365.449L175.203 265.776C175.652 264.314 177.202 263.493 178.663 263.943C180.125 264.392 180.946 265.942 180.496 267.404L149.849 367.076C149.442 368.401 148.133 369.199 146.804 369.004L146.804 369.002Z" fill="#2D2D2D"/>
<path d="M151.742 171.285C194.048 177.491 233.375 148.226 239.581 105.92C245.787 63.6142 216.522 24.2873 174.216 18.0813C131.91 11.8752 92.5833 41.1401 86.3772 83.4461C80.1712 125.752 109.436 165.079 151.742 171.285Z" fill="#2D2D2D"/>
<path d="M129.293 324.497C171.599 330.704 210.926 301.439 217.132 259.133C223.338 216.827 194.073 177.5 151.767 171.294C109.461 165.088 70.1345 194.352 63.9285 236.659C57.7224 278.965 86.9873 318.291 129.293 324.497Z" fill="#2D2D2D"/>
<path d="M131.424 83.2271C143.234 84.9595 154.212 76.7901 155.945 64.9802C157.677 53.1703 149.508 42.1921 137.698 40.4596C125.888 38.7272 114.91 46.8966 113.177 58.7065C111.445 70.5164 119.614 81.4947 131.424 83.2271Z" fill="white"/>
<path d="M132.994 72.5324C138.898 73.3985 144.387 69.3141 145.253 63.4095C146.119 57.5049 142.035 52.0161 136.13 51.1499C130.226 50.2837 124.737 54.3682 123.871 60.2728C123.004 66.1774 127.089 71.6662 132.994 72.5324Z" fill="#231F20"/>
<path d="M127.484 59.3667C132.135 60.049 136.459 56.8315 137.141 52.1803C137.824 47.529 134.606 43.2053 129.955 42.523C125.304 41.8407 120.98 45.0582 120.298 49.7094C119.615 54.3607 122.833 58.6844 127.484 59.3667Z" fill="white"/>
<path d="M117.914 125.567C135.226 128.107 151.319 116.131 153.858 98.8198C156.398 81.5081 144.422 65.4156 127.111 62.876C109.799 60.3365 93.7064 72.3117 91.1669 89.6234C88.6274 106.935 100.603 123.028 117.914 125.567Z" fill="#2D2D2D"/>
<path d="M196.558 92.7818C208.368 94.5142 219.346 86.3448 221.078 74.5349C222.811 62.725 214.641 51.7468 202.831 50.0143C191.022 48.2819 180.043 56.4513 178.311 68.2612C176.578 80.0711 184.748 91.0493 196.558 92.7818Z" fill="white"/>
<path d="M198.127 82.087C204.032 82.9532 209.521 78.8688 210.387 72.9641C211.253 67.0595 207.169 61.5707 201.264 60.7046C195.359 59.8384 189.871 63.9229 189.004 69.8275C188.138 75.7321 192.223 81.2209 198.127 82.087Z" fill="#231F20"/>
<path d="M192.618 68.9214C197.269 69.6037 201.593 66.3862 202.275 61.735C202.958 57.0837 199.74 52.76 195.089 52.0777C190.438 51.3954 186.114 54.6129 185.432 59.2641C184.749 63.9153 187.967 68.239 192.618 68.9214Z" fill="white"/>
<path d="M197.33 137.217C214.642 139.757 230.735 127.781 233.274 110.47C235.814 93.158 223.838 77.0655 206.527 74.5259C189.215 71.9864 173.122 83.9616 170.583 101.273C168.043 118.585 180.019 134.678 197.33 137.217Z" fill="#2D2D2D"/>
<path d="M164.807 82.2214C146.177 79.4885 129.029 91.2142 126.507 108.41L151.744 171.282L164.808 82.2216L164.807 82.2214Z" fill="#C7EAFB"/>
<path d="M193.975 118.309L193.974 118.309C196.496 101.113 183.439 84.956 164.81 82.2231L151.745 171.283L193.976 118.309L193.975 118.309Z" fill="#6E00FF"/>
<path d="M89.957 70.0894L88.8497 77.6382L96.3986 78.7456L91.9769 108.888L98.4184 117.544L143.606 124.173L161.965 103.786L173.749 128.595L218.936 135.223L227.593 128.782L232.015 98.6397L239.564 99.747L240.671 92.1982L89.957 70.0894Z" fill="white" fill-opacity="0.7"/>
<path d="M218.544 137.884L173.356 131.256C172.453 131.123 171.718 130.581 171.295 129.759L161.261 108.574L145.565 125.984C144.978 126.658 144.064 126.959 143.161 126.826L97.9729 120.197C97.2818 120.096 96.6298 119.729 96.2294 119.127L89.7878 110.471C89.3796 109.922 89.1618 109.184 89.2632 108.493L93.295 81.0089L88.4042 80.2915C86.9157 80.0731 85.9177 78.732 86.136 77.2435L87.2434 69.6947C87.4617 68.2062 88.8029 67.2082 90.2914 67.4265L241.005 89.5354C242.494 89.7538 243.492 91.0949 243.273 92.5834L242.166 100.132C241.948 101.621 240.607 102.619 239.118 102.4L234.227 101.683L230.196 129.167C230.094 129.858 229.727 130.51 229.125 130.911L220.469 137.352C219.92 137.76 219.182 137.978 218.491 137.877L218.544 137.884ZM175.572 126.15L218.261 132.412L225.089 127.332L229.346 98.3059C229.565 96.8174 230.906 95.8195 232.394 96.0378L237.285 96.7553L237.613 94.5225L92.2151 73.1935L91.8875 75.4263L96.7783 76.1437C98.2669 76.3621 99.2649 77.7032 99.0465 79.1917L94.7886 108.218L99.8693 115.045L142.558 121.307L160.001 101.981C161.23 100.641 163.675 101 164.414 102.628L175.572 126.15Z" fill="#231F20"/>
<path d="M156.623 39.599L113.71 33.3039C112.016 33.0553 110.86 31.6599 111.084 30.1326C111.308 28.6053 112.816 27.6006 114.511 27.8492L157.424 34.1443C159.118 34.3929 160.274 35.7883 160.05 37.3156C159.826 38.8429 158.318 39.8476 156.623 39.599Z" fill="#CACACA"/>
<path d="M227.033 40.1194L184.248 47.2345C182.559 47.5155 181.032 46.5398 180.779 45.0171C180.526 43.4943 181.654 42.0771 183.344 41.7961L226.129 34.681C227.818 34.4 229.345 35.3757 229.598 36.8985C229.851 38.4212 228.723 39.8384 227.033 40.1194Z" fill="#CACACA"/>
</g>
<defs>
<clipPath id="clip0_1_7003">
<rect width="249.122" height="351.17" fill="white" transform="translate(50.9688) rotate(8.34543)"/>
</clipPath>
</defs>
</svg>
