<svg width="291" height="533" viewBox="0 0 291 533" fill="none" xmlns="http://www.w3.org/2000/svg">
<path d="M140.623 454.253C142.219 446.689 149.764 441.866 157.461 443.489L191.143 450.592L185.363 478.001L151.681 470.898C143.984 469.275 139.028 461.816 140.623 454.253Z" fill="black"/>
<path d="M149.706 451.239L214.309 464.863C217.092 465.45 218.865 468.241 218.263 471.094C217.662 473.945 214.914 475.785 212.129 475.198L147.527 461.574L149.706 451.241L149.706 451.239Z" fill="black"/>
<path d="M164.631 445.001L158.851 472.41L278.373 497.616L284.154 470.206L164.631 445.001Z" fill="#D7D7D7"/>
<path d="M140.623 454.253C142.219 446.689 149.764 441.866 157.461 443.489L191.143 450.592L185.363 478.001L151.681 470.898C143.984 469.275 139.028 461.816 140.623 454.253Z" fill="black"/>
<path d="M149.706 451.239L214.309 464.863C217.092 465.45 218.865 468.241 218.263 471.094C217.662 473.945 214.914 475.785 212.129 475.198L147.527 461.574L149.706 451.241L149.706 451.239Z" fill="black"/>
<path d="M164.631 445.001L158.851 472.41L278.373 497.616L284.154 470.206L164.631 445.001Z" fill="#D7D7D7"/>
<path d="M113.018 51.3623L106.346 43.4805L26.3452 111.197L33.0168 119.079L113.018 51.3623Z" fill="black"/>
<path d="M126.365 67.128L119.694 59.2461L39.6929 126.962L46.3645 134.844L126.365 67.128Z" fill="black"/>
<path d="M126.361 67.1261L106.346 43.4805L26.3452 111.197L46.3599 134.842L126.361 67.1261Z" fill="#D7D7D7"/>
<path d="M140.32 44.4583L131.01 33.4593C128.054 29.967 122.743 29.6051 119.144 32.6509L107.136 42.8149L127.151 66.4605L139.159 56.2965C142.757 53.2507 143.278 47.9521 140.322 44.4597L140.32 44.4583Z" fill="#D7D7D7"/>
<path d="M8.60444 146.175L13.7095 135.424L19.7139 142.518L8.60444 146.175Z" fill="black"/>
<path d="M49.1226 132.509L29.1079 108.863L14.1474 135.942L19.9446 142.791L49.1226 132.509Z" fill="#D7D7D7"/>
<path d="M126.365 67.128L119.694 59.2461L39.6929 126.962L46.3645 134.844L126.365 67.128Z" fill="black"/>
<path d="M126.361 67.1261L106.346 43.4805L26.3452 111.197L46.3599 134.842L126.361 67.1261Z" fill="#D7D7D7"/>
<path d="M113.018 51.3623L106.346 43.4805L26.3452 111.197L33.0168 119.079L113.018 51.3623Z" fill="black"/>
<path d="M266.158 225.656L257.367 210.549L114.724 178.439C113.646 178.197 112.576 178.873 112.333 179.951L75.4392 343.85C75.1967 344.928 75.8736 345.998 76.9512 346.24L240.85 383.134C241.928 383.377 242.998 382.7 243.24 381.622L274.948 240.764L266.158 225.656Z" fill="#F8E4B0"/>
<g filter="url(#filter0_d_21_700)">
<path d="M254.381 230.874L274.948 240.764L257.367 210.549L253.296 228.633C253.092 229.541 253.542 230.471 254.381 230.874Z" fill="#FFF5DB"/>
</g>
<defs>
<filter id="filter0_d_21_700" x="248.248" y="205.549" width="33.7007" height="42.2148" filterUnits="userSpaceOnUse" color-interpolation-filters="sRGB">
<feFlood flood-opacity="0" result="BackgroundImageFix"/>
<feColorMatrix in="SourceAlpha" type="matrix" values="0 0 0 0 0 0 0 0 0 0 0 0 0 0 0 0 0 0 127 0" result="hardAlpha"/>
<feOffset dx="1" dy="1"/>
<feGaussianBlur stdDeviation="3"/>
<feComposite in2="hardAlpha" operator="out"/>
<feColorMatrix type="matrix" values="0 0 0 0 0 0 0 0 0 0 0 0 0 0 0 0 0 0 0.1 0"/>
<feBlend mode="normal" in2="BackgroundImageFix" result="effect1_dropShadow_21_700"/>
<feBlend mode="normal" in="SourceGraphic" in2="effect1_dropShadow_21_700" result="shape"/>
</filter>
</defs>
</svg>
