<svg width="174" height="183" viewBox="0 0 174 183" fill="none" xmlns="http://www.w3.org/2000/svg">
<g clip-path="url(#clip0_18_10825)">
<rect width="174" height="183" rx="4" fill="#FFA800"/>
<path d="M124.018 106.394C111.425 107.729 102.299 119.019 103.633 131.612C104.968 144.205 116.259 153.331 128.852 151.997L124.018 106.394V106.394Z" fill="#231F20"/>
<path d="M107.922 85.0426C115.478 84.2416 122.252 89.7174 123.053 97.2736L109.372 98.7236L107.922 85.0426Z" fill="#231F20"/>
<path d="M128.85 151.997C121.294 152.798 114.52 147.323 113.719 139.766L127.4 138.316L128.85 151.997Z" fill="#6E00FF"/>
<path d="M113.722 139.764L127.402 138.314L123.052 97.2721L109.372 98.722L113.722 139.764Z" fill="#231F20"/>
<path d="M73.9744 102.288L71.9023 99.1279L65.5779 103.275L67.6499 106.435L73.9744 102.288Z" fill="#E2F4FD"/>
<path d="M88.0526 164.486H83.9369L79.2061 133.736C79.1351 133.274 78.7033 132.958 78.2418 133.028C77.7803 133.099 77.4638 133.531 77.5347 133.993L82.2261 164.487H73.5294C73.0624 164.487 72.6836 164.865 72.6836 165.332C72.6836 165.799 73.0624 166.178 73.5294 166.178H83.2083C83.2083 166.178 83.2101 166.178 83.2108 166.178C83.212 166.178 83.2126 166.178 83.2138 166.178H88.0533C88.5203 166.178 88.8991 165.799 88.8991 165.332C88.8991 164.865 88.5203 164.487 88.0533 164.487L88.0526 164.486Z" fill="#2D2D2D"/>
<path d="M83.0332 164.774C81.4012 160.916 76.9509 159.112 73.0933 160.744" stroke="#2D2D2D" stroke-width="2.07467" stroke-linecap="round"/>
<path d="M87.5998 160.324C85.4176 160.23 83.5726 161.923 83.4791 164.106" stroke="#2D2D2D" stroke-width="1.67569" stroke-linecap="round"/>
<path d="M108.753 164.53L100.056 164.475L104.939 134.012C105.013 133.551 104.7 133.117 104.238 133.043C103.777 132.969 103.344 133.283 103.27 133.744L98.3454 164.464L94.2298 164.438C93.7627 164.435 93.3816 164.811 93.3786 165.278C93.3757 165.745 93.7521 166.127 94.2191 166.13L99.0585 166.16C99.0585 166.16 99.0603 166.16 99.0615 166.16C99.0622 166.16 99.0634 166.16 99.064 166.16L108.743 166.221C109.21 166.224 109.591 165.848 109.594 165.381C109.597 164.914 109.22 164.532 108.753 164.529L108.753 164.53Z" fill="#2D2D2D"/>
<path d="M73.9727 85.427C65.6042 84.5398 58.1012 90.6046 57.214 98.9737L72.3667 100.58L73.9727 85.427Z" fill="#231F20"/>
<path d="M70.0664 122.279L54.9141 120.673L57.214 98.9728L72.3663 100.579L70.0664 122.279Z" fill="#231F20"/>
<path d="M114.113 82.5967H66.8359V106.235H114.113V82.5967Z" fill="#2D2D2D"/>
<path d="M114.113 106.236H66.8359V129.874H114.113V106.236Z" fill="#2D2D2D"/>
<path d="M90.4624 106.235C103.517 106.235 114.101 95.6521 114.101 82.5971C114.101 69.5421 103.517 58.959 90.4624 58.959C77.4074 58.959 66.8242 69.5421 66.8242 82.5971C66.8242 95.6521 77.4074 106.235 90.4624 106.235Z" fill="#2D2D2D"/>
<path d="M90.4741 153.513C103.529 153.513 114.112 142.929 114.112 129.874C114.112 116.819 103.529 106.236 90.4741 106.236C77.4191 106.236 66.8359 116.819 66.8359 129.874C66.8359 142.929 77.4191 153.513 90.4741 153.513Z" fill="#2D2D2D"/>
<path d="M80.4187 80.5346C84.0629 80.5346 87.017 77.5804 87.017 73.9363C87.017 70.2921 84.0629 67.3379 80.4187 67.3379C76.7745 67.3379 73.8203 70.2921 73.8203 73.9363C73.8203 77.5804 76.7745 80.5346 80.4187 80.5346Z" fill="white"/>
<path d="M80.4206 78.7894C82.2428 78.7894 83.7201 77.3122 83.7201 75.4899C83.7201 73.6677 82.2428 72.1904 80.4206 72.1904C78.5983 72.1904 77.1211 73.6677 77.1211 75.4899C77.1211 77.3122 78.5983 78.7894 80.4206 78.7894Z" fill="#231F20"/>
<path d="M78.1728 75.0547C79.608 75.0547 80.7715 73.8912 80.7715 72.4561C80.7715 71.0209 79.608 69.8574 78.1728 69.8574C76.7377 69.8574 75.5742 71.0209 75.5742 72.4561C75.5742 73.8912 76.7377 75.0547 78.1728 75.0547Z" fill="white"/>
<path d="M77.4383 95.7145C82.7804 95.7145 87.111 91.3839 87.111 86.0418C87.111 80.6997 82.7804 76.3691 77.4383 76.3691C72.0962 76.3691 67.7656 80.6997 67.7656 86.0418C67.7656 91.3839 72.0962 95.7145 77.4383 95.7145Z" fill="#2D2D2D"/>
<path d="M100.52 80.5346C104.164 80.5346 107.119 77.5804 107.119 73.9363C107.119 70.2921 104.164 67.3379 100.52 67.3379C96.8761 67.3379 93.9219 70.2921 93.9219 73.9363C93.9219 77.5804 96.8761 80.5346 100.52 80.5346Z" fill="white"/>
<path d="M100.522 78.7884C102.344 78.7884 103.822 77.3112 103.822 75.4889C103.822 73.6667 102.344 72.1895 100.522 72.1895C98.6999 72.1895 97.2227 73.6667 97.2227 75.4889C97.2227 77.3112 98.6999 78.7884 100.522 78.7884Z" fill="#231F20"/>
<path d="M98.2744 75.0547C99.7096 75.0547 100.873 73.8912 100.873 72.4561C100.873 71.0209 99.7096 69.8574 98.2744 69.8574C96.8392 69.8574 95.6758 71.0209 95.6758 72.4561C95.6758 73.8912 96.8392 75.0547 98.2744 75.0547Z" fill="white"/>
<path d="M103.513 95.7145C108.855 95.7145 113.185 91.3839 113.185 86.0418C113.185 80.6997 108.855 76.3691 103.513 76.3691C98.1704 76.3691 93.8398 80.6997 93.8398 86.0418C93.8398 91.3839 98.1704 95.7145 103.513 95.7145Z" fill="#2D2D2D"/>
<path d="M90.626 75.9355C85.4543 75.9355 81.2617 79.8057 81.2617 84.5794L90.6265 100.659V75.9355H90.626Z" fill="#C7EAFB"/>
<path d="M99.9892 84.5794C99.9892 79.8057 95.7967 75.9355 90.625 75.9355V100.659L99.9898 84.5794H99.9892Z" fill="#6E00FF"/>
<rect x="74.3008" y="63.877" width="12.9549" height="2.29828" rx="1.14914" fill="#B3B3B3"/>
<rect x="98.3086" y="64.2773" width="12.9549" height="2.29828" rx="1.14914" transform="rotate(25.817 98.3086 64.2773)" fill="#B3B3B3"/>
<path d="M103.719 83.8446C97.8213 83.8446 92.7839 79.7964 91.7424 74.2194C91.6317 73.6289 91.1029 73.2003 90.484 73.2003C89.8651 73.2003 89.3355 73.6289 89.2256 74.2194C88.1833 79.7964 83.1467 83.8446 77.2485 83.8446C74.0006 83.8446 70.9453 82.626 68.6454 80.4131C66.3454 78.2002 65.0781 75.2606 65.0781 72.1357C65.0781 65.6794 70.5374 60.4268 77.2477 60.4268H103.719C110.43 60.4268 115.889 65.6794 115.889 72.1357C115.889 75.2606 114.623 78.2002 112.323 80.4131C110.023 82.626 106.967 83.8446 103.719 83.8446Z" fill="#D4D4D4" fill-opacity="0.3"/>
<path d="M103.719 83.8446C97.8213 83.8446 92.7839 79.7964 91.7424 74.2194C91.6317 73.6289 91.1029 73.2003 90.484 73.2003C89.8651 73.2003 89.3355 73.6289 89.2256 74.2194C88.1833 79.7964 83.1467 83.8446 77.2485 83.8446C74.0006 83.8446 70.9453 82.626 68.6454 80.4131C66.3454 78.2002 65.0781 75.2606 65.0781 72.1357C65.0781 65.6794 70.5374 60.4268 77.2477 60.4268H103.719C110.43 60.4268 115.889 65.6794 115.889 72.1357C115.889 75.2606 114.623 78.2002 112.323 80.4131C110.023 82.626 106.967 83.8446 103.719 83.8446ZM90.4832 71.0711C92.1746 71.0711 93.6197 72.2372 93.9199 73.8433C94.7719 78.4046 98.8931 81.7155 103.719 81.7155C106.376 81.7155 108.875 80.7183 110.757 78.9078C112.64 77.0973 113.675 74.6921 113.675 72.1357C113.675 66.8533 109.209 62.5559 103.719 62.5559H77.2477C71.7575 62.5559 67.291 66.8533 67.291 72.1357C67.291 74.6921 68.3274 77.0966 70.2092 78.9078C72.0909 80.719 74.5907 81.7155 77.2477 81.7155C82.0734 81.7155 86.1946 78.4046 87.0466 73.8433C87.3468 72.2372 88.7918 71.0711 90.4832 71.0711Z" fill="#FFCC01"/>
<path d="M186.166 166.179H-0.84375V183.001H186.166V166.179Z" fill="#D38C02"/>
<path d="M22.8956 110.902H9.36328V112.406H22.8956V110.902Z" fill="#AFA2FB"/>
<path d="M32.4836 117.669H9.92969V120.3H32.4836V117.669Z" fill="#0A6FCB"/>
<path d="M32.4836 117.669H9.92969V115.06H21.4692L22.2515 109.49L29.1823 106.58L32.4836 117.669Z" fill="#AFA2FB"/>
<path d="M18.3642 82.1518L14.6914 81.0938L13.7181 84.4726L17.3909 85.5306L18.3642 82.1518Z" fill="#0A6FCB"/>
<path d="M19.5909 84.6614L12.332 82.5703L8.5573 95.6739L15.8162 97.765L19.5909 84.6614Z" fill="#AFA2FB"/>
<path d="M17.5387 94.9269C19.2514 94.9269 20.6398 93.5385 20.6398 91.8258C20.6398 90.113 19.2514 88.7246 17.5387 88.7246C15.8259 88.7246 14.4375 90.113 14.4375 91.8258C14.4375 93.5385 15.8259 94.9269 17.5387 94.9269Z" fill="#0A6FCB"/>
<path d="M22.0424 110.715V108.528C26.5876 108.528 30.2856 104.998 30.2856 100.66C30.2856 96.3212 26.5876 92.7919 22.0424 92.7919H15V90.6045H22.0424C24.8222 90.6045 27.4379 91.6453 29.4073 93.5348C31.3882 95.4357 32.4793 97.9657 32.4793 100.66C32.4793 103.354 31.3882 105.884 29.4073 107.785C27.4379 109.674 24.8222 110.715 22.0424 110.715Z" fill="#0A6FCB"/>
<path d="M169.059 120.3H165.488V166.159H169.059V120.3Z" fill="#C37A05"/>
<path d="M8.55541 120.3H4.98438V166.159H8.55541V120.3Z" fill="#C37A05"/>
<path d="M162.853 103.651V97.4917L163.663 95.6787H156.434L157.041 97.4917V103.651C154.385 104.792 152.523 107.452 152.523 110.55C152.523 114.689 155.847 118.045 159.947 118.045C164.048 118.045 167.371 114.689 167.371 110.55C167.371 107.452 165.509 104.793 162.853 103.651H162.853Z" fill="#E2F4FD"/>
<path d="M159.856 86.0934L166.434 77.2598H153.277L159.856 86.0934Z" fill="#E2F4FD"/>
<path d="M163.235 81.3945H156.281L158.833 84.8523V88.5366L160.684 86.8129V84.8523L163.235 81.3945Z" fill="#8CEB4D"/>
<path d="M174.137 120.3H-0.84375V127.254H174.137V120.3Z" fill="#FFC24C"/>
<path d="M167.371 110.526C167.371 114.678 164.048 118.044 159.947 118.044C155.847 118.044 152.523 114.678 152.523 110.526H167.371H167.371Z" fill="#8CEB4D"/>
<path d="M170.375 117.856H147.445V120.112H170.375V117.856Z" fill="#5FBCFF"/>
<path d="M147.445 79.3277V119.549H148.573L148.573 79.3277H147.445Z" fill="#5FBCFF"/>
<path d="M170.001 84.2139H143.312V85.3416H170.001V84.2139Z" fill="#5FBCFF"/>
<path d="M148.009 87.0333C149.151 87.0333 150.076 86.1077 150.076 84.9659C150.076 83.8241 149.151 82.8984 148.009 82.8984C146.867 82.8984 145.941 83.8241 145.941 84.9659C145.941 86.1077 146.867 87.0333 148.009 87.0333Z" fill="#0A6FCB"/>
<path d="M161.006 90.6981L159.953 88.9297V88.9121L159.948 88.9209L159.943 88.9134V88.9279L158.891 90.6963C158.672 91.0644 158.672 91.5183 158.891 91.8864C159.108 92.2518 159.509 92.4779 159.943 92.4814V92.4831C160.382 92.4831 160.787 92.2562 161.006 91.8881C161.225 91.52 161.225 91.0662 161.006 90.6981H161.006Z" fill="#8CEB4D"/>
<path d="M155.249 111.842C156.028 111.842 156.659 111.169 156.659 110.339C156.659 109.508 156.028 108.835 155.249 108.835C154.471 108.835 153.84 109.508 153.84 110.339C153.84 111.169 154.471 111.842 155.249 111.842Z" fill="#9CD9F8"/>
<path d="M157.506 108.647C157.973 108.647 158.352 108.226 158.352 107.707C158.352 107.188 157.973 106.768 157.506 106.768C157.039 106.768 156.66 107.188 156.66 107.707C156.66 108.226 157.039 108.647 157.506 108.647Z" fill="#9CD9F8"/>
<path d="M100.225 122.859L96.3647 116.239V111.967L96.8026 110.433H91.9917L92.4296 111.967V116.239L88.5694 122.859C88.0391 123.768 88.7021 124.905 89.7623 124.905H99.032C100.093 124.905 100.755 123.768 100.225 122.859Z" fill="#E2F4FD"/>
<path fill-rule="evenodd" clip-rule="evenodd" d="M95.5708 114.659H93.207V116.587H93.2297L89.542 122.548C89.1007 123.261 89.6525 124.153 90.5348 124.153H98.2494C99.1321 124.153 99.6835 123.261 99.2421 122.548L95.5545 116.587H95.5708V114.659Z" fill="#F45A7F"/>
<path d="M99.5499 165.374C101.151 161.503 105.587 159.663 109.457 161.265" stroke="#2D2D2D" stroke-width="2.07467" stroke-linecap="round"/>
<path d="M94.9524 160.959C97.1339 160.848 98.9922 162.526 99.1032 164.708" stroke="#2D2D2D" stroke-width="1.67569" stroke-linecap="round"/>
<path d="M86.0831 108.296L75.0242 108.875C74.018 108.928 73.4561 110.055 74.0127 110.904L78.879 118.326C79.4358 119.175 80.6932 119.109 81.1429 118.207L86.0831 108.296Z" fill="#E2F4FD"/>
<path d="M88.9783 108.766L86.9062 105.605L80.5818 109.752L82.6538 112.912L88.9783 108.766Z" fill="#E2F4FD"/>
<path d="M54.9141 121.436C55.7398 113.647 62.7235 108.002 70.5126 108.827C78.3017 109.653 83.9468 116.637 83.1214 124.426L54.9144 121.436L54.9141 121.436Z" fill="#231F20"/>
<g opacity="0.4">
<path d="M90.6484 107.8C92.3592 107.8 93.7461 106.413 93.7461 104.702C93.7461 102.991 92.3592 101.604 90.6484 101.604C88.9376 101.604 87.5508 102.991 87.5508 104.702C87.5508 106.413 88.9376 107.8 90.6484 107.8Z" fill="#FF3464" fill-opacity="0.5"/>
<path d="M91.3695 103.582C92.6588 103.582 93.7039 102.537 93.7039 101.247C93.7039 99.9582 92.6588 98.9131 91.3695 98.9131C90.0803 98.9131 89.0352 99.9582 89.0352 101.247C89.0352 102.537 90.0803 103.582 91.3695 103.582Z" fill="#FF3464" fill-opacity="0.5"/>
<path d="M94.2562 102.015C95.5455 102.015 96.5906 100.97 96.5906 99.681C96.5906 98.3918 95.5455 97.3467 94.2562 97.3467C92.967 97.3467 91.9219 98.3918 91.9219 99.681C91.9219 100.97 92.967 102.015 94.2562 102.015Z" fill="#FF3464" fill-opacity="0.5"/>
<path d="M98.1547 104.35C99.4439 104.35 100.489 103.305 100.489 102.016C100.489 100.727 99.4439 99.6816 98.1547 99.6816C96.8654 99.6816 95.8203 100.727 95.8203 102.016C95.8203 103.305 96.8654 104.35 98.1547 104.35Z" fill="#FF3464" fill-opacity="0.5"/>
<path d="M93.7461 107.8C95.4569 107.8 96.8438 106.413 96.8438 104.702C96.8438 102.991 95.4569 101.604 93.7461 101.604C92.0353 101.604 90.6484 102.991 90.6484 104.702C90.6484 106.413 92.0353 107.8 93.7461 107.8Z" fill="#FF3464" fill-opacity="0.5"/>
<path d="M94.3415 109.638C95.0427 109.247 95.2941 108.362 94.9032 107.66C94.5122 106.959 93.6269 106.708 92.9258 107.099C92.2246 107.49 91.9732 108.375 92.3641 109.076C92.7551 109.777 93.6404 110.029 94.3415 109.638Z" fill="#FF3464" fill-opacity="0.5"/>
<path d="M95.8203 104.252C97.5311 104.252 98.918 102.865 98.918 101.154C98.918 99.4435 97.5311 98.0566 95.8203 98.0566C94.1095 98.0566 92.7227 99.4435 92.7227 101.154C92.7227 102.865 94.1095 104.252 95.8203 104.252Z" fill="#FF3464" fill-opacity="0.5"/>
<path d="M97.3945 102.016C99.1053 102.016 100.492 100.629 100.492 98.918C100.492 97.2072 99.1053 95.8203 97.3945 95.8203C95.6837 95.8203 94.2969 97.2072 94.2969 98.918C94.2969 100.629 95.6837 102.016 97.3945 102.016Z" fill="#FF3464" fill-opacity="0.5"/>
<path d="M97.6094 107.8C99.3202 107.8 100.707 106.413 100.707 104.702C100.707 102.991 99.3202 101.604 97.6094 101.604C95.8986 101.604 94.5117 102.991 94.5117 104.702C94.5117 106.413 95.8986 107.8 97.6094 107.8Z" fill="#FF3464" fill-opacity="0.5"/>
<path d="M96.3884 109.131C97.0895 108.74 97.341 107.855 96.95 107.154C96.5591 106.452 95.6738 106.201 94.9726 106.592C94.2715 106.983 94.0201 107.868 94.411 108.569C94.802 109.27 95.6873 109.522 96.3884 109.131Z" fill="#FF3464" fill-opacity="0.5"/>
<path d="M95.9704 110.546C96.6716 110.155 96.923 109.27 96.5321 108.569C96.1411 107.867 95.2558 107.616 94.5547 108.007C93.8535 108.398 93.6021 109.283 93.993 109.984C94.384 110.685 95.2693 110.937 95.9704 110.546Z" fill="#FF3464" fill-opacity="0.5"/>
<path d="M95.322 111.359C96.0231 110.969 96.2746 110.083 95.8836 109.382C95.4927 108.681 94.6074 108.429 93.9062 108.82C93.2051 109.211 92.9536 110.097 93.3446 110.798C93.7356 111.499 94.6209 111.75 95.322 111.359Z" fill="#FF3464" fill-opacity="0.5"/>
<path d="M99.6875 104.252C101.398 104.252 102.785 102.865 102.785 101.154C102.785 99.4435 101.398 98.0566 99.6875 98.0566C97.9767 98.0566 96.5898 99.4435 96.5898 101.154C96.5898 102.865 97.9767 104.252 99.6875 104.252Z" fill="#FF3464" fill-opacity="0.5"/>
</g>
<path d="M102.925 110.909L100.757 108.535L101.522 107.333L101.124 106.582L107.783 105.75L103.244 107.931L111.029 114.276L102.613 108.921L102.925 110.909Z" fill="#D5B150"/>
<path d="M83.524 103.299L86.7234 102.987L86.9601 101.582L87.7583 101.291L83.3687 96.2147L85.2811 100.874L75.2504 100.375L85.0861 102.032L83.524 103.299Z" fill="#D5B150"/>
<path d="M9.068 20H6.332V7.076H9.068V20ZM13.6369 20H11.1349V10.388H13.4389V11.756C14.1409 10.784 15.0409 10.208 16.3189 10.208C17.6329 10.208 18.6409 10.82 19.1269 11.918C19.8829 10.856 20.8549 10.208 22.2949 10.208C24.2389 10.208 25.5529 11.486 25.5529 13.79V20H23.0689V14.582C23.0689 13.232 22.4929 12.422 21.3949 12.422C20.4049 12.422 19.5949 13.196 19.5949 14.636V20H17.1109V14.582C17.1109 13.232 16.5349 12.422 15.4369 12.422C14.4289 12.422 13.6369 13.196 13.6369 14.636V20ZM36.9275 15.194C36.9275 18.038 35.2535 20.18 32.6615 20.18C31.5275 20.18 30.5555 19.694 29.8355 18.758V23.474H27.3335V10.388H29.6375V11.792C30.3755 10.766 31.4375 10.208 32.6615 10.208C35.2535 10.208 36.9275 12.368 36.9275 15.194ZM34.3535 15.194C34.3535 13.394 33.3275 12.422 32.1035 12.422C30.8795 12.422 29.8535 13.376 29.8535 15.194C29.8535 17.012 30.8795 17.948 32.1035 17.948C33.3275 17.948 34.3535 17.03 34.3535 15.194ZM40.6908 20H38.1708V7.076H40.6908V20ZM48.2984 20V18.812C47.6684 19.712 46.7144 20.18 45.4004 20.18C43.4024 20.18 42.0704 19.01 42.0704 17.21C42.0704 15.338 43.5824 14.33 46.3904 14.33C46.9304 14.33 47.3984 14.366 47.9924 14.438V13.862C47.9924 12.782 47.3804 12.152 46.3364 12.152C45.2564 12.152 44.6084 12.782 44.5184 13.862H42.2684C42.4124 11.648 44.0144 10.208 46.3364 10.208C48.8564 10.208 50.3324 11.594 50.3324 13.952V20H48.2984ZM44.4284 17.138C44.4284 17.948 45.0044 18.452 45.9404 18.452C47.2184 18.452 47.9924 17.75 47.9924 16.634V15.95C47.3984 15.86 46.9844 15.824 46.5524 15.824C45.1304 15.824 44.4284 16.274 44.4284 17.138ZM57.9785 15.95V10.388H60.4625V20H58.1765V18.74C57.6545 19.586 56.5925 20.18 55.3685 20.18C53.4425 20.18 52.0385 19.01 52.0385 16.508V10.388H54.5405V16.022C54.5405 17.372 55.2065 17.966 56.2145 17.966C57.1145 17.966 57.9785 17.246 57.9785 15.95ZM70.4685 16.922C70.4685 18.938 68.9385 20.18 66.2025 20.18C63.4665 20.18 61.9365 18.866 61.7385 16.724H64.1325C64.1505 17.714 64.9965 18.344 66.2385 18.344C67.2105 18.344 67.9485 18.038 67.9485 17.354C67.9485 16.742 67.5525 16.49 66.6345 16.31L64.9065 15.986C63.1785 15.68 62.1345 14.726 62.1345 13.232C62.1345 11.45 63.6645 10.208 66.0585 10.208C68.4705 10.208 70.1265 11.486 70.3065 13.556H67.9125C67.8225 12.62 67.1205 12.044 66.0585 12.044C65.1405 12.044 64.5285 12.386 64.5285 12.998C64.5285 13.574 64.9245 13.808 65.7885 13.97L67.6425 14.312C69.5145 14.672 70.4685 15.536 70.4685 16.922ZM74.7147 8.156C74.7147 9.002 74.0307 9.632 73.0407 9.632C72.0687 9.632 71.3847 9.002 71.3847 8.156C71.3847 7.274 72.0687 6.644 73.0407 6.644C74.0307 6.644 74.7147 7.274 74.7147 8.156ZM74.3187 20H71.8167V10.388H74.3187V20ZM85.7792 15.194C85.7792 18.002 84.1052 20.18 81.5132 20.18C80.2712 20.18 79.2272 19.622 78.4892 18.614V20H76.1852V7.076H78.6872V11.63C79.3892 10.694 80.3612 10.208 81.5132 10.208C84.1052 10.208 85.7792 12.35 85.7792 15.194ZM83.2052 15.194C83.2052 13.358 82.1792 12.422 80.9552 12.422C79.7492 12.422 78.7052 13.34 78.7052 15.158C78.7052 16.976 79.7132 17.948 80.9552 17.948C82.1792 17.948 83.2052 16.994 83.2052 15.194ZM89.5425 20H87.0225V7.076H89.5425V20ZM95.6022 20.162C92.7222 20.162 90.7962 18.164 90.7962 15.158C90.7962 12.296 92.7942 10.208 95.5662 10.208C98.6082 10.208 100.624 12.674 100.174 15.806H93.3522C93.5142 17.372 94.2702 18.236 95.5482 18.236C96.6462 18.236 97.3842 17.696 97.6722 16.742H100.156C99.6162 18.92 97.9422 20.162 95.6022 20.162ZM95.5122 12.044C94.3422 12.044 93.6042 12.8 93.3882 14.222H97.5282C97.4562 12.89 96.7002 12.044 95.5122 12.044Z" fill="#231F20"/>
</g>
<defs>
<clipPath id="clip0_18_10825">
<rect width="174" height="183" rx="4" fill="white"/>
</clipPath>
</defs>
</svg>
