<svg width="728" height="581" viewBox="0 0 728 581" fill="none" xmlns="http://www.w3.org/2000/svg">
<path d="M611.318 318.634C636.098 309.528 663.567 322.235 672.673 347.017L627.804 363.504L611.318 318.634Z" fill="#231F20"/>
<path d="M627.803 363.514L672.671 347.028L703.414 430.699L658.546 447.185L627.803 363.514Z" fill="#231F20"/>
<path d="M480.139 384.823C504.268 381.807 528.607 388.499 547.801 403.429C566.996 418.358 579.474 440.3 582.49 464.429C585.506 488.559 578.813 512.897 563.884 532.092C548.955 551.286 527.012 563.764 502.883 566.78L480.139 384.823Z" fill="#242121"/>
<path d="M480.139 384.823C479.517 379.845 479.881 374.793 481.211 369.955C482.541 365.118 484.811 360.59 487.891 356.63C490.971 352.67 494.801 349.355 499.162 346.876C503.523 344.396 508.33 342.799 513.308 342.177L518.047 380.084L480.139 384.823Z" fill="#242121"/>
<path d="M536.052 524.134C536.675 529.112 536.31 534.164 534.98 539.002C533.65 543.839 531.38 548.367 528.3 552.327C525.22 556.287 521.39 559.602 517.029 562.081C512.668 564.561 507.861 566.158 502.883 566.78L498.145 528.873L536.052 524.134Z" fill="#242121"/>
<path d="M518.047 380.084L480.139 384.823L498.145 528.873L536.052 524.134L518.047 380.084Z" fill="#242121"/>
<path d="M631.38 501.657L635.158 547.979" stroke="black" stroke-width="2" stroke-linecap="round"/>
<path d="M581.982 514.085L600.579 556.678" stroke="black" stroke-width="2" stroke-linecap="round"/>
<path d="M573.41 563.515L612.928 553.57" stroke="black" stroke-width="2" stroke-linecap="round"/>
<path d="M662.325 541.141L622.808 551.085" stroke="black" stroke-width="2" stroke-linecap="round"/>
<path d="M626.119 292.884L487.808 327.689L522.613 466.001L660.925 431.196L626.119 292.884Z" fill="#2D2D2D"/>
<path d="M626.119 292.884L487.808 327.689L496.509 362.267L634.821 327.462L626.119 292.884Z" fill="#2D2D2D"/>
<circle cx="71.3119" cy="71.3119" r="71.3119" transform="matrix(-0.969766 0.244036 0.244036 0.969766 643.523 362.041)" fill="#2D2D2D"/>
<path d="M487.808 327.688C497.419 365.882 536.173 389.053 574.366 379.441C612.56 369.83 635.731 331.076 626.12 292.883C616.508 254.689 577.755 231.518 539.561 241.13C501.367 250.741 478.197 289.494 487.808 327.688Z" fill="#2D2D2D"/>
<path d="M626.12 292.884L487.809 327.689L503.259 389.087C504.337 393.372 508.685 395.971 512.969 394.893L635.765 363.992C640.05 362.914 642.649 358.567 641.571 354.282L626.12 292.884Z" fill="#2D2D2D"/>
<path d="M525.465 315.581C537.059 312.664 544.093 300.899 541.176 289.305C538.258 277.71 526.494 270.676 514.899 273.594C503.304 276.512 496.271 288.276 499.188 299.871C502.106 311.465 513.87 318.499 525.465 315.581Z" fill="white"/>
<path d="M524.222 310.641C530.36 309.096 534.084 302.868 532.539 296.73C530.995 290.591 524.766 286.867 518.628 288.412C512.49 289.957 508.766 296.185 510.311 302.323C511.855 308.462 518.083 312.185 524.222 310.641Z" fill="#231F20"/>
<path d="M512.471 300.469C516.563 299.439 519.045 295.287 518.016 291.195C516.986 287.103 512.834 284.62 508.742 285.65C504.649 286.68 502.167 290.832 503.197 294.924C504.226 299.016 508.379 301.499 512.471 300.469Z" fill="white"/>
<path d="M527.363 343.994C538.958 341.076 545.992 329.311 543.074 317.717C540.156 306.122 528.392 299.088 516.797 302.006C505.203 304.924 498.169 316.688 501.087 328.283C504.004 339.877 515.769 346.911 527.363 343.994Z" fill="#2D2D2D"/>
<path d="M587.214 300.045C598.808 297.128 605.842 285.363 602.925 273.769C600.007 262.174 588.243 255.14 576.648 258.058C565.054 260.976 558.02 272.74 560.937 284.335C563.855 295.929 575.619 302.963 587.214 300.045Z" fill="white"/>
<path d="M585.971 295.105C592.109 293.56 595.833 287.332 594.288 281.193C592.744 275.055 586.515 271.331 580.377 272.876C574.239 274.421 570.515 280.649 572.06 286.787C573.604 292.925 579.832 296.649 585.971 295.105Z" fill="#231F20"/>
<path d="M574.22 284.932C578.312 283.902 580.795 279.75 579.765 275.658C578.735 271.566 574.583 269.083 570.491 270.113C566.398 271.143 563.916 275.295 564.946 279.387C565.975 283.479 570.128 285.962 574.22 284.932Z" fill="white"/>
<path d="M598.99 325.971C610.585 323.053 617.619 311.289 614.701 299.694C611.783 288.1 600.019 281.066 588.424 283.984C576.83 286.901 569.796 298.666 572.714 310.26C575.631 321.855 587.396 328.889 598.99 325.971Z" fill="#2D2D2D"/>
<path d="M591.573 322.585C590.593 318.693 588.857 315.032 586.462 311.811C584.068 308.59 581.063 305.872 577.618 303.812C574.173 301.752 570.357 300.391 566.386 299.807C562.415 299.222 558.368 299.426 554.476 300.405L561.934 330.043L591.573 322.585Z" fill="#6E00FF"/>
<path d="M532.296 337.5C531.317 333.608 531.113 329.561 531.698 325.59C532.283 321.62 533.644 317.803 535.703 314.358C537.763 310.914 540.481 307.908 543.702 305.514C546.923 303.119 550.584 301.383 554.476 300.404L561.934 330.042L532.296 337.5Z" fill="#C7EAFB"/>
<path d="M532.297 337.501L561.935 330.043L574.366 379.44L532.297 337.501Z" fill="#C7EAFB"/>
<path d="M591.572 322.584L561.934 330.042L574.365 379.439L591.572 322.584Z" fill="#6E00FF"/>
<circle cx="596.988" cy="403.699" r="30.5622" transform="rotate(-30.191 596.988 403.699)" fill="#F1A3FE"/>
<path d="M576.977 430.073L603.393 414.704L635.412 469.739L576.977 430.073Z" fill="#E9C875"/>
<path d="M629.808 399.337L603.391 414.706L635.41 469.741L629.808 399.337Z" fill="#E9C875"/>
<circle cx="580.766" cy="375.808" r="12.7343" transform="rotate(-30.191 580.766 375.808)" fill="#E95050"/>
<circle cx="629.805" cy="399.326" r="10.1874" transform="rotate(-30.191 629.805 399.326)" fill="#F1A3FE"/>
<circle cx="612.195" cy="409.579" r="10.1874" transform="rotate(-30.191 612.195 409.579)" fill="#F1A3FE"/>
<circle cx="594.584" cy="419.821" r="10.1874" transform="rotate(-30.191 594.584 419.821)" fill="#F1A3FE"/>
<circle cx="576.971" cy="430.057" r="10.1874" transform="rotate(-30.191 576.971 430.057)" fill="#F1A3FE"/>
<path d="M703.423 430.731C694.948 407.667 669.379 395.839 646.314 404.314C623.25 412.789 611.423 438.357 619.897 461.422L703.422 430.732L703.423 430.731Z" fill="#231F20"/>
<path fill-rule="evenodd" clip-rule="evenodd" d="M6 0C2.68629 0 0 2.68629 0 6V175.947C0 179.261 2.68628 181.947 5.99999 181.947H495.249L519.213 230.953C520.61 233.809 524.908 232.815 524.908 229.635V147.627C524.908 147.235 524.833 146.861 524.697 146.518V6C524.697 2.68629 522.01 0 518.697 0H6Z" fill="#6E00FF"/>
<path d="M20.24 25.6V31H17.2V25.6L12.12 16.64H15.4L18.82 22.82L22.3 16.64H25.36L20.24 25.6ZM29.4834 31.2C26.3834 31.2 24.0634 28.76 24.0634 25.66C24.0634 22.54 26.3834 20.12 29.4834 20.12C32.5834 20.12 34.9034 22.54 34.9034 25.66C34.9034 28.76 32.5834 31.2 29.4834 31.2ZM29.4834 28.74C30.8634 28.74 32.0434 27.64 32.0434 25.66C32.0434 23.68 30.8634 22.6 29.4834 22.6C28.1034 22.6 26.9234 23.68 26.9234 25.66C26.9234 27.64 28.1034 28.74 29.4834 28.74ZM43.1775 26.5V20.32H45.9375V31H43.3975V29.6C42.8175 30.54 41.6375 31.2 40.2775 31.2C38.1375 31.2 36.5775 29.9 36.5775 27.12V20.32H39.3575V26.58C39.3575 28.08 40.0975 28.74 41.2175 28.74C42.2175 28.74 43.1775 27.94 43.1775 26.5ZM55.395 25.18V31H52.615V16.64H55.395V21.72C56.135 20.74 57.055 20.12 58.455 20.12C60.595 20.12 62.075 21.52 62.075 24.1V31H59.315V25.04C59.315 23.46 58.695 22.58 57.435 22.58C56.335 22.58 55.395 23.46 55.395 25.18ZM70.8305 31V29.68C70.1305 30.68 69.0705 31.2 67.6105 31.2C65.3905 31.2 63.9105 29.9 63.9105 27.9C63.9105 25.82 65.5905 24.7 68.7105 24.7C69.3105 24.7 69.8305 24.74 70.4905 24.82V24.18C70.4905 22.98 69.8105 22.28 68.6505 22.28C67.4505 22.28 66.7305 22.98 66.6305 24.18H64.1305C64.2905 21.72 66.0705 20.12 68.6505 20.12C71.4505 20.12 73.0905 21.66 73.0905 24.28V31H70.8305ZM66.5305 27.82C66.5305 28.72 67.1705 29.28 68.2105 29.28C69.6305 29.28 70.4905 28.5 70.4905 27.26V26.5C69.8305 26.4 69.3705 26.36 68.8905 26.36C67.3105 26.36 66.5305 26.86 66.5305 27.82ZM84.735 20.32L80.815 31H77.775L73.835 20.32H76.835L79.375 27.84L81.935 20.32H84.735ZM90.2237 31.18C87.0238 31.18 84.8838 28.96 84.8838 25.62C84.8838 22.44 87.1038 20.12 90.1838 20.12C93.5638 20.12 95.8038 22.86 95.3038 26.34H87.7238C87.9038 28.08 88.7438 29.04 90.1638 29.04C91.3838 29.04 92.2038 28.44 92.5238 27.38H95.2838C94.6838 29.8 92.8238 31.18 90.2237 31.18ZM90.1238 22.16C88.8238 22.16 88.0038 23 87.7638 24.58H92.3638C92.2838 23.1 91.4438 22.16 90.1238 22.16ZM105.845 31.2C102.765 31.2 100.645 28.92 100.645 25.66C100.645 22.46 102.845 20.12 105.845 20.12C108.625 20.12 110.685 22 111.025 24.88H108.105C107.965 23.46 107.105 22.58 105.845 22.58C104.405 22.58 103.485 23.76 103.485 25.66C103.485 27.58 104.385 28.74 105.845 28.74C107.125 28.74 107.945 27.9 108.105 26.44H111.025C110.705 29.38 108.705 31.2 105.845 31.2ZM115.59 25.18V31H112.81V16.64H115.59V21.72C116.33 20.74 117.25 20.12 118.65 20.12C120.79 20.12 122.27 21.52 122.27 24.1V31H119.51V25.04C119.51 23.46 118.89 22.58 117.63 22.58C116.53 22.58 115.59 23.46 115.59 25.18ZM129.386 31.2C126.286 31.2 123.966 28.76 123.966 25.66C123.966 22.54 126.286 20.12 129.386 20.12C132.486 20.12 134.806 22.54 134.806 25.66C134.806 28.76 132.486 31.2 129.386 31.2ZM129.386 28.74C130.766 28.74 131.946 27.64 131.946 25.66C131.946 23.68 130.766 22.6 129.386 22.6C128.006 22.6 126.826 23.68 126.826 25.66C126.826 27.64 128.006 28.74 129.386 28.74ZM145.6 27.58C145.6 29.82 143.9 31.2 140.86 31.2C137.82 31.2 136.12 29.74 135.9 27.36H138.56C138.58 28.46 139.52 29.16 140.9 29.16C141.98 29.16 142.8 28.82 142.8 28.06C142.8 27.38 142.36 27.1 141.34 26.9L139.42 26.54C137.5 26.2 136.34 25.14 136.34 23.48C136.34 21.5 138.04 20.12 140.7 20.12C143.38 20.12 145.22 21.54 145.42 23.84H142.76C142.66 22.8 141.88 22.16 140.7 22.16C139.68 22.16 139 22.54 139 23.22C139 23.86 139.44 24.12 140.4 24.3L142.46 24.68C144.54 25.08 145.6 26.04 145.6 27.58ZM152.138 31.18C148.938 31.18 146.798 28.96 146.798 25.62C146.798 22.44 149.018 20.12 152.098 20.12C155.478 20.12 157.718 22.86 157.218 26.34H149.638C149.818 28.08 150.658 29.04 152.078 29.04C153.298 29.04 154.118 28.44 154.438 27.38H157.198C156.598 29.8 154.738 31.18 152.138 31.18ZM152.038 22.16C150.738 22.16 149.918 23 149.678 24.58H154.278C154.198 23.1 153.358 22.16 152.038 22.16ZM161.86 25.18V31H159.08V20.32H161.64V21.84C162.42 20.78 163.52 20.12 164.92 20.12C167.06 20.12 168.54 21.52 168.54 24.1V31H165.78V25.04C165.78 23.46 165.16 22.58 163.9 22.58C162.8 22.58 161.86 23.46 161.86 25.18ZM174.515 19.94C174.515 17.84 176.455 16.28 178.675 16.58V17.98C177.495 17.82 176.595 18.28 176.355 19.2C176.515 19.16 176.675 19.14 176.815 19.14C177.695 19.14 178.335 19.8 178.335 20.62C178.335 21.56 177.615 22.22 176.535 22.22C175.315 22.22 174.515 21.36 174.515 19.94ZM179.355 19.94C179.355 17.84 181.295 16.28 183.515 16.58V17.98C182.335 17.82 181.435 18.28 181.195 19.2C181.355 19.16 181.515 19.14 181.655 19.14C182.535 19.14 183.175 19.8 183.175 20.62C183.175 21.56 182.475 22.22 181.375 22.22C180.155 22.22 179.355 21.36 179.355 19.94ZM190.889 26.32H188.629V31H185.589V16.64H190.889C194.389 16.64 196.569 18.3 196.569 21.42C196.569 24.54 194.389 26.32 190.889 26.32ZM190.869 19.2H188.629V23.76H190.869C192.589 23.76 193.549 22.86 193.549 21.44C193.549 20.02 192.589 19.2 190.869 19.2ZM201.196 31H198.396V16.64H201.196V31ZM210.049 31V29.68C209.349 30.68 208.289 31.2 206.829 31.2C204.609 31.2 203.129 29.9 203.129 27.9C203.129 25.82 204.809 24.7 207.929 24.7C208.529 24.7 209.049 24.74 209.709 24.82V24.18C209.709 22.98 209.029 22.28 207.869 22.28C206.669 22.28 205.949 22.98 205.849 24.18H203.349C203.509 21.72 205.289 20.12 207.869 20.12C210.669 20.12 212.309 21.66 212.309 24.28V31H210.049ZM205.749 27.82C205.749 28.72 206.389 29.28 207.429 29.28C208.849 29.28 209.709 28.5 209.709 27.26V26.5C209.049 26.4 208.589 26.36 208.109 26.36C206.529 26.36 205.749 26.86 205.749 27.82ZM221.205 26.5V20.32H223.965V31H221.425V29.6C220.845 30.54 219.665 31.2 218.305 31.2C216.165 31.2 214.605 29.9 214.605 27.12V20.32H217.385V26.58C217.385 28.08 218.125 28.74 219.245 28.74C220.245 28.74 221.205 27.94 221.205 26.5ZM235.483 27.58C235.483 29.82 233.783 31.2 230.743 31.2C227.703 31.2 226.003 29.74 225.783 27.36H228.443C228.463 28.46 229.403 29.16 230.783 29.16C231.863 29.16 232.683 28.82 232.683 28.06C232.683 27.38 232.243 27.1 231.223 26.9L229.303 26.54C227.383 26.2 226.223 25.14 226.223 23.48C226.223 21.5 227.923 20.12 230.583 20.12C233.263 20.12 235.103 21.54 235.303 23.84H232.643C232.543 22.8 231.763 22.16 230.583 22.16C229.563 22.16 228.883 22.54 228.883 23.22C228.883 23.86 229.323 24.12 230.283 24.3L232.343 24.68C234.423 25.08 235.483 26.04 235.483 27.58ZM240.601 17.84C240.601 18.78 239.841 19.48 238.741 19.48C237.661 19.48 236.901 18.78 236.901 17.84C236.901 16.86 237.661 16.16 238.741 16.16C239.841 16.16 240.601 16.86 240.601 17.84ZM240.161 31H237.381V20.32H240.161V31ZM253.295 25.66C253.295 28.78 251.435 31.2 248.555 31.2C247.175 31.2 246.015 30.58 245.195 29.46V31H242.635V16.64H245.415V21.7C246.195 20.66 247.275 20.12 248.555 20.12C251.435 20.12 253.295 22.5 253.295 25.66ZM250.435 25.66C250.435 23.62 249.295 22.58 247.935 22.58C246.595 22.58 245.435 23.6 245.435 25.62C245.435 27.64 246.555 28.72 247.935 28.72C249.295 28.72 250.435 27.66 250.435 25.66ZM257.876 31H255.076V16.64H257.876V31ZM265.009 31.18C261.809 31.18 259.669 28.96 259.669 25.62C259.669 22.44 261.889 20.12 264.969 20.12C268.349 20.12 270.589 22.86 270.089 26.34H262.509C262.689 28.08 263.529 29.04 264.949 29.04C266.169 29.04 266.989 28.44 267.309 27.38H270.069C269.469 29.8 267.609 31.18 265.009 31.18ZM264.909 22.16C263.609 22.16 262.789 23 262.549 24.58H267.149C267.069 23.1 266.229 22.16 264.909 22.16ZM275.08 18.78C275.08 20.9 273.12 22.44 270.9 22.14V20.76C272.1 20.9 272.98 20.46 273.24 19.52C273.08 19.58 272.92 19.6 272.78 19.6C271.9 19.6 271.24 18.94 271.24 18.1C271.24 17.16 271.96 16.5 273.06 16.5C274.28 16.5 275.08 17.36 275.08 18.78ZM279.92 18.78C279.92 20.9 277.98 22.44 275.74 22.14V20.76C276.94 20.9 277.82 20.46 278.08 19.52C277.92 19.58 277.76 19.6 277.62 19.6C276.74 19.6 276.08 18.94 276.08 18.1C276.08 17.16 276.8 16.5 277.9 16.5C279.12 16.5 279.92 17.36 279.92 18.78ZM294.994 27.58C294.994 29.82 293.294 31.2 290.254 31.2C287.214 31.2 285.514 29.74 285.294 27.36H287.954C287.974 28.46 288.914 29.16 290.294 29.16C291.374 29.16 292.194 28.82 292.194 28.06C292.194 27.38 291.754 27.1 290.734 26.9L288.814 26.54C286.894 26.2 285.734 25.14 285.734 23.48C285.734 21.5 287.434 20.12 290.094 20.12C292.774 20.12 294.614 21.54 294.814 23.84H292.154C292.054 22.8 291.274 22.16 290.094 22.16C289.074 22.16 288.394 22.54 288.394 23.22C288.394 23.86 288.834 24.12 289.794 24.3L291.854 24.68C293.934 25.08 294.994 26.04 294.994 27.58ZM301.612 31.2C298.512 31.2 296.192 28.76 296.192 25.66C296.192 22.54 298.512 20.12 301.612 20.12C304.712 20.12 307.032 22.54 307.032 25.66C307.032 28.76 304.712 31.2 301.612 31.2ZM301.612 28.74C302.992 28.74 304.172 27.64 304.172 25.66C304.172 23.68 302.992 22.6 301.612 22.6C300.232 22.6 299.052 23.68 299.052 25.66C299.052 27.64 300.232 28.74 301.612 28.74ZM29.108 56.092C29.108 59.816 26.364 62 21.94 62H14.072V41.896H21.632C25.86 41.896 28.464 43.8 28.464 47.244C28.464 49.092 27.428 50.576 25.636 51.5C27.876 52.284 29.108 53.88 29.108 56.092ZM21.296 45.256H17.936V49.932H21.296C23.368 49.932 24.432 49.036 24.432 47.58C24.432 46.152 23.368 45.256 21.296 45.256ZM21.604 53.32H17.936V58.64H21.604C23.9 58.64 25.104 57.632 25.104 55.924C25.104 54.328 23.9 53.32 21.604 53.32ZM35.7569 54.748V62H31.8649V47.048H35.4489V49.932C36.5409 48.028 38.8649 46.88 41.2729 46.88V50.912C37.9689 50.66 35.7569 51.444 35.7569 54.748ZM52.1986 62V60.152C51.2186 61.552 49.7346 62.28 47.6906 62.28C44.5826 62.28 42.5106 60.46 42.5106 57.66C42.5106 54.748 44.8626 53.18 49.2306 53.18C50.0706 53.18 50.7986 53.236 51.7226 53.348V52.452C51.7226 50.772 50.7706 49.792 49.1466 49.792C47.4666 49.792 46.4586 50.772 46.3186 52.452H42.8186C43.0426 49.008 45.5346 46.768 49.1466 46.768C53.0666 46.768 55.3626 48.924 55.3626 52.592V62H52.1986ZM46.1786 57.548C46.1786 58.808 47.0746 59.592 48.5306 59.592C50.5186 59.592 51.7226 58.5 51.7226 56.764V55.7C50.7986 55.56 50.1546 55.504 49.4826 55.504C47.2706 55.504 46.1786 56.204 46.1786 57.548ZM63.2245 43.576C63.2245 44.892 62.1605 45.872 60.6205 45.872C59.1085 45.872 58.0445 44.892 58.0445 43.576C58.0445 42.204 59.1085 41.224 60.6205 41.224C62.1605 41.224 63.2245 42.204 63.2245 43.576ZM62.6085 62H58.7165V47.048H62.6085V62ZM69.9639 53.852V62H66.0719V47.048H69.6559V49.176C70.7479 47.692 72.2879 46.768 74.2479 46.768C77.2439 46.768 79.3159 48.728 79.3159 52.34V62H75.4519V53.656C75.4519 51.444 74.5839 50.212 72.8199 50.212C71.2799 50.212 69.9639 51.444 69.9639 53.852ZM95.2976 57.212C95.2976 60.348 92.9176 62.28 88.6616 62.28C84.4056 62.28 82.0256 60.236 81.7176 56.904H85.4416C85.4696 58.444 86.7856 59.424 88.7176 59.424C90.2296 59.424 91.3776 58.948 91.3776 57.884C91.3776 56.932 90.7616 56.54 89.3336 56.26L86.6456 55.756C83.9576 55.28 82.3336 53.796 82.3336 51.472C82.3336 48.7 84.7136 46.768 88.4376 46.768C92.1896 46.768 94.7656 48.756 95.0456 51.976H91.3216C91.1816 50.52 90.0896 49.624 88.4376 49.624C87.0096 49.624 86.0576 50.156 86.0576 51.108C86.0576 52.004 86.6736 52.368 88.0176 52.62L90.9016 53.152C93.8136 53.712 95.2976 55.056 95.2976 57.212ZM106.95 58.22V61.608C105.998 62.084 105.102 62.28 103.954 62.28C100.874 62.28 98.942 60.516 98.942 57.156V50.38H95.918V47.048H98.942V42.624H102.806V47.048H107.09V50.38H102.806V56.26C102.806 57.996 103.59 58.696 104.99 58.696C105.718 58.696 106.39 58.528 106.95 58.22ZM115.746 62.28C111.406 62.28 108.158 58.864 108.158 54.524C108.158 50.156 111.406 46.768 115.746 46.768C120.086 46.768 123.334 50.156 123.334 54.524C123.334 58.864 120.086 62.28 115.746 62.28ZM115.746 58.836C117.678 58.836 119.33 57.296 119.33 54.524C119.33 51.752 117.678 50.24 115.746 50.24C113.814 50.24 112.162 51.752 112.162 54.524C112.162 57.296 113.814 58.836 115.746 58.836ZM129.71 54.748V62H125.818V47.048H129.402V49.932C130.494 48.028 132.818 46.88 135.226 46.88V50.912C131.922 50.66 129.71 51.444 129.71 54.748ZM141.14 62H137.248V47.048H140.832V49.176C141.924 47.664 143.324 46.768 145.312 46.768C147.356 46.768 148.924 47.72 149.68 49.428C150.856 47.776 152.368 46.768 154.608 46.768C157.632 46.768 159.676 48.756 159.676 52.34V62H155.812V53.572C155.812 51.472 154.916 50.212 153.208 50.212C151.668 50.212 150.408 51.416 150.408 53.656V62H146.544V53.572C146.544 51.472 145.648 50.212 143.94 50.212C142.372 50.212 141.14 51.416 141.14 53.656V62ZM172.749 62H168.857V47.048H172.441V49.176C173.533 47.664 174.933 46.768 176.921 46.768C178.965 46.768 180.533 47.72 181.289 49.428C182.465 47.776 183.977 46.768 186.217 46.768C189.241 46.768 191.285 48.756 191.285 52.34V62H187.421V53.572C187.421 51.472 186.525 50.212 184.817 50.212C183.277 50.212 182.017 51.416 182.017 53.656V62H178.153V53.572C178.153 51.472 177.257 50.212 175.549 50.212C173.981 50.212 172.749 51.416 172.749 53.656V62ZM199.123 43.576C199.123 44.892 198.059 45.872 196.519 45.872C195.007 45.872 193.943 44.892 193.943 43.576C193.943 42.204 195.007 41.224 196.519 41.224C198.059 41.224 199.123 42.204 199.123 43.576ZM198.507 62H194.615V47.048H198.507V62ZM214.598 57.212C214.598 60.348 212.218 62.28 207.962 62.28C203.706 62.28 201.326 60.236 201.018 56.904H204.742C204.77 58.444 206.086 59.424 208.018 59.424C209.53 59.424 210.678 58.948 210.678 57.884C210.678 56.932 210.062 56.54 208.634 56.26L205.946 55.756C203.258 55.28 201.634 53.796 201.634 51.472C201.634 48.7 204.014 46.768 207.738 46.768C211.49 46.768 214.066 48.756 214.346 51.976H210.622C210.482 50.52 209.39 49.624 207.738 49.624C206.31 49.624 205.358 50.156 205.358 51.108C205.358 52.004 205.974 52.368 207.318 52.62L210.202 53.152C213.114 53.712 214.598 55.056 214.598 57.212ZM229.884 57.212C229.884 60.348 227.504 62.28 223.248 62.28C218.992 62.28 216.612 60.236 216.304 56.904H220.028C220.056 58.444 221.372 59.424 223.304 59.424C224.816 59.424 225.964 58.948 225.964 57.884C225.964 56.932 225.348 56.54 223.92 56.26L221.232 55.756C218.544 55.28 216.92 53.796 216.92 51.472C216.92 48.7 219.3 46.768 223.024 46.768C226.776 46.768 229.352 48.756 229.632 51.976H225.908C225.768 50.52 224.676 49.624 223.024 49.624C221.596 49.624 220.644 50.156 220.644 51.108C220.644 52.004 221.26 52.368 222.604 52.62L225.488 53.152C228.4 53.712 229.884 55.056 229.884 57.212ZM237.049 43.576C237.049 44.892 235.985 45.872 234.445 45.872C232.933 45.872 231.869 44.892 231.869 43.576C231.869 42.204 232.933 41.224 234.445 41.224C235.985 41.224 237.049 42.204 237.049 43.576ZM236.433 62H232.541V47.048H236.433V62ZM243.788 53.852V62H239.896V47.048H243.48V49.176C244.572 47.692 246.112 46.768 248.072 46.768C251.068 46.768 253.14 48.728 253.14 52.34V62H249.276V53.656C249.276 51.444 248.408 50.212 246.644 50.212C245.104 50.212 243.788 51.444 243.788 53.852ZM262.85 67.684C258.818 67.684 256.13 65.5 255.962 62.056H259.714C259.882 63.764 260.974 64.66 262.822 64.66C264.978 64.66 266.098 63.512 266.098 61.356V59.172C265.286 60.6 263.746 61.44 261.926 61.44C258.258 61.44 255.514 58.332 255.514 54.104C255.514 49.764 258.09 46.768 261.786 46.768C263.802 46.768 265.314 47.552 266.406 49.092V47.048H269.962V61.3C269.962 65.276 267.274 67.684 262.85 67.684ZM259.406 54.104C259.406 56.54 260.666 58.08 262.682 58.08C264.726 58.08 266.07 56.484 266.07 54.132C266.07 51.696 264.726 50.128 262.682 50.128C260.694 50.128 259.406 51.668 259.406 54.104ZM292.794 47.048L287.306 62H283.05L277.534 47.048H281.734L285.29 57.576L288.874 47.048H292.794ZM303.023 62V60.152C302.043 61.552 300.559 62.28 298.515 62.28C295.407 62.28 293.335 60.46 293.335 57.66C293.335 54.748 295.687 53.18 300.055 53.18C300.895 53.18 301.623 53.236 302.547 53.348V52.452C302.547 50.772 301.595 49.792 299.971 49.792C298.291 49.792 297.283 50.772 297.143 52.452H293.643C293.867 49.008 296.359 46.768 299.971 46.768C303.891 46.768 306.187 48.924 306.187 52.592V62H303.023ZM297.003 57.548C297.003 58.808 297.899 59.592 299.355 59.592C301.343 59.592 302.547 58.5 302.547 56.764V55.7C301.623 55.56 300.979 55.504 300.307 55.504C298.095 55.504 297.003 56.204 297.003 57.548ZM313.433 54.748V62H309.541V47.048H313.125V49.932C314.217 48.028 316.541 46.88 318.949 46.88V50.912C315.645 50.66 313.433 51.444 313.433 54.748ZM325.478 43.576C325.478 44.892 324.414 45.872 322.874 45.872C321.362 45.872 320.298 44.892 320.298 43.576C320.298 42.204 321.362 41.224 322.874 41.224C324.414 41.224 325.478 42.204 325.478 43.576ZM324.862 62H320.97V47.048H324.862V62ZM337.23 62V60.152C336.25 61.552 334.766 62.28 332.722 62.28C329.614 62.28 327.542 60.46 327.542 57.66C327.542 54.748 329.894 53.18 334.262 53.18C335.102 53.18 335.83 53.236 336.754 53.348V52.452C336.754 50.772 335.802 49.792 334.178 49.792C332.498 49.792 331.49 50.772 331.35 52.452H327.85C328.074 49.008 330.566 46.768 334.178 46.768C338.098 46.768 340.394 48.924 340.394 52.592V62H337.23ZM331.21 57.548C331.21 58.808 332.106 59.592 333.562 59.592C335.55 59.592 336.754 58.5 336.754 56.764V55.7C335.83 55.56 335.186 55.504 334.514 55.504C332.302 55.504 331.21 56.204 331.21 57.548ZM358.672 54.524C358.672 58.892 356.068 62.28 352.036 62.28C350.104 62.28 348.48 61.412 347.332 59.844V62H343.748V41.896H347.64V48.98C348.732 47.524 350.244 46.768 352.036 46.768C356.068 46.768 358.672 50.1 358.672 54.524ZM354.668 54.524C354.668 51.668 353.072 50.212 351.168 50.212C349.292 50.212 347.668 51.64 347.668 54.468C347.668 57.296 349.236 58.808 351.168 58.808C353.072 58.808 354.668 57.324 354.668 54.524ZM365.086 62H361.166V41.896H365.086V62ZM375.072 62.252C370.592 62.252 367.596 59.144 367.596 54.468C367.596 50.016 370.704 46.768 375.016 46.768C379.748 46.768 382.884 50.604 382.184 55.476H371.572C371.824 57.912 373 59.256 374.988 59.256C376.696 59.256 377.844 58.416 378.292 56.932H382.156C381.316 60.32 378.712 62.252 375.072 62.252ZM374.932 49.624C373.112 49.624 371.964 50.8 371.628 53.012H378.068C377.956 50.94 376.78 49.624 374.932 49.624ZM397.419 57.212C397.419 60.348 395.039 62.28 390.783 62.28C386.527 62.28 384.147 60.236 383.839 56.904H387.563C387.591 58.444 388.907 59.424 390.839 59.424C392.351 59.424 393.499 58.948 393.499 57.884C393.499 56.932 392.883 56.54 391.455 56.26L388.767 55.756C386.079 55.28 384.455 53.796 384.455 51.472C384.455 48.7 386.835 46.768 390.559 46.768C394.311 46.768 396.887 48.756 397.167 51.976H393.443C393.303 50.52 392.211 49.624 390.559 49.624C389.131 49.624 388.179 50.156 388.179 51.108C388.179 52.004 388.795 52.368 390.139 52.62L393.023 53.152C395.935 53.712 397.419 55.056 397.419 57.212ZM403.8 55.952H400.86L399.88 41.896H404.808L403.8 55.952ZM405.032 59.592C405.032 61.076 403.884 62.14 402.344 62.14C400.804 62.14 399.656 61.076 399.656 59.592C399.656 58.108 400.776 57.016 402.344 57.016C403.912 57.016 405.032 58.108 405.032 59.592ZM21.212 124H14.072V103.896H21.212C27.596 103.896 31.46 107.984 31.46 113.836C31.46 119.688 27.456 124 21.212 124ZM18.328 107.564V120.332H20.988C24.992 120.332 27.092 118.008 27.092 113.836C27.092 109.832 24.992 107.564 20.988 107.564H18.328ZM37.9718 116.748V124H34.0798V109.048H37.6638V111.932C38.7558 110.028 41.0798 108.88 43.4878 108.88V112.912C40.1838 112.66 37.9718 113.444 37.9718 116.748ZM54.4134 124V122.152C53.4334 123.552 51.9494 124.28 49.9054 124.28C46.7974 124.28 44.7254 122.46 44.7254 119.66C44.7254 116.748 47.0774 115.18 51.4454 115.18C52.2854 115.18 53.0134 115.236 53.9374 115.348V114.452C53.9374 112.772 52.9854 111.792 51.3614 111.792C49.6814 111.792 48.6734 112.772 48.5334 114.452H45.0334C45.2574 111.008 47.7494 108.768 51.3614 108.768C55.2814 108.768 57.5774 110.924 57.5774 114.592V124H54.4134ZM48.3934 119.548C48.3934 120.808 49.2894 121.592 50.7454 121.592C52.7334 121.592 53.9374 120.5 53.9374 118.764V117.7C53.0134 117.56 52.3694 117.504 51.6974 117.504C49.4854 117.504 48.3934 118.204 48.3934 119.548ZM67.2873 129.684C63.2553 129.684 60.5673 127.5 60.3993 124.056H64.1513C64.3193 125.764 65.4113 126.66 67.2593 126.66C69.4153 126.66 70.5353 125.512 70.5353 123.356V121.172C69.7233 122.6 68.1833 123.44 66.3633 123.44C62.6953 123.44 59.9513 120.332 59.9513 116.104C59.9513 111.764 62.5273 108.768 66.2233 108.768C68.2393 108.768 69.7513 109.552 70.8433 111.092V109.048H74.3993V123.3C74.3993 127.276 71.7113 129.684 67.2873 129.684ZM63.8433 116.104C63.8433 118.54 65.1033 120.08 67.1193 120.08C69.1633 120.08 70.5073 118.484 70.5073 116.132C70.5073 113.696 69.1633 112.128 67.1193 112.128C65.1313 112.128 63.8433 113.668 63.8433 116.104ZM92.6673 124V122.152C91.6873 123.552 90.2033 124.28 88.1593 124.28C85.0513 124.28 82.9793 122.46 82.9793 119.66C82.9793 116.748 85.3313 115.18 89.6993 115.18C90.5393 115.18 91.2673 115.236 92.1913 115.348V114.452C92.1913 112.772 91.2393 111.792 89.6153 111.792C87.9353 111.792 86.9273 112.772 86.7873 114.452H83.2873C83.5113 111.008 86.0033 108.768 89.6153 108.768C93.5353 108.768 95.8313 110.924 95.8313 114.592V124H92.6673ZM86.6473 119.548C86.6473 120.808 87.5433 121.592 88.9993 121.592C90.9873 121.592 92.1913 120.5 92.1913 118.764V117.7C91.2673 117.56 90.6233 117.504 89.9513 117.504C87.7393 117.504 86.6473 118.204 86.6473 119.548ZM103.077 116.748V124H99.1852V109.048H102.769V111.932C103.861 110.028 106.185 108.88 108.593 108.88V112.912C105.289 112.66 103.077 113.444 103.077 116.748ZM114.507 116.748V124H110.615V109.048H114.199V111.932C115.291 110.028 117.615 108.88 120.023 108.88V112.912C116.719 112.66 114.507 113.444 114.507 116.748ZM128.543 124.28C124.203 124.28 120.955 120.864 120.955 116.524C120.955 112.156 124.203 108.768 128.543 108.768C132.883 108.768 136.131 112.156 136.131 116.524C136.131 120.864 132.883 124.28 128.543 124.28ZM128.543 120.836C130.475 120.836 132.127 119.296 132.127 116.524C132.127 113.752 130.475 112.24 128.543 112.24C126.611 112.24 124.959 113.752 124.959 116.524C124.959 119.296 126.611 120.836 128.543 120.836ZM150.496 124L147.668 114.284L144.868 124H140.976L136.72 109.048H140.5L143.048 118.512L145.792 109.048H149.628L152.288 118.512L154.808 109.048H158.644L154.36 124H150.496ZM172.844 119.212C172.844 122.348 170.464 124.28 166.208 124.28C161.952 124.28 159.572 122.236 159.264 118.904H162.988C163.016 120.444 164.332 121.424 166.264 121.424C167.776 121.424 168.924 120.948 168.924 119.884C168.924 118.932 168.308 118.54 166.88 118.26L164.192 117.756C161.504 117.28 159.88 115.796 159.88 113.472C159.88 110.7 162.26 108.768 165.984 108.768C169.736 108.768 172.312 110.756 172.592 113.976H168.868C168.728 112.52 167.636 111.624 165.984 111.624C164.556 111.624 163.604 112.156 163.604 113.108C163.604 114.004 164.22 114.368 165.564 114.62L168.448 115.152C171.36 115.712 172.844 117.056 172.844 119.212ZM196.277 116.524C196.277 120.892 193.673 124.28 189.641 124.28C187.709 124.28 186.085 123.412 184.937 121.844V124H181.353V103.896H185.245V110.98C186.337 109.524 187.849 108.768 189.641 108.768C193.673 108.768 196.277 112.1 196.277 116.524ZM192.273 116.524C192.273 113.668 190.677 112.212 188.773 112.212C186.897 112.212 185.273 113.64 185.273 116.468C185.273 119.296 186.841 120.808 188.773 120.808C190.677 120.808 192.273 119.324 192.273 116.524ZM205.267 124.252C200.787 124.252 197.791 121.144 197.791 116.468C197.791 112.016 200.899 108.768 205.211 108.768C209.943 108.768 213.079 112.604 212.379 117.476H201.767C202.019 119.912 203.195 121.256 205.183 121.256C206.891 121.256 208.039 120.416 208.487 118.932H212.351C211.511 122.32 208.907 124.252 205.267 124.252ZM205.127 111.624C203.307 111.624 202.159 112.8 201.823 115.012H208.263C208.151 112.94 206.975 111.624 205.127 111.624ZM224.173 120.22V123.608C223.221 124.084 222.325 124.28 221.177 124.28C218.097 124.28 216.165 122.516 216.165 119.156V112.38H213.141V109.048H216.165V104.624H220.029V109.048H224.313V112.38H220.029V118.26C220.029 119.996 220.813 120.696 222.213 120.696C222.941 120.696 223.613 120.528 224.173 120.22ZM238.953 124L236.125 114.284L233.325 124H229.433L225.177 109.048H228.957L231.505 118.512L234.249 109.048H238.085L240.745 118.512L243.265 109.048H247.101L242.817 124H238.953ZM255.169 124.252C250.69 124.252 247.694 121.144 247.694 116.468C247.694 112.016 250.802 108.768 255.114 108.768C259.846 108.768 262.982 112.604 262.282 117.476H251.67C251.922 119.912 253.098 121.256 255.086 121.256C256.794 121.256 257.942 120.416 258.39 118.932H262.254C261.414 122.32 258.81 124.252 255.169 124.252ZM255.03 111.624C253.21 111.624 252.062 112.8 251.726 115.012H258.166C258.054 112.94 256.878 111.624 255.03 111.624ZM271.111 124.252C266.631 124.252 263.635 121.144 263.635 116.468C263.635 112.016 266.743 108.768 271.055 108.768C275.787 108.768 278.923 112.604 278.223 117.476H267.611C267.863 119.912 269.039 121.256 271.027 121.256C272.735 121.256 273.883 120.416 274.331 118.932H278.195C277.355 122.32 274.751 124.252 271.111 124.252ZM270.971 111.624C269.151 111.624 268.003 112.8 267.667 115.012H274.107C273.995 112.94 272.819 111.624 270.971 111.624ZM284.722 115.852V124H280.83V109.048H284.414V111.176C285.506 109.692 287.046 108.768 289.006 108.768C292.002 108.768 294.074 110.728 294.074 114.34V124H290.21V115.656C290.21 113.444 289.342 112.212 287.578 112.212C286.038 112.212 284.722 113.444 284.722 115.852ZM316.747 109.048L311.259 124H307.003L301.487 109.048H305.687L309.243 119.576L312.827 109.048H316.747ZM326.976 124V122.152C325.996 123.552 324.512 124.28 322.468 124.28C319.36 124.28 317.288 122.46 317.288 119.66C317.288 116.748 319.64 115.18 324.008 115.18C324.848 115.18 325.576 115.236 326.5 115.348V114.452C326.5 112.772 325.548 111.792 323.924 111.792C322.244 111.792 321.236 112.772 321.096 114.452H317.596C317.82 111.008 320.312 108.768 323.924 108.768C327.844 108.768 330.14 110.924 330.14 114.592V124H326.976ZM320.956 119.548C320.956 120.808 321.852 121.592 323.308 121.592C325.296 121.592 326.5 120.5 326.5 118.764V117.7C325.576 117.56 324.932 117.504 324.26 117.504C322.048 117.504 320.956 118.204 320.956 119.548ZM337.386 116.748V124H333.494V109.048H337.078V111.932C338.17 110.028 340.494 108.88 342.902 108.88V112.912C339.598 112.66 337.386 113.444 337.386 116.748ZM349.432 105.576C349.432 106.892 348.368 107.872 346.828 107.872C345.316 107.872 344.252 106.892 344.252 105.576C344.252 104.204 345.316 103.224 346.828 103.224C348.368 103.224 349.432 104.204 349.432 105.576ZM348.816 124H344.924V109.048H348.816V124ZM361.183 124V122.152C360.203 123.552 358.719 124.28 356.675 124.28C353.567 124.28 351.495 122.46 351.495 119.66C351.495 116.748 353.847 115.18 358.215 115.18C359.055 115.18 359.783 115.236 360.707 115.348V114.452C360.707 112.772 359.755 111.792 358.131 111.792C356.451 111.792 355.443 112.772 355.303 114.452H351.803C352.027 111.008 354.519 108.768 358.131 108.768C362.051 108.768 364.347 110.924 364.347 114.592V124H361.183ZM355.163 119.548C355.163 120.808 356.059 121.592 357.515 121.592C359.503 121.592 360.707 120.5 360.707 118.764V117.7C359.783 117.56 359.139 117.504 358.467 117.504C356.255 117.504 355.163 118.204 355.163 119.548ZM382.625 116.524C382.625 120.892 380.021 124.28 375.989 124.28C374.057 124.28 372.433 123.412 371.285 121.844V124H367.701V103.896H371.593V110.98C372.685 109.524 374.197 108.768 375.989 108.768C380.021 108.768 382.625 112.1 382.625 116.524ZM378.621 116.524C378.621 113.668 377.025 112.212 375.121 112.212C373.245 112.212 371.621 113.64 371.621 116.468C371.621 119.296 373.189 120.808 375.121 120.808C377.025 120.808 378.621 119.324 378.621 116.524ZM389.039 124H385.119V103.896H389.039V124ZM399.025 124.252C394.545 124.252 391.549 121.144 391.549 116.468C391.549 112.016 394.657 108.768 398.969 108.768C403.701 108.768 406.837 112.604 406.137 117.476H395.525C395.777 119.912 396.953 121.256 398.941 121.256C400.649 121.256 401.797 120.416 402.245 118.932H406.109C405.269 122.32 402.665 124.252 399.025 124.252ZM398.885 111.624C397.065 111.624 395.917 112.8 395.581 115.012H402.021C401.909 112.94 400.733 111.624 398.885 111.624ZM421.372 119.212C421.372 122.348 418.992 124.28 414.736 124.28C410.48 124.28 408.1 122.236 407.792 118.904H411.516C411.544 120.444 412.86 121.424 414.792 121.424C416.304 121.424 417.452 120.948 417.452 119.884C417.452 118.932 416.836 118.54 415.408 118.26L412.72 117.756C410.032 117.28 408.408 115.796 408.408 113.472C408.408 110.7 410.788 108.768 414.512 108.768C418.264 108.768 420.84 110.756 421.12 113.976H417.396C417.256 112.52 416.164 111.624 414.512 111.624C413.084 111.624 412.132 112.156 412.132 113.108C412.132 114.004 412.748 114.368 414.092 114.62L416.976 115.152C419.888 115.712 421.372 117.056 421.372 119.212ZM439.177 120.22V123.608C438.225 124.084 437.329 124.28 436.181 124.28C433.101 124.28 431.169 122.516 431.169 119.156V112.38H428.145V109.048H431.169V104.624H435.033V109.048H439.317V112.38H435.033V118.26C435.033 119.996 435.817 120.696 437.217 120.696C437.945 120.696 438.617 120.528 439.177 120.22ZM447.973 124.28C443.633 124.28 440.385 120.864 440.385 116.524C440.385 112.156 443.633 108.768 447.973 108.768C452.313 108.768 455.561 112.156 455.561 116.524C455.561 120.864 452.313 124.28 447.973 124.28ZM447.973 120.836C449.905 120.836 451.557 119.296 451.557 116.524C451.557 113.752 449.905 112.24 447.973 112.24C446.041 112.24 444.389 113.752 444.389 116.524C444.389 119.296 446.041 120.836 447.973 120.836ZM26.364 150.212C26.364 153.348 23.984 155.28 19.728 155.28C15.472 155.28 13.092 153.236 12.784 149.904H16.508C16.536 151.444 17.852 152.424 19.784 152.424C21.296 152.424 22.444 151.948 22.444 150.884C22.444 149.932 21.828 149.54 20.4 149.26L17.712 148.756C15.024 148.28 13.4 146.796 13.4 144.472C13.4 141.7 15.78 139.768 19.504 139.768C23.256 139.768 25.832 141.756 26.112 144.976H22.388C22.248 143.52 21.156 142.624 19.504 142.624C18.076 142.624 17.124 143.156 17.124 144.108C17.124 145.004 17.74 145.368 19.084 145.62L21.968 146.152C24.88 146.712 26.364 148.056 26.364 150.212ZM32.9132 146.852V155H29.0212V134.896H32.9132V142.008C33.9492 140.636 35.2372 139.768 37.1972 139.768C40.1932 139.768 42.2652 141.728 42.2652 145.34V155H38.4012V146.656C38.4012 144.444 37.5332 143.212 35.7692 143.212C34.2292 143.212 32.9132 144.444 32.9132 146.852ZM52.2268 155.28C47.8868 155.28 44.6388 151.864 44.6388 147.524C44.6388 143.156 47.8868 139.768 52.2268 139.768C56.5668 139.768 59.8148 143.156 59.8148 147.524C59.8148 151.864 56.5668 155.28 52.2268 155.28ZM52.2268 151.836C54.1588 151.836 55.8108 150.296 55.8108 147.524C55.8108 144.752 54.1588 143.24 52.2268 143.24C50.2948 143.24 48.6428 144.752 48.6428 147.524C48.6428 150.296 50.2948 151.836 52.2268 151.836ZM74.1797 155L71.3517 145.284L68.5517 155H64.6597L60.4037 140.048H64.1837L66.7317 149.512L69.4757 140.048H73.3117L75.9717 149.512L78.4917 140.048H82.3277L78.0437 155H74.1797ZM99.4304 151.22V154.608C98.4784 155.084 97.5824 155.28 96.4344 155.28C93.3544 155.28 91.4224 153.516 91.4224 150.156V143.38H88.3984V140.048H91.4224V135.624H95.2864V140.048H99.5704V143.38H95.2864V149.26C95.2864 150.996 96.0704 151.696 97.4704 151.696C98.1984 151.696 98.8704 151.528 99.4304 151.22ZM105.839 146.852V155H101.947V134.896H105.839V142.008C106.875 140.636 108.163 139.768 110.123 139.768C113.119 139.768 115.191 141.728 115.191 145.34V155H111.327V146.656C111.327 144.444 110.459 143.212 108.695 143.212C107.155 143.212 105.839 144.444 105.839 146.852ZM125.041 155.252C120.561 155.252 117.565 152.144 117.565 147.468C117.565 143.016 120.673 139.768 124.985 139.768C129.717 139.768 132.853 143.604 132.153 148.476H121.541C121.793 150.912 122.969 152.256 124.957 152.256C126.665 152.256 127.813 151.416 128.261 149.932H132.125C131.285 153.32 128.681 155.252 125.041 155.252ZM124.901 142.624C123.081 142.624 121.933 143.8 121.597 146.012H128.037C127.925 143.94 126.749 142.624 124.901 142.624ZM139.267 136.576C139.267 137.892 138.203 138.872 136.663 138.872C135.151 138.872 134.087 137.892 134.087 136.576C134.087 135.204 135.151 134.224 136.663 134.224C138.203 134.224 139.267 135.204 139.267 136.576ZM138.651 155H134.759V140.048H138.651V155ZM146.007 147.748V155H142.115V140.048H145.699V142.932C146.791 141.028 149.115 139.88 151.523 139.88V143.912C148.219 143.66 146.007 144.444 146.007 147.748ZM163.288 147.748V155H159.396V140.048H162.98V142.932C164.072 141.028 166.396 139.88 168.804 139.88V143.912C165.5 143.66 163.288 144.444 163.288 147.748ZM177.212 155.252C172.732 155.252 169.736 152.144 169.736 147.468C169.736 143.016 172.844 139.768 177.156 139.768C181.888 139.768 185.024 143.604 184.324 148.476H173.712C173.964 150.912 175.14 152.256 177.128 152.256C178.836 152.256 179.984 151.416 180.432 149.932H184.296C183.456 153.32 180.852 155.252 177.212 155.252ZM177.072 142.624C175.252 142.624 174.104 143.8 173.768 146.012H180.208C180.096 143.94 178.92 142.624 177.072 142.624ZM190.851 155H186.931V134.896H190.851V155ZM203.245 155V153.152C202.265 154.552 200.781 155.28 198.737 155.28C195.629 155.28 193.557 153.46 193.557 150.66C193.557 147.748 195.909 146.18 200.277 146.18C201.117 146.18 201.845 146.236 202.769 146.348V145.452C202.769 143.772 201.817 142.792 200.193 142.792C198.513 142.792 197.505 143.772 197.365 145.452H193.865C194.089 142.008 196.581 139.768 200.193 139.768C204.113 139.768 206.409 141.924 206.409 145.592V155H203.245ZM197.225 150.548C197.225 151.808 198.121 152.592 199.577 152.592C201.565 152.592 202.769 151.5 202.769 149.764V148.7C201.845 148.56 201.201 148.504 200.529 148.504C198.317 148.504 197.225 149.204 197.225 150.548ZM218.841 151.22V154.608C217.889 155.084 216.993 155.28 215.845 155.28C212.765 155.28 210.833 153.516 210.833 150.156V143.38H207.809V140.048H210.833V135.624H214.697V140.048H218.981V143.38H214.697V149.26C214.697 150.996 215.481 151.696 216.881 151.696C217.609 151.696 218.281 151.528 218.841 151.22ZM225.865 136.576C225.865 137.892 224.801 138.872 223.261 138.872C221.749 138.872 220.685 137.892 220.685 136.576C220.685 135.204 221.749 134.224 223.261 134.224C224.801 134.224 225.865 135.204 225.865 136.576ZM225.249 155H221.357V140.048H225.249V155ZM235.321 155.28C230.981 155.28 227.733 151.864 227.733 147.524C227.733 143.156 230.981 139.768 235.321 139.768C239.661 139.768 242.909 143.156 242.909 147.524C242.909 151.864 239.661 155.28 235.321 155.28ZM235.321 151.836C237.253 151.836 238.905 150.296 238.905 147.524C238.905 144.752 237.253 143.24 235.321 143.24C233.389 143.24 231.737 144.752 231.737 147.524C231.737 150.296 233.389 151.836 235.321 151.836ZM249.284 146.852V155H245.392V140.048H248.976V142.176C250.068 140.692 251.608 139.768 253.568 139.768C256.564 139.768 258.636 141.728 258.636 145.34V155H254.772V146.656C254.772 144.444 253.904 143.212 252.14 143.212C250.6 143.212 249.284 144.444 249.284 146.852ZM274.618 150.212C274.618 153.348 272.238 155.28 267.982 155.28C263.726 155.28 261.346 153.236 261.038 149.904H264.762C264.79 151.444 266.106 152.424 268.038 152.424C269.55 152.424 270.698 151.948 270.698 150.884C270.698 149.932 270.082 149.54 268.654 149.26L265.966 148.756C263.278 148.28 261.654 146.796 261.654 144.472C261.654 141.7 264.034 139.768 267.758 139.768C271.51 139.768 274.086 141.756 274.366 144.976H270.642C270.502 143.52 269.41 142.624 267.758 142.624C266.33 142.624 265.378 143.156 265.378 144.108C265.378 145.004 265.994 145.368 267.338 145.62L270.222 146.152C273.134 146.712 274.618 148.056 274.618 150.212ZM281.167 146.852V155H277.275V134.896H281.167V142.008C282.203 140.636 283.491 139.768 285.451 139.768C288.447 139.768 290.519 141.728 290.519 145.34V155H286.655V146.656C286.655 144.444 285.787 143.212 284.023 143.212C282.483 143.212 281.167 144.444 281.167 146.852ZM298.381 136.576C298.381 137.892 297.317 138.872 295.777 138.872C294.265 138.872 293.201 137.892 293.201 136.576C293.201 135.204 294.265 134.224 295.777 134.224C297.317 134.224 298.381 135.204 298.381 136.576ZM297.765 155H293.873V140.048H297.765V155ZM316.152 147.524C316.152 151.948 313.548 155.28 309.516 155.28C307.752 155.28 306.24 154.524 305.12 153.068V160.404H301.228V140.048H304.812V142.232C305.96 140.636 307.612 139.768 309.516 139.768C313.548 139.768 316.152 143.128 316.152 147.524ZM312.148 147.524C312.148 144.724 310.552 143.212 308.648 143.212C306.744 143.212 305.148 144.696 305.148 147.524C305.148 150.352 306.744 151.808 308.648 151.808C310.552 151.808 312.148 150.38 312.148 147.524ZM331.274 150.212C331.274 153.348 328.894 155.28 324.638 155.28C320.382 155.28 318.002 153.236 317.694 149.904H321.418C321.446 151.444 322.762 152.424 324.694 152.424C326.206 152.424 327.354 151.948 327.354 150.884C327.354 149.932 326.738 149.54 325.31 149.26L322.622 148.756C319.934 148.28 318.31 146.796 318.31 144.472C318.31 141.7 320.69 139.768 324.414 139.768C328.166 139.768 330.742 141.756 331.022 144.976H327.298C327.158 143.52 326.066 142.624 324.414 142.624C322.986 142.624 322.034 143.156 322.034 144.108C322.034 145.004 322.65 145.368 323.994 145.62L326.878 146.152C329.79 146.712 331.274 148.056 331.274 150.212Z" fill="white"/>
</svg>
