<svg width="308" height="373" viewBox="0 0 308 373" fill="none" xmlns="http://www.w3.org/2000/svg">
<path d="M54.2746 175.572C78.5217 172.164 103.13 178.528 122.684 193.264C142.239 208 155.14 229.9 158.547 254.147C161.955 278.395 155.591 303.002 140.855 322.557C126.12 342.112 104.219 355.012 79.9722 358.42L54.2746 175.572Z" fill="#242121"/>
<path d="M54.2746 175.572C53.5715 170.57 53.8607 165.478 55.1255 160.587C56.3903 155.696 58.6061 151.102 61.6462 147.068C64.6864 143.034 68.4914 139.637 72.8441 137.074C77.1967 134.51 82.0118 132.828 87.0143 132.125L92.3679 170.218L54.2746 175.572Z" fill="#242121"/>
<path d="M112.712 314.973C113.415 319.976 113.126 325.068 111.861 329.958C110.596 334.849 108.38 339.443 105.34 343.477C102.3 347.512 98.495 350.908 94.1424 353.472C89.7897 356.036 84.9747 357.717 79.9722 358.42L74.6185 320.327L112.712 314.973Z" fill="#242121"/>
<path d="M92.3679 170.218L54.2746 175.572L74.6185 320.327L112.712 314.973L92.3679 170.218Z" fill="#242121"/>
<path d="M234.574 127.27C211.871 136.442 193.742 154.258 184.175 176.797C174.608 199.336 174.386 224.752 183.558 247.455C192.731 270.157 210.546 288.286 233.085 297.853C255.624 307.421 281.04 307.642 303.743 298.47L234.574 127.27Z" fill="#242121"/>
<path d="M234.574 127.27C232.681 122.586 229.885 118.321 226.344 114.718C222.803 111.115 218.588 108.244 213.938 106.271C209.288 104.297 204.294 103.258 199.243 103.214C194.191 103.17 189.181 104.121 184.497 106.014L198.907 141.68L234.574 127.27Z" fill="#242121"/>
<path d="M253.666 277.214C255.558 281.897 258.355 286.163 261.896 289.766C265.436 293.369 269.652 296.239 274.302 298.213C278.952 300.187 283.946 301.225 288.997 301.27C294.048 301.314 299.059 300.362 303.743 298.47L289.333 262.803L253.666 277.214Z" fill="#242121"/>
<path d="M198.907 141.68L234.574 127.27L289.333 262.803L253.666 277.214L198.907 141.68Z" fill="#242121"/>
<path d="M208.34 290.869L212.856 337.449" stroke="black" stroke-width="2" stroke-linecap="round"/>
<path d="M158.795 304.141L178.174 346.739" stroke="black" stroke-width="2" stroke-linecap="round"/>
<path d="M150.926 354.04L190.56 343.42" stroke="black" stroke-width="2" stroke-linecap="round"/>
<path d="M240.103 330.145L200.468 340.765" stroke="black" stroke-width="2" stroke-linecap="round"/>
<path d="M199.162 80.9363L60.957 117.968L98.1268 256.688L236.332 219.656L199.162 80.9363Z" fill="#2D2D2D"/>
<path d="M199.162 80.9363L60.957 117.968L70.2495 152.648L208.455 115.616L199.162 80.9363Z" fill="#2D2D2D"/>
<circle cx="71.8064" cy="71.8064" r="71.8064" transform="matrix(-0.965926 0.258819 0.258819 0.965926 218.416 150.117)" fill="#2D2D2D"/>
<path d="M61.1122 117.923C71.3763 156.229 110.75 178.962 149.057 168.698C187.363 158.434 210.096 119.059 199.832 80.7532C189.567 42.4469 150.193 19.7142 111.887 29.9784C73.5807 40.2425 50.8481 79.6166 61.1122 117.923Z" fill="#2D2D2D"/>
<path d="M199.162 80.9324L60.957 117.964L77.4713 179.597C78.6149 183.864 83.0016 186.397 87.2693 185.253L210.02 152.363C214.287 151.219 216.82 146.832 215.676 142.565L199.162 80.9324Z" fill="#2D2D2D"/>
<path d="M98.5454 105.243C110.131 102.139 116.997 90.1952 113.881 78.5665C110.765 66.9378 98.8473 60.0274 87.2617 63.1318C75.6761 66.2361 68.8101 78.1796 71.926 89.8083C75.0419 101.437 86.9598 108.347 98.5454 105.243Z" fill="white"/>
<path d="M95.893 95.3338C102.026 93.6903 105.661 87.3673 104.012 81.2109C102.362 75.0545 96.0528 71.3961 89.9192 73.0396C83.7857 74.6831 80.1507 81.0061 81.8003 87.1625C83.4499 93.3188 89.7594 96.9773 95.893 95.3338Z" fill="#231F20"/>
<path d="M101.818 117.419C111.913 114.715 118.337 105.957 116.167 97.8592C113.997 89.7612 104.055 85.3891 93.9604 88.094C83.8658 90.7988 77.4416 99.5562 79.6115 107.654C81.7813 115.752 91.7236 120.124 101.818 117.419Z" fill="#0082FF"/>
<path d="M110.768 151.085C127.124 146.702 136.817 129.841 132.418 113.424C128.019 97.0071 111.194 87.2513 94.838 91.6339C78.4819 96.0165 68.7887 112.878 73.1876 129.295C77.5865 145.712 94.4118 155.468 110.768 151.085Z" fill="#2D2D2D"/>
<path d="M160.24 88.712C171.825 85.6076 178.691 73.6641 175.575 62.0355C172.46 50.4068 160.542 43.4964 148.956 46.6008C137.37 49.7051 130.504 61.6486 133.62 73.2773C136.736 84.906 148.654 91.8163 160.24 88.712Z" fill="white"/>
<path d="M157.588 78.8025C163.722 77.1591 167.357 70.836 165.707 64.6797C164.058 58.5233 157.748 54.8649 151.615 56.5083C145.481 58.1518 141.846 64.4749 143.496 70.6312C145.145 76.7876 151.455 80.446 157.588 78.8025Z" fill="#231F20"/>
<path d="M163.537 100.937C173.656 98.2256 180.096 89.4471 177.921 81.3296C175.746 73.2121 165.779 68.8296 155.661 71.5409C145.542 74.2522 139.102 83.0307 141.277 91.1482C143.452 99.2657 153.418 103.648 163.537 100.937Z" fill="#0082FF"/>
<path d="M172.521 134.538C188.877 130.156 198.57 113.294 194.171 96.8774C189.772 80.4605 172.947 70.7047 156.591 75.0873C140.235 79.4699 130.542 96.3313 134.941 112.748C139.339 129.165 156.165 138.921 172.521 134.538Z" fill="#2D2D2D"/>
<path d="M165.503 111.191C164.457 107.287 162.652 103.628 160.192 100.422C157.732 97.2153 154.664 94.5251 151.165 92.5044C147.665 90.4838 143.801 89.1722 139.794 88.6447C135.788 88.1173 131.716 88.3841 127.812 89.4301L135.777 119.156L165.503 111.191Z" fill="#6E00FF"/>
<path d="M106.052 127.121C105.006 123.217 104.739 119.146 105.267 115.139C105.794 111.132 107.106 107.268 109.126 103.769C111.147 100.269 113.837 97.201 117.043 94.7408C120.25 92.2806 123.909 90.476 127.813 89.43L135.777 119.156L106.052 127.121Z" fill="#C7EAFB"/>
<path d="M106.052 127.121L135.777 119.156L149.052 168.698L106.052 127.121Z" fill="#C7EAFB"/>
<path d="M165.503 111.191L135.777 119.156L149.052 168.698L165.503 111.191Z" fill="#6E00FF"/>
<path fill-rule="evenodd" clip-rule="evenodd" d="M71.1693 81.9944C72.0323 73.2351 78.1754 65.5244 87.1513 63.1194C96.1272 60.7143 105.303 64.3203 110.43 71.4746L71.1693 81.9944Z" fill="#F4B7EE"/>
<path fill-rule="evenodd" clip-rule="evenodd" d="M98.6973 46.5879C99.3033 46.5879 99.7721 47.1215 99.6756 47.7197C97.3427 62.1962 86.8113 74.6616 71.7753 78.6905C70.2504 79.0991 68.7222 79.4094 67.1974 79.6252C66.6052 79.7091 66.0848 79.2427 66.0848 78.6445V78.6445C66.0848 78.1359 66.4657 77.7093 66.9692 77.6373C68.3977 77.4331 69.8293 77.1414 71.2577 76.7586C85.4866 72.946 95.4642 61.1567 97.6925 47.4535C97.7729 46.9586 98.1959 46.5879 98.6973 46.5879V46.5879Z" fill="white"/>
<path fill-rule="evenodd" clip-rule="evenodd" d="M172.261 54.9077C167.134 47.7531 157.958 44.1468 148.982 46.5519C140.006 48.9571 133.863 56.668 133 65.4276L172.261 54.9077Z" fill="#F4B7EE"/>
<path fill-rule="evenodd" clip-rule="evenodd" d="M130.1 38.1735C129.576 38.4765 129.436 39.1729 129.819 39.6428C139.078 51.0133 154.431 56.543 169.467 52.5141C170.992 52.1055 172.47 51.6101 173.899 51.0347C174.454 50.8111 174.671 50.1471 174.372 49.6291V49.6291C174.118 49.1886 173.575 49.0095 173.102 49.199C171.763 49.7364 170.378 50.1995 168.949 50.5823C154.72 54.3949 140.185 49.1738 131.403 38.4206C131.086 38.0323 130.535 37.9228 130.1 38.1735V38.1735Z" fill="white"/>
<rect x="141.315" y="116.309" width="74.2958" height="7.69354" transform="rotate(-30 141.315 116.309)" fill="white"/>
<rect x="139.757" y="146.449" width="74.2958" height="7.69354" transform="rotate(-15 139.757 146.449)" fill="white"/>
<path d="M126.701 118.897L52.4054 118.897L52.4054 126.591L126.701 126.591L126.701 118.897Z" fill="white"/>
<rect width="74.2958" height="7.69354" transform="matrix(-0.965926 0.258819 0.258819 0.965926 145.723 144.851)" fill="white"/>
<path d="M99.7031 122.101C99.4075 120.998 100.094 119.872 101.21 119.629L134.781 112.328L167.505 101.865C168.593 101.517 169.751 102.149 170.046 103.253L181.338 145.396C181.612 146.419 181.042 147.478 180.036 147.812L147.249 158.692L113.331 165.685C112.294 165.899 111.269 165.267 110.995 164.244L99.7031 122.101Z" fill="white"/>
</svg>
