<svg width="216" height="148" viewBox="0 0 216 148" fill="none" xmlns="http://www.w3.org/2000/svg">
<ellipse cx="100.713" cy="60.8399" rx="35.7614" ry="26.5289" transform="rotate(129.341 100.713 60.8399)" fill="#C7EAFB"/>
<ellipse cx="100.713" cy="60.8399" rx="35.7614" ry="26.5289" transform="rotate(129.341 100.713 60.8399)" fill="black" fill-opacity="0.1"/>
<circle cx="102.235" cy="38.1067" r="1.36772" transform="rotate(-5.64493 102.235 38.1067)" fill="#B4DBEE"/>
<circle cx="92.9481" cy="39.0245" r="1.98423" transform="rotate(-5.64493 92.9481 39.0245)" fill="#B4DBEE"/>
<circle cx="83.2639" cy="49.2555" r="0.966055" transform="rotate(-5.64493 83.2639 49.2555)" fill="#B4DBEE"/>
<circle cx="77.3919" cy="72.0805" r="1.98423" transform="rotate(-5.64493 77.3919 72.0805)" fill="#B4DBEE"/>
<circle cx="103.518" cy="55.0463" r="1.98423" transform="rotate(-5.64493 103.518 55.0463)" fill="#B4DBEE"/>
<circle cx="112.332" cy="58.1615" r="1.98423" transform="rotate(-5.64493 112.332 58.1615)" fill="#B4DBEE"/>
<circle cx="119.586" cy="43.5599" r="1.98423" transform="rotate(-5.64493 119.586 43.5599)" fill="#B4DBEE"/>
<circle cx="106.015" cy="47.0061" r="1.29041" transform="rotate(-5.64493 106.015 47.0061)" fill="#B4DBEE"/>
<circle cx="112.381" cy="37.1039" r="3.35195" transform="rotate(-5.64493 112.381 37.1039)" fill="#B4DBEE"/>
<circle cx="93.5065" cy="54.0878" r="2.88786" transform="rotate(-5.64493 93.5065 54.0878)" fill="#B4DBEE"/>
<circle cx="90.0778" cy="65.771" r="2.88786" transform="rotate(-5.64493 90.0778 65.771)" fill="#B4DBEE"/>
<circle cx="107.31" cy="68.9652" r="1.98423" transform="rotate(-5.64493 107.31 68.9652)" fill="#B4DBEE"/>
<circle cx="98.6327" cy="76.3519" r="1.98423" transform="rotate(-5.64493 98.6327 76.3519)" fill="#B4DBEE"/>
<circle cx="126.271" cy="53.7514" r="1.98423" transform="rotate(-5.64493 126.271 53.7514)" fill="#B4DBEE"/>
<ellipse cx="57.7643" cy="83.8561" rx="35.7614" ry="26.5289" transform="rotate(32.0393 57.7643 83.8561)" fill="#C7EAFB"/>
<circle cx="35.0236" cy="85.2366" r="1.36772" transform="rotate(-102.947 35.0236 85.2366)" fill="#B4DBEE"/>
<circle cx="37.1142" cy="94.3306" r="1.98423" transform="rotate(-102.947 37.1142 94.3306)" fill="#B4DBEE"/>
<circle cx="48.4921" cy="102.638" r="0.966055" transform="rotate(-102.947 48.4921 102.638)" fill="#B4DBEE"/>
<circle cx="71.8789" cy="105.56" r="1.98423" transform="rotate(-102.947 71.8789 105.56)" fill="#B4DBEE"/>
<circle cx="51.6616" cy="81.8111" r="1.98423" transform="rotate(-102.947 51.6616 81.8111)" fill="#B4DBEE"/>
<circle cx="53.6328" cy="72.6724" r="1.98423" transform="rotate(-102.947 53.6328 72.6724)" fill="#B4DBEE"/>
<circle cx="70.9399" cy="71.5885" r="1.98423" transform="rotate(-102.947 70.9399 71.5885)" fill="#B4DBEE"/>
<circle cx="62.0805" cy="64.3365" r="1.98423" transform="rotate(-102.947 62.0805 64.3365)" fill="#B4DBEE"/>
<circle cx="38.2275" cy="67.3326" r="1.98423" transform="rotate(-102.947 38.2275 67.3326)" fill="#B4DBEE"/>
<circle cx="43.3703" cy="80.3566" r="1.29041" transform="rotate(-102.947 43.3703 80.3566)" fill="#B4DBEE"/>
<circle cx="32.7389" cy="75.3006" r="3.35195" transform="rotate(-102.947 32.7389 75.3006)" fill="#B4DBEE"/>
<circle cx="51.9838" cy="91.8628" r="2.88786" transform="rotate(-102.947 51.9838 91.8628)" fill="#B4DBEE"/>
<circle cx="64.0092" cy="93.7788" r="2.88786" transform="rotate(-102.947 64.0092 93.7788)" fill="#B4DBEE"/>
<circle cx="64.9858" cy="76.2799" r="1.98423" transform="rotate(-102.947 64.9858 76.2799)" fill="#B4DBEE"/>
<circle cx="73.416" cy="83.9498" r="1.98423" transform="rotate(-102.947 73.416 83.9498)" fill="#B4DBEE"/>
<circle cx="47.4858" cy="59.4068" r="1.98423" transform="rotate(-102.947 47.4858 59.4068)" fill="#B4DBEE"/>
<ellipse cx="152.047" cy="68.9042" rx="35.7614" ry="26.5289" transform="rotate(78.8991 152.047 68.9042)" fill="#C7EAFB"/>
<circle cx="135.491" cy="53.256" r="1.36772" transform="rotate(-56.087 135.491 53.256)" fill="#B4DBEE"/>
<circle cx="130.284" cy="60.9985" r="1.98423" transform="rotate(-56.087 130.284 60.9985)" fill="#B4DBEE"/>
<circle cx="132.004" cy="74.9814" r="0.966055" transform="rotate(-56.087 132.004 74.9814)" fill="#B4DBEE"/>
<circle cx="145.862" cy="94.0444" r="1.98423" transform="rotate(-56.087 145.862 94.0444)" fill="#B4DBEE"/>
<circle cx="149.368" cy="63.0522" r="1.98423" transform="rotate(-56.087 149.368 63.0522)" fill="#B4DBEE"/>
<circle cx="157.384" cy="58.2426" r="1.98423" transform="rotate(-56.087 157.384 58.2426)" fill="#B4DBEE"/>
<circle cx="150.746" cy="43.352" r="1.98423" transform="rotate(-56.087 150.746 43.352)" fill="#B4DBEE"/>
<circle cx="144.759" cy="56.0094" r="1.29041" transform="rotate(-56.087 144.759 56.0094)" fill="#B4DBEE"/>
<circle cx="141.179" cy="44.7945" r="3.35195" transform="rotate(-56.087 141.179 44.7945)" fill="#B4DBEE"/>
<circle cx="142.253" cy="70.1629" r="2.88786" transform="rotate(-56.087 142.253 70.1629)" fill="#B4DBEE"/>
<circle cx="149.077" cy="80.2469" r="2.88786" transform="rotate(-56.087 149.077 80.2469)" fill="#B4DBEE"/>
<circle cx="162.514" cy="68.9936" r="1.98423" transform="rotate(-56.087 162.514 68.9936)" fill="#B4DBEE"/>
<circle cx="162.682" cy="80.3891" r="1.98423" transform="rotate(-56.087 162.682 80.3891)" fill="#B4DBEE"/>
<circle cx="162.86" cy="44.6869" r="1.98423" transform="rotate(-56.087 162.86 44.6869)" fill="#B4DBEE"/>
</svg>
