<svg width="307" height="132" viewBox="0 0 307 132" fill="none" xmlns="http://www.w3.org/2000/svg">
<path d="M14.4964 43.8819C10.3943 51.182 10.7107 59.1465 15.2028 61.6707L37.7622 56.9543L14.4968 43.8811L14.4964 43.8819Z" fill="#D9D9D9" fill-opacity="0.5"/>
<path d="M105.924 95.2536C110.026 87.9535 109.71 79.989 105.218 77.4648L82.6582 82.1812L105.924 95.2544L105.924 95.2536Z" fill="#D9D9D9" fill-opacity="0.5"/>
<path d="M89.5935 86.0768C93.6955 78.7767 93.3791 70.8122 88.887 68.288L66.3276 73.0044L89.593 86.0776L89.5935 86.0768Z" fill="#D9D9D9" fill-opacity="0.5"/>
<path d="M73.2629 76.9013C77.3649 69.6012 77.0486 61.6367 72.5565 59.1125L49.9971 63.8289L73.2625 76.9021L73.2629 76.9013Z" fill="#D9D9D9" fill-opacity="0.5"/>
<path d="M14.4973 43.8798C18.5993 36.5797 25.5667 32.708 30.0588 35.2322L37.7622 56.9538L14.4968 43.8806L14.4973 43.8798Z" fill="#D9D9D9" fill-opacity="0.5"/>
<path d="M105.923 95.2557C101.821 102.556 94.8538 106.427 90.3616 103.903L82.6582 82.1817L105.924 95.2549L105.923 95.2557Z" fill="#D9D9D9" fill-opacity="0.5"/>
<path d="M89.5926 86.0789C85.4905 93.379 78.5232 97.2507 74.0311 94.7265L66.3276 73.0049L89.593 86.0781L89.5926 86.0789Z" fill="#D9D9D9" fill-opacity="0.5"/>
<path d="M73.262 76.9022C69.16 84.2023 62.1926 88.0739 57.7005 85.5497L49.997 63.8282L73.2624 76.9014L73.262 76.9022Z" fill="#D9D9D9" fill-opacity="0.5"/>
<path d="M25.0626 71.4645C27.324 79.527 33.1794 84.9351 38.1407 83.5436L50.7577 64.2567L25.0624 71.4636L25.0626 71.4645Z" fill="#D9D9D9" fill-opacity="0.5"/>
<path d="M12.1153 64.1889C14.3767 72.2514 20.2322 77.6595 25.1935 76.2679L37.8104 56.981L12.1151 64.188L12.1153 64.1889Z" fill="#D9D9D9" fill-opacity="0.5"/>
<path d="M108.305 74.9469C106.044 66.8843 100.188 61.4763 95.227 62.8678L82.61 82.1547L108.305 74.9477L108.305 74.9469Z" fill="#D9D9D9" fill-opacity="0.5"/>
<path d="M91.975 65.7701C89.7136 57.7076 83.8582 52.2995 78.8969 53.6911L66.2799 72.9779L91.9752 65.771L91.975 65.7701Z" fill="#D9D9D9" fill-opacity="0.5"/>
<path d="M75.6444 56.5931C73.3831 48.5306 67.5276 43.1225 62.5663 44.5141L49.9494 63.8009L75.6447 56.594L75.6444 56.5931Z" fill="#D9D9D9" fill-opacity="0.5"/>
<path d="M43.5038 38.5326C51.5663 36.2712 59.2307 38.4602 60.6222 43.4215L50.7099 64.2281L43.5029 38.5329L43.5038 38.5326Z" fill="#D9D9D9" fill-opacity="0.5"/>
<path d="M30.5565 31.2572C38.6191 28.9959 46.2834 31.1848 47.6749 36.1461L37.7626 56.9528L30.5557 31.2575L30.5565 31.2572Z" fill="#D9D9D9" fill-opacity="0.5"/>
<path d="M89.8639 107.878C81.8013 110.139 74.137 107.95 72.7455 102.989L82.6578 82.182L89.8647 107.877L89.8639 107.878Z" fill="#D9D9D9" fill-opacity="0.5"/>
<path d="M73.5333 98.7008C65.4708 100.962 57.8064 98.7732 56.4149 93.8119L66.3272 73.0052L73.5342 98.7005L73.5333 98.7008Z" fill="#D9D9D9" fill-opacity="0.5"/>
<path d="M57.2032 89.525C49.1407 91.7864 41.4764 89.5974 40.0848 84.6361L49.9971 63.8295L57.2041 89.5248L57.2032 89.525Z" fill="#D9D9D9" fill-opacity="0.5"/>
<path d="M124.939 105.94L91.6016 87.2065" stroke="#D9D9D9" stroke-opacity="0.5" stroke-width="12.7903" stroke-linecap="round" stroke-linejoin="round"/>
<path d="M27.4436 51.1566C23.3416 58.4567 23.658 66.4212 28.1501 68.9454L50.7095 64.229L27.4441 51.1558L27.4436 51.1566Z" fill="#D9D9D9" fill-opacity="0.5"/>
<path d="M27.4445 51.1542C31.5466 43.8541 38.5139 39.9825 43.006 42.5066L50.7095 64.2282L27.4441 51.155L27.4445 51.1542Z" fill="#D9D9D9" fill-opacity="0.5"/>
<path d="M48.8333 25.8008C44.7312 33.1009 45.0476 41.0655 49.5397 43.5897L72.0991 38.8733L48.8337 25.8001L48.8333 25.8008Z" fill="#D9D9D9" fill-opacity="0.5"/>
<path d="M140.261 77.1728C144.363 69.8727 144.047 61.9082 139.555 59.384L116.995 64.1003L140.261 77.1736L140.261 77.1728Z" fill="#D9D9D9" fill-opacity="0.5"/>
<path d="M123.93 67.996C128.032 60.6959 127.716 52.7314 123.224 50.2072L100.665 54.9236L123.93 67.9968L123.93 67.996Z" fill="#D9D9D9" fill-opacity="0.5"/>
<path d="M107.6 58.82C111.702 51.5199 111.385 43.5554 106.893 41.0312L84.334 45.7476L107.599 58.8208L107.6 58.82Z" fill="#D9D9D9" fill-opacity="0.5"/>
<path d="M48.8342 25.7988C52.9362 18.4987 59.9036 14.627 64.3957 17.1512L72.0992 38.8728L48.8337 25.7995L48.8342 25.7988Z" fill="#D9D9D9" fill-opacity="0.5"/>
<path d="M140.26 77.1739C136.158 84.474 129.191 88.3457 124.699 85.8215L116.995 64.0999L140.26 77.1731L140.26 77.1739Z" fill="#D9D9D9" fill-opacity="0.5"/>
<path d="M123.929 67.9981C119.827 75.2982 112.86 79.1699 108.368 76.6457L100.665 54.9241L123.93 67.9973L123.929 67.9981Z" fill="#D9D9D9" fill-opacity="0.5"/>
<path d="M107.599 58.8214C103.497 66.1214 96.5295 69.9931 92.0374 67.4689L84.3339 45.7473L107.599 58.8206L107.599 58.8214Z" fill="#D9D9D9" fill-opacity="0.5"/>
<path d="M59.3995 53.3832C61.6609 61.4457 67.5163 66.8538 72.4776 65.4623L85.0946 46.1754L59.3993 53.3823L59.3995 53.3832Z" fill="#D9D9D9" fill-opacity="0.5"/>
<path d="M46.4523 46.1076C48.7136 54.1701 54.5691 59.5782 59.5304 58.1866L72.1473 38.8997L46.452 46.1067L46.4523 46.1076Z" fill="#D9D9D9" fill-opacity="0.5"/>
<path d="M142.642 56.8648C140.381 48.8023 134.525 43.3943 129.564 44.7858L116.947 64.0727L142.642 56.8657L142.642 56.8648Z" fill="#D9D9D9" fill-opacity="0.5"/>
<path d="M126.311 47.6891C124.05 39.6265 118.195 34.2185 113.233 35.61L100.616 54.8969L126.312 47.6899L126.311 47.6891Z" fill="#D9D9D9" fill-opacity="0.5"/>
<path d="M109.981 38.5123C107.72 30.4498 101.865 25.0417 96.9032 26.4332L84.2863 45.7201L109.982 38.5132L109.981 38.5123Z" fill="#D9D9D9" fill-opacity="0.5"/>
<path d="M77.8407 20.4516C85.9032 18.1902 93.5676 20.3791 94.9591 25.3404L85.0468 46.1471L77.8399 20.4518L77.8407 20.4516Z" fill="#D9D9D9" fill-opacity="0.5"/>
<path d="M64.8935 13.1771C72.956 10.9158 80.6203 13.1047 82.0119 18.066L72.0995 38.8727L64.8926 13.1774L64.8935 13.1771Z" fill="#D9D9D9" fill-opacity="0.5"/>
<path d="M124.201 89.7962C116.138 92.0576 108.474 89.8687 107.082 84.9074L116.995 64.1007L124.202 89.796L124.201 89.7962Z" fill="#D9D9D9" fill-opacity="0.5"/>
<path d="M107.871 80.6197C99.8082 82.8811 92.1438 80.6921 90.7523 75.7309L100.665 54.9242L107.872 80.6195L107.871 80.6197Z" fill="#D9D9D9" fill-opacity="0.5"/>
<path d="M91.5401 71.444C83.4776 73.7053 75.8133 71.5164 74.4217 66.5551L84.334 45.7484L91.541 71.4437L91.5401 71.444Z" fill="#D9D9D9" fill-opacity="0.5"/>
<path d="M159.276 87.8586L125.938 69.1255" stroke="#D9D9D9" stroke-opacity="0.5" stroke-width="12.7903" stroke-linecap="round" stroke-linejoin="round"/>
<path d="M61.7806 33.0753C57.6785 40.3754 57.9949 48.3399 62.487 50.8641L85.0464 46.1477L61.781 33.0745L61.7806 33.0753Z" fill="#D9D9D9" fill-opacity="0.5"/>
<path d="M61.7815 33.0732C65.8835 25.7731 72.8508 21.9014 77.3429 24.4256L85.0464 46.1472L61.781 33.074L61.7815 33.0732Z" fill="#D9D9D9" fill-opacity="0.5"/>
<path d="M90.7161 31.2728C86.6141 38.5729 86.9304 46.5374 91.4225 49.0616L113.982 44.3452L90.7165 31.272L90.7161 31.2728Z" fill="#D9D9D9" fill-opacity="0.5"/>
<path d="M182.143 82.6457C186.245 75.3456 185.929 67.3811 181.437 64.8569L158.877 69.5732L182.143 82.6465L182.143 82.6457Z" fill="#D9D9D9" fill-opacity="0.5"/>
<path d="M165.813 73.4689C169.915 66.1688 169.599 58.2043 165.107 55.6801L142.547 60.3965L165.813 73.4697L165.813 73.4689Z" fill="#D9D9D9" fill-opacity="0.5"/>
<path d="M149.483 64.2934C153.585 56.9933 153.268 49.0288 148.776 46.5046L126.217 51.2209L149.482 64.2942L149.483 64.2934Z" fill="#D9D9D9" fill-opacity="0.5"/>
<path d="M90.717 31.2719C94.819 23.9718 101.786 20.1001 106.278 22.6243L113.982 44.3459L90.7166 31.2727L90.717 31.2719Z" fill="#D9D9D9" fill-opacity="0.5"/>
<path d="M182.142 82.6478C178.04 89.9479 171.073 93.8196 166.581 91.2954L158.877 69.5738L182.143 82.647L182.142 82.6478Z" fill="#D9D9D9" fill-opacity="0.5"/>
<path d="M165.812 73.4703C161.71 80.7704 154.743 84.6421 150.251 82.1179L142.547 60.3963L165.813 73.4695L165.812 73.4703Z" fill="#D9D9D9" fill-opacity="0.5"/>
<path d="M149.482 64.2943C145.38 71.5943 138.412 75.466 133.92 72.9418L126.217 51.2202L149.482 64.2935L149.482 64.2943Z" fill="#D9D9D9" fill-opacity="0.5"/>
<path d="M101.282 58.8563C103.544 66.9189 109.399 72.3269 114.36 70.9354L126.977 51.6485L101.282 58.8555L101.282 58.8563Z" fill="#D9D9D9" fill-opacity="0.5"/>
<path d="M88.3351 51.581C90.5964 59.6435 96.4519 65.0515 101.413 63.66L114.03 44.3731L88.3348 51.5801L88.3351 51.581Z" fill="#D9D9D9" fill-opacity="0.5"/>
<path d="M184.525 62.3387C182.263 54.2762 176.408 48.8681 171.447 50.2597L158.83 69.5465L184.525 62.3396L184.525 62.3387Z" fill="#D9D9D9" fill-opacity="0.5"/>
<path d="M168.194 53.1612C165.933 45.0987 160.077 39.6906 155.116 41.0822L142.499 60.3691L168.194 53.1621L168.194 53.1612Z" fill="#D9D9D9" fill-opacity="0.5"/>
<path d="M151.864 43.9855C149.602 35.9229 143.747 30.5149 138.786 31.9064L126.169 51.1933L151.864 43.9863L151.864 43.9855Z" fill="#D9D9D9" fill-opacity="0.5"/>
<path d="M119.724 25.9247C127.786 23.6633 135.45 25.8523 136.842 30.8136L126.93 51.6202L119.723 25.9249L119.724 25.9247Z" fill="#D9D9D9" fill-opacity="0.5"/>
<path d="M106.776 18.6493C114.838 16.3879 122.503 18.5769 123.894 23.5382L113.982 44.3448L106.775 18.6496L106.776 18.6493Z" fill="#D9D9D9" fill-opacity="0.5"/>
<path d="M166.084 95.2684C158.021 97.5298 150.357 95.3408 148.965 90.3795L158.878 69.5729L166.084 95.2682L166.084 95.2684Z" fill="#D9D9D9" fill-opacity="0.5"/>
<path d="M149.753 86.0929C141.691 88.3542 134.026 86.1653 132.635 81.204L142.547 60.3973L149.754 86.0926L149.753 86.0929Z" fill="#D9D9D9" fill-opacity="0.5"/>
<path d="M133.423 76.9171C125.36 79.1785 117.696 76.9895 116.305 72.0282L126.217 51.2216L133.424 76.9169L133.423 76.9171Z" fill="#D9D9D9" fill-opacity="0.5"/>
<path d="M201.159 93.332L167.821 74.5989" stroke="#D9D9D9" stroke-opacity="0.5" stroke-width="12.7903" stroke-linecap="round" stroke-linejoin="round"/>
<path d="M103.663 38.5474C99.5613 45.8475 99.8777 53.812 104.37 56.3362L126.929 51.6199L103.664 38.5466L103.663 38.5474Z" fill="#D9D9D9" fill-opacity="0.5"/>
<path d="M103.664 38.5463C107.766 31.2462 114.734 27.3745 119.226 29.8987L126.929 51.6203L103.664 38.5471L103.664 38.5463Z" fill="#D9D9D9" fill-opacity="0.5"/>
<path d="M164.783 35.0728C160.681 42.3729 160.997 50.3374 165.489 52.8616L188.049 48.1453L164.783 35.072L164.783 35.0728Z" fill="#D9D9D9" fill-opacity="0.5"/>
<path d="M256.211 86.4457C260.313 79.1456 259.996 71.1811 255.504 68.6569L232.945 73.3733L256.21 86.4465L256.211 86.4457Z" fill="#D9D9D9" fill-opacity="0.5"/>
<path d="M239.88 77.269C243.982 69.9689 243.666 62.0044 239.174 59.4802L216.614 64.1965L239.88 77.2698L239.88 77.269Z" fill="#D9D9D9" fill-opacity="0.5"/>
<path d="M223.55 68.0922C227.652 60.7921 227.335 52.8276 222.843 50.3034L200.284 55.0198L223.549 68.093L223.55 68.0922Z" fill="#D9D9D9" fill-opacity="0.5"/>
<path d="M164.784 35.0707C168.886 27.7706 175.853 23.899 180.345 26.4232L188.049 48.1447L164.783 35.0715L164.784 35.0707Z" fill="#D9D9D9" fill-opacity="0.5"/>
<path d="M256.21 86.4468C252.108 93.7469 245.14 97.6186 240.648 95.0944L232.945 73.3728L256.21 86.4461L256.21 86.4468Z" fill="#D9D9D9" fill-opacity="0.5"/>
<path d="M239.879 77.2701C235.777 84.5702 228.81 88.4419 224.318 85.9177L216.614 64.1961L239.88 77.2693L239.879 77.2701Z" fill="#D9D9D9" fill-opacity="0.5"/>
<path d="M223.549 68.0943C219.447 75.3944 212.479 79.2661 207.987 76.7419L200.284 55.0203L223.549 68.0935L223.549 68.0943Z" fill="#D9D9D9" fill-opacity="0.5"/>
<path d="M175.349 62.6561C177.611 70.7187 183.466 76.1267 188.427 74.7352L201.044 55.4483L175.349 62.6553L175.349 62.6561Z" fill="#D9D9D9" fill-opacity="0.5"/>
<path d="M162.402 55.3817C164.663 63.4443 170.519 68.8523 175.48 67.4608L188.097 48.1739L162.402 55.3809L162.402 55.3817Z" fill="#D9D9D9" fill-opacity="0.5"/>
<path d="M258.592 66.1378C256.33 58.0753 250.475 52.6672 245.514 54.0587L232.897 73.3456L258.592 66.1387L258.592 66.1378Z" fill="#D9D9D9" fill-opacity="0.5"/>
<path d="M242.261 56.961C240 48.8985 234.144 43.4904 229.183 44.882L216.566 64.1689L242.261 56.9619L242.261 56.961Z" fill="#D9D9D9" fill-opacity="0.5"/>
<path d="M225.931 47.7853C223.67 39.7227 217.814 34.3147 212.853 35.7062L200.236 54.9931L225.931 47.7861L225.931 47.7853Z" fill="#D9D9D9" fill-opacity="0.5"/>
<path d="M193.79 29.7245C201.853 27.4631 209.517 29.6521 210.909 34.6134L200.997 55.42L193.79 29.7247L193.79 29.7245Z" fill="#D9D9D9" fill-opacity="0.5"/>
<path d="M180.843 22.4491C188.906 20.1878 196.57 22.3767 197.962 27.338L188.049 48.1447L180.842 22.4494L180.843 22.4491Z" fill="#D9D9D9" fill-opacity="0.5"/>
<path d="M240.15 99.0694C232.088 101.331 224.424 99.1419 223.032 94.1806L232.944 73.3739L240.151 99.0692L240.15 99.0694Z" fill="#D9D9D9" fill-opacity="0.5"/>
<path d="M223.82 89.8927C215.757 92.154 208.093 89.9651 206.702 85.0038L216.614 64.1971L223.821 89.8924L223.82 89.8927Z" fill="#D9D9D9" fill-opacity="0.5"/>
<path d="M207.49 80.7169C199.427 82.9783 191.763 80.7893 190.371 75.828L200.284 55.0214L207.491 80.7167L207.49 80.7169Z" fill="#D9D9D9" fill-opacity="0.5"/>
<path d="M177.73 42.3472C173.628 49.6473 173.945 57.6118 178.437 60.136L200.996 55.4197L177.731 42.3465L177.73 42.3472Z" fill="#D9D9D9" fill-opacity="0.5"/>
<path d="M177.731 42.3451C181.833 35.0451 188.801 31.1734 193.293 33.6976L200.996 55.4192L177.731 42.3459L177.731 42.3451Z" fill="#D9D9D9" fill-opacity="0.5"/>
<path d="M200.389 29.5704C196.287 36.8705 196.604 44.835 201.096 47.3592L223.655 42.6428L200.39 29.5696L200.389 29.5704Z" fill="#D9D9D9" fill-opacity="0.5"/>
<path d="M291.817 80.9433C295.919 73.6432 295.603 65.6787 291.111 63.1545L268.551 67.8708L291.817 80.9441L291.817 80.9433Z" fill="#D9D9D9" fill-opacity="0.5"/>
<path d="M275.487 71.7653C279.589 64.4652 279.272 56.5007 274.78 53.9765L252.221 58.6929L275.486 71.7661L275.487 71.7653Z" fill="#D9D9D9" fill-opacity="0.5"/>
<path d="M259.156 62.5895C263.258 55.2894 262.942 47.3249 258.45 44.8007L235.89 49.5171L259.156 62.5903L259.156 62.5895Z" fill="#D9D9D9" fill-opacity="0.5"/>
<path d="M200.39 29.5683C204.492 22.2682 211.46 18.3965 215.952 20.9207L223.655 42.6423L200.39 29.5691L200.39 29.5683Z" fill="#D9D9D9" fill-opacity="0.5"/>
<path d="M291.816 80.9434C287.714 88.2435 280.747 92.1152 276.255 89.591L268.551 67.8694L291.817 80.9426L291.816 80.9434Z" fill="#D9D9D9" fill-opacity="0.5"/>
<path d="M275.486 71.7676C271.384 79.0677 264.416 82.9394 259.924 80.4152L252.221 58.6936L275.486 71.7669L275.486 71.7676Z" fill="#D9D9D9" fill-opacity="0.5"/>
<path d="M259.155 62.5909C255.053 69.891 248.086 73.7627 243.594 71.2385L235.89 49.5169L259.156 62.5901L259.155 62.5909Z" fill="#D9D9D9" fill-opacity="0.5"/>
<path d="M210.956 57.153C213.217 65.2155 219.073 70.6236 224.034 69.232L236.651 49.9451L210.955 57.1521L210.956 57.153Z" fill="#D9D9D9" fill-opacity="0.5"/>
<path d="M198.008 49.8773C200.27 57.9399 206.125 63.3479 211.087 61.9564L223.703 42.6695L198.008 49.8765L198.008 49.8773Z" fill="#D9D9D9" fill-opacity="0.5"/>
<path d="M294.198 60.6344C291.937 52.5718 286.081 47.1638 281.12 48.5553L268.503 67.8422L294.198 60.6352L294.198 60.6344Z" fill="#D9D9D9" fill-opacity="0.5"/>
<path d="M277.868 51.4584C275.606 43.3958 269.751 37.9878 264.789 39.3793L252.173 58.6662L277.868 51.4592L277.868 51.4584Z" fill="#D9D9D9" fill-opacity="0.5"/>
<path d="M261.537 42.2828C259.276 34.2203 253.421 28.8122 248.459 30.2038L235.842 49.4906L261.538 42.2837L261.537 42.2828Z" fill="#D9D9D9" fill-opacity="0.5"/>
<path d="M229.397 24.2211C237.459 21.9597 245.124 24.1487 246.515 29.11L236.603 49.9166L229.396 24.2213L229.397 24.2211Z" fill="#D9D9D9" fill-opacity="0.5"/>
<path d="M216.449 16.9457C224.512 14.6843 232.176 16.8733 233.568 21.8346L223.655 42.6412L216.448 16.9459L216.449 16.9457Z" fill="#D9D9D9" fill-opacity="0.5"/>
<path d="M275.757 93.566C267.694 95.8274 260.03 93.6384 258.639 88.6772L268.551 67.8705L275.758 93.5658L275.757 93.566Z" fill="#D9D9D9" fill-opacity="0.5"/>
<path d="M259.426 84.3893C251.364 86.6506 243.699 84.4617 242.308 79.5004L252.22 58.6937L259.427 84.389L259.426 84.3893Z" fill="#D9D9D9" fill-opacity="0.5"/>
<path d="M243.096 75.2135C235.034 77.4748 227.369 75.2859 225.978 70.3246L235.89 49.5179L243.097 75.2132L243.096 75.2135Z" fill="#D9D9D9" fill-opacity="0.5"/>
<path d="M213.337 36.845C209.235 44.1451 209.551 52.1096 214.043 54.6338L236.603 49.9175L213.337 36.8443L213.337 36.845Z" fill="#D9D9D9" fill-opacity="0.5"/>
<path d="M213.338 36.8427C217.44 29.5426 224.407 25.6709 228.899 28.1951L236.603 49.9167L213.337 36.8435L213.338 36.8427Z" fill="#D9D9D9" fill-opacity="0.5"/>
<path d="M88.9623 83.9507C87.8583 92.2513 91.1043 99.5312 96.2121 100.211L115.416 87.4681L88.9624 83.9498L88.9623 83.9507Z" fill="#D9D9D9" fill-opacity="0.5"/>
<path d="M192.919 97.7739C194.023 89.4733 190.777 82.1934 185.669 81.5141L166.465 94.2565L192.919 97.7748L192.919 97.7739Z" fill="#D9D9D9" fill-opacity="0.5"/>
<path d="M174.351 95.3049C175.455 87.0043 172.209 79.7244 167.101 79.0451L147.897 91.7875L174.351 95.3058L174.351 95.3049Z" fill="#D9D9D9" fill-opacity="0.5"/>
<path d="M155.782 92.8344C156.886 84.5339 153.64 77.254 148.532 76.5746L129.328 89.317L155.782 92.8353L155.782 92.8344Z" fill="#D9D9D9" fill-opacity="0.5"/>
<path d="M88.9625 83.9487C90.0665 75.6481 95.1024 69.4697 100.21 70.149L115.416 87.4679L88.9624 83.9496L88.9625 83.9487Z" fill="#D9D9D9" fill-opacity="0.5"/>
<path d="M192.919 97.7759C191.815 106.076 186.779 112.255 181.671 111.576L166.465 94.2567L192.919 97.775L192.919 97.7759Z" fill="#D9D9D9" fill-opacity="0.5"/>
<path d="M174.35 95.3062C173.247 103.607 168.211 109.785 163.103 109.106L147.897 91.787L174.351 95.3053L174.35 95.3062Z" fill="#D9D9D9" fill-opacity="0.5"/>
<path d="M155.782 92.8365C154.678 101.137 149.642 107.315 144.534 106.636L129.328 89.3173L155.782 92.8356L155.782 92.8365Z" fill="#D9D9D9" fill-opacity="0.5"/>
<path d="M109 105.652C114.089 112.302 121.532 115.155 125.624 112.023L130.193 89.4336L109 105.652L109 105.652Z" fill="#D9D9D9" fill-opacity="0.5"/>
<path d="M94.278 103.694C99.3668 110.344 106.81 113.197 110.902 110.065L115.471 87.4756L94.2774 103.694L94.278 103.694Z" fill="#D9D9D9" fill-opacity="0.5"/>
<path d="M187.603 78.0303C182.515 71.3803 175.072 68.5279 170.98 71.6593L166.41 94.249L187.604 78.0311L187.603 78.0303Z" fill="#D9D9D9" fill-opacity="0.5"/>
<path d="M169.035 75.5613C163.946 68.9113 156.503 66.0589 152.411 69.1903L147.842 91.78L169.036 75.5621L169.035 75.5613Z" fill="#D9D9D9" fill-opacity="0.5"/>
<path d="M150.466 73.0919C145.377 66.4419 137.934 63.5895 133.842 66.7208L129.273 89.3105L150.467 73.0926L150.466 73.0919Z" fill="#D9D9D9" fill-opacity="0.5"/>
<path d="M113.921 68.2318C120.571 63.143 128.501 62.3351 131.632 66.4272L130.138 89.4259L113.92 68.2323L113.921 68.2318Z" fill="#D9D9D9" fill-opacity="0.5"/>
<path d="M99.1992 66.2735C105.849 61.1847 113.779 60.3769 116.91 64.4689L115.416 87.4676L99.1984 66.2741L99.1992 66.2735Z" fill="#D9D9D9" fill-opacity="0.5"/>
<path d="M182.682 115.452C176.032 120.541 168.102 121.348 164.971 117.256L166.465 94.2577L182.683 115.451L182.682 115.452Z" fill="#D9D9D9" fill-opacity="0.5"/>
<path d="M164.114 112.982C157.464 118.071 149.534 118.879 146.403 114.787L147.897 91.788L164.115 112.982L164.114 112.982Z" fill="#D9D9D9" fill-opacity="0.5"/>
<path d="M145.545 110.512C138.895 115.601 130.966 116.409 127.834 112.317L129.328 89.3183L145.546 110.512L145.545 110.512Z" fill="#D9D9D9" fill-opacity="0.5"/>
<path d="M214.541 100.651L176.634 95.6094" stroke="#D9D9D9" stroke-opacity="0.5" stroke-width="12.7903" stroke-linecap="round" stroke-linejoin="round"/>
<path d="M103.684 85.9078C102.58 94.2083 105.826 101.488 110.934 102.168L130.138 89.4252L103.684 85.9069L103.684 85.9078Z" fill="#D9D9D9" fill-opacity="0.5"/>
<path d="M103.684 85.9065C104.788 77.6059 109.824 71.4274 114.932 72.1068L130.138 89.4256L103.684 85.9073L103.684 85.9065Z" fill="#D9D9D9" fill-opacity="0.5"/>
</svg>
