<svg width="232" height="92" viewBox="0 0 232 92" fill="none" xmlns="http://www.w3.org/2000/svg">
<path d="M164.456 52.5087C158.484 51.9355 153.91 46.2761 157.459 41.438C161.543 35.8693 168.372 32.5315 175.745 33.2393C183.119 33.947 189.188 38.5229 192.139 44.7669C194.702 50.1915 189.135 54.8776 183.163 54.3044L164.456 52.5087Z" fill="#01A556"/>
<path d="M182.761 69.1222C176.788 68.5489 172.232 63.0468 175.018 57.7328C180.162 47.9186 190.882 41.6827 202.592 42.8067C214.302 43.9308 223.641 52.0921 226.824 62.7055C228.548 68.4523 223.028 72.9873 217.056 72.4141L182.761 69.1222Z" fill="#00C800"/>
<path d="M135.153 63.806C129.181 63.2328 124.625 57.7306 127.41 52.4166C132.554 42.6025 143.274 36.3665 154.985 37.4906C166.695 38.6146 176.033 46.7759 179.217 57.3893C180.94 63.1362 175.421 67.6712 169.449 67.0979L135.153 63.806Z" fill="#00C800"/>
<path d="M129.632 71.0153C123.66 70.442 119.086 64.7794 122.648 59.9512C126.715 54.4378 133.492 51.1367 140.808 51.839C148.124 52.5412 154.15 57.0712 157.094 63.2576C159.672 68.6751 154.105 73.3644 148.133 72.7911L129.632 71.0153Z" fill="#01A556"/>
<path d="M188.325 76.65C182.353 76.0768 177.78 70.4142 181.341 65.5859C185.408 60.0725 192.186 56.7715 199.502 57.4737C206.818 58.176 212.843 62.706 215.787 68.8923C218.366 74.3099 212.799 78.9991 206.826 78.4259L188.325 76.65Z" fill="#016303"/>
<path d="M156.779 81.6383C150.937 83.0029 144.855 79.2345 145.874 73.3219C147.673 62.8828 155.523 54.0195 166.487 51.4587C177.451 48.8979 188.415 53.3671 194.652 61.9294C198.184 66.779 194.401 72.8513 188.559 74.2159L156.779 81.6383Z" fill="#00C800"/>
<path d="M192.568 51.8287C186.569 51.7341 181.569 46.6301 183.774 41.05C187.193 32.3946 194.475 26.4665 202.813 26.598C211.151 26.7295 218.242 32.8842 221.387 41.6431C223.414 47.2899 218.256 52.2337 212.257 52.1391L192.568 51.8287Z" fill="#01A556"/>
<path d="M88.9947 38.9843C82.9957 38.8897 78.0692 33.8775 79.5625 28.0665C83.5987 12.36 95.674 1.0396 109.761 1.26173C123.847 1.48384 135.56 13.1794 139.099 29.0053C140.409 34.8605 135.327 39.7149 129.328 39.6203L88.9947 38.9843Z" fill="#016303"/>
<path d="M105.691 59.4694C99.6916 59.3748 94.8056 54.3975 95.9039 48.4992C100.35 24.6208 117.943 6.90728 138.68 7.23426C159.417 7.56124 176.443 25.8207 180.135 49.8273C181.046 55.7574 176.006 60.5782 170.007 60.4836L105.691 59.4694Z" fill="#00C800"/>
<path d="M47.0505 58.5453C41.0515 58.4507 36.1655 53.4735 37.2638 47.5751C41.7102 23.6968 59.3032 5.9832 80.0403 6.31019C100.776 6.63716 117.803 24.8966 121.494 48.9033C122.406 54.8333 117.366 59.6541 111.367 59.5595L47.0505 58.5453Z" fill="#00C800"/>
<path d="M39.4602 72.8953C33.4612 72.8008 28.5339 67.7879 30.0345 61.9788C34.0637 46.3805 46.0659 35.144 60.0648 35.3647C74.0631 35.5854 85.7054 47.1948 89.241 62.9124C90.5577 68.7659 85.4748 73.6209 79.4758 73.5263L39.4602 72.8953Z" fill="#01A556"/>
<path d="M129.763 74.3194C123.764 74.2248 118.837 69.212 120.338 63.4029C124.367 47.8045 136.369 36.568 150.368 36.7888C164.366 37.0095 176.009 48.6188 179.544 64.3365C180.861 70.19 175.778 75.045 169.779 74.9504L129.763 74.3194Z" fill="#016303"/>
<path d="M74.4795 80.6187C68.4805 80.5242 63.6003 75.5512 64.6261 69.6398C68.7234 46.0276 84.6982 28.5059 103.495 28.8023C122.291 29.0987 137.706 47.1153 141.057 70.845C141.896 76.7858 136.862 81.6024 130.863 81.5078L74.4795 80.6187Z" fill="#00C800"/>
<path d="M41.4215 54.5953C35.4225 54.5007 30.3416 49.2355 33.3491 44.0439C36.1396 39.2269 40.7491 36.1102 45.916 36.1917C51.0826 36.2731 55.5917 39.5337 58.229 44.4362C61.0713 49.72 55.827 54.8225 49.828 54.7279L41.4215 54.5953Z" fill="#01A556"/>
<path d="M48.8036 67.5184C42.8046 67.4238 37.8066 62.3226 39.9925 56.7352C43.4269 47.9561 50.7937 41.9353 59.233 42.0684C67.6718 42.2014 74.8453 48.4515 78.0014 57.3346C80.0101 62.9881 74.8538 67.9291 68.8548 67.8346L48.8036 67.5184Z" fill="#00C800"/>
<path d="M20.3319 67.0704C14.3329 66.9758 9.33494 61.8746 11.5208 56.2872C14.9552 47.5081 22.322 41.4873 30.7613 41.6204C39.2002 41.7534 46.3737 48.0035 49.5297 56.8866C51.5384 62.5401 46.3821 67.4811 40.3831 67.3866L20.3319 67.0704Z" fill="#00C800"/>
<path d="M11.236 56.1521C5.23697 56.0575 0.15467 50.7882 3.17731 45.6055C5.9563 40.8405 10.5287 37.7608 15.652 37.8416C20.775 37.9223 25.2481 41.1448 27.8756 45.995C30.7333 51.2704 25.4875 56.3768 19.4885 56.2822L11.236 56.1521Z" fill="#01A556"/>
<path d="M71.9703 79.3184C65.9713 79.2238 60.9087 73.8032 64.5483 69.0334C67.3153 65.4073 71.4965 63.1266 76.1413 63.1998C80.7859 63.2731 84.8932 65.6845 87.5445 69.3961C91.0319 74.2782 85.801 79.5365 79.802 79.4419L71.9703 79.3184Z" fill="#016303"/>
<path d="M35.6523 78.5431C29.7134 79.3955 23.9621 75.1248 25.4012 69.3002C27.5575 60.5725 33.8934 53.8451 42.1801 52.6557C50.4665 51.4664 58.439 56.1401 62.9632 63.909C65.9825 69.0937 61.6646 74.8096 55.7257 75.662L35.6523 78.5431Z" fill="#00C800"/>
</svg>
