<svg width="482" height="376" viewBox="0 0 482 376" fill="none" xmlns="http://www.w3.org/2000/svg">
<path d="M172.262 296.956L162.101 291.31L192.601 208.902C193.059 207.665 192.427 206.291 191.19 205.833C189.954 205.375 188.58 206.008 188.122 207.244L157.876 288.965L136.405 277.036C135.252 276.395 133.797 276.811 133.156 277.964C132.516 279.117 132.931 280.572 134.084 281.212L157.98 294.489C157.98 294.489 157.985 294.491 157.986 294.492C157.99 294.494 157.991 294.495 157.994 294.496L169.942 301.135C171.095 301.775 172.55 301.36 173.191 300.206C173.831 299.053 173.416 297.599 172.263 296.958L172.262 296.956Z" fill="#2D2D2D"/>
<path d="M220.071 323.518L198.6 311.588L252.011 242.738C252.819 241.696 252.63 240.196 251.588 239.387C250.546 238.579 249.046 238.768 248.237 239.81L194.377 309.24L184.216 303.595C183.063 302.954 181.608 303.37 180.967 304.523C180.327 305.676 180.742 307.131 181.895 307.771L193.843 314.409C193.843 314.409 193.848 314.412 193.851 314.414C193.852 314.415 193.856 314.416 193.857 314.417L217.753 327.694C218.906 328.334 220.361 327.919 221.001 326.766C221.642 325.612 221.226 324.158 220.073 323.517L220.071 323.518Z" fill="#2D2D2D"/>
<path d="M188.451 123.624C210.687 149.452 207.778 188.415 181.951 210.652C156.123 232.889 117.16 229.979 94.9228 204.153L188.452 123.625L188.451 123.624Z" fill="#231F20"/>
<path d="M259.373 111.418C246.032 95.922 222.653 94.1755 207.157 107.517L231.316 135.575L259.374 111.416L259.373 111.418Z" fill="#231F20"/>
<path d="M94.9214 204.152C108.263 219.648 131.642 221.395 147.138 208.053L122.979 179.995L94.9205 204.154L94.9214 204.152Z" fill="#C7EAFB"/>
<path d="M231.285 135.569L207.128 107.508L122.946 179.976L147.103 208.037L231.285 135.569Z" fill="#231F20"/>
<path d="M325.093 195.575C290.603 189.718 257.895 212.93 252.038 247.421C246.181 281.912 269.394 314.619 303.885 320.476L325.093 195.575Z" fill="#231F20"/>
<path d="M298.227 126.763C318.921 130.277 332.848 149.901 329.333 170.596L291.863 164.233L298.225 126.762L298.227 126.763Z" fill="#231F20"/>
<path d="M303.883 320.476C283.188 316.961 269.262 297.337 272.776 276.643L310.247 283.006L303.884 320.476L303.883 320.476Z" fill="#C7EAFB"/>
<path d="M272.771 276.647L310.241 283.009L329.327 170.599L291.857 164.237L272.771 276.647Z" fill="#231F20"/>
<path d="M348.301 198.31C312.948 196.425 282.758 223.556 280.873 258.912C278.988 294.266 306.119 324.456 341.475 326.34L348.303 198.311L348.301 198.31Z" fill="#231F20"/>
<path d="M313.308 132.247C334.521 133.378 350.8 151.49 349.669 172.703L311.26 170.656L313.308 132.247Z" fill="#231F20"/>
<path d="M341.473 326.339C320.26 325.208 303.981 307.095 305.112 285.882L343.521 287.93L341.473 326.339Z" fill="#6E00FF"/>
<path d="M305.135 285.857L343.544 287.908L349.697 172.682L311.288 170.631L305.135 285.857Z" fill="#231F20"/>
<path d="M358.834 187.541C322.996 200.136 304.156 239.399 316.75 275.235C329.345 311.073 368.608 329.913 404.444 317.319L358.833 187.54L358.834 187.541Z" fill="#231F20"/>
<path d="M297.095 136.335C318.598 128.778 342.155 140.082 349.711 161.585L310.778 175.269L297.094 136.336L297.095 136.335Z" fill="#231F20"/>
<path d="M404.444 317.317C382.941 324.874 359.384 313.57 351.828 292.067L390.761 278.383L404.445 317.316L404.444 317.317Z" fill="#C7EAFB"/>
<path d="M351.828 292.065L390.761 278.382L349.713 161.582L310.779 175.265L351.828 292.065Z" fill="#231F20"/>
<path d="M365.974 175.337C334.067 196.309 325.203 239.175 346.175 271.082C367.148 302.989 410.014 311.853 441.921 290.881L365.975 175.335L365.974 175.337Z" fill="#231F20"/>
<path d="M293.337 140.348C312.481 127.765 338.202 133.083 350.784 152.227L316.121 175.011L293.337 140.348Z" fill="#231F20"/>
<path d="M441.92 290.883C422.776 303.465 397.055 298.147 384.473 279.003L419.136 256.219L441.92 290.883Z" fill="#6E00FF"/>
<path d="M384.474 278.979L419.138 256.197L350.792 152.203L316.128 174.985L384.474 278.979Z" fill="#231F20"/>
<path d="M174.937 101.99C195.213 131.012 188.124 170.978 159.099 191.255C130.076 211.531 90.1107 204.442 69.8336 175.417L174.935 101.989L174.937 101.99Z" fill="#231F20"/>
<path d="M249.516 96.8044C237.35 79.3902 213.371 75.1356 195.957 87.3019L217.985 118.833L249.516 96.8044Z" fill="#231F20"/>
<path d="M69.8356 175.418C82.0019 192.832 105.981 197.087 123.395 184.92L101.366 153.39L69.8356 175.418Z" fill="#6E00FF"/>
<path d="M218.007 118.844L195.976 87.3145L101.388 153.407L123.419 184.936L218.007 118.844Z" fill="#231F20"/>
<path d="M178.518 87.3575C186.755 124.44 163.369 161.178 126.289 169.415C89.206 177.652 52.4679 154.267 44.2314 117.186L178.519 87.3584L178.518 87.3575Z" fill="#231F20"/>
<path d="M254.609 112.73C249.667 90.4805 227.625 76.4501 205.375 81.3929L214.323 121.679L254.609 112.732L254.609 112.73Z" fill="#231F20"/>
<path d="M44.2323 117.185C49.1751 139.434 71.2169 153.465 93.4664 148.522L84.5191 108.236L44.2332 117.183L44.2323 117.185Z" fill="#C7EAFB"/>
<path d="M214.326 121.678L205.377 81.3926L84.5195 108.238L93.468 148.524L214.326 121.678Z" fill="#231F20"/>
<path d="M185.109 74.8482C184.157 113.019 152.442 143.189 114.271 142.237C76.1009 141.284 45.9302 109.569 46.8828 71.3986L185.11 74.8467L185.109 74.8482Z" fill="#231F20"/>
<path d="M253.188 118.041C253.759 95.1386 235.657 76.1089 212.755 75.5384L211.721 117.006L253.188 118.041Z" fill="#231F20"/>
<path d="M46.882 71.4005C46.3114 94.3025 64.4135 113.332 87.3154 113.903L88.3498 72.4349L46.882 71.4005Z" fill="#6E00FF"/>
<path d="M211.727 117.017L212.759 75.5498L88.3552 72.452L87.3226 113.919L211.727 117.017Z" fill="#231F20"/>
<path d="M348.925 130.527L232.204 65.6768L199.779 124.036L316.5 188.886L348.925 130.527Z" fill="#2D2D2D"/>
<path d="M316.5 188.887L199.779 124.038L167.354 182.397L284.075 247.247L316.5 188.887Z" fill="#2D2D2D"/>
<path d="M258.118 156.449C290.349 174.356 330.995 162.745 348.902 130.513C366.81 98.2822 355.198 57.6367 322.967 39.7292C290.736 21.8216 250.09 33.4332 232.183 65.6644C214.275 97.8956 225.887 138.541 258.118 156.449Z" fill="#2D2D2D"/>
<path d="M193.29 273.182C225.521 291.089 266.166 279.477 284.074 247.246C301.981 215.015 290.37 174.37 258.139 156.462C225.907 138.555 185.262 150.166 167.354 182.397C149.447 214.629 161.058 255.274 193.29 273.182Z" fill="#2D2D2D"/>
<path d="M268.582 79.2239C277.579 84.2227 288.924 80.9814 293.923 71.9844C298.922 62.9873 295.681 51.6415 286.684 46.6428C277.687 41.6441 266.341 44.8853 261.342 53.8824C256.343 62.8794 259.585 74.2252 268.582 79.2239Z" fill="white"/>
<path d="M273.106 71.0797C277.605 73.5793 283.279 71.9585 285.778 67.4596C288.278 62.9607 286.657 57.2872 282.158 54.7876C277.659 52.288 271.986 53.9088 269.486 58.4078C266.987 62.9067 268.607 68.5801 273.106 71.0797Z" fill="#231F20"/>
<path d="M272.68 58.7768C276.223 60.7454 280.691 59.4689 282.66 55.9256C284.629 52.3824 283.352 47.914 279.809 45.9454C276.265 43.9768 271.797 45.2533 269.829 48.7966C267.86 52.3399 269.136 56.8082 272.68 58.7768Z" fill="white"/>
<path d="M240.386 112.605C253.575 119.932 270.207 115.181 277.535 101.992C284.863 88.803 280.111 72.1709 266.922 64.8432C253.733 57.5155 237.101 62.2669 229.773 75.4559C222.446 88.6448 227.197 105.277 240.386 112.605Z" fill="#2D2D2D"/>
<path d="M318.205 106.794C327.202 111.793 338.548 108.552 343.546 99.5547C348.545 90.5576 345.304 79.2118 336.307 74.2131C327.31 69.2144 315.964 72.4556 310.965 81.4527C305.966 90.4497 309.208 101.796 318.205 106.794Z" fill="white"/>
<path d="M322.73 98.65C327.229 101.15 332.902 99.5289 335.402 95.0299C337.902 90.531 336.281 84.8575 331.782 82.358C327.283 79.8584 321.609 81.4791 319.11 85.9781C316.61 90.477 318.231 96.1504 322.73 98.65Z" fill="#231F20"/>
<path d="M322.305 86.3481C325.848 88.3167 330.317 87.0402 332.285 83.4969C334.254 79.9536 332.978 75.4853 329.434 73.5167C325.891 71.548 321.423 72.8246 319.454 76.3678C317.485 79.9111 318.762 84.3794 322.305 86.3481Z" fill="white"/>
<path d="M304.757 148.368C317.946 155.696 334.578 150.945 341.905 137.756C349.233 124.567 344.482 107.935 331.293 100.607C318.104 93.2792 301.472 98.0306 294.144 111.22C286.816 124.408 291.568 141.04 304.757 148.368Z" fill="#2D2D2D"/>
<path d="M295.815 88.5978C281.621 80.7122 264.214 84.9406 256.935 98.0416L258.118 156.451L295.816 88.5987L295.815 88.5978Z" fill="#C7EAFB"/>
<path d="M308.337 126.6C315.616 113.499 310.011 96.4853 295.817 88.5996L258.119 156.452L308.338 126.601L308.337 126.6Z" fill="#6E00FF"/>
<path d="M359.603 97.5598L354.032 94.337C354.032 94.337 353.829 94.2194 353.747 94.1723C354.675 84.2204 349.892 74.1007 340.662 68.7608C328.626 61.7977 313.355 65.3981 305.664 76.6276C304.446 75.5442 303.04 74.7848 301.47 74.3091C307.5 62.0106 302.991 46.9138 290.915 39.9272C281.684 34.5873 270.551 35.445 262.386 41.2097L257.018 38.1045C255.88 37.4459 254.406 37.8365 253.749 38.9707C253.093 40.1049 253.49 41.5776 254.628 42.2363L258.572 44.5181C257.181 45.9842 255.947 47.6489 254.893 49.4717C247.628 62.0288 251.969 78.1645 264.575 85.4569C276.204 92.1847 290.879 89.0508 298.77 78.6943C300.557 78.7009 302.231 79.5609 303.262 80.9683C298.066 93.046 302.635 107.475 314.345 114.25C326.95 121.542 343.103 117.263 350.367 104.706C351.422 102.883 352.249 100.983 352.827 99.0463L357.3 101.634C358.439 102.293 359.913 101.902 360.569 100.768C361.225 99.6336 360.829 98.1609 359.69 97.5022L359.603 97.5598ZM266.895 81.4468C256.567 75.4717 253.018 62.2813 258.97 51.9926C264.922 41.7039 278.126 38.2053 288.454 44.1804C298.782 50.1554 302.331 63.3457 296.379 73.6345C290.427 83.9232 277.223 87.4218 266.895 81.4468ZM316.624 110.216C306.296 104.241 302.747 91.051 308.7 80.7623C314.652 70.4735 327.856 66.9749 338.184 72.95C348.512 78.925 352.061 92.1155 346.109 102.404C340.157 112.693 326.953 116.191 316.624 110.216Z" fill="#00C800"/>
</svg>
