<svg width="373" height="205" viewBox="0 0 373 205" fill="none" xmlns="http://www.w3.org/2000/svg">
<path d="M127.846 95.5972L145.445 47.9727" stroke="#4C4735" stroke-width="3.99827" stroke-linecap="round"/>
<path d="M136.189 90.1521L172.035 69.3428" stroke="#4C4735" stroke-width="3.99827" stroke-linecap="round"/>
<path d="M172.979 151.666L287.257 137.972M91.915 143.323L151.887 155.444M210.127 101.768L232.479 60.2129" stroke="#4C4735" stroke-width="3.99827" stroke-linecap="round"/>
<path d="M109.387 110.291L166.054 146.195" stroke="#4C4735" stroke-width="3.99827" stroke-linecap="round"/>
<path d="M303.627 109.682L207.924 145.963" stroke="#4C4735" stroke-width="3.99827" stroke-linecap="round"/>
<path d="M287.257 143.323L207.924 155.916" stroke="#4C4735" stroke-width="3.99827" stroke-linecap="round"/>
<path d="M255.775 121.286L135.202 125.25" stroke="#4C4735" stroke-width="3.99827" stroke-linecap="round"/>
<path d="M312.756 91.4798L232.479 132.305" stroke="#4C4735" stroke-width="3.99827" stroke-linecap="round"/>
<path d="M148.109 113.415L65.3135 126.264" stroke="#4C4735" stroke-width="3.99827" stroke-linecap="round"/>
<path d="M327.519 129.826L312.034 81.5203" stroke="#4C4735" stroke-width="3.99827" stroke-linecap="round"/>
<path d="M93.0168 147.869L66.7817 69.822" stroke="#4C4735" stroke-width="3.99827" stroke-linecap="round"/>
<path d="M73.7218 124.469L48.7285 70.8552" stroke="#4C4735" stroke-width="3.99827" stroke-linecap="round"/>
<path d="M324.966 116.142L349.319 69.5186" stroke="#4C4735" stroke-width="3.99827" stroke-linecap="round"/>
<path d="M237.036 154.937L258.175 136.099L335.091 132.039L336.906 103.892L370.053 105.422" stroke="#4C4735" stroke-width="3.99827" stroke-linecap="round"/>
<path d="M187.499 157.502L102.626 155.087L37.8671 103.887L82.722 57.8879L37.8671 30.6205" stroke="#4C4735" stroke-width="3.99827" stroke-linecap="round"/>
<path d="M212.055 150.079L142.627 144.398L87.3496 99.5631L121.836 63.7743L79.8443 26.1142" stroke="#4C4735" stroke-width="3.99827" stroke-linecap="round"/>
<path d="M229.858 132.236L155.602 125.46L112.325 55.4016L81.6882 49.9787L96.0077 26.5283" stroke="#4C4735" stroke-width="3.99827" stroke-linecap="round"/>
<path d="M145.498 106.104L75.0302 111.847L42.9815 78.8872L26.6338 83.1875L33.0453 57.3796" stroke="#4C4735" stroke-width="3.99827" stroke-linecap="round"/>
<path d="M247.117 142.548L191.182 99.299L89.301 93.7406L90.1268 56.283L45.8444 58.2517" stroke="#4C4735" stroke-width="3.99827" stroke-linecap="round"/>
<path d="M187.499 157.523L278.193 153.965L324.517 85.7508L300.263 81.4202L341.247 65.0927" stroke="#4C4735" stroke-width="3.99827" stroke-linecap="round"/>
<path d="M280.072 70.3579L234.858 155.369L151.331 131.147L119.742 152.635L83.1005 104.51" stroke="#4C4735" stroke-width="3.99827" stroke-linecap="round"/>
<path d="M283.51 64.6505L279.953 101.79L222.365 120.575L209.213 136.104L177.751 137.338" stroke="#4C4735" stroke-width="3.99827" stroke-linecap="round"/>
<path d="M275.478 134.9L240.212 86.8838L255.366 61.2029L223.298 47.5002" stroke="#4C4735" stroke-width="3.99827" stroke-linecap="round"/>
<path d="M318.318 131.484L290.713 94.0679L302.645 74.0082L277.497 63.3618" stroke="#4C4735" stroke-width="3.99827" stroke-linecap="round"/>
<path d="M198.007 103.972L282.197 89.961L294.055 53.5411L246.488 76.1112L302.21 34.3985" stroke="#4C4735" stroke-width="3.99827" stroke-linecap="round"/>
<path d="M148.871 113.004L234.119 117.661L239.392 83.8461L226.183 77.9987L255.904 50.6634" stroke="#4C4735" stroke-width="3.99827" stroke-linecap="round"/>
<path d="M88.2945 132.291L172.372 154.216L170.162 121.731L140.711 87.6019L164.165 84.6112" stroke="#4C4735" stroke-width="3.99827" stroke-linecap="round"/>
</svg>
