<svg width="552" height="184" viewBox="0 0 552 184" fill="none" xmlns="http://www.w3.org/2000/svg">
<rect width="552" height="184" rx="8" fill="#F3F3F3"/>
<rect x="28" y="25" width="177" height="40" rx="8" fill="#C7EAFB"/>
<path d="M47.9 53H44.86V41.38H40.34V38.64H52.44V41.38H47.9V53ZM56.0903 47.82V53H53.3103V42.32H55.8703V44.38C56.6503 43.02 58.3103 42.2 60.0303 42.2V45.08C57.6703 44.9 56.0903 45.46 56.0903 47.82ZM66.0362 53.18C62.8363 53.18 60.6963 50.96 60.6963 47.62C60.6963 44.44 62.9163 42.12 65.9963 42.12C69.3763 42.12 71.6163 44.86 71.1163 48.34H63.5363C63.7163 50.08 64.5563 51.04 65.9763 51.04C67.1963 51.04 68.0163 50.44 68.3363 49.38H71.0963C70.4963 51.8 68.6363 53.18 66.0362 53.18ZM65.9363 44.16C64.6363 44.16 63.8163 45 63.5763 46.58H68.1763C68.0963 45.1 67.2563 44.16 65.9363 44.16ZM79.3383 53V51.68C78.6383 52.68 77.5783 53.2 76.1183 53.2C73.8983 53.2 72.4183 51.9 72.4183 49.9C72.4183 47.82 74.0983 46.7 77.2183 46.7C77.8183 46.7 78.3383 46.74 78.9983 46.82V46.18C78.9983 44.98 78.3183 44.28 77.1583 44.28C75.9583 44.28 75.2383 44.98 75.1383 46.18H72.6383C72.7983 43.72 74.5783 42.12 77.1583 42.12C79.9583 42.12 81.5983 43.66 81.5983 46.28V53H79.3383ZM75.0383 49.82C75.0383 50.72 75.6783 51.28 76.7183 51.28C78.1383 51.28 78.9983 50.5 78.9983 49.26V48.5C78.3383 48.4 77.8783 48.36 77.3983 48.36C75.8183 48.36 75.0383 48.86 75.0383 49.82ZM90.4777 50.3V52.72C89.7977 53.06 89.1577 53.2 88.3377 53.2C86.1377 53.2 84.7577 51.94 84.7577 49.54V44.7H82.5977V42.32H84.7577V39.16H87.5177V42.32H90.5777V44.7H87.5177V48.9C87.5177 50.14 88.0777 50.64 89.0777 50.64C89.5977 50.64 90.0777 50.52 90.4777 50.3ZM95.0552 53H92.2752V42.32H94.8352V43.84C95.6152 42.76 96.6152 42.12 98.0352 42.12C99.4952 42.12 100.615 42.8 101.155 44.02C101.995 42.84 103.075 42.12 104.675 42.12C106.835 42.12 108.295 43.54 108.295 46.1V53H105.535V46.98C105.535 45.48 104.895 44.58 103.675 44.58C102.575 44.58 101.675 45.44 101.675 47.04V53H98.9152V46.98C98.9152 45.48 98.2752 44.58 97.0552 44.58C95.9352 44.58 95.0552 45.44 95.0552 47.04V53ZM115.314 53.18C112.114 53.18 109.974 50.96 109.974 47.62C109.974 44.44 112.194 42.12 115.274 42.12C118.654 42.12 120.894 44.86 120.394 48.34H112.814C112.994 50.08 113.834 51.04 115.254 51.04C116.474 51.04 117.294 50.44 117.614 49.38H120.374C119.774 51.8 117.914 53.18 115.314 53.18ZM115.214 44.16C113.914 44.16 113.094 45 112.854 46.58H117.454C117.374 45.1 116.534 44.16 115.214 44.16ZM125.036 47.18V53H122.256V42.32H124.816V43.84C125.596 42.78 126.696 42.12 128.096 42.12C130.236 42.12 131.716 43.52 131.716 46.1V53H128.956V47.04C128.956 45.46 128.336 44.58 127.076 44.58C125.976 44.58 125.036 45.46 125.036 47.18ZM140.673 50.3V52.72C139.993 53.06 139.353 53.2 138.533 53.2C136.333 53.2 134.953 51.94 134.953 49.54V44.7H132.793V42.32H134.953V39.16H137.713V42.32H140.773V44.7H137.713V48.9C137.713 50.14 138.273 50.64 139.273 50.64C139.793 50.64 140.273 50.52 140.673 50.3ZM153.31 53H150.27V41.38H145.75V38.64H157.85V41.38H153.31V53ZM168.712 42.32L163.512 56.86H160.492L162.012 52.88L157.812 42.32H160.812L163.492 49.64L165.932 42.32H168.712ZM180.591 47.66C180.591 50.82 178.731 53.2 175.851 53.2C174.591 53.2 173.511 52.66 172.711 51.62V56.86H169.931V42.32H172.491V43.88C173.311 42.74 174.491 42.12 175.851 42.12C178.731 42.12 180.591 44.52 180.591 47.66ZM177.731 47.66C177.731 45.66 176.591 44.58 175.231 44.58C173.871 44.58 172.731 45.64 172.731 47.66C172.731 49.68 173.871 50.72 175.231 50.72C176.591 50.72 177.731 49.7 177.731 47.66ZM187.013 53.18C183.813 53.18 181.673 50.96 181.673 47.62C181.673 44.44 183.893 42.12 186.973 42.12C190.353 42.12 192.593 44.86 192.093 48.34H184.513C184.693 50.08 185.533 51.04 186.953 51.04C188.173 51.04 188.993 50.44 189.313 49.38H192.073C191.473 51.8 189.613 53.18 187.013 53.18ZM186.913 44.16C185.613 44.16 184.793 45 184.553 46.58H189.153C189.073 45.1 188.233 44.16 186.913 44.16Z" fill="black"/>
<rect x="347" y="25" width="181" height="44" rx="8" fill="#C7EAFB"/>
<path d="M375.5 50.54C375.5 53.28 373.3 55.2 369.7 55.2C366.08 55.2 363.82 53.26 363.6 50.22H366.68C366.76 51.8 367.78 52.82 369.64 52.82C371.18 52.82 372.28 52.14 372.28 50.98C372.28 50.08 371.58 49.54 370.36 49.3L368 48.84C365.82 48.42 364.14 47.24 364.14 44.86C364.14 42.3 366.4 40.46 369.5 40.46C372.72 40.46 375.08 42.34 375.28 45.34H372.2C372.1 43.84 371.06 42.82 369.54 42.82C368.06 42.82 367.22 43.66 367.22 44.66C367.22 45.64 368.12 46.06 369.16 46.26L371.62 46.76C374.14 47.26 375.5 48.42 375.5 50.54ZM383.904 50.5V44.32H386.664V55H384.124V53.6C383.544 54.54 382.364 55.2 381.004 55.2C378.864 55.2 377.304 53.9 377.304 51.12V44.32H380.084V50.58C380.084 52.08 380.824 52.74 381.944 52.74C382.944 52.74 383.904 51.94 383.904 50.5ZM391.942 49.82V55H389.162V44.32H391.722V46.38C392.502 45.02 394.162 44.2 395.882 44.2V47.08C393.522 46.9 391.942 47.46 391.942 49.82ZM407.141 44.32L403.221 55H400.181L396.241 44.32H399.241L401.781 51.84L404.341 44.32H407.141ZM411.581 41.84C411.581 42.78 410.821 43.48 409.721 43.48C408.641 43.48 407.881 42.78 407.881 41.84C407.881 40.86 408.641 40.16 409.721 40.16C410.821 40.16 411.581 40.86 411.581 41.84ZM411.141 55H408.361V44.32H411.141V55ZM423.235 44.32L419.315 55H416.275L412.335 44.32H415.335L417.875 51.84L420.435 44.32H423.235ZM430.541 55V53.68C429.841 54.68 428.781 55.2 427.321 55.2C425.101 55.2 423.621 53.9 423.621 51.9C423.621 49.82 425.301 48.7 428.421 48.7C429.021 48.7 429.541 48.74 430.201 48.82V48.18C430.201 46.98 429.521 46.28 428.361 46.28C427.161 46.28 426.441 46.98 426.341 48.18H423.841C424.001 45.72 425.781 44.12 428.361 44.12C431.161 44.12 432.801 45.66 432.801 48.28V55H430.541ZM426.241 51.82C426.241 52.72 426.881 53.28 427.921 53.28C429.341 53.28 430.201 52.5 430.201 51.26V50.5C429.541 50.4 429.081 50.36 428.601 50.36C427.021 50.36 426.241 50.86 426.241 51.82ZM437.997 55H435.197V40.64H437.997V55ZM447.89 41.84C447.89 42.78 447.13 43.48 446.03 43.48C444.95 43.48 444.19 42.78 444.19 41.84C444.19 40.86 444.95 40.16 446.03 40.16C447.13 40.16 447.89 40.86 447.89 41.84ZM447.45 55H444.67V44.32H447.45V55ZM452.704 49.18V55H449.924V44.32H452.484V45.84C453.264 44.78 454.364 44.12 455.764 44.12C457.904 44.12 459.384 45.52 459.384 48.1V55H456.624V49.04C456.624 47.46 456.004 46.58 454.744 46.58C453.644 46.58 452.704 47.46 452.704 49.18ZM471.299 55H466.199V40.64H471.299C475.859 40.64 478.619 43.56 478.619 47.74C478.619 51.92 475.759 55 471.299 55ZM469.239 43.26V52.38H471.139C473.999 52.38 475.499 50.72 475.499 47.74C475.499 44.88 473.999 43.26 471.139 43.26H469.239ZM486.85 55V53.68C486.15 54.68 485.09 55.2 483.63 55.2C481.41 55.2 479.93 53.9 479.93 51.9C479.93 49.82 481.61 48.7 484.73 48.7C485.33 48.7 485.85 48.74 486.51 48.82V48.18C486.51 46.98 485.83 46.28 484.67 46.28C483.47 46.28 482.75 46.98 482.65 48.18H480.15C480.31 45.72 482.09 44.12 484.67 44.12C487.47 44.12 489.11 45.66 489.11 48.28V55H486.85ZM482.55 51.82C482.55 52.72 483.19 53.28 484.23 53.28C485.65 53.28 486.51 52.5 486.51 51.26V50.5C485.85 50.4 485.39 50.36 484.91 50.36C483.33 50.36 482.55 50.86 482.55 51.82ZM500.755 44.32L495.555 58.86H492.535L494.055 54.88L489.855 44.32H492.855L495.535 51.64L497.975 44.32H500.755ZM510.721 51.58C510.721 53.82 509.021 55.2 505.981 55.2C502.941 55.2 501.241 53.74 501.021 51.36H503.681C503.701 52.46 504.641 53.16 506.021 53.16C507.101 53.16 507.921 52.82 507.921 52.06C507.921 51.38 507.481 51.1 506.461 50.9L504.541 50.54C502.621 50.2 501.461 49.14 501.461 47.48C501.461 45.5 503.161 44.12 505.821 44.12C508.501 44.12 510.341 45.54 510.541 47.84H507.881C507.781 46.8 507.001 46.16 505.821 46.16C504.801 46.16 504.121 46.54 504.121 47.22C504.121 47.86 504.561 48.12 505.521 48.3L507.581 48.68C509.661 49.08 510.721 50.04 510.721 51.58Z" fill="black"/>
<path d="M227 43.5C226.172 43.5 225.5 44.1716 225.5 45C225.5 45.8284 226.172 46.5 227 46.5V43.5ZM326.061 46.0607C326.646 45.4749 326.646 44.5251 326.061 43.9393L316.515 34.3934C315.929 33.8076 314.979 33.8076 314.393 34.3934C313.808 34.9792 313.808 35.9289 314.393 36.5147L322.879 45L314.393 53.4853C313.808 54.0711 313.808 55.0208 314.393 55.6066C314.979 56.1924 315.929 56.1924 316.515 55.6066L326.061 46.0607ZM227 46.5L325 46.5V43.5L227 43.5V46.5Z" fill="#202020"/>
<path d="M438.711 82.3207C439.441 81.9279 439.713 81.0183 439.321 80.2889C438.928 79.5594 438.018 79.2865 437.289 79.6793L438.711 82.3207ZM332.563 136.569C332.325 137.362 332.775 138.199 333.569 138.437L346.5 142.316C347.293 142.554 348.129 142.104 348.367 141.31C348.605 140.517 348.155 139.681 347.362 139.442L335.868 135.994L339.316 124.5C339.554 123.707 339.104 122.871 338.31 122.633C337.517 122.395 336.681 122.845 336.442 123.638L332.563 136.569ZM437.289 79.6793L333.289 135.679L334.711 138.321L438.711 82.3207L437.289 79.6793Z" fill="#202020"/>
<rect x="250" y="115" width="70" height="44" rx="8" fill="#C7EAFB"/>
<path d="M278.22 140.78C278.22 143.44 276.26 145 273.1 145H267.48V130.64H272.88C275.9 130.64 277.76 132 277.76 134.46C277.76 135.78 277.02 136.84 275.74 137.5C277.34 138.06 278.22 139.2 278.22 140.78ZM272.64 133.04H270.24V136.38H272.64C274.12 136.38 274.88 135.74 274.88 134.7C274.88 133.68 274.12 133.04 272.64 133.04ZM272.86 138.8H270.24V142.6H272.86C274.5 142.6 275.36 141.88 275.36 140.66C275.36 139.52 274.5 138.8 272.86 138.8ZM286.949 145L283.189 135.46V145H280.429V130.64H284.069L288.229 141.28L292.409 130.64H296.049V145H293.289V135.38L289.489 145H286.949ZM302.024 145H298.984V130.64H302.024V145Z" fill="#231F20"/>
</svg>
