<svg width="459" height="194" viewBox="0 0 459 194" fill="none" xmlns="http://www.w3.org/2000/svg">
<rect width="459" height="194" rx="8" fill="#F3F3F3"/>
<rect x="205" y="141" width="62" height="39" rx="8" fill="#C7EAFB"/>
<path d="M230.776 163.624C230.776 165.752 229.208 167 226.68 167H222.184V155.512H226.504C228.92 155.512 230.408 156.6 230.408 158.568C230.408 159.624 229.816 160.472 228.792 161C230.072 161.448 230.776 162.36 230.776 163.624ZM226.312 157.432H224.392V160.104H226.312C227.496 160.104 228.104 159.592 228.104 158.76C228.104 157.944 227.496 157.432 226.312 157.432ZM226.488 162.04H224.392V165.08H226.488C227.8 165.08 228.488 164.504 228.488 163.528C228.488 162.616 227.8 162.04 226.488 162.04ZM237.759 167L234.751 159.368V167H232.543V155.512H235.455L238.783 164.024L242.127 155.512H245.039V167H242.831V159.304L239.791 167H237.759ZM249.819 167H247.387V155.512H249.819V167Z" fill="#231F20"/>
<rect x="292" y="45" width="151" height="39" rx="8" fill="#C7EAFB"/>
<path d="M318 67.432C318 69.624 316.24 71.16 313.36 71.16C310.464 71.16 308.656 69.608 308.48 67.176H310.944C311.008 68.44 311.824 69.256 313.312 69.256C314.544 69.256 315.424 68.712 315.424 67.784C315.424 67.064 314.864 66.632 313.888 66.44L312 66.072C310.256 65.736 308.912 64.792 308.912 62.888C308.912 60.84 310.72 59.368 313.2 59.368C315.776 59.368 317.664 60.872 317.824 63.272H315.36C315.28 62.072 314.448 61.256 313.232 61.256C312.048 61.256 311.376 61.928 311.376 62.728C311.376 63.512 312.096 63.848 312.928 64.008L314.896 64.408C316.912 64.808 318 65.736 318 67.432ZM324.723 67.4V62.456H326.931V71H324.899V69.88C324.435 70.632 323.491 71.16 322.403 71.16C320.691 71.16 319.443 70.12 319.443 67.896V62.456H321.667V67.464C321.667 68.664 322.259 69.192 323.155 69.192C323.955 69.192 324.723 68.552 324.723 67.4ZM331.154 66.856V71H328.93V62.456H330.978V64.104C331.602 63.016 332.93 62.36 334.306 62.36V64.664C332.418 64.52 331.154 64.968 331.154 66.856ZM343.313 62.456L340.177 71H337.745L334.593 62.456H336.993L339.025 68.472L341.073 62.456H343.313ZM346.865 60.472C346.865 61.224 346.257 61.784 345.377 61.784C344.513 61.784 343.905 61.224 343.905 60.472C343.905 59.688 344.513 59.128 345.377 59.128C346.257 59.128 346.865 59.688 346.865 60.472ZM346.513 71H344.289V62.456H346.513V71ZM356.188 62.456L353.052 71H350.62L347.468 62.456H349.868L351.9 68.472L353.948 62.456H356.188ZM362.033 71V69.944C361.473 70.744 360.625 71.16 359.457 71.16C357.681 71.16 356.497 70.12 356.497 68.52C356.497 66.856 357.841 65.96 360.337 65.96C360.817 65.96 361.233 65.992 361.761 66.056V65.544C361.761 64.584 361.217 64.024 360.289 64.024C359.329 64.024 358.753 64.584 358.673 65.544H356.673C356.801 63.576 358.225 62.296 360.289 62.296C362.529 62.296 363.841 63.528 363.841 65.624V71H362.033ZM358.593 68.456C358.593 69.176 359.105 69.624 359.937 69.624C361.073 69.624 361.761 69 361.761 68.008V67.4C361.233 67.32 360.865 67.288 360.481 67.288C359.217 67.288 358.593 67.688 358.593 68.456ZM367.998 71H365.758V59.512H367.998V71ZM375.912 60.472C375.912 61.224 375.304 61.784 374.424 61.784C373.56 61.784 372.952 61.224 372.952 60.472C372.952 59.688 373.56 59.128 374.424 59.128C375.304 59.128 375.912 59.688 375.912 60.472ZM375.56 71H373.336V62.456H375.56V71ZM379.763 66.344V71H377.539V62.456H379.587V63.672C380.211 62.824 381.091 62.296 382.211 62.296C383.923 62.296 385.107 63.416 385.107 65.48V71H382.899V66.232C382.899 64.968 382.403 64.264 381.395 64.264C380.515 64.264 379.763 64.968 379.763 66.344ZM394.639 71H390.559V59.512H394.639C398.287 59.512 400.495 61.848 400.495 65.192C400.495 68.536 398.207 71 394.639 71ZM392.991 61.608V68.904H394.511C396.799 68.904 397.999 67.576 397.999 65.192C397.999 62.904 396.799 61.608 394.511 61.608H392.991ZM407.08 71V69.944C406.52 70.744 405.672 71.16 404.504 71.16C402.728 71.16 401.544 70.12 401.544 68.52C401.544 66.856 402.888 65.96 405.384 65.96C405.864 65.96 406.28 65.992 406.808 66.056V65.544C406.808 64.584 406.264 64.024 405.336 64.024C404.376 64.024 403.8 64.584 403.72 65.544H401.72C401.848 63.576 403.272 62.296 405.336 62.296C407.576 62.296 408.888 63.528 408.888 65.624V71H407.08ZM403.64 68.456C403.64 69.176 404.152 69.624 404.984 69.624C406.12 69.624 406.808 69 406.808 68.008V67.4C406.28 67.32 405.912 67.288 405.528 67.288C404.264 67.288 403.64 67.688 403.64 68.456ZM418.204 62.456L414.044 74.088H411.628L412.844 70.904L409.484 62.456H411.884L414.028 68.312L415.98 62.456H418.204ZM426.177 68.264C426.177 70.056 424.817 71.16 422.385 71.16C419.953 71.16 418.593 69.992 418.417 68.088H420.545C420.561 68.968 421.313 69.528 422.417 69.528C423.281 69.528 423.937 69.256 423.937 68.648C423.937 68.104 423.585 67.88 422.769 67.72L421.233 67.432C419.697 67.16 418.769 66.312 418.769 64.984C418.769 63.4 420.129 62.296 422.257 62.296C424.401 62.296 425.873 63.432 426.033 65.272H423.905C423.825 64.44 423.201 63.928 422.257 63.928C421.441 63.928 420.897 64.232 420.897 64.776C420.897 65.288 421.249 65.496 422.017 65.64L423.665 65.944C425.329 66.264 426.177 67.032 426.177 68.264Z" fill="black"/>
<rect x="17" y="47" width="147" height="35" rx="8" fill="#C7EAFB"/>
<path d="M35.32 71H32.888V61.704H29.272V59.512H38.952V61.704H35.32V71ZM41.8723 66.856V71H39.6483V62.456H41.6963V64.104C42.3203 63.016 43.6483 62.36 45.0243 62.36V64.664C43.1363 64.52 41.8723 64.968 41.8723 66.856ZM49.829 71.144C47.269 71.144 45.557 69.368 45.557 66.696C45.557 64.152 47.333 62.296 49.797 62.296C52.501 62.296 54.293 64.488 53.893 67.272H47.829C47.973 68.664 48.645 69.432 49.781 69.432C50.757 69.432 51.413 68.952 51.669 68.104H53.877C53.397 70.04 51.909 71.144 49.829 71.144ZM49.749 63.928C48.709 63.928 48.053 64.6 47.861 65.864H51.541C51.477 64.68 50.805 63.928 49.749 63.928ZM60.4706 71V69.944C59.9106 70.744 59.0626 71.16 57.8946 71.16C56.1186 71.16 54.9346 70.12 54.9346 68.52C54.9346 66.856 56.2786 65.96 58.7746 65.96C59.2546 65.96 59.6706 65.992 60.1986 66.056V65.544C60.1986 64.584 59.6546 64.024 58.7266 64.024C57.7666 64.024 57.1906 64.584 57.1106 65.544H55.1106C55.2386 63.576 56.6626 62.296 58.7266 62.296C60.9666 62.296 62.2786 63.528 62.2786 65.624V71H60.4706ZM57.0306 68.456C57.0306 69.176 57.5426 69.624 58.3746 69.624C59.5106 69.624 60.1986 69 60.1986 68.008V67.4C59.6706 67.32 59.3026 67.288 58.9186 67.288C57.6546 67.288 57.0306 67.688 57.0306 68.456ZM69.3821 68.84V70.776C68.8381 71.048 68.3261 71.16 67.6701 71.16C65.9101 71.16 64.8061 70.152 64.8061 68.232V64.36H63.0781V62.456H64.8061V59.928H67.0141V62.456H69.4621V64.36H67.0141V67.72C67.0141 68.712 67.4621 69.112 68.2621 69.112C68.6781 69.112 69.0621 69.016 69.3821 68.84ZM73.0441 71H70.8201V62.456H72.8681V63.672C73.4921 62.808 74.2921 62.296 75.4281 62.296C76.5961 62.296 77.4921 62.84 77.9241 63.816C78.5961 62.872 79.4601 62.296 80.7401 62.296C82.4681 62.296 83.6361 63.432 83.6361 65.48V71H81.4281V66.184C81.4281 64.984 80.9161 64.264 79.9401 64.264C79.0601 64.264 78.3401 64.952 78.3401 66.232V71H76.1321V66.184C76.1321 64.984 75.6201 64.264 74.6441 64.264C73.7481 64.264 73.0441 64.952 73.0441 66.232V71ZM89.2509 71.144C86.6909 71.144 84.9789 69.368 84.9789 66.696C84.9789 64.152 86.7549 62.296 89.2189 62.296C91.9229 62.296 93.7149 64.488 93.3149 67.272H87.2509C87.3949 68.664 88.0669 69.432 89.2029 69.432C90.1789 69.432 90.8349 68.952 91.0909 68.104H93.2989C92.8189 70.04 91.3309 71.144 89.2509 71.144ZM89.1709 63.928C88.1309 63.928 87.4749 64.6 87.2829 65.864H90.9629C90.8989 64.68 90.2269 63.928 89.1709 63.928ZM97.0285 66.344V71H94.8045V62.456H96.8525V63.672C97.4765 62.824 98.3565 62.296 99.4765 62.296C101.189 62.296 102.373 63.416 102.373 65.48V71H100.165V66.232C100.165 64.968 99.6685 64.264 98.6605 64.264C97.7805 64.264 97.0285 64.968 97.0285 66.344ZM109.538 68.84V70.776C108.994 71.048 108.482 71.16 107.826 71.16C106.066 71.16 104.962 70.152 104.962 68.232V64.36H103.234V62.456H104.962V59.928H107.17V62.456H109.618V64.36H107.17V67.72C107.17 68.712 107.618 69.112 108.418 69.112C108.834 69.112 109.218 69.016 109.538 68.84ZM119.648 71H117.216V61.704H113.6V59.512H123.28V61.704H119.648V71ZM131.969 62.456L127.809 74.088H125.393L126.609 70.904L123.249 62.456H125.649L127.793 68.312L129.745 62.456H131.969ZM141.473 66.728C141.473 69.256 139.985 71.16 137.681 71.16C136.673 71.16 135.809 70.728 135.169 69.896V74.088H132.945V62.456H134.993V63.704C135.649 62.792 136.593 62.296 137.681 62.296C139.985 62.296 141.473 64.216 141.473 66.728ZM139.185 66.728C139.185 65.128 138.273 64.264 137.185 64.264C136.097 64.264 135.185 65.112 135.185 66.728C135.185 68.344 136.097 69.176 137.185 69.176C138.273 69.176 139.185 68.36 139.185 66.728ZM146.61 71.144C144.05 71.144 142.338 69.368 142.338 66.696C142.338 64.152 144.114 62.296 146.578 62.296C149.282 62.296 151.074 64.488 150.674 67.272H144.61C144.754 68.664 145.426 69.432 146.562 69.432C147.538 69.432 148.194 68.952 148.45 68.104H150.658C150.178 70.04 148.69 71.144 146.61 71.144ZM146.53 63.928C145.49 63.928 144.834 64.6 144.642 65.864H148.322C148.258 64.68 147.586 63.928 146.53 63.928Z" fill="black"/>
<path d="M189.186 158.26C189.881 158.709 190.81 158.51 191.26 157.814C191.709 157.119 191.51 156.19 190.814 155.74L189.186 158.26ZM90.6851 91.5334C89.8751 91.7073 89.3595 92.5049 89.5334 93.3149L92.3676 106.514C92.5415 107.324 93.3391 107.84 94.1491 107.666C94.959 107.492 95.4747 106.694 95.3007 105.884L92.7815 94.1517L104.514 91.6324C105.324 91.4585 105.84 90.6609 105.666 89.8509C105.492 89.041 104.694 88.5253 103.884 88.6993L90.6851 91.5334ZM190.391 155.467C189.696 155.017 188.767 155.216 188.317 155.912C187.867 156.608 188.067 157.536 188.763 157.986L190.391 155.467ZM178.609 151.422C179.304 151.872 180.233 151.672 180.683 150.977C181.133 150.281 180.933 149.352 180.237 148.903L178.609 151.422ZM179.391 148.356C178.696 147.906 177.767 148.105 177.317 148.801C176.867 149.497 177.067 150.425 177.763 150.875L179.391 148.356ZM167.609 144.311C168.304 144.761 169.233 144.561 169.683 143.866C170.133 143.17 169.933 142.241 169.237 141.792L167.609 144.311ZM168.391 141.245C167.696 140.795 166.767 140.994 166.317 141.69C165.867 142.386 166.067 143.314 166.763 143.764L168.391 141.245ZM156.609 137.2C157.304 137.65 158.233 137.45 158.683 136.755C159.133 136.059 158.933 135.13 158.237 134.68L156.609 137.2ZM157.391 134.133C156.696 133.684 155.767 133.883 155.317 134.579C154.867 135.275 155.067 136.203 155.763 136.653L157.391 134.133ZM145.609 130.089C146.304 130.539 147.233 130.339 147.683 129.643C148.133 128.948 147.933 128.019 147.237 127.569L145.609 130.089ZM146.391 127.022C145.696 126.573 144.767 126.772 144.317 127.468C143.867 128.163 144.067 129.092 144.763 129.542L146.391 127.022ZM134.609 122.978C135.304 123.427 136.233 123.228 136.683 122.532C137.133 121.837 136.933 120.908 136.237 120.458L134.609 122.978ZM135.391 119.911C134.696 119.461 133.767 119.661 133.317 120.357C132.867 121.052 133.067 121.981 133.763 122.431L135.391 119.911ZM123.609 115.867C124.304 116.316 125.233 116.117 125.683 115.421C126.133 114.725 125.933 113.797 125.237 113.347L123.609 115.867ZM124.391 112.8C123.696 112.35 122.767 112.55 122.317 113.245C121.867 113.941 122.067 114.87 122.763 115.32L124.391 112.8ZM112.609 108.755C113.304 109.205 114.233 109.006 114.683 108.31C115.133 107.614 114.933 106.686 114.237 106.236L112.609 108.755ZM113.391 105.689C112.696 105.239 111.767 105.439 111.317 106.134C110.867 106.83 111.067 107.759 111.763 108.208L113.391 105.689ZM101.609 101.644C102.304 102.094 103.233 101.895 103.683 101.199C104.133 100.503 103.933 99.5747 103.237 99.1249L101.609 101.644ZM102.391 98.5779C101.696 98.1282 100.767 98.3275 100.317 99.0233C99.8675 99.719 100.067 100.648 100.763 101.097L102.391 98.5779ZM90.6087 94.5332C91.3044 94.9829 92.233 94.7836 92.6828 94.0878C93.1325 93.3921 92.9331 92.4636 92.2374 92.0138L90.6087 94.5332ZM190.814 155.74L190.391 155.467L188.763 157.986L189.186 158.26L190.814 155.74ZM180.237 148.903L179.391 148.356L177.763 150.875L178.609 151.422L180.237 148.903ZM169.237 141.792L168.391 141.245L166.763 143.764L167.609 144.311L169.237 141.792ZM158.237 134.68L157.391 134.133L155.763 136.653L156.609 137.2L158.237 134.68ZM147.237 127.569L146.391 127.022L144.763 129.542L145.609 130.089L147.237 127.569ZM136.237 120.458L135.391 119.911L133.763 122.431L134.609 122.978L136.237 120.458ZM125.237 113.347L124.391 112.8L122.763 115.32L123.609 115.867L125.237 113.347ZM114.237 106.236L113.391 105.689L111.763 108.208L112.609 108.755L114.237 106.236ZM103.237 99.1249L102.391 98.5779L100.763 101.097L101.609 101.644L103.237 99.1249ZM92.2374 92.0138L91.8143 91.7403L90.1856 94.2597L90.6087 94.5332L92.2374 92.0138Z" fill="#202020"/>
<path d="M180 64.5C179.172 64.5 178.5 65.1716 178.5 66C178.5 66.8284 179.172 67.5 180 67.5V64.5ZM279.061 67.0607C279.646 66.4749 279.646 65.5251 279.061 64.9393L269.515 55.3934C268.929 54.8076 267.979 54.8076 267.393 55.3934C266.808 55.9792 266.808 56.9289 267.393 57.5147L275.879 66L267.393 74.4853C266.808 75.0711 266.808 76.0208 267.393 76.6066C267.979 77.1924 268.929 77.1924 269.515 76.6066L279.061 67.0607ZM180 67.5H278V64.5H180V67.5Z" fill="#202020"/>
<path d="M161.368 107.728H159.288C159.368 105.728 161.016 104.352 163.224 104.352C165.464 104.352 167 105.616 167 107.392C167 108.288 166.456 109.056 165.56 109.792L164.456 110.672C163.704 111.296 163.592 111.696 163.72 112.544H162.296C161.832 111.344 161.752 110.592 162.696 109.792L163.768 108.88C164.264 108.432 164.536 108.112 164.536 107.568C164.536 106.832 163.96 106.32 163 106.32C162.056 106.32 161.432 106.88 161.368 107.728ZM164.456 114.624C164.456 115.472 163.784 116.08 162.904 116.08C162.008 116.08 161.336 115.472 161.336 114.624C161.336 113.776 161.976 113.152 162.904 113.152C163.8 113.152 164.456 113.776 164.456 114.624Z" fill="#202020"/>
</svg>
